<?xml version="1.0" encoding="utf-8"?>
<!-- Generator: Adobe Illustrator 23.0.1, SVG Export Plug-In . SVG Version: 6.00 Build 0)  -->
<svg version="1.1" id="Livello_1" xmlns="http://www.w3.org/2000/svg" xmlns:xlink="http://www.w3.org/1999/xlink" x="0px" y="0px"
	 width="2648.62px" height="1560.95px" viewBox="0 0 2648.62 1560.95" style="enable-background:new 0 0 2648.62 1560.95;"
	 xml:space="preserve">
<style type="text/css">
	.st0{fill:#05040A;}
	.st1{fill:#FEFEFE;}
	.st2{fill:#160709;}
	.st3{fill:#0D070C;}
	.st4{fill:#23120F;}
	.st5{fill:#251A14;}
	.st6{fill:#170D10;}
	.st7{fill:#0F0508;}
	.st8{fill:#140C0D;}
	.st9{fill:#180F11;}
	.st10{fill:#351E0A;}
	.st11{fill:#492A18;}
	.st12{fill:#1A0F10;}
	.st13{fill:#2A1F16;}
	.st14{fill:#CF994C;}
	.st15{fill:#F5E4AE;}
	.st16{fill:#4C311A;}
	.st17{fill:#6C3C1B;}
	.st18{fill:#28110D;}
	.st19{fill:#5C3215;}
	.st20{fill:#77401C;}
	.st21{fill:#2E160D;}
	.st22{fill:#3C2A1D;}
	.st23{fill:#997749;}
	.st24{fill:#432B12;}
	.st25{fill:#1C130F;}
	.st26{fill:#251511;}
	.st27{fill:#583B1A;}
	.st28{fill:#B08648;}
	.st29{fill:#1E1411;}
	.st30{fill:#C9A16A;}
	.st31{fill:#8E652D;}
	.st32{fill:#A75F2E;}
	.st33{fill:#8E4C1E;}
	.st34{fill:#A97939;}
	.st35{fill:#9A7647;}
	.st36{fill:#3B2F1F;}
	.st37{fill:#573D22;}
	.st38{fill:#7F613A;}
	.st39{fill:#271C1C;}
	.st40{fill:#E5B26A;}
	.st41{fill:#260E1A;}
	.st42{fill:#1C1617;}
	.st43{fill:#5B482B;}
	.st44{fill:#553220;}
	.st45{fill:#685A52;}
	.st46{fill:#402A21;}
	.st47{fill:#4A3415;}
	.st48{fill:#D7BE9A;}
	.st49{fill:#3F2E28;}
	.st50{fill:#25130D;}
	.st51{fill:#4E290D;}
	.st52{fill:#BE763E;}
	.st53{fill:#E6A857;}
	.st54{fill:#5D3314;}
	.st55{fill:#664018;}
	.st56{fill:#41240E;}
	.st57{fill:#CE8954;}
	.st58{fill:#865213;}
	.st59{fill:#53340D;}
	.st60{fill:#9F7F4D;}
	.st61{fill:#A67033;}
	.st62{fill:#72410E;}
	.st63{fill:#824717;}
	.st64{fill:#371405;}
	.st65{fill:#FBE3B3;}
	.st66{fill:#2C100E;}
	.st67{fill:#FAD7A1;}
	.st68{fill:#6D3F20;}
	.st69{fill:#E3B06E;}
	.st70{fill:#9B5E30;}
	.st71{fill:#2B1914;}
	.st72{fill:#D5A763;}
	.st73{fill:#542E16;}
	.st74{fill:#462D14;}
	.st75{fill:#8B5933;}
	.st76{fill:#955731;}
	.st77{fill:#81562E;}
	.st78{fill:#BA905D;}
	.st79{fill:#210E04;}
	.st80{fill:#7B5A50;}
	.st81{fill:#F0B259;}
	.st82{fill:#100707;}
	.st83{fill:#100706;}
	.st84{fill:#CE8C38;}
	.st85{fill:#77450F;}
	.st86{fill:#BF8E53;}
	.st87{fill:#C29965;}
	.st88{fill:#53411F;}
	.st89{fill:#B89770;}
	.st90{fill:#E4B867;}
	.st91{fill:#EAC274;}
	.st92{fill:#C09862;}
	.st93{fill:#50320D;}
	.st94{fill:#48300C;}
	.st95{fill:#C7773D;}
	.st96{fill:#DDB27A;}
	.st97{fill:#654B2F;}
	.st98{fill:#9A8155;}
	.st99{fill:#C5AD7C;}
	.st100{fill:#34190D;}
	.st101{fill:#EFBA7B;}
	.st102{fill:#F5CE94;}
	.st103{fill:#BA8956;}
	.st104{fill:#CB9D63;}
	.st105{fill:#E1AB64;}
	.st106{fill:#734722;}
	.st107{fill:#7F654C;}
	.st108{fill:#7E6041;}
	.st109{fill:#9D815A;}
	.st110{fill:#8B6F4A;}
	.st111{fill:#7B634B;}
	.st112{fill:#11060C;}
	.st113{fill:#895C25;}
	.st114{fill:#EFB161;}
	.st115{fill:#8E543D;}
	.st116{fill:#A57644;}
	.st117{fill:#DFAC70;}
	.st118{fill:#B48041;}
	.st119{fill:#985206;}
	.st120{fill:#B7701C;}
	.st121{fill:#B1731E;}
	.st122{fill:#9D6538;}
	.st123{fill:#AD670D;}
	.st124{fill:#C49456;}
	.st125{fill:#6E4134;}
	.st126{fill:#A06E36;}
	.st127{fill:#E5B677;}
	.st128{fill:#F5C684;}
	.st129{fill:#BC8B48;}
	.st130{fill:#BF7C4A;}
	.st131{fill:#4E1602;}
	.st132{fill:#9E6533;}
	.st133{fill:#F0C890;}
	.st134{fill:#664115;}
	.st135{fill:#F4CC93;}
	.st136{fill:#7B4E1C;}
	.st137{fill:#AD7D3C;}
	.st138{fill:#87591F;}
</style>
<g>
	<g>
		<g>
			<path class="st0" d="M10.66,1544.69c0-504.58,0.11-1009.16-0.42-1513.74C10.22,12.42,12.35,5.85,33.73,5.87
				c865.62,0.7,1731.25,0.7,2596.87,0c21.4-0.02,23.49,6.59,23.47,25.09c-0.52,511.62-0.42,1023.25-0.42,1534.87
				c-9.13,4.89-19,2.44-28.49,2.45c-142.51,0.2-285.02,0.08-427.44,0.16c-22.74-4.46-6.5-13.8-0.78-17.26
				c18.2-11.03,38.3-18.1,60-16.89c13,0.72,24.66,3.38,24.38-16.45c-0.15-10.29,8.45-14.55,18.81-13.37
				c17.52,7.02,34.81,7.09,52.35-0.48c8.71-3.76,18.3-4.1,27.78-3.91c20.59,0.5,41.19-0.69,61.77-0.12
				c11.78,0.33,21.91-3.16,30.65-10.87c10.99-8.36,24.36-8.52,37.18-11.09c18.54-3.72,29.9,2.52,36.64,20.46
				c6.88,18.32,20.8,22.52,42.09,14.33c18.03-6.94,25.49-18.64,14.11-36.58c-6.25-9.85-0.21-18.56,0.36-27.77
				c-19.05-14.12-39.56-8.04-58.81-2.55c-61.34,17.48-123.85,29.61-186.14,42.87c-20.22,0.12-40.51-1.68-60.62,1.34
				c-11.23,1.69-20.82-1.95-30.13-7.24c-19.33-10.97-39.64-13.66-61.14-7.85c-13.9,3.75-27.88,2.91-41.89,0.37
				c-13.05-2.36-26.24-3.21-39.43-1.55c-11.59,1.46-21.04,7.26-21.07,19.61c-0.03,12.47,11.92,11.04,20.01,11.96
				c16.93,1.93,32.31,8.46,47.82,14.59c10.66,4.21,23.71,9.1,21.97,22.76c-1.85,14.56-16.21,14.27-27.44,14.41
				c-16.7,0.21-33.06,0.51-47.15,11.27c-93.13-0.07-186.21-0.02-279.25-0.03c-13.02-2.58-11.78-13.55-12.7-22.69
				c-1.31-13.04,0.04-26.22-1.15-39.31c-1.29-14.15-6.78-27.53-21.39-29.63c-28.19-4.05-43.41-19.63-49.94-46.09
				c-1.03-4.19-5.1-7.01-7.57-10.59c-7.09-16.11-21.19-16.33-35.71-15.92c-78.36,2.23-147.8-24.74-213.12-65.15
				c-23.48-17.97-36.75-39.6-26.07-70.45c1.7-4.92,0.09-10.76-5.5-13.56c-5.72-2.86-10.64,0.07-14.01,4.16
				c-16.23,19.71-32.13,15.84-50.1,1.72c-14.14-11.11-30.7-3.1-45.82-0.72c-37.77,5.96-73.15-28.7-66.71-66.46
				c1.17-6.88,4.05-15.39-4.04-18.65c-7.25-2.92-10.16,5.8-13.11,10.49c-11.7,18.6-26.93,29.06-49.99,27.98
				c-19.36-0.91-30.61-7.1-26.56-28.76c0.8-4.27,0.96-8.78-2.44-12.71c-6.2-3.79-9.41,1.92-13.13,4.94
				c-13.14,10.68-23.93,8.91-32.89-5.38c-3.62-5.76-5.75-13.61-14.99-12.41c-3.79,0.49-6.42,3.1-6.61,7.01
				c-0.42,8.5,6.49,11.8,11.98,16.02c2.09,1.61,4.32,3.07,6.21,4.9c6.42,6.23,13.26,12.94,9.91,22.75
				c-3.71,10.86-13.78,14.56-23.63,12.33c-22.45-5.1-20.63,6.52-17.12,21.56c7.87,33.79,1.37,44.13-31.93,52.01
				c-10.28,2.43-20.79,3.76-31.24,5.21c-12.58,1.74-25.83,2.74-29.79-13.57c-3.9-16.04,2.18-27.53,18.45-32.76
				c3.32-1.07,6.82-1.4,14.67-4.54c-41.15,1.46-74.94,29.21-113.8,12.04c1.82,5.54,7.26,5.25,10.2,8.08
				c8.76,8.44,26.38,12.27,18.17,30.01c-5.33,11.51-39.63,14.71-50.7,5.66c-4.09-3.34-6.44-8.38-10.39-11.91
				c-6.33-5.65-13.39-7.48-16.42,2.25c-4.38,14.08-17.44,22.86-22.25,35.17c-11.76,30.09-37.22,24.55-59.8,27.03
				c-9.11,1-14.47-5.49-17.1-13.71c-6.27-19.62-19.71-23.63-38.93-21.15c-19.11,2.47-38.79,2.56-57.88-1.2
				c-17.89-3.52-29.46,3.34-34.97,19.59c-4.59,13.54-10.8,23.91-26.34,25.72c-4.52,0.52-8.43,3.13-10.8,6.95
				c-22.84,36.88-56.22,65.66-78.38,103.18c-19.45,32.93-54.72,41.52-87.18,39.16c-33.4-2.43-63.13,10.35-95.18,10.95
				c-14.92,0.28-32-7.02-45.38,6.55c-17.22,9.1-36.84,5.93-54.86,10.99c-16.87,2.62-33.83,2.36-50.8,1.86
				c-21.71-0.96-43.43-0.29-65.12-0.39c-15.95,0.72-31.3-1.37-46.41-7.24c-14.27-5.55-29.19-5.11-43.77-0.01
				C40.86,1543.23,27.21,1557.27,10.66,1544.69z"/>
			<path class="st1" d="M1834.34,1564.93c96.89,0.01,193.78,0.01,290.68,0.02c21.2-10.46,42.39-11.02,63.59,0
				c155.02,0.3,310.04,0.59,465.06,0.89c-4.75,10.92-14.27,4.94-21.12,4.96c-126.74,0.44-253.47,0.33-380.21,0.33
				c-739.3,0-1478.61,0.02-2217.91-0.33c-7.73,0-17.91,6.1-23.76-4.96c10.03-9.14,22.54-8.39,34.8-8.79
				c35.92-1.16,71.82,2.22,107.74,0.46c64.96-2.64,129.92,2.48,194.89,0.15c34.02-1.04,68.05-1.08,102.08-0.05
				c126.34-0.7,252.67-0.96,379-0.81c16.67,0.02,33.33,0.21,49.96,1.3c5.03,0.03,10.07,0.05,15.1-0.05
				c36.07-1.61,72.15-0.85,108.22-0.1c12.79-1.09,25.59-0.51,38.39-0.22c14.14,1.21,28.32,0.36,42.49,0.55
				c12.57,0.48,25.13-1.51,37.71-0.36c17.41-0.62,34.81,0.05,52.23-0.04c11.27,0.78,22.54-0.86,33.8,0.06
				c46.01-0.56,92.02-1.88,138.02,0.24c6.49-0.01,12.98,0.11,19.47-0.05c19.25-1.9,38.54,1.08,57.79-0.47
				c28.72-0.86,57.42,0.21,86.12,0.54c9.15-0.26,18.3,0.33,27.45,0.23c5.9-0.03,11.8,0.1,17.7-0.32
				c11.75-0.15,23.33-3.08,35.15-2.32c27.41,3.6,55,0.69,82.47,2.36c20.64,1.03,41.26-2.12,61.89-0.05
				c12.88,0.56,25.76-0.21,38.64-0.03C1792.83,1558.5,1814.62,1552.39,1834.34,1564.93z"/>
			<path class="st2" d="M153.12,1564.98c-47.48,0.28-94.97,0.56-142.45,0.85c0-7.05,0-14.1,0-21.14
				c15.78,3.22,27.79-8.71,42.31-10.52c28.49-3.8,54.5,7.52,81.31,13.66C143.11,1549.85,154.31,1551.13,153.12,1564.98z"/>
			<path class="st3" d="M882.75,1564.91c-144.29-0.01-288.59-0.02-432.88-0.03c1.94-20.43,18.53-19.33,32.39-21.53
				c10.15-1.61,20.88,1.01,30.74-2.53c5.59-2.01,15.28-4.07,5.77-13.41c-16.25-0.93-31.83,5.54-48.1,3.68
				c-39.85,1.36-79.83-3.38-119.46,5.08c-11.55,2.47-24.48,2.57-34-7.83c16.25-21.69,39.14-0.62,58.69-9.02
				c12.52-5.38,29.69,0.98,40.93-12.61c3.1-3.75,7.81-2.96,12.21-1.16c33.26,13.65,63.08,2.45,92.38-12.79
				c8.06-4.19,12.75-10.83,17.98-18.24c17.26-24.44,28.11-54.21,56.29-70.07c3.29-1.85,5.72-6.68,6.89-10.62
				c9.76-32.98,55.62-35.96,61.16-73.65c0.65-4.39,17.39-9.05,28.99-5.71c21.49,6.2,44.97,6.77,65.3,1.29
				c24.87-6.71,31.54,7.17,39.13,23c3.27,6.81,3.29,19.63,13.52,13.41c14.56-8.86,37.99,9.68,45.55-15.02
				c6.25-20.42,27.43-30.53,31.36-54.76c2.26-13.94,23.84-0.86,27.55,8.36c11.7,29.04,31.15,9.08,46.54,8.77
				c6.76-0.14,6.87-10.16-1.1-12.9c-11.19-3.85-16.5-17.6-31.01-16.5c-4.2,0.32-10.67-7.11-6.9-14.45
				c3.26-6.34,9.63-8.78,15.65-4.91c26.87,17.25,53.5,8.65,78.64-2.35c14.96-6.54,29.26-3.7,43.87-4.79
				c4.5-0.34,9.57,0.85,9.49,6.45c-0.07,4.76-4.29,7.65-8.85,8.33c-6.94,1.04-14.16,0.6-20.95,2.15
				c-12.59,2.88-16.31,11.87-14.73,24c1.97,15.11,12.72,11.61,22.08,10.46c7.78-0.96,15.42-3.05,23.2-4.06
				c36.23-4.74,40.91-11.15,34.08-46.6c-1.32-6.85-0.63-14.22-2.68-20.78c-4.77-15.31-0.24-18.12,13.48-11.73
				c4.71,2.19,9.82,4.08,14.92,4.75c7.02,0.92,14.86,1,18.57-6.61c4.17-8.55-3.48-13.09-8.51-17.19
				c-5.27-4.3-12.24-6.44-18.18-10.01c-8.25-4.96-7.81-13.25-6.77-21.19c1.25-9.56,7.85-13.01,16.82-13.2
				c8.53-0.18,16.25,1.47,18.64,10.98c6.35,25.35,15.22,29.92,29.26,4.38c3.63-6.6,10.77-5.39,16.65-3.99
				c9.47,2.24,6.34,10.82,8.11,17.24c2.65,9.57-14.89,25.15,4.33,28.03c17.24,2.59,39.66,9.67,50.04-15.96
				c2.13-5.25,8.8-8.48,12.11-13.49c4.16-6.3,1.37-20.5,15.72-14.23c11.09,4.84,13.51,14.95,12.53,26.58
				c-0.93,11.05-15.88,20.59-6.76,31.55c11.08,13.31,23.6,27.55,38.66,34.85c16.28,7.89,34.12-7.55,52.71-5.62
				c9.38,0.97,16.94-6.24,24.88,8.2c8.01,14.56,25.8,15.85,35.84-1.04c6.77-11.38,14.01-14.89,25.48-10.92
				c13.79,4.76,13.14,16.47,8.6,26.07c-13.51,28.56,2.51,45.7,21.71,62.23c-28.44,5.21-52.97-5.72-77.06-18.55
				c-18.61-10.13-40.7-12.65-57.78-26.18c-17.11-14.89-40.96-16.26-64.15-3.55c-3.32,2.62-6.94,4.62-10.97,5.92
				c-76.99,0.99-152.37,14.63-227.69,28.73c-53.37,14.07-107.76,12.79-162.16,10.86c-6.24,0.51-12.4,2.45-15.18,8.18
				c-9.57,19.74-27.2,27.49-46.65,32.93c-11.08,2.61-19.57,11.8-31.43,12.51c-8.31-1.04-13.73-6.06-17.84-12.88
				c-7.5-9,2.2-26.97-15.93-30.43c-15.25-0.4-30.29,2.12-45.41,3.2c-8.58,1.56-18.28,7.03-25.7,1.86
				c-18.18-12.68-27.9-1.85-35.56,11.76c-8.37,14.88-21.27,22.69-35.98,28.88c-7.97,9.8-15.77,19.73-25.03,28.36
				c-6.58,6.05-12.51,12.62-16.45,20.77c-3.8,7-7.29,14.15-10.18,21.57c-2.46,13.93,6.11,19,16.45,14.62
				c18.01-7.65,25.39,0.92,32.54,15.01c8.27,16.3,22.92,18.76,38.05,7.3c11.91-9.03,18.51-23.16,30.51-32.18
				c14.42-5.2,29.01-14.28,42.64,1.55c1.08,2.25,1.44,4.64,1.08,7.12c-4.21,7.03-13.27,9.02-17.15,16.42
				c-4.63,8.24-4.28,16.8-1.65,25.5c8.17,12.19,19.65,13.86,32.04,8.82c31.08-12.63,63.11-7.9,95.03-6.26
				c7.82,4.91,9.46,14.68,16.19,20.44C871.47,1545.35,890.59,1547.47,882.75,1564.91z"/>
			<path class="st4" d="M1850.34,709.63c-0.47-10.43,2.71-22.84-5.26-30.41c-26.55-25.24-45.07-59.6-83.91-71.13
				c-26.8-7.95-44.93-29.47-55.45-53.19c-17.87-40.29-31.92-82.42-45.14-124.54c-4.84-15.41-11.11-31.97-20.77-41.37
				c-14.68-14.28-13.67-20.89-1.39-34.88c22.97-26.14,23.67-58.8,21.42-91.63c-0.98-14.27-14.3-18.99-21.01-28.78
				c13.5-10.74,24.03-2.35,34.69,5.33c7.44,6.78,10.57,15.77,12.92,25.16c2.02,8.32,0.59,17.16,4.24,29.45
				c25.27-29.47,52.98-30.92,82.46-10.69c22.52,11.23,48.61,10.48,71.25,21.32c4.7,3.53,8.26,7.55,5.8,14.03
				c-34.18-3.4-67.14-12.35-98.35-26.03c-15.75-6.91-25.32-1.01-29.43,10.98c-4.49,13.12,8.79,13.32,17.93,16.39
				c41.35,13.88,77.58,34.7,91.55,79.59c4.79,15.41,16.78,21.34,28.73,24.08c43.55,9.98,79.34,39.47,123.7,47.47
				c9.71,1.75,23.08,5.67,24.01,26.4c-27.91-17.85-58.37-19.19-86.12-31.24c-48.72-21.16-98.64-39.56-148.03-59.19
				c-7.67-3.05-15.36-5.87-21.33,2.49c-5.8,8.11-1.59,16.74,3.57,21.74c27.42,26.56,28.34,57.41,20.64,92.34
				c-6.9,31.27,2.43,40.86,34.31,49.64c15.15,4.17,29.55,9.26,45.69,10.63c20.9,1.77,46.39,46.22,39.07,65.35
				c-3.67,9.59-4.31,17.16,5.36,22.59c18.23,10.26,31.8,27.11,53.07,33.58c21.28,6.47,24.39,27.08,23.94,45.46
				c-0.41,16.81-24.25,19.95-45.81,8.05c-12.28-6.78-15.43-29.36-38.26-19.09c-14.66,6.59-21.91,19.53-33.7,28.13
				c-8.99-9.43-3.56-21.24-5.33-31.86C1853.96,727.05,1860,716.79,1850.34,709.63z"/>
			<path class="st5" d="M1426.8,1307.1c21.72,17.62,49.89,16.84,74.53,26.12c36.06,29.95,82.42,38.38,124.08,55.36
				c30.97,12.62,68.7,10.76,103.77,7.88c16.44-1.35,22.56,5.74,20.69,21.35c3.7,2.54,7.7,5.49,7.96,10.04
				c1.26,22.05,5.22,41.2,31.23,48.09c7.65,2.03,9.29,12.57,4.69,20.61c-4.28,7.48-11.65,8.9-18.07,3.96
				c-20.54-15.82-45.42-19.54-69.38-23.19c-64.2-9.79-109.41-53.61-160.49-86.73c-17.46-11.32-34.44-23.59-51.15-36.08
				c64.43,50.68,138.38,88.32,197.61,146.04c15.07,14.69,35.54,18.4,53.07,28.06c-5.38,17.81-20.84,17.61-35.04,19.67
				c-16.36-7.06-29.96-18.71-41.49-31.37c-25.59-28.09-55.75-49.97-82.71-67.92c27.05,35.11,60.52,71.11,96.15,105.12
				c1.61,9.95-7.43,8-12.16,10.87c-28.34,0.6-56.73,3.84-84.95-1.68c-13.87-7.1-21.96-18.73-26.25-33.34
				c-4.82-7.02-13.27-12.34-10.91-22.78c20.25-12.74,34.02,1.08,45.7,9.25c-12.14-19.39-29.08-40.04-41.57-63.78
				c-3.29-6.26-3.57-17.7-15.99-14.7c-1.26,1.82-2.74,3.31-4.44,4.63c-13.81,6.61-17.61,23.99-32.14,29.8
				c-7.15-0.67-10.95-5.26-13.48-11.38c-3.14-11.84-4.68-24.13-10.1-35.32c-5.14-12.3-14.08-22.3-20.59-33.78
				c-11.5-22.31-32.89-35-50.29-51.59c-16.67-14.95-35.09-26-58.17-27.23c-2.6-0.14-5.2-0.91-7.64-1.86
				c-8.21-3.21-19.11-6.85-17.25-16.75c2.31-12.24,14.26-6.39,21.88-5.57c22.62,2.44,44.56,8.26,65.98,16.01
				C1415.32,1306.89,1420.43,1312.07,1426.8,1307.1z"/>
			<path class="st6" d="M2188.61,1564.94c-21.2,0-42.39,0-63.59,0c-0.54-18.87,13.62-13.3,24.12-15.21
				c13.69-2.48,35.95,9.26,39.19-8.16c2.73-14.67-21.28-13.13-33.19-19.25c-11.89-6.11-23.96-10.72-37.81-9.49
				c-12.14,1.08-27.57-2.03-26.06-14.84c1.49-12.61,7.17-29.51,25.31-32.4c5.16-0.82,10.56-0.05,15.84-0.26
				c30.24-1.2,59.86,9.25,91.22-0.96c14.1-4.59,34.51-0.15,49.19,13.07c16.9,15.21,37.15-0.07,55.77,3.48
				c9.36,1.78,19.32,0.37,29.01,0.39c-1.49,13.73-12.93,11.29-21.15,11.8c-14.35,0.89-26.64,5.59-37.47,14.73
				c-8.29,1.31-17.14,3.73-12.39,14.45c10.14,22.88-3.45,24.48-19.17,21.08C2236.98,1536.81,2212.34,1548.53,2188.61,1564.94z"/>
			<path class="st7" d="M1744.34,1528.87c-24.37,3.37-42.3-9.81-58.53-24.65c-44.68-40.87-93.26-76.22-144.03-109.16
				c-23.02-14.94-45.05-31.8-73.88-48.76c20.04-1.77,31.9,3.67,42.54,11.87c44.76,34.46,90.46,67.9,140.24,94.44
				c22.51,12,49.18,18.33,74.7,21.89c19.9,2.77,36.73,9.35,53,19.6c3.41,2.15,6.12,7.46,10.58,1.95c3.85-4.76,3.35-13.44-0.46-13.94
				c-40.44-5.35-32.31-39.04-38.63-64.28c17.06,28.98,38.16,51.95,73.48,59.63c8.18,1.78,11.63,15.92,11.19,27.39
				c-0.76,20.01-0.2,40.06-0.2,60.1c-21.18,0.04-42.37,0.08-63.55,0.12c-3.72-3.58-5.6-8.04-6.3-13.06
				C1766.46,1536.73,1753.45,1534.49,1744.34,1528.87z"/>
			<path class="st8" d="M1241.9,623.92c-5.41,20.65-18.8,33.22-39.38,37.97c-18.81,4.35-31.65,18.44-46.49,28.86
				c-12.63,8.86-21.06,23.3-38.69,25.24c-7.96,0.88-7.43,8.92-6.67,14.94c0.37,2.96,2.53,7.11,4.97,8.14
				c6.71,2.84,7.52-4.02,11.05-7.44c18.72-18.16,37.25-37.01,65.47-40.04c4.14-0.44,9.36-2.4,11.77-5.48
				c24.3-30.93,67.51-26.49,95.02-51.28c8.13-7.33,18.22-3.88,30.73-4.73c-10.75,19.19-23.51,34.96-40.16,41.63
				c-52.22,20.92-99.23,51.61-149.72,75.56c-8.64,4.1-17.95,7.32-27.29,9.29c-29.71,6.29-29.77,5.99-46.13-16.37
				c4.65-20.73,23.93-26.97,37.99-38.37c39.13-24.78,79.96-47.03,115.5-77.16c4.13-3.5,8.19-6.58,13.72-7.17
				C1237.82,617.75,1240.31,620.25,1241.9,623.92z"/>
			<path class="st9" d="M1342.72,265.54c-14.79,9.04-25.67-5.32-38.15-8.04c-12.87-2.8-22.61-19.81-38.54-5.23
				c-2.39,2.19-6.28-0.87-7.5-4.8c-6.55-21.17-28.02-32.17-35.15-53.93c-5.83-17.81-24.79-11.85-39.12-12.59
				c-0.62-11.89,9.16-10.1,15.95-11.91c8.08-2.15,17.46,1.01,24.31-6.05c19.3-20.57,36.68-44.32,69.55-42.96
				c2.42-0.2,4.77,0.16,7.04,1.01c11.07,7.15-2.22,22.35,9.74,29.23c3.99,8.05,6.67,16.41,5.89,25.56
				c-0.57,5.21-2.62,9.8-5.81,13.91c-11.39,14.07-7.69,24.69,6.94,33.72c13.02,8.03,26.93,14.91,37.52,26.46
				C1359.01,261.49,1348.52,261.62,1342.72,265.54z"/>
			<path class="st10" d="M1295.37,124.53c-26.91,4.55-48.04,18.22-63.74,40.44c-13.64,5.34-25.21-6.94-40.56-2.75
				c-17.01,4.64-36.12-3.51-43.28,23.48c-2.76,10.39-23.97,10.54-36.03,9.84c-48.36-2.81-91.85,18.66-138.23,25.24
				c-10.72,1.52-22.27,2.53-32.47,7.65c-11.72-1.07-27.08,4.32-28.04-15.82c17.58-3.06,31.13-17.14,49.49-18.13
				c48.23-12.4,92.39-36.05,139.86-50.52c14.82-1.65,30.05-1.93,42.32-12.39c2.34-0.91,4.78-1.39,7.29-1.5
				c21.46,3.1,42.86-1.23,64.3-0.79c14.69,0.3,19.25-12.89,28.2-20.26c6.93-5.64,14.25-10.41,23.61-10.58
				c7.06,5.08,15.45,6.38,23.71,8.17C1296.36,111.91,1295.97,118.2,1295.37,124.53z"/>
			<path class="st11" d="M1976.89,324.15c60.09,52.66,120.19,105.32,180.28,157.98c5.13,9.54-0.7,14.44-8.27,17.47
				c-12.73,5.11-20.73-2.57-27.86-11.61c-4.27-6.56-7.8-13.65-12.76-19.82c-5.39-6.7-9.6-15.42-20.27-5.47
				c-5.34,4.98-16.66,5.98-19.29,0.75c-10.17-20.23-28.14-19.68-46.24-22.66c-9.26-1.53-16.24-11.32-17.95-21.09
				c-3.26-18.51-14.81-30.59-27.12-43.5c-10.54-11.05-22.26-20.77-30.47-35.12c-9.66-16.88-30.79-17.73-49.64-17.51
				c-5.13-0.1-10.27,0.09-15.3-1.21c-5.33-5.01-14.96-4.58-17.21-13.51c35.26-18.31,73.31-13.01,100.58,14.32
				C1969.34,327.15,1972.84,326.34,1976.89,324.15z"/>
			<path class="st12" d="M2124.77,482.4c10.93,16.29,21.78,22.6,32.39-0.27c6.57,7.21,17.3-0.36,24.01,6.95
				c9.68,10.54,28.54,18.02,25.3,33.36c-3.57,16.89-21.61,27.07-35.18,37.51c-7.61,5.85-20.06-0.84-25.56-8.43
				c-18.67-25.75-44.98-39.75-72.52-53.46c-38.57-19.2-71.41-46.15-99.35-79.39c-14.56-17.32-20.48-35.95-18.09-57.88
				c14.83-7.79,13.6,6.37,16.12,12.85c9.14,23.51,21.05,47.79,42.38,58.98c31.73,16.66,58.66,45.77,98.72,44.44
				C2117.3,476.91,2121.37,479.43,2124.77,482.4z"/>
			<path class="st6" d="M1797.42,852.33c-1.81,26.82-3.07,53.68-5.6,80.43c-1.75,18.56-4.02,35.59-30.42,37.28
				c-19.46,1.25-22.87,18.16-9.26,35.04c26.01,32.26,50.58,65.34,65.71,104.48c3.78,9.78,9.18,19.01,2.16,31.39
				c-47.47-28.75-70.57-81.01-112.56-114.24c-1.29-41.04,26.58-66.93,50.77-93.76c13.57-15.05,22.65-29.4,22.32-50.35
				C1780.35,870.76,1780.4,855.97,1797.42,852.33z"/>
			<path class="st13" d="M1797.42,852.33c-6.9,5.27-10.04,14.75-9.07,20.81c6.96,43.17-26.53,64.24-48.24,91.65
				c-10.76,13.59-23.81,25.65-22.25,45.3c0.62,7.75-3.47,13.25-10.42,16.61c-3.48,0.03-6.97,0.07-10.45,0.1
				c-13.6-1.04-22.68,14.07-37.03,10.35c-2.82-26.15,9.17-45.48,23.97-66.55c35.21-50.12,81.32-91.24,114.5-142.8
				c2.44-3.79,5.55-8.97,13.17-8.04C1808.64,831.63,1806.91,843.52,1797.42,852.33z"/>
			<path class="st14" d="M1342.29,349.62c4.12-10.9,2.31-25.01,16.46-30.49c13.95-4.31,17.54,3.07,15.96,14.89
				c-0.79,5.89-5.16,13.2,5.01,13.48c7.92,0.22,12.13-5.7,12.38-13.88c0.27-8.61-4.29-16.91-1.62-25.66
				c10.13-5.47,18.33-0.17,26.59,4.76c12.53,11.83,15.92,25.16,4.21,39.06c-7.93,9.42-6.76,19.58-4.69,29.71
				c5.17,25.35,1.91,48.06-17,67.34c-4.82,4.91-7.36,11.82-11.03,17.78c-8.89,18.33-25.7,30.11-38,45.68
				c-9.08,11.5-18.77,9.03-29.28-4.13c5.49-10.4,10.97-20.8,16.46-31.19c7.42-13.96,5.53-32.35,21.5-42.44
				c5.7-3.6,1.86-10.42,1.48-16.38c-1.33-20.65-8.24-38.87-18.68-56.26C1339.81,358.16,1339.51,353.65,1342.29,349.62z"/>
			<path class="st15" d="M1268.57,101.48c-6.41,4.06-12.81,8.11-19.22,12.17c-12.87,3.05-25.41,3.86-38.68,0.2
				c-19.24-5.32-37.98,0.36-56.36,6.23c-15.09,4.18-28.11,13.3-43,18c-2.25,1.19-4.56,2.16-6.93,3.06
				c-47.77,20.07-94.85,41.79-144.11,58.13c-8.03-0.69-14.19-2.64-8.58-12.6c83.79-46.91,170.39-86.77,264.95-107.16
				c26.06-5.62,52.14-5.88,78.44-3.71c7.62,3.74,7.77,8.57,2.07,14.24C1289.25,97.92,1278.66,99.09,1268.57,101.48z"/>
			<path class="st16" d="M2298.99,1507.86c-4.78-11.54,2.26-13.7,11.37-17.67c15.37-6.7,33.1,1.95,47.25-8.87
				c60.29-15.07,122.34-22.79,181.5-42.38c21.6-7.15,43.27-4.6,64.95-5.35c12.83-0.44,11.48,7.4,7.14,15.73
				c-5.27,5.31-11.95,7.88-19.1,7.41c-41.97-2.77-77.32,20.53-116.36,29.14c-29.81,18.35-65.5,10.53-96.93,21.71
				c-11.21,0.29-21.51,2.3-32.47,6.54C2330.92,1520.1,2312.63,1525.44,2298.99,1507.86z"/>
			<path class="st17" d="M528.42,1519.3c11.77,14.72,6.97,24.52-10.03,27.78c-13.65,2.62-27.85,2.27-41.79,3.43
				c-10.93,0.91-20.56,4.48-26.72,14.37c-33.74,0.04-67.49,0.07-101.23,0.11c-23.06-4.52-46.64,0.19-69.83-4.27
				c-13.26-2.55-22.5-5.62-14.58-21.51c16.46-9.44,36.31-2.38,52.97-10.87c52.82-1.54,105.51-7.92,158.47-4.36
				c-1.39,14.08-12.57,9.21-20.24,9.93c-18.22,1.71-36.35-1.63-54.54-2.5c31.3,3.63,62.58,3.43,93.92,0.44
				C507.35,1530.65,519.41,1529.39,528.42,1519.3z"/>
			<path class="st18" d="M2473.88,1481.27c44.12-17.77,87.56-38.47,137.34-31.94c-0.96,9.74-8.81,17.39,1.93,29.56
				c9.53,10.8,6.05,27.38-11.45,36.69c-15.8,8.41-31.84,8.64-48.44,7.73c-8.56-0.47-14.71-3.51-13.67-14.67
				c2.09-22.45-7.27-30.45-29.82-23.13c-9.68,3.14-21.04,0.21-30.5,6.09C2475.75,1489.06,2473.48,1485.85,2473.88,1481.27z"/>
			<path class="st19" d="M1976.89,324.15c-0.35,5.52-1.77,10.76-7.45,12.78c-5.4,1.93-9.04-2.28-9.41-6.41
				c-2.9-32.65-30.91-21.21-47.22-23.72c-14.4-2.22-31.18-0.21-46.86,1.02c-2.41,1.8-5.06,2.3-7.96,1.53
				c-27.84-12.07-58.33-14.07-87.07-22.73c-7.4,0.31-12.66-4.79-18.84-7.15c-16.86-6.44-33.57-7.76-46.18,10.66
				c-4.2,6.14-9.56,17.43-19.96,12.5c-8.14-3.86-4.59-14.11-5.01-21.71c-0.29-5.22,0.24-10.49,0.41-15.74
				c4.29-0.97,6.85,1.51,9.13,4.5c1.63,1.8,3.55,5.64,5.44,4.5c41.99-25.43,87.26-4.42,130.66-9.34c6.03-0.68,12.08,2.45,16.88,6.45
				c15.7,13.07,33.23,13.78,54.24,8.25c-5.83-12.54-18.87-15.84-26.03-24.77c-7.03-8.77-11.5-16.85,4.57-20.39
				C1916.63,256.62,1941.62,296.14,1976.89,324.15z"/>
			<path class="st20" d="M1876.22,234.38c-5.27,5.08-10.38,10.15-1.05,16.19c1.47,0.95,3.23,1.77,4.19,3.12
				c8.15,11.46,32.09,9.15,28.82,28.93c-1.74,10.52-47.23,13.77-59.66,1.45c-14.81-14.69-30.88-12.83-48.04-13.46
				c-21.78-0.8-43.58,2.33-65.41-3.27c-10.92-2.8-22.42,1.94-30.75,10.79c-3.95,4.2-5.37,13.2-12.85,10.75
				c-8.88-2.92-3.96-11.96-4.94-18.37c13.45-19.63,34-17.55,53.81-17.64c20.78,0.71,40.99,0.17,61.21-7.78
				c17.06-6.7,24.76-12.22,8.35-27.45c-2.56-2.37-3.21-6.03-1.98-9.63C1830.81,216.49,1854.7,222.36,1876.22,234.38z"/>
			<path class="st21" d="M2124.77,482.4c-68.71,0.46-137.82-49.53-161.07-116.67c-1.46-4.22-4.37-4.79-7.94-4.95
				c-13.51-17.33-31.34-27.51-52.72-31.82c-2.8-2.99-8.55-4.5-5.29-10.53c25.76-0.39,50.78-1.66,60.62,31.58
				c2.43,8.19,15.78,14.58,23.88,22.03c14.62,13.45,25.56,25.83,28.79,47.15c2.08,13.72,15.02,26.36,34.06,15.89
				c9-4.95,20.72-8.88,19.35,7.63c-0.95,11.39,0.73,17.06,11.94,17.97c12.87,1.04,16-7.38,12.4-24.27
				C2105.13,454.4,2118.66,465.4,2124.77,482.4z"/>
			<path class="st22" d="M941.06,228.42c18.09-13,40.15-15.89,60.7-20.06c17.26-3.51,34.33-6.15,50.07-14.12
				c25.45-12.88,53.73,3.47,79.17-8.1c5.61-2.55,26.38,5.23,9.35-13.91c-3.84-4.31,25.53-23.78,31.45-18.94
				c9.48,7.75,15.56,5.91,25.26-0.25c14.54-9.22,22.09,10.2,34.58,11.93c-1.63,13.25-11.98,9.71-20.17,10.61
				c-9.2,1.01-19.5-3.27-27.2,5.37C1105.85,210.39,1022.82,216.18,941.06,228.42z"/>
			<path class="st23" d="M1353.62,84.8c18.49-15.09,43.2-5.61,62.91-15.91c6.23-1.73,12.52-3.87,17.23,3.03
				c-1.52,13.27-10.51,20.84-20.97,27.23c-7.45,4.55-14.56,9.29-14.2,19.51c-1.96,9.9-12.76,11.2-17.49,17.51
				c-11.23,14.97-6.09,30.81,2,45.81c2.3,14.86-4.28,18.76-17.64,14.34c-9.84-4.2-15.82-14.28-26.42-17.4
				c-2-1.39-3.4-3.25-4.24-5.53c5.56-18.14-1.07-36.18-0.53-54.29c1.97-9.13-2.14-18.42,0.63-27.55
				C1339.2,83.9,1346.02,83.25,1353.62,84.8z"/>
			<path class="st24" d="M264.24,1539.21c-0.65,10.74,4.92,13.34,14.93,16.81c22.87,7.91,47.38-1.29,69.47,8.97
				c-65.18,0-130.35-0.01-195.53-0.01c-29.67-13.18-57.77-32.59-93.3-19.82c-12.63,4.54-9.35-4.28-6.84-11
				c15.3-9.11,32.17-7.86,47.01-1.97c14.19,5.63,27.91,7.93,42.66,7.3c23.02,4.2,46.04,4.21,69.05,0
				C229.22,1539.4,246.73,1539.31,264.24,1539.21z"/>
			<path class="st25" d="M1447.77,354.36c-5.34,14.32-2.62,26.53,12.33,31.96c27.44,9.97,45.16,23.52,28.49,55.82
				c-1.57,3.04,1.19,8.31,2.16,13.8c-8.68,2.35-19.05-10.63-25.14,1.63c-12.84,25.85-23,16.78-33-1.8
				c-9.51-11.15-4.06-24.02-4.25-36.26c6.09-19.43-5.91-38.48-0.39-58.48C1432.19,345.79,1438.5,348.58,1447.77,354.36z"/>
			<path class="st26" d="M1628.4,223.06c-12.61-15.25-14.07-32.64-6.52-49.85c9.04-20.62,23.46-22.01,37.14-4.21
				c10.07,13.1,18.86,18.29,37.49,11.96c21.95-7.46,42.55,9.61,63.98,15.05c-1.52,2.47-3.61,4.27-6.25,5.43
				c-22.34,5.37-46.25,0.09-67.93,9.91c-6.42,1.94-14.93-0.88-19.36,4.85C1655.81,230.62,1642.22,226.39,1628.4,223.06z"/>
			<path class="st27" d="M1241.9,623.92c-1.69-1.34-3.38-2.68-5.07-4.02c-3.01-2.82-3.28-6.22-2.13-9.92
				c1.19-2.05,2.79-3.75,4.74-5.1c7.2-5.84,20.1-3.83,22.51-16.39c40.72-27.24,74.63-61.67,105.39-99.41
				c1.68-2.06,3.39-4.96,5.74-5.05c13.91-0.53,11.95-10.43,11.93-19.32c10.86-5.33,16.04-24.41,33.46-13.75
				c1.8,5.5,1.57,10.81-1.45,15.86c0.35,30.48-30.26,36.7-46.2,52.05c-15.71,15.12-31.55,32.57-45.44,48.12
				C1301.21,594.03,1267.56,602.23,1241.9,623.92z"/>
			<path class="st28" d="M1385.58,466.96c0.95,7.57,10.72,15.51-5.61,20.83c-19.66,6.41-26.55,28.29-40.78,41.96
				c-23.91,22.96-43.85,50.1-75.71,63.46c-9.74,3.73-17.61,10.5-26.14,16.19l0.02,0.07c-6.55,2.8-11.81,3.3-11.37-6.37
				c35.81-27.59,67.18-59.64,95.3-94.94c7.1,7.68,18.96,9.29,22.82,2.2c10.55-19.37,31.43-29.53,40.69-49.38
				c1.5,1.15,2.12,2.42,1.85,3.81C1386.37,466.23,1386.01,466.96,1385.58,466.96z"/>
			<path class="st29" d="M1427.12,186.33c7.4-0.09,13.98,2.81,18.8,7.86c4.79,5.01,18.88,8.84,4.72,18.94
				c8.43,5.97-15.03,21.36,7.05,23.7c2.9,0.31,5.3,4.63,3.48,8.48c-2.31,4.9-7.22,4.21-11.38,4.18
				c-21.67-0.15-43.57,2.46-64.66-5.09c-15.01-24.01-13.31-29.77,9.67-42.45C1405.35,196.13,1418.74,196.39,1427.12,186.33z"/>
			<path class="st30" d="M1551.98,80.81c0.7,1.68,1.4,3.36,2.1,5.05c-1.51,19.67-15.01,31.03-29.06,42.05
				c-11.54,7.93-21.93,19.26-38.29,13.28c-4.4-6.71-14.52-8.88-8.74-22.53c5.16-12.2-10.5-18.59-19.06-25.97
				c-1.44-2.19-1.95-4.58-1.57-7.18c3.85-8.11,11.7-9.42,19.21-11.85c19.27-6.24,39.47-1.3,58.97-5.56
				C1544.42,66.15,1550.17,71.78,1551.98,80.81z"/>
			<path class="st31" d="M1385.58,466.96c-0.26-1.99-0.52-3.98-0.78-5.98c3.58-6.02,6.25-12.89,10.92-17.89
				c14.8-15.82,22.03-33.34,15.26-54.88c-5.48-17.44-6.37-33.07,8.71-47.59c8.39-8.08-2.1-18.43-2.62-27.9
				c20.14,6.58,23.11,25.82,30.7,41.64c-24.88,2.64-14.55,22.58-13.47,33.71c1.06,10.99,5.51,21.09-1.08,31.6
				c-9.31,7.94-5.11,23.54-17.01,30.01C1403.13,450.34,1399.26,467.35,1385.58,466.96z"/>
			<path class="st29" d="M1485.46,138.01c15.92,3.55,25.27-9.66,37.77-14.83c15.94-6.95,26.57-6.89,20.35,15.41
				c-9.71,11.83-23.24,10.01-36.36,10.76c-12.6,0.72-28.66-7.7-29.58,18.77c-0.43,12.39-23.36,11.07-36.28,10.58
				c-8.84-0.34-15.22-1.59-19.31,7.42c-12.92,14.78-25.01,18.06-35.41-2.52c2.17-15.42,12.58-22.12,26.54-25.05
				c17.78,0.24,35.17-0.76,47.78-16.08c5.32-3.56,11.24-5.51,17.51-6.53C1481.04,135.8,1483.38,136.47,1485.46,138.01z"/>
			<path class="st32" d="M1755.01,197.68c1.83-0.56,3.66-1.11,5.49-1.67c1.74,0.6,3.47,1.21,5.21,1.81
				c9.93,3.93,23.65,2.7,25.51,17.85c1.56,12.65-8.47,17.86-16.32,24.56c-9.31,7.94-19.74,14.05-30.41,19.84
				c-20.58-3.49-39.13,4.25-57.96,10.45c-1.73-1.78-3.46-3.56-5.2-5.34c-3.47-7.07-6.94-14.13-10.41-21.19
				c-3.61-5.85-11.98-11.23-1.87-18.48c17.58-13.82,28.78,3.81,41.68,9.48c15.68,6.9,26.92,11.54,31.09-11.72
				C1743.45,214.2,1750.1,205.99,1755.01,197.68z"/>
			<path class="st33" d="M1744.49,260.07c5.67-10.32,15.08-16.77,24.05-23.82c24.85-19.54,24.68-20.66-2.84-38.43
				c15.66-3.16,28.17,6.7,42.21,10.2c2.24,2.59,3.99,6.08,6.81,7.61c8.81,4.76,17.83,10.89,15.75,21.28
				c-1.81,9.06-13.24,9.19-20.91,12.79C1788.73,259.5,1767.02,261.86,1744.49,260.07z"/>
			<path class="st34" d="M1342.29,349.62c5.85,11.93,6.69,27.37,22.56,32.29c0.83,0.26,2.25,0.11,2.47,0.58
				c4.83,10.44-17.22,19.3,0.36,32.48c15.96,11.96,2.86,24.78-9.05,29.37c-16.52,6.36-2.36,29.57-20.88,32.64
				c-0.03-34.93-0.08-69.86-0.09-104.79C1337.65,364.35,1336.74,356.32,1342.29,349.62z"/>
			<path class="st35" d="M1225.98,603.11c2.41,4.58,6.62,5.95,11.37,6.37c-0.17,3.48-0.35,6.95-0.53,10.42
				c-27.16,31.01-68.26,42.81-97.66,70.9c-8.77,8.38-20.7,12.45-32.88,14.59c-5.54,1.54-7.03-1.1-6.25-6.07
				c28.15-20.51,55.59-42.09,84.72-61.1C1200.26,628.12,1212.69,615.32,1225.98,603.11z"/>
			<path class="st36" d="M1551.98,80.81c-14.91-18.35-34.22-4.11-51.16-5.68c-13.55-1.25-27.94,6.67-41.96,10.52
				c-13.24,7.11-20.42-1.3-27.22-10.65c-3.03-7-9.93-4.42-15.1-6.11c40.86-17.99,82.25-19.59,124.17-3.92
				C1549.91,68.42,1549.87,68.52,1551.98,80.81z"/>
			<path class="st37" d="M1390.59,181.31c7.77,19.41,20.26,7.88,31.46,4.81c1.69,0.15,3.38,0.22,5.08,0.22
				c5.98,16.66-8.64,12.96-15.99,15.7c-19.94,7.42-37.02,16.14-26,42.37c-5.18,2.1-10.37,4.19-15.55,6.29
				c-0.86-0.8-1.72-1.6-2.59-2.39c-2.49-12.1-8.75-20.71-21.58-23.22c-16.18-1.99-12.73-13.92-12.38-24.31
				c0.38-4.9,1.94-9.14,6.66-11.56c8-2.7,15.52,2.4,23.42,1.48c8.72,2.61,18.71,7.64,17.22-9.09
				C1383.66,178.28,1387.06,177.55,1390.59,181.31z"/>
			<path class="st6" d="M1659.96,1037.15c11.4-6.82,19.52-25.4,37.03-10.35c-0.92,26.38-6,51.1-28.33,69.76
				C1658.23,1077.75,1659.78,1057.34,1659.96,1037.15z"/>
			<path class="st38" d="M1353.62,84.8c-2.04,7.27-10.25,1.31-13.37,6.24c-0.78,0.38-1.7,0.61-2.31,1.17
				c-7.88,7.21-18.49,13.98-4.35,25.03c-8.24,11.73-17.18,22.85-28.12,32.22c-11.21-6.35-2.42-16.98-5.35-25.1
				c-3.68-5.62,2.59-17.15-10.28-17.3c-8.06,1.83-16.29,4.36-21.26-5.57c7.71-5.02,14.97-11.06,23.27-14.74
				c6.9-3.05,6.84-5.9,3.23-10.94c12.45,3.24,23.88,12.53,38.05,1.43C1337.34,73.92,1350.79,71.38,1353.62,84.8z"/>
			<path class="st39" d="M2245.41,710.79c33.14,11.13,43.17,37.62,60.65,56.38c2.33,2.5,3.87,6.91-0.48,8.84
				c-2.71,1.2-7.57,1.21-9.63-0.48c-6.05-4.95-11.6-10.68-16.52-16.77c-3.28-4.05-5.42-10.92-10.99-10.17
				C2233.5,753.3,2251.09,728.07,2245.41,710.79z"/>
			<path class="st40" d="M1390.49,307.96c8.18,16.08,20.03,32.64-3.42,46.06c-5.34,3.06-12.75,10.15-17.69,0.13
				c-2.83-5.74-12.87-11.09-3.49-19.77c12.76-11.81-2.75-11.08-7.13-15.25C1366.93,308.58,1377.58,305.08,1390.49,307.96z"/>
			<path class="st41" d="M2473.88,1481.27c4.14,2.23,5.2,6.06,5.38,10.34c-5.56,14.28-16.58,16.91-30.71,16.33
				c-23.21-0.96-46.48-0.31-69.73-0.35C2406.66,1484.9,2443.95,1496.37,2473.88,1481.27z"/>
			<path class="st42" d="M1933.68,1515.8c-2.79,12.5-11.85,18.39-19.84,24.7c-4.1,3.23-7.86-1.02-10.92-4.15
				c-7.89-8.08-3.79-15.95,0.34-23.84c0.81-1.54,1.27-3.38,2.4-4.62c7.92-8.66,5.31-30.92,17.71-27.77
				C1937.55,1483.72,1923.9,1505.66,1933.68,1515.8z"/>
			<path class="st43" d="M1543.58,138.59c0.22-14.39-8.25-17.3-20.35-15.41c10.28-12.44,20.57-24.89,30.85-37.33
				C1566.67,106.64,1564.94,124.57,1543.58,138.59z"/>
			<path class="st44" d="M1670.53,228.51c-6.11,5.32,1.85,10.28,0.39,15.48c-9.95-5.75-19.53-12.67-32.09-10.29
				c-3.48-3.55-6.96-7.1-10.43-10.64c12.2-4.56,28.9,2.76,36.14-15.73c2.39-6.12,11.06,0.74,16.91,0.34
				C1684.66,218.2,1677.92,223.52,1670.53,228.51z"/>
			<path class="st45" d="M1100.03,699.32c2.08,2.02,4.16,4.04,6.25,6.06c-13.3,11.62-26.6,23.23-39.91,34.84
				c-13.84-11.3-2.75-18.41,5.11-24.32C1080.22,709.34,1090.45,704.77,1100.03,699.32z"/>
			<path class="st46" d="M1850.34,709.63c3.57-0.4,9.38-13.58,10.24,0.92c1.13,18.98,0.21,38.07,0.17,57.12
				c-7.46,3.54-11,1.52-10.84-7.07C1850.23,743.61,1850.22,726.62,1850.34,709.63z"/>
			<path class="st47" d="M1416.22,449.69c3.29-11.35,1.25-25.72,17-30.01c4.16,12.11-1.83,24.04-0.61,36.1
				c-8.45-0.92-10.44,7.3-15.6,11.03C1416.75,461.1,1416.48,455.4,1416.22,449.69z"/>
			<path class="st48" d="M951.68,186.67c0.26,6.61,3.5,10.04,10.32,9.63c2.1,0.9,2.8,1.81,2.12,2.74c-0.68,0.93-1.36,1.41-2.07,1.41
				c-17.12,0.93-30.03,18.81-49.03,12.15C923.65,200.6,938.98,195.59,951.68,186.67z"/>
			<path class="st2" d="M211.7,1539.49c-23.02,7.9-46.03,8.21-69.05,0C165.67,1539.5,188.69,1539.5,211.7,1539.49z"/>
			<path class="st4" d="M1897.75,318.43c1.76,3.51,3.53,7.02,5.29,10.53c-10.71-3.29-26.21,8.04-31.93-10.47
				c3.56-3.18,7.2-3.21,10.92-0.29C1887.28,318.27,1892.52,318.35,1897.75,318.43z"/>
			<path class="st49" d="M1342.72,265.54c2.56-5.5,11.28-6.67,10.28-14.65c-1.39-1.27-1.99-2.65-1.81-4.15
				c0.19-1.56,0.47-2.33,0.86-2.34c6.91-4.31,11.71,0.05,16.6,4.05c0,0,0.94,2.23,0.94,2.23
				C1364.46,262.57,1358.15,272.3,1342.72,265.54z"/>
			<path class="st21" d="M1882.04,318.2c-3.64,0.1-7.28,0.19-10.92,0.29c-6.98-0.06-13.95-0.12-20.93-0.18
				c-1.78-3.49-3.55-6.99-5.33-10.48c5.29-4.78,10.6-3.78,15.92-0.07c1.72,0.05,3.45,0.07,5.17,0.06
				C1871.32,311.28,1876.68,314.74,1882.04,318.2z"/>
			<path class="st50" d="M1347.9,1565.02c-47.46-0.02-94.92-0.04-142.37-0.06c3.23-15.63-7.93-12.93-16.82-13.15
				c-11.41-6.22-20.69-14.26-23.88-27.58c-0.01-2.49,0.51-4.89,1.5-7.17c16.18-5.74-1.16-21.24,8.3-28.96
				c5.31-8.47,5.04-16.13-4.13-21.5c-6.75-3.96-12.26-8.83-16.16-15.58c-1.48-1.87-2.62-3.93-3.49-6.14
				c-0.6-3.7,0.57-7.03,2.06-10.3c-0.78-23.99-17.35-38.74-31.89-54.69c-1.86-1.8-3.38-3.84-4.67-6.07
				c-6.06-14.39,0.63-19.35,14.21-19.22c2.53,0.29,5,0.95,7.38,1.85c17.85,7.03,33.4,16.58,45.41,32.58
				c8.81,11.74,21.88,17.14,36.78,8.49c9.32-3.78,17.83-10.15,28.69-9.05c8.49,2.94,11.82,9.46,12.44,17.86
				c-0.57,4.59-2.95,8.15-6.82,10.53c-10.45,6.43-21.34,11.6-10.16,27.28c3.94,5.52-3.47,12.64-7.87,18.01
				c0.54,2.54-9.37,6.5,0.2,7.11c6.28,0.4,12.81-4.24,19.68-1.1c7.16,4.35,9.33,11.77,11.79,19.02c2.75,9.17,1.45,18.75,1.38,34.45
				c10.59-18.5,6.93-31.86,5.28-45.14c-1.91-15.42-6.61-31.26,4.79-45.36c7.56-4.44,15.35-4.47,23.32-1.38
				c15.99,13.65,0.4,29.01,2.4,43.43c-3.58,16.29,7.89,25.81,16.57,36.58C1331.07,1527.91,1350.59,1541.24,1347.9,1565.02z"/>
			<path class="st51" d="M1347.9,1565.02c-10.28-17.75-20.55-35.5-30.83-53.25c-2.88-13.27-10.22-24.47-16.71-36.07
				c-6.84-15.07,6.82-27.51,5.39-41.88c3.95-13.74,12.23-22.64,27.07-24.23c4.38,0.5,7.48,3.9,11.55,5.11
				c1.72-7.04-5.44-9.93-7.24-15.32c-7.77-21.37-28.45-28.56-44.68-40.67c-2.3-5.25-2.04-10.29,1.12-15.14
				c7.82-5.94,15.41-2.44,23.02,0.48c16.21,7.67,33.5,13.8,44.21,29.69c5.34,10.33,10.02,17.79,25.54,16.24
				c19.3-1.93,35.29,12.91,53.26,19.14c7.13,5.05,13.93,10.56,20.12,16.66c5.33,5.25,9.01,11.4-0.1,17.01
				c-3.59,1.68-7.4,2.49-11.32,2.84c-7.48,0.47-15.01,0.2-22.49,0.93c-4.11,0.42-8.06,1.66-12.12,2.37
				c-2.33,0.41-4.76,0.36-6.98,1.37c2.66,2.77,5.8-0.52,8.65,0.65c11.21,1.43,10.15,17.56,22.03,18.14
				c4.74,1.34,9.36,2.87,12.36,7.16c0.48,2.58-0.18,4.86-1.79,6.89c-5.81,4.41-13.05,6.13-19.47,4.64
				c-23.41-5.45-36.53,6.2-45.77,25.48c-0.76,0.39-1.56,0.71-2.32,1.13c-8.73,4.8-15.88-10.54-21.4-4.37
				c-9.87,11.01-4.17,24.27,1.21,36.36c1.75,3.92,3.97,7.64,5.2,11.81c0.53,2.55,0,4.84-1.71,6.83
				C1358.45,1565.04,1353.18,1565.03,1347.9,1565.02z"/>
			<path class="st52" d="M1004.37,1565.09c-36.87,0.03-73.75,0.06-110.62,0.1c-11.15-16.84,7.55-34.69-1.75-51.6
				c21.48-9.44,40.18-24.98,64.03-29.31c3.58,1.18,6.31,3.46,8.41,6.54c5.32,16,24.53,16.3,32.86,28.96
				C1000.9,1534.69,1005.14,1549.5,1004.37,1565.09z"/>
			<path class="st53" d="M1447.94,1477.39c-5.02-0.68-10.03-1.35-15.05-2.03c-0.91-5,2.23-7.27,6.09-9.06
				c11.08-3.31,21.06-0.14,30.67,5.17c13.48,8.24,19.11,22.3,26.85,35.09c4.68,7.74,11.37,22.81,21.46,3.18
				c4.36-8.89,1.73-21.71,14.55-25.79c13.67,1.96,19.03,10.37,18.26,23.53c3.38,7.09,9,12.02,15.5,16.1
				c4.11,16.12-16.8,25.18-11.73,41.57c-5.7,0-11.4,0-17.09,0.01C1495.16,1548.59,1460.77,1523.99,1447.94,1477.39z"/>
			<path class="st54" d="M1004.37,1565.09c-15.36-12.95-9.87-30.59-10.55-46.85c1.44-7.02,5.69-11.28,12.64-12.9
				c16.19,2.54,31.43,7.76,45.43,16.41c1.31,17.87,10.77,20.24,25.86,14.51c14.47-5.49,26.39-5.7,21.42,15.91
				c-2.94,5.88-7.59,9.34-14.16,10.07c-14.79-4.3-29.28-3.12-43.48,2.64C1029.14,1564.95,1016.76,1565.02,1004.37,1565.09z"/>
			<path class="st55" d="M1511.59,1565.13c-29.71-0.09-59.41-0.18-89.12-0.27c-14.88-8.41-33.16-7.86-47.37-17.98
				c-1.53-16.03,16.1-15.63,21.87-25.45c2.62-0.31,5.18,0,7.74,0.53c11.92,2.45,22.37,16.01,33.2,11.94
				c11.1-4.17,5.89-22.3,14.41-31.48c2.43-1.3,6.32-1.57,6.82,0.47c6.1,25.06,25.82,37.54,45.47,50.14
				C1509.04,1555.89,1513.48,1558.67,1511.59,1565.13z"/>
			<path class="st56" d="M1083.5,1561.15c3.57-2.92,7.15-5.83,10.72-8.75c6.5-5.6,9.5-13.53,13.7-20.69
				c7.8-8.62,18.71-12.45,28.23-18.45c11.52-3.65,25.23-21.09,32.17,4.93c0.12,1.71,0.13,3.42,0.05,5.13
				c-0.79,15.42,12.45,19.36,21.72,26.55c7.8-7.08,15.65-10.44,23.94-0.61c10.6,12.56-8.55,8.92-8.49,15.71
				c-10.53-0.01-21.06-0.02-31.59-0.04c-1.56-0.67-3.46-1.03-4.56-2.19c-17.23-17.95-33.5-18.52-48.74,2.44
				c-12.34-0.2-24.67-0.41-37.01-0.61C1083.59,1563.42,1083.54,1562.29,1083.5,1561.15z"/>
			<path class="st57" d="M1744.34,1528.87c22.23-9.55,26.33,2.58,25.14,21.03c-10.96,6.99-24.33,8.46-35.35,15.32
				c-21.35-0.08-42.69-0.17-64.03-0.25c4.07-2.95,8.14-5.9,12.21-8.85c5.44-10.18,13.63-14.45,25.1-11.66
				C1720.53,1541.2,1732.93,1536.21,1744.34,1528.87z"/>
			<path class="st58" d="M1511.59,1565.13c-26.16-14.54-50.82-30.48-58.42-62.39c-6.81-5.6-10.44-12.06-5.61-20.8
				c0.23-1.51,0.35-3.02,0.38-4.55c20.05,7.51,13.48,32.9,30.07,43.71c20.63,13.44,39.69,29.27,59.43,44.07
				C1528.82,1565.16,1520.2,1565.15,1511.59,1565.13z"/>
			<path class="st59" d="M892.67,1513.81c9.48,5.48,13.01,12.92,9.09,23.83c-3.23,8.98-5.39,18.35-8.02,27.55
				c-3.66-0.09-7.32-0.18-10.99-0.27c0.14-14.69-16.42-14.68-21.68-24.61c0.44-7.99,12.21-5.06,12.57-13.16
				c2.25-6.81,6.23-12.11,12.82-15.2C888.89,1511.37,890.98,1511.94,892.67,1513.81z"/>
			<path class="st60" d="M1120.65,1565.18c16.2-40.39,21.28-40.42,53.3-0.25C1156.18,1565.01,1138.41,1565.09,1120.65,1565.18z"/>
			<path class="st61" d="M1374.79,1544.47c17.36,3.36,36.3,3.04,47.68,20.4c-19.58,0.06-39.16,0.12-58.75,0.18
				c0.15-1.43,0.14-2.85-0.03-4.27C1359.26,1549.8,1356.8,1540.18,1374.79,1544.47z"/>
			<path class="st62" d="M1554.53,1565.17c-12.02-7.53-10.67-16.16-1.33-24.5c5.55-4.95,14.28-7.08,13.06-17.08
				c4.37,14.15,6.76,29.24,18.88,39.7C1574.94,1563.92,1564.73,1564.54,1554.53,1565.17z"/>
			<path class="st63" d="M1734.12,1565.22c8.37-12.98,19.51-19.59,35.35-15.33c0.44,5.06,0.88,10.11,1.32,15.15
				C1758.57,1565.11,1746.35,1565.17,1734.12,1565.22z"/>
			<path class="st64" d="M1083.5,1561.15c-0.01,1.14,0.04,2.28,0.14,3.42c-14.03,0.1-28.07,0.21-42.1,0.31
				C1054.79,1555.39,1067.93,1544.61,1083.5,1561.15z"/>
			<path class="st65" d="M1296.06,1345.09c0.05,4.65,0.09,9.3,0.14,13.96c-4.42,9.81-10.13,17.99-22.49,17.72
				c-10.86-6.79-8.65-19.98-13.17-28.12c-28.46,11.64-57.84,14.16-87.39,15.84c-2.34-0.56-4.57-1.45-6.7-2.54
				c-13.05-8.77-29.98-1.16-43.03-10.05c-15.57-11.54-27.69-29-50.98-26.97c-4.79,0.42-11.67-4.29-9.8-12.53
				c53.65-11.92,108.08-18.76,162.43-26.52c23.86-3.41,46.82,3.32,70.06-0.62c4.74-2.62,9.68-4.23,14.36-0.29
				c5.67,4.78-2.71,11.67-1.85,11.57c7.72-0.88,13.2,3.02,19.22,6.53c10.03,5.86,5.68,10.5-0.69,15.33
				c-2.07,1.19-4.28,2.08-6.53,2.79C1307.58,1325.03,1304.93,1338.14,1296.06,1345.09z"/>
			<path class="st66" d="M850.54,1518.29c-33.38,7.7-68.66-4.3-101.95,12.41c-11.23,5.63-29.7,0.5-34.68-18.25
				c6.59-7.24,0.7-25.92,19.84-21.67c7.19,6.32-2.12,30.93,21.45,19.28c3.4-0.23,0.63-2.04,0.08-1.73
				c-17.94,10.07-16.18-5.85-19.51-15.13c-3.51-6.65-12.35-5.49-16.49-11.24c4.91-8.02,12.49-10.67,21.41-10.64
				c5.32,3.03,12.16-1.2,17,4.13c-4.74-5.66-11.41-2.5-16.99-4.31c-11.69-21.59-28.55-3.7-42.81-5.6
				c-3.55-6.57-0.59-11.86,3.29-16.98c7.39-6.05,17.92-5.89,24.96-12.69c3.85-2.88,7.83-5.55,12-7.96c4.28-2.52,8.66-4.84,13.17-6.9
				c10.45-4.9,21.91-5.77,33.03-7.41c13.22-1.95,28.21,2.53,28.43,16.26c0.52,32.58,20.76,32.67,43.65,31.52
				c2.74,0.56,5.14,1.74,7.29,3.52C875.11,1491.44,872.78,1500.89,850.54,1518.29z"/>
			<path class="st67" d="M1062.63,1312.4c4.33,2.84,9.68,8.98,12.84,8.01c27.62-8.5,36.38,14.65,50.54,28.78
				c1.64,2.3,1.63,4.53-0.3,6.66c-6.2,1.52-12.4,2.55-18.45-0.45c-2.89-0.81-7.1-3.88-8.04,1.25c-4.66,25.32-7.07,27.21-30.31,19
				c-17.2-6.07-34.03-14.02-52.5-4.61c-14.13,6.39-28.49,12.06-43.76,15.12c-13.77-1.68-27.86,1.85-41.5-2.41
				c-13.4-9.46-10.17-26.98-18.85-38.71c-4.13-5.71-10.54-8.64-15.9-12.84c-2.56-2.53-4.62-5.23-2.89-9.12
				c12.98-2.66,26.02-3.97,39.15-1.32C976.86,1330.72,1019.55,1318.93,1062.63,1312.4z"/>
			<path class="st68" d="M740.01,1433.48c-3.49,1.8-6.98,3.6-10.47,5.4c-42.37,1.58-83.18,22.84-126.78,9.85
				c-8.41-2.51-21.13,0.82-16.14-15.32c0.86-10.4,7.23-16.6,15.99-20.98c1.59,0.76,3.15,1.6,4.36,2.84
				c10.9,11.17,25.22,13.32,34.63,2.52c8.29-9.52-0.79-21.01-8.95-29.38c-2.43-2.49-5.15-4.71-7.65-7.15
				c23.05-4.15,33.85-22.74,46.59-39.2c7.82-10.11,15.93-20.45,28.48-4.6c9.13,11.53,19.46-2.81,29.12,0.7
				c24.52,13.09,24.83,14.66,5.51,27.42c-7.59,1.08-15.22,2.02-22.92,2.01c-2.45-0.31-4.75-1.14-6.84-2.45
				c-4.62-1.99-6.35-8.72-12.79-7.81c0.95,2.95,3.05,5.5,3.09,8.85c-0.77,9.64-0.85,19.22-0.6,28.83c0.13,5.07,0.97,11.15-5.05,13.6
				c-7.42,3.01-10.27-3.43-13.92-7.42c11.63,16.34,24.75,19.34,40.51,4.6c5.81-5.44,13.3-8.66,21.08-9.99
				c16.38-2.81,27.68-9.04,25.71-28.69c-0.66-6.58,4.93-10.77,11.74-12.06c10.44-0.88,15.49,4.35,16.31,14.35
				c6.51,31.45,3.58,36.74-27.27,45.8C753.17,1418.29,745.31,1423.99,740.01,1433.48z"/>
			<path class="st69" d="M893.5,1323.1c1.77,1.85,3.54,3.7,5.31,5.56c-7.89,25.51,12.93,3.05,16.3,9.75
				c15.9,10.12,8.08,28.98,15.55,42.21c10.04,18.3,1.79,25.59-16.24,26.41c-9.28,0.43-19.17-2.85-26.69,5.54
				c-2.4,2.39-5.85,4.74-5.44,8.27c0.89,7.85,9.81,17.29-0.88,22.79c-8.81,4.54-15.28-5.2-22.04-9.97
				c-5.61-3.95-11.64-7.29-16.96-11.68c-7.26-7.15-10.49-16.51-14.16-25.65c-0.19-5.59,2.47-10.19,5.62-14.4
				c4.88-6.52,5.82-12.91,1.86-16.12C864.94,1365.04,875.24,1338.69,893.5,1323.1z"/>
			<path class="st70" d="M772.67,1359.65c-3.14,9.94-32.83,39.82-46.1,46.6c-3.09,1.58-6.94,3.04-8.65,5.71
				c-12.95,20.2-25.22,17.07-38.88,0.43c-5.29-6.44-13.11-10.79-20.19-16.42c14.86-11.98,21.14,0.27,28.61,9.85
				c3.21-14.89-5.94-29.6,5.39-41.65c5.1-4.41,10.26-3.4,15.43-0.15c-0.1,0.9-0.21,1.8-0.32,2.7c4.13,17.01,4.13,17.01,30.48,10.09
				c2.46-8.51-11.49-7.95-9.21-16.29c34.82-7.53-6.26-14.89-0.05-22.36c15.65-2.17,31.09-6.84,47.17-3.97
				C785.77,1344.21,782.43,1352.39,772.67,1359.65z"/>
			<path class="st71" d="M703.13,1449.68c-1.75,5.28-3.5,10.56-5.25,15.84c-14.2,20.37-22.74,44.51-56.97,43.15
				c-16.18-0.64-13.21-8.34-16.9-15.31c-5.19-9.8-2.24-34.58-24.42-10.98c-7.48,7.95-16.59-4.66-24.41-9.31
				c-11.3-6.73-4.89-12.49,0.91-18.32c11.9-4.41,24.15-3.75,36.22-1.6c27.86,4.96,55.9,15.03,81.66-6.79
				C696.31,1444.37,700.6,1446.97,703.13,1449.68z"/>
			<path class="st72" d="M1321.48,1317.27c1.13-4.08,12.11-7.67,0.19-12.38c-9.19-3.63-17.47-3.41-22.33,2.44
				c-22.66-6.19,21.1-15.93-4.23-22.05c1.82-1.71,3.64-3.43,5.46-5.14c23.65-8.32,46.67-8.78,68.51,5.47
				c19.24,7.16,38.48,14.33,57.72,21.49c-20.14,9.28-37.14-7.74-56.78-6.77c-14.33,0.71-28.94-4.4-44.2-4.96
				c28.71,13.97,65.82,11.39,84.9,43.34c-4.02,6.16-9.73,8.33-16.86,7.21c-16.72-9.47-34.1-16.21-53.84-16.83
				C1332.71,1328.87,1321.2,1331.15,1321.48,1317.27z"/>
			<path class="st73" d="M703.13,1449.68c-2.61,0.14-6.67-0.75-7.62,0.59c-20.4,28.57-46.39,17.16-71.94,10.72
				c-15.53-3.92-32.35,1.26-47.47-6.25c1.35-8.17,3.99-15.71,10.52-21.33c16.1,15.33,37.41,8.85,56.16,12.51
				c12.97,2.53,26.21-2.4,39.27-8.46c14.64-6.8,31.93-7.7,47.49,1.43C724.31,1451.21,713.18,1449.12,703.13,1449.68z"/>
			<path class="st74" d="M857.13,1465c-10.82,8.07-23.46,0.98-35.33,4.14c-8.94,2.38-11.83-7.34-13.04-15.87
				c-5.13-35.95-5.31-36.03-40.64-30.09c-5.93,1-11.64,3.3-17.45,5c-6.63-12.12,3.79-14.44,10.55-14.61
				c28.09-0.68,31.91-17.94,29.58-40.28c0.83-1.11,1.67-2.22,2.5-3.34c5.02,3.58,10.04,7.17,15.06,10.75
				c4.33,3.15,6.57,7.59,7.81,12.63c5.32,15.38,6.08,32.02,15.36,46.46c6.52,10.14,13.11,7.44,21.03,4.07
				C858.49,1449.98,862.13,1456.56,857.13,1465z"/>
			<path class="st75" d="M528.42,1519.3c0.26,9.65,2.47,17.76-13.69,18.43c-32.49,1.34-65.06,4.85-97.05-1.66
				c-14.51-2.95-29.05,11.62-45.3-4.27c17.58-5.02,33.63-1.83,49.18-3.09c18.05-1.47,36.81,5.01,54.13-4.73
				C493.41,1524.15,510.45,1516.45,528.42,1519.3z"/>
			<path class="st76" d="M625,1381.26c29.41-3.55,25.22,22.92,28.25,36.92c3.69,17.07-16.48,9.14-25.33,12.64
				c-14.61,5.79-25.13-0.85-25.31-18.4C610.08,1402.04,620.89,1394.06,625,1381.26z"/>
			<path class="st77" d="M850.54,1518.29c9.25-16.18,20.09-32.05,10.31-52c5.31-5.24,11.93-3.66,18.3-3.53
				c10.87,5.63,6.82,15.38,6.71,24.07c-1.09,5.58-2.7,11.02-4.43,16.42c-1.22,8.44-9,15.75-4.23,25.2
				c4.92,17.97-12.77,5.14-16.13,11.85C851.75,1535.74,851.49,1526.85,850.54,1518.29z"/>
			<path class="st78" d="M810.2,1396.29c-0.62-5.2-1.23-10.39-1.85-15.58c8.75-5.65,16.38-13.36,27.37-14.89
				c5.3,2.24,10.59,4.48,16.92,7.16c-12.11,3.54-11.92,17.92-22.27,22.57C823.93,1403.23,817.14,1401.81,810.2,1396.29z"/>
			<path class="st79" d="M1369.08,1285.6c-22.78-2.55-45.39-7.23-68.51-5.47C1317.82,1262.51,1357.99,1265.72,1369.08,1285.6z"/>
			<path class="st74" d="M772.67,1359.65c3.94-8.1,5.35-16.56,3.68-25.47c25.92,2.33,13.34,22.88,16.94,35.78
				c0,0-0.47,0.46-0.47,0.46c-1.75,2.37-3.41,2.2-4.98-0.19C787.13,1360.47,780.56,1359.12,772.67,1359.65z"/>
			<path class="st80" d="M719.27,1481.95c7.96-1.23,15.69-2.1,15.38,9.73l0.18-0.11c-13.58,0.33-11.69,16.18-20.92,20.87
				C713.43,1501.88,712.12,1491.17,719.27,1481.95z"/>
			<path class="st11" d="M1860.79,307.76c-5.31,0.02-10.61,0.05-15.92,0.07c-25.09-5.53-51.88-5.13-73.95-21.2
				C1802.7,285.93,1833.08,291.18,1860.79,307.76z"/>
			<path class="st81" d="M1396.06,1343.85c4.88-1.71,9.77-3.42,14.65-5.13c19.25,14.57,41.21,26.59,49.01,51.96
				c-0.91,17.41-14.15,16.01-21.44,9.42c-18.96-17.13-40.53-16.33-62.95-14.58c-8.07,0.63-12.55-5.04-17.93-9.27
				c-13.94-9.07-27.87-18.15-41.81-27.22c-11.55-12.33-0.55-15.38,7.97-19.48C1348.9,1328.28,1371.03,1343.42,1396.06,1343.85z"/>
			<path class="st82" d="M1707.4,1544.47c-8.37,3.89-16.73,7.77-25.1,11.66c-37.69-21.21-61.75-56.36-89.12-87.99
				c-6.32-7.3-11.34-15.34-20.17-20.11c-4.85-2.62-8.94-7.1-5.43-12.79c4.07-6.58,8.3-2.11,12.89,0.85
				C1627.69,1466.5,1668.33,1504.55,1707.4,1544.47z"/>
			<path class="st83" d="M1550.76,1507.49c-7.99-5.54-6.81-18.71-17.99-21.59c-4.61-2.32-9.11,1.03-13.71,0.29
				c-8.33-1.96-17.23-3.23-18.35-14.38c8.16-13.54,9.77-33.54,32.36-32.88c4.93,8.93,4.36,19.98,11.37,28.1
				c-0.84-10.5-8.36-18.41-11.45-28.04c-1.09-5.77-2.19-11.54-3.28-17.31c1.85-1.18,3.69-2.35,5.54-3.53
				c29.91,35.21,47.78,79.08,76.92,115.64C1590.78,1525.59,1576.82,1502.58,1550.76,1507.49z"/>
			<path class="st84" d="M1357.4,1376.24c7.5,1.78,14.78,2.38,22.76,2.26c19.44-0.28,41.04-7.52,56.3,14.18
				c5.06,7.19,16.57,11.13,23.26-2.01c10.78,8.55,17.27,19.73,20.34,33.03c-3.54,13.46-12,5.06-17.63,3.11
				c-8.81-3.05-15.8-10.07-24.59-13.58c-22.14-0.02-38.23-24.53-64.3-14.06C1366.06,1402.17,1357.15,1388.26,1357.4,1376.24z"/>
			<path class="st85" d="M1437.83,1413.23c16.14-4.87,25.6,17.26,42.23,10.47c8.49,10.8,11.54,23.18,10.7,36.69
				c-2.95,2.95-6.56,4.05-10.65,3.85c-12.25-3.45-21.06-10.25-22.94-23.74C1463.9,1422.06,1438.47,1426.44,1437.83,1413.23z"/>
			<path class="st86" d="M1479.96,1460.95c3.6-0.19,7.2-0.38,10.8-0.57c3.32,3.81,6.64,7.62,9.95,11.43
				c6.03,5.8,13.47,8.5,21.54,9.8c-4.65,17.59-16.2,6.57-25.22,6.14c-7.36-2.74-14.45-5.91-19.04-12.78
				c-1.08-2.35-1.56-4.84-1.55-7.43C1476.92,1464.98,1478.14,1462.8,1479.96,1460.95z"/>
			<path class="st87" d="M1305.47,149.45c2.42-16.3,11.76-26.85,26.97-32.54c2.03-1.11,3.63-0.73,4.74,1.36
				c3.52,19.11,16.39,38.17,0.33,57.39c-8.8,8.16-17.52,6.81-26.19-0.21C1309.36,166.79,1307.42,158.12,1305.47,149.45z"/>
			<path class="st88" d="M1353.38,245.91c0.05,1.67-0.07,3.32-0.38,4.97c-19.25-1.82-30.36-18.93-47.47-26.08
				c-10.32-4.31-20.23-25.66,0.5-38.42c12,1.96,21.54,7,24.85,19.84c-3.79,13.09,6.35,16.41,14.78,20.92
				C1349.7,232.79,1358.53,236.5,1353.38,245.91z"/>
			<path class="st23" d="M1327.41,207.66c-3.85-10.39-14.91-13.53-21.38-21.28c4.8-2.17,3.97-7.06,5.28-10.92
				c8.73,0.07,17.46,0.14,26.19,0.21c0,0-0.09-0.11-0.09-0.11c2.23,12.98-12.44,4.06-15.24,10.14c8.21-1.69,16.41-7.22,20.63,5.52
				c-2.1,3.91-4.19,7.81-6.29,11.72C1334.57,206.6,1332.49,210.01,1327.41,207.66z"/>
			<path class="st89" d="M1289.83,107.06c5.41-0.63,7.68-12,11.18-7.7c5.52,6.77,8.39,17.02-0.89,24.99c0,0-2.4-0.66-2.4-0.66
				s-2.35,0.83-2.34,0.83C1289.01,120.14,1289.94,113.43,1289.83,107.06z"/>
			<path class="st90" d="M1152.28,117.16c20.32-13.31,41.72-16.71,64.84-7.79c10.28,3.97,22.05-1.54,32.23,4.28
				c-25.59,39.27-63.62,19.94-97.38,20.66C1148.25,128.53,1147.58,122.8,1152.28,117.16z"/>
			<path class="st91" d="M962.05,200.45c0.04-1.38,0.03-2.76-0.05-4.14c47.66-20.93,95.33-41.85,142.99-62.78
				c8,5.05,9.08,10.05-0.09,15C1057.27,165.77,1011.93,189.35,962.05,200.45z"/>
			<path class="st90" d="M1104.91,148.52c3.57-4.98,3.05-9.98,0.09-15c1.63-0.35,3.27-0.47,4.92-0.37
				c12.72,2.5,25.97-18.12,38.31,0.88C1137.4,149.66,1121.17,149.16,1104.91,148.52z"/>
			<path class="st91" d="M1148.23,134.04c-12.55-9.87-25.61,2.6-38.31-0.88c13.69-6.46,26.97-14.02,42.36-15.99
				c-0.1,5.72-0.21,11.43-0.31,17.15c0,0-1.91,0.31-1.91,0.31L1148.23,134.04z"/>
			<path class="st92" d="M1390.59,181.31c-3.42,0.1-6.84,0.19-10.26,0.29c-24.79-8.8-6.78-28.69-10.92-42.88
				c-4.06-13.94,8.64-8.92,14.5-11c5.32-1.89,9.01-5.07,11.92-9.59c3-9.91,9.99-11.22,18.75-8.71c11.3,15.46-4.89,33.15,3.95,48.83
				c0.45,2.54-0.32,4.64-2.29,6.31C1402.94,162.86,1399.05,175.59,1390.59,181.31z"/>
			<path class="st93" d="M1416.46,111.42c-6.87,2.24-13.75,4.47-20.62,6.71c-9.91-7.53-4.35-12.51,2.65-17.71
				c11.18-8.3,22.12-16.93,33.16-25.42c9.07,3.55,18.14,7.1,27.21,10.65c-0.12,1.61-0.46,3.18-1.01,4.71
				C1445.8,100.81,1433.41,110.61,1416.46,111.42z"/>
			<path class="st87" d="M1342.81,191.22c-5.65-6.97-14.59-3.32-23.29-6.64c6.96-3.51,12.43-6.26,17.9-9.02
				c14.26-4.63,19.12,6.71,25.7,15.13C1356.51,197.32,1349.71,196.12,1342.81,191.22z"/>
			<path class="st94" d="M1337.18,118.27c-1.55-0.57-3.12-1.02-4.74-1.36c-4.28-6.67-15.35-3.28-18.23-12.6
				c8.27-5.11,15.44-12.44,26.03-13.28C1334.16,99.54,1349.34,110.45,1337.18,118.27z"/>
			<path class="st95" d="M1670.53,228.51c3.64-6.95,7.27-13.89,10.91-20.84c22.72-16.64,48.46-10.96,73.57-9.99
				c4.39,20.03-14.78,33.29-15.15,52.23c-0.07,3.49-9.92,5.95-10.7,3.74c-6.18-17.52-31.33-4.52-36.99-24.86
				C1688.87,216.92,1677.97,236.77,1670.53,228.51z"/>
			<path class="st35" d="M1237.34,609.4c6.49-8.98,9.97-22.83,26.14-16.19C1260.17,607.34,1248.32,607.66,1237.34,609.4z"/>
			<path class="st96" d="M1416.46,111.42c12.42-9.72,24.72-19.69,41.39-21.06c23-4.91,21.33,20.31,34.09,27.9
				c-15.99,2.05-2.49,13.76-6.48,19.75c0,0-1.89,1.38-1.89,1.38l-2.33-0.23c-16.08,1.21-33.8-3.39-45.59,12.94
				c-4.28,6.8-10.54,9.16-18.28,8.14c-16.82-1.94-7.97-14.27-7.63-21.64C1410.15,129.45,1414.06,120.47,1416.46,111.42z"/>
			<path class="st97" d="M1417.37,160.24c5.21-3.49,10.43-6.98,15.64-10.47c9.25-8.81,19.44-12.34,31.48-5.67
				c-9.22,22.99-28.61,22-48.24,20.46C1416.51,163.09,1416.89,161.65,1417.37,160.24z"/>
			<path class="st30" d="M1464.48,144.09c-11.25-2.32-21.03,3.55-31.48,5.67c8.17-17.86,22.97-17.53,38.81-14
				c3.23,0.72,6.29,2.24,9.42,3.39C1475.65,140.8,1470.07,142.45,1464.48,144.09z"/>
			<path class="st98" d="M1353.38,245.91c-2.3-6.73-12.62-8.73-10.59-18.01c-2.91-5.45,1.89-6.99,4.81-9.49
				c11.8,6.66,32.22,7.28,21.04,30.03C1363.56,247.6,1358.47,246.76,1353.38,245.91z"/>
			<path class="st99" d="M1347.6,218.42c-1.6,3.16-3.21,6.33-4.81,9.49c-16.2,1.66-14.22-10.48-15.38-20.25
				c3.04-1.58,6.07-3.15,9.11-4.73C1342.1,206.75,1333.42,220.76,1347.6,218.42z"/>
			<path class="st100" d="M1136.19,1520.18c-8.28,4.59-16.56,9.19-24.83,13.78c-18.7-8.91-40.01-2.48-58.94-10.06
				c-17.5-0.99-32.73-8.74-48.1-16.1c-15.5-1.17-27.97-10.57-42.08-15.5c-1.5-1.81-2.99-3.61-4.49-5.42
				c1.47-2.24,3.41-3.96,5.72-5.28c15.84-5.84,32.7-8.6,48.12-15.82c11.63-3.34,24.13-1.06,35.58-5.61
				c26.14-0.48,49.98-13.7,76.18-13.82c6.82,2.48,9.78,8.47,12.97,14.24c1.63,2.85,2.23,7.26,4.85,8.46
				c6.99,3.2,5.25-4.15,6.41-6.91c2.57-6.13,4.58-12.45,9.26-17.44c6.23,14.47,29.01,14.18,29.68,34.56
				c0.24,7.45,0.8,11.67-7.4,12.66c-9.57-8.76-13.2,1.47-18.27,5.98C1152.56,1505.25,1143.97,1512.27,1136.19,1520.18z"/>
			<path class="st101" d="M1274.2,1374.83c9.98-1.58,10.06-16.94,22-15.78c25.21,0.89,37.56,17.59,46.83,38.09
				c-3.25,5.31-2.85,13.38-11.2,14.84c-8.69,7.28-17.38,14.56-26.07,21.84c-8.74,0.22-17.48,0.43-26.22,0.65
				c-7.42-1.82-5.77-12.29-13.39-13.93c-6.37-2.57-5.22-9.18-7.53-13.93c-3.69-5.33-7.38-10.66-11.07-15.98
				C1249.3,1373.23,1250.66,1372.43,1274.2,1374.83z"/>
			<path class="st102" d="M1274.2,1374.83c-6.6,9.12-25.54-2.56-26.66,15.81c-8.57,4.03-17.14,8.06-25.72,12.09
				c-16.74-15.73-44.08-18.24-53.57-43c24.86,2.57,47.44-16.11,73.18-7.55c5.57,1.85,8.75-4.01,10.77-9.23
				c1.87-4.85-0.77-14.55,9.34-11.65c6.89,1.97,6.35,9.38,7.24,15.49C1270.16,1356.2,1272.36,1365.49,1274.2,1374.83z"/>
			<path class="st103" d="M1268.06,1418.52c31.46-14.54-2.19,17.72,11.47,15.96c-4.27,22.91,3.84,44.96,5.16,67.51
				c1.08,18.54-6.88,26.78-24.5,31.76c0.99-16.58,1.9-31.81,2.81-47.04c-2.57-11.42-1.97-23.61-8.5-34.03
				c-1.8-3.04-3.23-6.22-3.69-9.75C1253.01,1432.3,1261.14,1425.84,1268.06,1418.52z"/>
			<path class="st104" d="M1131.47,1465.2c-4.02-4.32-6.26-9.35-6.05-15.34c-3.72-7.08-13.78-7.17-16.72-15.13
				c-0.99-6.62-1.12-13.21,0.81-19.73c7.09-15.06-13.75-29.67-0.75-44.8c6.11-3.61,8.87,1.76,12.54,4.69l0.02,0.04
				c15.51,19.02,30.13,38.54,35.56,63.23c-1.85,2.42-3.71,4.85-5.56,7.27C1147.6,1454.92,1148.86,1469.43,1131.47,1465.2z"/>
			<path class="st105" d="M1168.26,1359.73c3.08,7.08,9.28,8.61,16.1,10.8c16.71,5.38,31.33,14.09,37.47,32.2
				c-15.93,15.53-29.11,5.44-39.87-6.12c-13.66-14.67-26.82-29.28-46.31-36.22c10.76-5.03,21.56-8.76,32.59-0.66L1168.26,1359.73z"
				/>
			<path class="st106" d="M1268.06,1418.52c6.61,15.96-12.72,15.74-15.94,25.56c-2.12,22.78-5.72,25.38-20.99,15.19
				c0.41-6.94,22.59-14.7-0.97-20.81c-10.85-2.81-5.19-7.08-0.87-12.12c8.05-9.4,19.95-12.59,29.34-19.71
				C1261.76,1410.59,1264.91,1414.55,1268.06,1418.52z"/>
			<path class="st107" d="M1136.19,1520.18c12.23-15.9,24.46-31.8,36.76-47.79c8.71,5.68,5.35,13.16,6.16,19.53
				c-1.23,2.02-3.85,5.49-3.49,5.84c13.11,12.52,5.35,17.31-7.31,20.43C1156.15,1495.46,1146.9,1519.58,1136.19,1520.18z"/>
			<path class="st108" d="M1156.89,1438.16c-14.31-19.69-27.01-40.29-35.56-63.22c23.72,11.15,28.98,37.23,44.08,55.36
				C1167.24,1432.49,1161.59,1437.3,1156.89,1438.16z"/>
			<path class="st109" d="M1231.13,1459.27c18.02,10.18,14-10.14,21-15.19c2.06,2.31,4.12,4.63,6.19,6.94
				c2.13,7.72,0.17,14.3-5.54,19.83c-3.94,1.57-8.15,2.69-11.78,4.79c-7.16,4.15-16.3,7.67-20.84,0.3
				C1214.69,1467.09,1227.02,1464.78,1231.13,1459.27z"/>
			<path class="st110" d="M1131.47,1465.2c13.75,0.56,3.32-23.14,19.85-19.78c1.83-0.24,3.67-0.49,5.51-0.73
				c3.4,15.06-6.09,26.72-8.72,40.49C1136.68,1481.7,1136.49,1471.58,1131.47,1465.2z"/>
			<path class="st111" d="M1300.37,1475.71c20.37,5.17,19.15,20.34,16.7,36.07C1307.19,1501.75,1290.34,1494.96,1300.37,1475.71z"/>
			<path class="st107" d="M1190.08,1549.86c-17.5-0.09-23.68-15.45-33.84-25.33c-2.52-2.46-0.32-5.41,2.62-5.06
				c3.27,0.39,6.34,2.49,9.5,3.85C1175.6,1532.16,1182.84,1541.01,1190.08,1549.86z"/>
			<path class="st108" d="M1121.31,1374.89c-3.52-1.8-7.04-3.59-10.56-5.39c-8.59-3.02-15.52-7.99-12.35-18.09
				c1.65-5.27,6.86-6.79,11.18-1.01c4.74,4.7,10.74,3.11,16.39,3.31c5.15-1.11,6.83,0.97,5.43,5.9
				C1116.78,1357.28,1117.06,1364.78,1121.31,1374.89z"/>
			<path class="st102" d="M1131.39,1359.61c-1.81-1.96-3.62-3.93-5.43-5.89c0.04-1.51,0.06-3.02,0.05-4.53
				c8.36,0.3,15.95,5.6,25.24,1.43c7.57-3.4,15.8-2.23,16.99,9.12c-10.86,0.22-21.73,0.44-32.59,0.66
				C1134.17,1360.48,1132.75,1360.22,1131.39,1359.61z"/>
			<path class="st106" d="M1252.77,1470.85c-0.01-7.14,0.21-14.21,5.54-19.84c13.92,10.28,6.57,23.36,4.7,35.71
				C1259.59,1481.43,1256.18,1476.14,1252.77,1470.85z"/>
			<path class="st112" d="M1447.56,1481.94c1.87,6.93,3.74,13.86,5.61,20.8c2.72,15.3-6.32,28.53-6.37,45.48
				c-18.4-8.66-34.91-16.42-51.42-24.19c-8.72,1.41-15.83,0.43-15.91-10.84c1.83-4.77,4.85-9.43,5.28-14.32
				c1.56-17.57,8.72-23.48,26.91-18.3C1422.86,1483.76,1435.55,1481.66,1447.56,1481.94z"/>
			<path class="st113" d="M1379.48,1513.19c5.3,3.61,10.61,7.23,15.91,10.84c0.44,14.18-12.99,14.38-20.6,20.44
				c-10.75,0.63-10.98,8.43-11.1,16.3c-24.95-20.65-17.48-45.2-7.07-71.46C1365.19,1496.28,1367.21,1510.28,1379.48,1513.19z"/>
			<path class="st114" d="M1479.96,1460.95c0.03,1.76,0.06,3.53,0.08,5.29c-19.43,4.96-35.25-1.14-48.32-15.72
				c-0.18-14.38,12.85-5.97,18.33-10.6c2.37,0.19,4.74,0.39,7.12,0.58C1464.77,1447.32,1472.36,1454.13,1479.96,1460.95z"/>
			<path class="st85" d="M1450.06,1439.92c-3.92,6.45-15.51-0.85-17.21,9.59c5.08,5.97,8.92,12.23,4.59,20.33
				c-1.51,1.84-3.02,3.69-4.54,5.53c-14.81,0.28-9.22-15.82-17.01-21.17c-2.19-6.09,3.39-9.35,5.09-14.02
				C1430.67,1440.09,1440.37,1440,1450.06,1439.92z"/>
			<path class="st72" d="M1321.4,1333.15c-3.31,4.79-10.58,8.14-5.81,15.88c-6.52-1.32-13.02-2.63-19.53-3.94
				c6.18-9.54-1.61-29.62,20.48-27.16C1318.87,1322.78,1325.41,1326.28,1321.4,1333.15z"/>
			<path class="st115" d="M1331.83,1411.98c3.73-4.95,7.47-9.9,11.2-14.84c1.14,1.33,2.35,2.61,3.41,4
				c5.52,7.25,17.9,15.85,8.59,23.82C1342.36,1435.8,1339.57,1416.89,1331.83,1411.98z"/>
			<path class="st116" d="M1420.98,1440.17c-1.69,4.68-3.39,9.35-5.09,14.03c-3.04,1.55-6.94,2.37-8.97,4.77
				c-7.39,8.79-12.28,4-15.35-3.08c-3.66-8.44,2.52-9.92,9.29-10.95C1407.66,1443.92,1414.28,1441.81,1420.98,1440.17z"/>
			<path class="st117" d="M1048.37,1466.64c-12.9,1.32-25.8,2.64-38.7,3.95c-10.01,2.99-20.53,8.65-30.43,2.2
				c-19.96-13.01-36.82-4.05-53.6,6.06c-5.24,3.16-10.38,6.43-15.92,9.04c14.84-6.08,27.39-17.27,43.82-19.73
				c6.16-0.92,12.87-1.78,15.55,5.82c2.24,6.35-2.07,9.59-7.37,11.75c-1.25,0.65-2.58,1.03-3.98,1.15
				c-22.25,7.62-39.02,28.48-65.07,26.93c-1.35-0.01-2.69-0.04-4.04-0.09c-12.79,5.38-12.48-2.31-11.07-11.1
				c0.51-5.95-0.35-12.29,4.71-16.98c9.28-15.2,26.61-19.75,39.63-30.01c8.6-6.32,15.62-15.56,27.81-15.41
				c8.21,1.13,16.71-1.47,24.79,1.74c13.67,12.49,30.81,10.33,47.26,11.11C1030.43,1457.99,1042.25,1456.74,1048.37,1466.64z"/>
			<path class="st118" d="M962.23,1492.29c18.51-7,27.9,10.75,42.08,15.5c-1.98,5.02-5.33,8.64-10.5,10.45
				C981,1512.38,959.95,1516.54,962.23,1492.29z"/>
			<path class="st119" d="M1479.51,1471.18c5.23,3.67,10.47,7.33,15.7,11c6.32,13.09,25.16,15,27.95,31.26
				c-5.77,24.14-15.03,20.56-27.85,4.35c-10.27-12.98-12.38-30.83-25.96-41.56C1469.32,1467.68,1472.84,1466.25,1479.51,1471.18z"/>
			<path class="st120" d="M1523.15,1513.44c-11.84-8.16-30.69-10.07-27.94-31.26c8.97-2.29,18.27,10.72,27.05-0.57
				c4.29-0.48,8.18,0.01,10.52,4.3C1523.54,1492.98,1532.16,1506.29,1523.15,1513.44z"/>
			<path class="st121" d="M1479.51,1471.18c-4.41-0.37-8.09,0.71-10.17,5.04c-10.63-2.14-20.46-8.28-31.9-6.38
				c-3.68-6.29-6.19-12.85-4.59-20.33c15.74,5.57,31.47,11.14,47.2,16.72C1479.75,1467.88,1479.57,1469.52,1479.51,1471.18z"/>
			<path class="st122" d="M1052.41,1523.9c20.94-4.23,42.46-11.88,58.94,10.06c-1.41,10.14-8.56,14.93-17.13,18.42
				c-1.52-5.27,10.16-21.62-9.95-11.42c-6.7,3.4-14.69,4.14-21.92,6.6c-8.4,2.86-13.06-2.36-17.18-7.82
				C1038.19,1530.51,1049.52,1529,1052.41,1523.9z"/>
			<path class="st52" d="M877.56,1502.62c4.12,3.26,2.51,12.25,11.07,11.09c-3.81,4.91-7.62,9.83-11.43,14.74
				C858.26,1519.58,874.39,1511.19,877.56,1502.62z"/>
			<path class="st123" d="M1321.4,1333.15c-1.62-5.07-3.24-10.14-4.86-15.21c1.63-0.33,3.28-0.55,4.94-0.66
				c10.1,9.41,23.1,3.89,34.6,6.29c15.57,3.25,29.59,7.66,39.98,20.29c-15.83,13.23-29.61-0.13-44.15-3.44
				C1341.72,1338.08,1331.57,1335.57,1321.4,1333.15z"/>
			<path class="st124" d="M877.62,1465.45c-5.37,4.62-11.07,2.62-16.76,0.84c-1.22-0.49-2.46-0.92-3.73-1.29
				c-2.2-6.52-4.4-13.03-6.6-19.55c-7.91-7.9-12.93-16.35-5.13-27.21c13.94,3.66,23.11,14.68,31.94,22.39
				c22.46-7.4-28.2-21.73,5.23-27.78c8.15-1.75,15.98-1.87,22.55,4.44C909.56,1441.11,897.14,1455.31,877.62,1465.45z"/>
			<path class="st73" d="M787.84,1370.23c1.66,0.03,3.32,0.09,4.98,0.19c4.53,27.69-3.55,46.13-34.77,48.18
				c-5.2,0.34-6.57,5.1-7.39,9.58c-3.55,1.76-7.1,3.53-10.65,5.3c-1.39-13.83,6.75-23.61,18.44-23.78
				C787.31,1409.28,790.09,1392.3,787.84,1370.23z"/>
			<path class="st125" d="M734.65,1491.69c7.4,12.89,14.65,26.3,32.74,4.11c-11.63,22.37-11.63,22.37-38.93,21.52
				c0.15-9.1,9.95-16.31,6.37-25.74C734.83,1491.58,734.65,1491.69,734.65,1491.69z"/>
			<path class="st125" d="M740.69,1471.13c8.16-6.29,16.39-2.48,24.58-0.1c8.11,2.35,8.16,9.22,5.79,14.62
				c-4.33,9.89-12.68,2.8-13.07-0.86c-1.26-11.73-18.74-0.36-17.31-13.47C740.68,1471.31,740.69,1471.13,740.69,1471.13z"/>
			<path class="st126" d="M877.62,1465.45c8.75-15.72,23.44-28.02,26.87-46.79c20.4-16.59,45.72-24.42,67.77-38.06
				c14.22-5.34,28.44-10.69,42.66-16.03c2.13-1.59,4.36-1.84,6.72-0.56c12.68,10.55,5.14,17.95-4.08,24.78
				c-16.87,12.49-34.53,23.53-54.03,31.72c-18.14,7.62-33.64,18.58-38.77,39.36c-12.9,10.66-26.9,19.53-42.48,25.78
				C876.14,1479.97,886.38,1470.52,877.62,1465.45z"/>
			<path class="st127" d="M1020.8,1365.71c-1.96-0.38-3.92-0.76-5.89-1.14c21.06-12.76,39.76-1.31,58.77,5.9
				c6.38,2.42,12.77,7.67,19.23,2.09c9-7.77-1.72-11.47-4.57-16.63c-2.22-4.01-4.71-8.7,0.9-10.59c7.22-2.44,15.44-4.12,20.32,5.05
				c-18.81,7.54,1.13,12.72,1.17,19.11c0.25,9.8-3.21,19.59,6.42,28.28c12.84,11.58,3.55,17.17-7.99,20.71
				c-15.51,8.87-31.33,16.71-49.97,15.21c-2.51-0.7-4.82-1.89-6.86-3.52c1.77-16.88,18.4-16.25,26.27-24.65
				c-10.12,1.21-21.53,0.31-28.44-11.6C1054.42,1369.93,1031.96,1373.69,1020.8,1365.71z"/>
			<path class="st128" d="M972.25,1380.6c-17,22.65-43.2,28.9-67.77,38.06c-7.25-2.12-16.01,1.42-21.91-5.81
				c-0.05-19.95,12.97-18.26,25.21-13.8c19.13,6.98,23.79-1.7,22.87-18.43C944.52,1380.61,958.39,1380.61,972.25,1380.6z"/>
			<path class="st129" d="M915.11,1338.41c-10.31,4.78-14.21,20.87-29.96,16.63c-1.26-11.77,8.99-17.69,13.66-26.39
				C904.4,1331.64,911.54,1332.03,915.11,1338.41z"/>
			<path class="st130" d="M729.24,1360.51c6.16,7.96,17.19,1.36,23.91,7.95c-0.74,24.47-24.33,18.06-36.89,25.38
				c-7.75,4.52-8.68-11.66-13.87-16.83c-12.78-12.71,8.9-4.37,5.59-10.31C714.04,1361.15,720.86,1358.16,729.24,1360.51z"/>
			<path class="st131" d="M708.28,1364.01c-5.15,0.05-10.29,0.11-15.43,0.16c-1.85-6.17-13-1.92-12.13-10.66
				c0.21-2.13,3.12-5.94,4.2-5.74C695.03,1349.6,705.22,1351.86,708.28,1364.01z"/>
			<path class="st132" d="M845.4,1418.24c1.71,9.06,3.42,18.13,5.13,27.2c-10,11.56-25.96,7.15-30.87-9.23
				c-3.92-13.08-6.37-26.6-9.46-39.93c6.73-0.24,13.46-0.48,20.18-0.73C846.28,1395.91,837.73,1412.44,845.4,1418.24z"/>
			<path class="st5" d="M1533,1438.99c14.66,6.51,17.5,22.97,32.12,34.71c-13.57,0-23,0-32.04,0c0-11.47,0-23.12,0-34.77
				C1533.08,1438.93,1533,1438.99,1533,1438.99z"/>
			<path class="st118" d="M961.72,1485.73c0.7-5.02,11.52-15.07-4.9-11.87c-9.26,1.81-18.6,5.78-26.58,10.86
				c-8.62,5.47-16.55,9.37-28.47,5.01c24.54-22.45,48.42-39.59,82.83-22.1c7.04,3.58,16.65,2.11,25.08,2.97
				C995.59,1481.66,978.95,1484.63,961.72,1485.73z"/>
			<path class="st133" d="M1048.37,1466.64c-9.37-3.11-21.75,1.51-27.57-10.73c0.77-1.11,1.54-2.22,2.3-3.34
				c13.36-7.2,28.93-4.39,42.74-9.54c15.69,1.54,26.98-16.76,43.87-9.83c4.65,6.12,19.82,2.32,15.73,16.68
				C1099.87,1456.07,1075.24,1466.5,1048.37,1466.64z"/>
			<path class="st134" d="M1109.7,1433.19c-14.87,2.71-24.9,18.5-41.88,15.49c-6.22-5.29-18.57,5.03-21.34-7.7
				c-1.58-7.27,6.01-9.28,10.72-12.57c18.54,3.05,32.69-16.92,51.98-9.92C1114.4,1423.21,1112.76,1428.18,1109.7,1433.19z"/>
			<path class="st135" d="M1051.96,1391.49c10.39,9.07,23.42,9.69,40.5,11.67c-17.14,6.81-25.18,20.96-40.62,24.16
				c-8.09,16.61-24.36,13.86-38.44,16.3c-13.67-2.21-27.25,6.12-40.97,0.48c-7.16-1.41-14.98,10.59-21.64-1.07
				c21.15-27.88,52.6-41,82.18-56.54C1038.86,1383.4,1046.79,1385.32,1051.96,1391.49z"/>
			<path class="st136" d="M1051.96,1391.49c-31.28-4.31-47.44,25.03-73.35,33.22c-10.19,3.22-18.6,12.05-27.82,18.33
				c-8.68,5.61-17.36,11.22-26.04,16.83c-8.18-0.38-7.79-4.83-4.82-10.33c9.5-17.6,23.97-29.87,42.64-36.18
				c20.96-7.09,37.23-21.52,55.7-32.5c8.7-5.17,3.89-9.78,2.53-15.14c8.57-2.62,16.71-1.32,25.26,1.15
				C1063.38,1371.86,1064.68,1379.77,1051.96,1391.49z"/>
			<path class="st137" d="M972.43,1444.11c12.35-2.47,23.86-10.76,37.34-5.43c3.08,5.49,13.41,6.21,10.36,15.74
				c0,0,0.67,1.48,0.67,1.49C1002.26,1461.89,984.45,1464.86,972.43,1444.11z"/>
			<path class="st138" d="M1020.12,1454.42c-3.4-5.28-11.43-7.51-10.36-15.74c13.47-5.85,29.59-1.84,42.07-11.35
				c1.79,0.36,3.58,0.73,5.37,1.09c-16.84,17.43,5.12,14.54,10.61,20.27C1052.55,1455.8,1036.61,1457.42,1020.12,1454.42z"/>
		</g>
	</g>
</g>
</svg>
