<svg id="Livello_1" data-name="Livello 1" xmlns="http://www.w3.org/2000/svg" viewBox="0 0 2643.84 1566.6">
  <title>labirinto3</title>
  <g>
    <path d="M10.66,1544.69q0-756.89-.42-1513.75c0-18.52,2.11-25.09,23.49-25.07q1298.45,1,2596.88,0c21.4,0,23.49,6.59,23.47,25.1q-.78,767.43-.42,1534.87c-9.13,4.89-19,2.44-28.49,2.45q-213.77.32-427.44.16c-22.74-4.45-6.5-13.79-.78-17.26,18.2-11,38.3-18.1,60-16.89,13,.72,24.67,3.38,24.38-16.45-.15-10.29,8.45-14.56,18.81-13.37,17.53,7,34.82,7.09,52.36-.48,8.7-3.76,18.3-4.1,27.78-3.91,20.6.5,41.19-.69,61.77-.12,11.78.33,21.91-3.15,30.66-10.87,11-8.36,24.36-8.52,37.17-11.09,18.54-3.72,29.9,2.52,36.64,20.46,6.88,18.32,20.8,22.52,42.09,14.33,18-6.94,25.49-18.64,14.11-36.58-6.25-9.86-.21-18.56.35-27.77-19-14.12-39.55-8-58.81-2.55-61.34,17.48-123.85,29.6-186.14,42.87-20.22.12-40.51-1.68-60.62,1.34-11.23,1.69-20.82-1.95-30.13-7.24-19.34-11-39.65-13.65-61.14-7.85-13.9,3.75-27.88,2.91-41.89.37a129.52,129.52,0,0,0-39.44-1.54c-11.59,1.46-21,7.26-21.06,19.61s11.91,11,20,12c16.94,1.93,32.31,8.47,47.83,14.59,10.66,4.21,23.71,9.1,22,22.76-1.86,14.57-16.21,14.27-27.45,14.41-16.69.21-33.06.51-47.15,11.27q-139.7-.11-279.25,0c-13-2.58-11.78-13.55-12.7-22.7-1.31-13,0-26.22-1.15-39.3-1.28-14.15-6.78-27.53-21.39-29.63-28.19-4-43.41-19.63-49.94-46.1-1-4.19-5.1-7-7.57-10.58-7.09-16.11-21.19-16.34-35.71-15.92-78.36,2.23-147.8-24.74-213.12-65.15-23.48-18-36.75-39.6-26.07-70.45a10.85,10.85,0,0,0-5.5-13.56c-5.72-2.86-10.64.07-14,4.16-16.23,19.71-32.13,15.84-50.1,1.72-14.14-11.12-30.7-3.11-45.82-.72-37.77,6-73.15-28.7-66.71-66.47,1.17-6.88,4-15.39-4-18.64-7.26-2.92-10.16,5.79-13.11,10.49-11.7,18.6-26.94,29.06-50,28-19.37-.9-30.62-7.1-26.57-28.76.8-4.27,1-8.78-2.44-12.71-6.2-3.79-9.41,1.93-13.12,5-13.15,10.67-23.93,8.9-32.9-5.38-3.61-5.76-5.75-13.61-15-12.41a7.15,7.15,0,0,0-6.6,7c-.42,8.5,6.48,11.8,12,16a68.94,68.94,0,0,1,6.21,4.9c6.43,6.24,13.26,12.94,9.91,22.75-3.71,10.87-13.78,14.56-23.63,12.33-22.45-5.1-20.63,6.52-17.13,21.56,7.88,33.79,1.38,44.13-31.93,52-10.27,2.44-20.79,3.76-31.24,5.21-12.58,1.74-25.83,2.74-29.79-13.57-3.89-16,2.19-27.53,18.46-32.77,3.31-1.06,6.82-1.39,14.67-4.53-41.15,1.46-74.94,29.21-113.8,12,1.82,5.54,7.26,5.25,10.19,8.08,8.77,8.44,26.39,12.27,18.17,30C963,1311.8,928.67,1315,917.6,1306c-4.09-3.34-6.44-8.38-10.39-11.91-6.33-5.64-13.39-7.48-16.42,2.25-4.38,14.09-17.44,22.86-22.25,35.17-11.76,30.09-37.22,24.55-59.8,27-9.11,1-14.47-5.49-17.1-13.7-6.27-19.62-19.71-23.63-38.92-21.15s-38.8,2.56-57.89-1.19c-17.89-3.52-29.45,3.33-35,19.58-4.59,13.55-10.8,23.92-26.34,25.72a14.72,14.72,0,0,0-10.81,7c-22.84,36.88-56.22,65.66-78.38,103.18-19.45,32.94-54.72,41.52-87.18,39.16-33.4-2.44-63.13,10.35-95.18,11-14.92.27-32-7-45.38,6.55-17.22,9.09-36.84,5.92-54.86,11-16.87,2.62-33.82,2.36-50.79,1.86-21.71-1-43.43-.29-65.13-.4a112,112,0,0,1-46.41-7.24c-14.27-5.55-29.19-5.11-43.77,0C40.86,1543.23,27.21,1557.27,10.66,1544.69Z" transform="translate(-10.24 -5.86)" style="fill: #05040a"/>
    <path d="M1834.34,1564.93H2125c21.19-10.45,42.39-11,63.59,0l465,.89c-4.75,10.92-14.26,4.94-21.12,5-126.73.44-253.47.33-380.21.33q-1108.95,0-2217.91-.33c-7.73,0-17.91,6.09-23.76-5,10-9.14,22.54-8.39,34.8-8.79,35.92-1.16,71.82,2.22,107.74.46,65-2.63,129.92,2.49,194.89.15q51-1.56,102.07-.05,189.51-1,379-.81c16.67,0,33.33.21,50,1.3,5,0,10.07.06,15.1,0,36.07-1.61,72.15-.85,108.23-.1,12.79-1.09,25.59-.51,38.38-.22,14.15,1.21,28.33.36,42.49.55,12.57.48,25.13-1.51,37.71-.36,17.41-.62,34.81,0,52.23,0,11.26.77,22.53-.87,33.8.05,46-.56,92-1.88,138,.24,6.49,0,13,.11,19.48-.05,19.25-1.9,38.53,1.08,57.79-.47,28.71-.86,57.42.21,86.12.54,9.15-.26,18.3.33,27.45.23,5.9,0,11.8.1,17.7-.32,11.74-.15,23.32-3.08,35.15-2.32,27.41,3.59,55,.68,82.47,2.36,20.64,1,41.26-2.12,61.89-.05,12.88.55,25.76-.22,38.64,0C1792.83,1558.5,1814.62,1552.39,1834.34,1564.93Z" transform="translate(-10.24 -5.86)" style="fill: #fefefe"/>
    <path d="M153.12,1565l-142.46.85v-21.14c15.78,3.22,27.79-8.72,42.32-10.52,28.49-3.81,54.5,7.52,81.31,13.66C143.11,1549.85,154.31,1551.13,153.12,1565Z" transform="translate(-10.24 -5.86)" style="fill: #160709"/>
    <path d="M882.75,1564.91l-432.88,0c1.94-20.43,18.53-19.33,32.39-21.53,10.15-1.62,20.88,1,30.74-2.53,5.59-2,15.28-4.07,5.77-13.41-16.25-.93-31.83,5.53-48.1,3.68-39.85,1.36-79.83-3.38-119.46,5.08-11.55,2.47-24.49,2.57-34-7.83,16.25-21.69,39.14-.62,58.69-9,12.52-5.37,29.69,1,40.93-12.61,3.1-3.75,7.81-3,12.2-1.16,33.26,13.65,63.08,2.45,92.38-12.79,8.07-4.19,12.75-10.83,18-18.24,17.25-24.44,28.1-54.21,56.28-70.07,3.29-1.85,5.72-6.68,6.89-10.61,9.76-33,55.62-36,61.16-73.65.65-4.39,17.39-9.06,29-5.71,21.49,6.19,45,6.77,65.3,1.29,24.87-6.71,31.54,7.17,39.13,23,3.27,6.81,3.29,19.63,13.52,13.41,14.56-8.87,38,9.68,45.55-15,6.24-20.42,27.43-30.53,31.36-54.76,2.26-13.94,23.84-.86,27.55,8.36,11.7,29,31.15,9.08,46.54,8.76,6.76-.13,6.88-10.15-1.1-12.9-11.19-3.85-16.5-17.6-31-16.5-4.2.32-10.67-7.11-6.9-14.45,3.26-6.34,9.63-8.78,15.65-4.91,26.87,17.25,53.5,8.65,78.64-2.35,15-6.55,29.26-3.7,43.88-4.79,4.49-.34,9.57.85,9.49,6.45-.07,4.76-4.3,7.65-8.85,8.33-6.94,1-14.16.6-21,2.15-12.59,2.89-16.32,11.87-14.74,24,2,15.11,12.73,11.61,22.08,10.46,7.78-1,15.42-3,23.2-4.07,36.23-4.74,40.91-11.15,34.08-46.6-1.32-6.86-.63-14.22-2.68-20.79-4.77-15.31-.23-18.11,13.48-11.72a52.42,52.42,0,0,0,14.93,4.75c7,.92,14.85,1,18.56-6.61,4.17-8.55-3.47-13.09-8.51-17.19-5.27-4.29-12.24-6.44-18.17-10-8.26-5-7.81-13.24-6.77-21.18,1.25-9.57,7.85-13,16.82-13.2,8.52-.18,16.25,1.47,18.63,11,6.35,25.35,15.23,29.91,29.26,4.37,3.63-6.6,10.77-5.38,16.65-4,9.47,2.25,6.34,10.83,8.12,17.24,2.65,9.57-14.89,25.15,4.33,28,17.24,2.59,39.66,9.68,50-16,2.13-5.26,8.8-8.49,12.1-13.49,4.16-6.3,1.37-20.5,15.72-14.23,11.09,4.84,13.52,14.94,12.53,26.58-.93,11-15.87,20.59-6.76,31.55,11.08,13.31,23.6,27.54,38.67,34.84,16.27,7.9,34.12-7.55,52.7-5.62,9.38,1,17-6.23,24.89,8.2s25.8,15.85,35.84-1c6.77-11.38,14-14.89,25.49-10.92,13.78,4.76,13.14,16.46,8.6,26.07-13.51,28.55,2.51,45.7,21.71,62.23-28.44,5.21-53-5.72-77.07-18.55-18.61-10.13-40.7-12.64-57.77-26.17-17.11-14.89-41-16.26-64.15-3.55a35.07,35.07,0,0,1-11,5.93c-77,1-152.37,14.63-227.69,28.73-53.36,14.07-107.76,12.79-162.16,10.86-6.24.51-12.4,2.45-15.18,8.18-9.57,19.75-27.19,27.5-46.65,32.93-11.08,2.62-19.57,11.8-31.42,12.51-8.31-1-13.73-6.06-17.84-12.88-7.5-9,2.19-27-15.93-30.43-15.26-.4-30.29,2.12-45.41,3.19-8.59,1.56-18.28,7-25.7,1.86-18.18-12.68-27.9-1.85-35.56,11.76-8.37,14.88-21.27,22.69-36,28.89-8,9.79-15.77,19.73-25,28.36-6.58,6.05-12.51,12.61-16.46,20.77a189.33,189.33,0,0,0-10.17,21.57c-2.46,13.93,6.11,19,16.44,14.62,18-7.65,25.4.91,32.55,15,8.27,16.3,22.92,18.76,38.05,7.29,11.92-9,18.51-23.16,30.51-32.18,14.42-5.2,29-14.28,42.65,1.56a12.17,12.17,0,0,1,1.08,7.11c-4.22,7-13.28,9-17.15,16.43-4.63,8.24-4.28,16.79-1.65,25.5,8.17,12.18,19.65,13.86,32,8.82,31.08-12.63,63.11-7.9,95-6.26,7.81,4.91,9.45,14.68,16.19,20.45C871.47,1545.35,890.59,1547.47,882.75,1564.91Z" transform="translate(-10.24 -5.86)" style="fill: #0d070c"/>
    <path d="M1850.34,709.63c-.47-10.43,2.71-22.84-5.26-30.41-26.55-25.23-45.07-59.6-83.91-71.13-26.8-8-44.93-29.47-55.45-53.18-17.87-40.29-31.92-82.42-45.14-124.54-4.84-15.41-11.11-32-20.77-41.38-14.68-14.28-13.67-20.89-1.39-34.87,23-26.15,23.68-58.8,21.42-91.63-1-14.28-14.3-19-21-28.79,13.5-10.74,24-2.35,34.69,5.34,7.44,6.77,10.57,15.77,12.92,25.16,2,8.31.59,17.15,4.24,29.44,25.27-29.47,53-30.91,82.45-10.69,22.53,11.23,48.62,10.49,71.25,21.32,4.71,3.54,8.27,7.55,5.8,14a324.45,324.45,0,0,1-98.34-26c-15.76-6.91-25.32-1-29.43,11-4.49,13.12,8.79,13.32,17.93,16.39,41.35,13.89,77.58,34.7,91.55,79.59,4.79,15.41,16.78,21.34,28.73,24.08,43.55,10,79.34,39.47,123.7,47.47,9.71,1.75,23.08,5.67,24,26.4C1980.43,479.35,1950,478,1922.22,466c-48.72-21.16-98.64-39.56-148-59.19-7.67-3.05-15.36-5.86-21.33,2.49-5.8,8.11-1.6,16.73,3.56,21.74,27.42,26.56,28.35,57.4,20.64,92.34-6.9,31.27,2.43,40.86,34.31,49.64,15.15,4.17,29.54,9.26,45.69,10.63,20.9,1.77,46.39,46.22,39.07,65.35-3.66,9.59-4.3,17.15,5.37,22.59,18.23,10.26,31.8,27.11,53.07,33.59s24.39,27.08,23.94,45.45c-.41,16.81-24.25,19.95-45.8,8-12.28-6.78-15.44-29.36-38.26-19.09-14.66,6.59-21.91,19.53-33.7,28.13-9-9.43-3.56-21.24-5.33-31.86C1854,727.05,1860,716.79,1850.34,709.63Z" transform="translate(-10.24 -5.86)" style="fill: #23120f"/>
    <path d="M1426.8,1307.1c21.72,17.62,49.89,16.84,74.53,26.12,36.06,30,82.41,38.38,124.07,55.36,31,12.62,68.71,10.75,103.78,7.88,16.44-1.34,22.55,5.74,20.69,21.35,3.7,2.54,7.7,5.49,8,10,1.27,22,5.22,41.19,31.23,48.08,7.65,2,9.29,12.57,4.69,20.61-4.28,7.48-11.65,8.91-18.07,4-20.54-15.82-45.42-19.53-69.38-23.19-64.2-9.79-109.41-53.6-160.49-86.72-17.46-11.32-34.44-23.59-51.16-36.08,64.43,50.68,138.39,88.32,197.61,146,15.08,14.69,35.54,18.4,53.07,28.06-5.37,17.81-20.84,17.6-35,19.67-16.36-7.06-30-18.72-41.49-31.37-25.59-28.09-55.75-50-82.71-67.92,27.06,35.11,60.53,71.12,96.16,105.12,1.61,10-7.43,8-12.16,10.87-28.34.61-56.73,3.85-84.95-1.68-13.86-7.1-22-18.72-26.25-33.34-4.82-7-13.27-12.34-10.92-22.78,20.26-12.74,34,1.08,45.7,9.25-12.14-19.38-29.08-40-41.57-63.78-3.29-6.26-3.57-17.7-16-14.7a20.83,20.83,0,0,1-4.44,4.64c-13.81,6.61-17.61,24-32.14,29.79-7.15-.66-11-5.26-13.47-11.37-3.14-11.84-4.68-24.14-10.11-35.32-5.14-12.3-14.08-22.3-20.59-33.78-11.5-22.31-32.89-35-50.29-51.58-16.67-15-35.09-26-58.17-27.23a25.14,25.14,0,0,1-7.64-1.86c-8.2-3.21-19.11-6.86-17.25-16.75,2.31-12.24,14.26-6.39,21.89-5.57,22.62,2.44,44.56,8.26,66,16C1415.32,1306.89,1420.43,1312.07,1426.8,1307.1Z" transform="translate(-10.24 -5.86)" style="fill: #251a14"/>
    <path d="M2188.61,1564.94H2125c-.54-18.86,13.62-13.3,24.11-15.2,13.69-2.49,36,9.25,39.19-8.16,2.73-14.67-21.28-13.13-33.19-19.25s-24-10.72-37.8-9.49c-12.15,1.08-27.58-2-26.07-14.83,1.49-12.61,7.17-29.51,25.32-32.4,5.16-.82,10.56-.06,15.84-.27,30.24-1.2,59.86,9.25,91.22-1,14.1-4.59,34.51-.15,49.19,13.07,16.9,15.21,37.15-.07,55.77,3.48,9.36,1.78,19.32.37,29,.4-1.49,13.73-12.92,11.29-21.15,11.8-14.35.89-26.64,5.59-37.47,14.73-8.28,1.31-17.14,3.73-12.39,14.45,10.14,22.87-3.45,24.48-19.17,21.08C2237,1536.81,2212.34,1548.53,2188.61,1564.94Z" transform="translate(-10.24 -5.86)" style="fill: #170d10"/>
    <path d="M1744.34,1528.87c-24.37,3.37-42.31-9.81-58.53-24.65-44.68-40.88-93.26-76.22-144-109.16-23-14.94-45-31.8-73.88-48.77,20-1.77,31.9,3.68,42.54,11.87,44.76,34.46,90.46,67.9,140.24,94.44,22.51,12,49.18,18.33,74.7,21.88a130.31,130.31,0,0,1,53,19.6c3.41,2.15,6.12,7.46,10.58,2,3.86-4.75,3.35-13.44-.45-13.94-40.45-5.35-32.31-39-38.63-64.28,17.06,29,38.16,52,73.48,59.63,8.17,1.78,11.63,15.92,11.19,27.39-.77,20-.2,40.06-.2,60.1l-63.55.12a21.63,21.63,0,0,1-6.3-13.06C1766.46,1536.73,1753.45,1534.49,1744.34,1528.87Z" transform="translate(-10.24 -5.86)" style="fill: #0f0508"/>
    <path d="M1241.9,623.92c-5.42,20.65-18.8,33.22-39.38,38-18.81,4.34-31.65,18.44-46.49,28.85-12.62,8.87-21,23.3-38.69,25.25-7.95.87-7.42,8.92-6.67,14.93.37,3,2.53,7.11,5,8.14,6.71,2.84,7.53-4,11-7.44,18.72-18.15,37.25-37,65.47-40,4.13-.44,9.36-2.4,11.77-5.47,24.3-30.93,67.51-26.49,95-51.29,8.13-7.33,18.22-3.87,30.72-4.72-10.74,19.19-23.51,35-40.16,41.63-52.21,20.92-99.22,51.61-149.72,75.55a124.53,124.53,0,0,1-27.29,9.3c-29.71,6.28-29.78,6-46.14-16.37,4.65-20.73,23.93-27,38-38.37,39.13-24.77,80-47,115.5-77.16,4.13-3.5,8.19-6.58,13.72-7.17C1237.82,617.75,1240.31,620.25,1241.9,623.92Z" transform="translate(-10.24 -5.86)" style="fill: #140c0d"/>
    <path d="M1342.72,265.54c-14.8,9-25.68-5.32-38.16-8-12.86-2.8-22.6-19.8-38.53-5.23-2.39,2.19-6.29-.86-7.5-4.8-6.56-21.17-28-32.16-35.15-53.92-5.84-17.81-24.79-11.86-39.12-12.6-.63-11.88,9.16-10.1,16-11.91,8.08-2.14,17.46,1,24.31-6,19.3-20.57,36.68-44.32,69.55-43a16.12,16.12,0,0,1,7,1c11.07,7.15-2.22,22.35,9.73,29.23,4,8,6.67,16.41,5.89,25.56a27.28,27.28,0,0,1-5.81,13.91c-11.39,14.07-7.69,24.68,6.94,33.71,13,8,26.93,14.91,37.53,26.46C1359,261.49,1348.52,261.62,1342.72,265.54Z" transform="translate(-10.24 -5.86)" style="fill: #180f11"/>
    <path d="M1295.37,124.53c-26.91,4.55-48,18.22-63.74,40.44-13.64,5.34-25.21-6.94-40.57-2.75-17,4.64-36.12-3.51-43.28,23.48-2.76,10.39-24,10.54-36,9.84-48.36-2.81-91.85,18.66-138.23,25.23-10.72,1.52-22.27,2.53-32.46,7.65-11.73-1.07-27.09,4.32-28-15.82,17.58-3.06,31.13-17.15,49.48-18.13,48.23-12.4,92.39-36.05,139.86-50.52,14.82-1.65,30.05-1.93,42.32-12.39a23,23,0,0,1,7.28-1.5c21.47,3.11,42.86-1.23,64.3-.79,14.69.3,19.25-12.89,28.19-20.26,6.93-5.64,14.25-10.41,23.61-10.57,7.06,5.07,15.45,6.38,23.71,8.16C1296.36,111.91,1296,118.2,1295.37,124.53Z" transform="translate(-10.24 -5.86)" style="fill: #351e0a"/>
    <path d="M1976.89,324.15l180.28,158c5.13,9.54-.71,14.44-8.27,17.47-12.73,5.11-20.73-2.57-27.86-11.61-4.27-6.56-7.8-13.64-12.76-19.81-5.39-6.7-9.6-15.42-20.27-5.48-5.34,5-16.65,6-19.29.75-10.16-20.22-28.14-19.68-46.24-22.66-9.26-1.53-16.24-11.32-18-21.09-3.25-18.51-14.8-30.59-27.11-43.5-10.54-11.05-22.27-20.77-30.48-35.12-9.66-16.87-30.79-17.73-49.64-17.51-5.13-.1-10.26.1-15.3-1.21-5.33-5-15-4.58-17.2-13.5,35.26-18.32,73.31-13,100.58,14.31C1969.34,327.15,1972.84,326.34,1976.89,324.15Z" transform="translate(-10.24 -5.86)" style="fill: #492a18"/>
    <path d="M2124.77,482.4c10.93,16.28,21.78,22.6,32.39-.27,6.57,7.21,17.3-.36,24,6.95,9.68,10.54,28.55,18,25.3,33.36-3.57,16.89-21.61,27.07-35.18,37.51-7.61,5.85-20.06-.84-25.56-8.44-18.67-25.75-45-39.75-72.53-53.46-38.57-19.2-71.41-46.15-99.35-79.39-14.56-17.32-20.47-36-18.09-57.88,14.83-7.79,13.6,6.37,16.12,12.85,9.15,23.51,21.06,47.79,42.39,59,31.73,16.66,58.66,45.77,98.71,44.44C2117.3,476.91,2121.37,479.43,2124.77,482.4Z" transform="translate(-10.24 -5.86)" style="fill: #1a0f10"/>
    <path d="M1797.42,852.33c-1.81,26.81-3.08,53.68-5.6,80.43-1.75,18.56-4,35.59-30.42,37.28-19.47,1.25-22.87,18.16-9.26,35,26,32.26,50.57,65.35,65.7,104.48,3.79,9.78,9.18,19,2.17,31.39-47.48-28.75-70.57-81-112.57-114.25-1.28-41,26.58-66.92,50.78-93.76,13.56-15.05,22.65-29.4,22.32-50.35C1780.35,870.76,1780.4,856,1797.42,852.33Z" transform="translate(-10.24 -5.86)" style="fill: #170d10"/>
    <path d="M1797.42,852.33c-6.9,5.27-10,14.75-9.07,20.81,7,43.17-26.53,64.24-48.24,91.65-10.76,13.59-23.81,25.66-22.24,45.31.61,7.75-3.48,13.24-10.42,16.6l-10.46.1c-13.59-1-22.68,14.07-37,10.35-2.82-26.15,9.17-45.48,24-66.55,35.21-50.12,81.32-91.24,114.5-142.8,2.44-3.79,5.55-9,13.17-8C1808.64,831.63,1806.91,843.52,1797.42,852.33Z" transform="translate(-10.24 -5.86)" style="fill: #2a1f16"/>
    <path d="M1342.29,349.62c4.12-10.91,2.3-25,16.46-30.49,14-4.31,17.54,3.06,16,14.89-.79,5.89-5.16,13.2,5,13.48,7.93.22,12.13-5.7,12.39-13.88.26-8.61-4.29-16.91-1.62-25.66,10.13-5.47,18.32-.17,26.59,4.77,12.53,11.83,15.92,25.16,4.21,39-7.93,9.42-6.76,19.58-4.69,29.72,5.17,25.35,1.91,48.06-17,67.34-4.82,4.91-7.36,11.81-11,17.78-8.88,18.33-25.7,30.11-38,45.68-9.09,11.49-18.77,9-29.28-4.14L1337.75,477c7.41-14,5.52-32.34,21.5-42.44,5.7-3.6,1.86-10.42,1.47-16.38-1.33-20.64-8.24-38.86-18.67-56.26A11,11,0,0,1,1342.29,349.62Z" transform="translate(-10.24 -5.86)" style="fill: #cf994c"/>
    <path d="M1268.57,101.48l-19.22,12.18c-12.88,3-25.42,3.86-38.68.19-19.24-5.31-38,.37-56.37,6.23-15.08,4.17-28.11,13.3-43,18a61,61,0,0,1-6.93,3.06c-47.77,20.06-94.85,41.79-144.11,58.13-8-.69-14.2-2.64-8.59-12.6,83.79-46.91,170.39-86.77,265-107.15,26.06-5.62,52.14-5.88,78.44-3.71,7.62,3.74,7.78,8.56,2.08,14.24C1289.25,97.92,1278.66,99.09,1268.57,101.48Z" transform="translate(-10.24 -5.86)" style="fill: #f5e4ae"/>
    <path d="M2299,1507.86c-4.77-11.54,2.26-13.7,11.37-17.67,15.37-6.69,33.1,2,47.25-8.87,60.29-15.07,122.35-22.79,181.51-42.37,21.6-7.16,43.26-4.6,65-5.35,12.83-.44,11.48,7.4,7.14,15.73a24.2,24.2,0,0,1-19.09,7.41c-42-2.77-77.33,20.53-116.37,29.14-29.81,18.35-65.49,10.52-96.92,21.71a94,94,0,0,0-32.48,6.54C2330.92,1520.1,2312.63,1525.44,2299,1507.86Z" transform="translate(-10.24 -5.86)" style="fill: #4c311a"/>
    <path d="M528.42,1519.3c11.77,14.73,7,24.52-10,27.78-13.64,2.62-27.85,2.27-41.79,3.43-10.93.91-20.56,4.48-26.72,14.37l-101.23.11c-23.06-4.51-46.64.19-69.82-4.26-13.26-2.55-22.5-5.63-14.58-21.52,16.46-9.44,36.31-2.37,53-10.87,52.82-1.54,105.51-7.92,158.47-4.36-1.39,14.09-12.57,9.21-20.24,9.93-18.21,1.71-36.35-1.63-54.54-2.5,31.3,3.63,62.58,3.44,93.92.44C507.35,1530.65,519.41,1529.39,528.42,1519.3Z" transform="translate(-10.24 -5.86)" style="fill: #6c3c1b"/>
    <path d="M2473.88,1481.27c44.12-17.77,87.56-38.47,137.34-31.94-1,9.74-8.81,17.39,1.92,29.56,9.53,10.8,6.06,27.37-11.45,36.69-15.79,8.41-31.84,8.64-48.44,7.73-8.56-.47-14.71-3.51-13.67-14.67,2.09-22.45-7.28-30.45-29.82-23.13-9.68,3.14-21,.21-30.5,6.1C2475.75,1489.06,2473.48,1485.85,2473.88,1481.27Z" transform="translate(-10.24 -5.86)" style="fill: #28110d"/>
    <path d="M1976.89,324.15c-.36,5.52-1.77,10.76-7.45,12.78-5.4,1.93-9-2.28-9.41-6.41-2.9-32.65-30.91-21.21-47.22-23.72-14.4-2.21-31.18-.21-46.85,1a8.92,8.92,0,0,1-8,1.54c-27.84-12.07-58.32-14.07-87.07-22.73-7.4.31-12.65-4.79-18.83-7.15-16.86-6.44-33.57-7.76-46.19,10.66-4.2,6.13-9.55,17.43-20,12.5-8.14-3.87-4.59-14.12-5-21.72-.29-5.22.24-10.49.41-15.74,4.29-1,6.84,1.51,9.13,4.5,1.62,1.8,3.55,5.64,5.44,4.5,42-25.43,87.26-4.43,130.66-9.34,6-.68,12.08,2.45,16.88,6.45,15.71,13.06,33.23,13.78,54.24,8.25-5.83-12.54-18.87-15.84-26-24.77-7-8.77-11.51-16.85,4.56-20.39C1916.63,256.62,1941.62,296.14,1976.89,324.15Z" transform="translate(-10.24 -5.86)" style="fill: #5c3215"/>
    <path d="M1876.22,234.38c-5.27,5.08-10.38,10.15-1,16.19,1.47,1,3.23,1.77,4.2,3.12,8.15,11.47,32.09,9.16,28.82,28.93-1.74,10.52-47.23,13.77-59.66,1.45-14.81-14.68-30.87-12.83-48-13.46-21.77-.8-43.58,2.33-65.41-3.27-10.92-2.8-22.42,1.94-30.75,10.79-3.95,4.21-5.38,13.21-12.85,10.75-8.88-2.91-4-12-5-18.36,13.45-19.64,34-17.56,53.81-17.65,20.79.71,41,.17,61.22-7.77,17.06-6.7,24.75-12.22,8.35-27.45-2.56-2.37-3.21-6-2-9.63C1830.81,216.49,1854.7,222.36,1876.22,234.38Z" transform="translate(-10.24 -5.86)" style="fill: #77401c"/>
    <path d="M2124.77,482.4c-68.7.45-137.81-49.53-161.07-116.67-1.46-4.22-4.36-4.79-7.94-5-13.51-17.33-31.34-27.51-52.71-31.82-2.81-3-8.56-4.5-5.3-10.53,25.77-.39,50.78-1.66,60.63,31.58,2.42,8.19,15.78,14.58,23.88,22,14.62,13.45,25.56,25.83,28.79,47.15,2.08,13.72,15,26.36,34.06,15.89,9-4.95,20.72-8.88,19.35,7.63-.95,11.39.73,17.06,11.93,18,12.88,1,16-7.38,12.4-24.28C2105.13,454.4,2118.66,465.4,2124.77,482.4Z" transform="translate(-10.24 -5.86)" style="fill: #2e160d"/>
    <path d="M941.06,228.42c18.08-13,40.15-15.89,60.7-20.06,17.26-3.51,34.33-6.16,50.07-14.12,25.45-12.88,53.73,3.47,79.16-8.1,5.62-2.55,26.38,5.23,9.35-13.91-3.84-4.32,25.53-23.78,31.45-18.94,9.48,7.75,15.55,5.91,25.26-.25,14.54-9.22,22.09,10.21,34.58,11.93-1.64,13.25-12,9.71-20.17,10.61-9.21,1-19.5-3.27-27.2,5.37C1105.85,210.39,1022.82,216.18,941.06,228.42Z" transform="translate(-10.24 -5.86)" style="fill: #3c2a1d"/>
    <path d="M1353.62,84.8c18.5-15.09,43.21-5.62,62.91-15.91,6.23-1.73,12.53-3.87,17.23,3-1.52,13.27-10.5,20.84-21,27.23-7.45,4.55-14.57,9.29-14.2,19.51-2,9.9-12.77,11.2-17.5,17.51-11.23,15-6.08,30.8,2,45.81,2.31,14.86-4.28,18.76-17.63,14.33-9.84-4.2-15.83-14.27-26.42-17.4a11.31,11.31,0,0,1-4.25-5.53c5.57-18.14-1.07-36.18-.52-54.29,2-9.12-2.14-18.41.63-27.54C1339.2,83.9,1346,83.25,1353.62,84.8Z" transform="translate(-10.24 -5.86)" style="fill: #997749"/>
    <path d="M264.24,1539.21c-.65,10.75,4.92,13.35,14.93,16.81,22.87,7.91,47.38-1.29,69.47,9H153.12c-29.68-13.17-57.77-32.58-93.31-19.82-12.63,4.54-9.34-4.28-6.83-11,15.3-9.11,32.16-7.86,47-2a100.69,100.69,0,0,0,42.66,7.31,190.55,190.55,0,0,0,69,0Z" transform="translate(-10.24 -5.86)" style="fill: #432b12"/>
    <path d="M1447.77,354.36c-5.34,14.32-2.62,26.53,12.33,32,27.44,10,45.17,23.52,28.5,55.81-1.57,3,1.18,8.32,2.15,13.81-8.67,2.35-19-10.63-25.14,1.63-12.84,25.85-23,16.78-33-1.8-9.52-11.15-4.06-24-4.26-36.26,6.09-19.42-5.91-38.48-.38-58.48C1432.19,345.79,1438.5,348.58,1447.77,354.36Z" transform="translate(-10.24 -5.86)" style="fill: #1c130f"/>
    <path d="M1628.4,223.06c-12.6-15.25-14.07-32.64-6.52-49.85,9-20.62,23.46-22,37.14-4.21,10.07,13.1,18.87,18.29,37.5,12,21.94-7.46,42.55,9.6,64,15a13.58,13.58,0,0,1-6.25,5.43c-22.34,5.38-46.25.09-67.93,9.92-6.42,1.94-14.93-.89-19.36,4.85C1655.81,230.62,1642.22,226.39,1628.4,223.06Z" transform="translate(-10.24 -5.86)" style="fill: #251511"/>
    <path d="M1241.9,623.92l-5.07-4c-3-2.82-3.28-6.22-2.13-9.92a15.94,15.94,0,0,1,4.74-5.1c7.2-5.84,20.1-3.84,22.51-16.39,40.73-27.24,74.63-61.67,105.4-99.41,1.68-2.07,3.39-5,5.74-5.06,13.9-.52,11.94-10.42,11.92-19.31,10.86-5.33,16-24.42,33.46-13.76,1.8,5.5,1.57,10.81-1.46,15.86.36,30.48-30.26,36.7-46.2,52.05-15.7,15.13-31.55,32.57-45.44,48.12C1301.21,594,1267.56,602.23,1241.9,623.92Z" transform="translate(-10.24 -5.86)" style="fill: #583b1a"/>
    <path d="M1385.58,467c1,7.57,10.72,15.51-5.61,20.83-19.66,6.41-26.54,28.29-40.78,42-23.9,23-43.85,50.1-75.71,63.45-9.74,3.74-17.61,10.5-26.14,16.19l0,.08c-6.55,2.8-11.82,3.3-11.38-6.37,35.82-27.59,67.18-59.64,95.31-94.95,7.1,7.68,19,9.29,22.82,2.2,10.55-19.37,31.43-29.53,40.69-49.38q2.25,1.72,1.85,3.81C1386.37,466.23,1386,467,1385.58,467Z" transform="translate(-10.24 -5.86)" style="fill: #b08648"/>
    <path d="M1427.12,186.33a25.27,25.27,0,0,1,18.8,7.86c4.79,5,18.88,8.84,4.72,18.94,8.43,6-15,21.36,7,23.69,2.9.31,5.3,4.63,3.48,8.49-2.31,4.9-7.21,4.2-11.37,4.17-21.67-.15-43.57,2.47-64.66-5.08-15-24-13.31-29.78,9.67-42.45C1405.35,196.13,1418.74,196.39,1427.12,186.33Z" transform="translate(-10.24 -5.86)" style="fill: #1e1411"/>
    <path d="M1552,80.81l2.1,5c-1.52,19.68-15,31-29.06,42.05-11.54,7.93-21.93,19.26-38.29,13.28-4.4-6.71-14.51-8.88-8.74-22.53,5.17-12.19-10.5-18.58-19.06-26a9.89,9.89,0,0,1-1.57-7.17c3.85-8.11,11.7-9.42,19.2-11.85,19.27-6.24,39.48-1.3,59-5.57C1544.42,66.15,1550.17,71.78,1552,80.81Z" transform="translate(-10.24 -5.86)" style="fill: #c9a16a"/>
    <path d="M1385.58,467l-.78-6c3.58-6,6.25-12.89,10.93-17.89,14.8-15.81,22-33.34,15.26-54.87-5.49-17.44-6.38-33.07,8.71-47.59,8.39-8.08-2.1-18.43-2.62-27.91,20.14,6.58,23.11,25.82,30.69,41.65-24.88,2.63-14.55,22.57-13.47,33.71s5.51,21.09-1.08,31.6c-9.3,7.94-5.1,23.54-17,30C1403.13,450.34,1399.26,467.35,1385.58,467Z" transform="translate(-10.24 -5.86)" style="fill: #8e652d"/>
    <path d="M1485.46,138c15.92,3.55,25.27-9.66,37.77-14.83,15.94-7,26.57-6.89,20.35,15.41-9.71,11.83-23.24,10-36.36,10.76-12.6.72-28.66-7.69-29.58,18.77-.43,12.38-23.36,11.07-36.29,10.58-8.84-.34-15.22-1.59-19.3,7.42-12.92,14.77-25,18.06-35.41-2.52,2.17-15.42,12.58-22.13,26.54-25,17.78.24,35.17-.77,47.77-16.09a43.41,43.41,0,0,1,17.52-6.52A10.45,10.45,0,0,1,1485.46,138Z" transform="translate(-10.24 -5.86)" style="fill: #1e1411"/>
    <path d="M1755,197.68l5.49-1.67,5.21,1.81c9.93,3.93,23.64,2.69,25.51,17.85,1.56,12.65-8.47,17.85-16.32,24.56-9.31,7.94-19.74,14.05-30.41,19.84-20.58-3.5-39.13,4.25-58,10.45l-5.19-5.34L1670.93,244c-3.61-5.85-12-11.23-1.87-18.49,17.57-13.82,28.78,3.81,41.67,9.49,15.68,6.89,26.93,11.54,31.1-11.72C1743.45,214.2,1750.1,206,1755,197.68Z" transform="translate(-10.24 -5.86)" style="fill: #a75f2e"/>
    <path d="M1744.49,260.07c5.67-10.32,15.09-16.77,24.06-23.82,24.84-19.54,24.67-20.67-2.84-38.43,15.66-3.17,28.16,6.69,42.21,10.2,2.24,2.59,4,6.08,6.81,7.61,8.81,4.76,17.83,10.89,15.75,21.28-1.82,9.06-13.24,9.19-20.91,12.8C1788.73,259.5,1767,261.86,1744.49,260.07Z" transform="translate(-10.24 -5.86)" style="fill: #8e4c1e"/>
    <path d="M1342.29,349.62c5.85,11.92,6.69,27.36,22.56,32.28.83.26,2.25.11,2.47.59,4.83,10.44-17.22,19.29.36,32.47,16,12,2.86,24.78-9,29.37-16.52,6.36-2.36,29.57-20.88,32.64q-.06-52.39-.1-104.79C1337.65,364.35,1336.74,356.32,1342.29,349.62Z" transform="translate(-10.24 -5.86)" style="fill: #a97939"/>
    <path d="M1226,603.11c2.42,4.58,6.63,5.95,11.38,6.36-.18,3.48-.35,6.95-.53,10.43-27.16,31-68.26,42.8-97.66,70.9-8.78,8.39-20.7,12.45-32.88,14.59-5.54,1.54-7-1.1-6.26-6.07,28.15-20.51,55.6-42.09,84.73-61.09C1200.26,628.12,1212.69,615.31,1226,603.11Z" transform="translate(-10.24 -5.86)" style="fill: #9a7647"/>
    <path d="M1552,80.81c-14.91-18.36-34.22-4.12-51.17-5.68-13.54-1.25-27.94,6.67-42,10.52-13.24,7.11-20.42-1.3-27.22-10.65-3-7-9.92-4.42-15.1-6.11,40.87-18,82.26-19.59,124.17-3.92C1549.91,68.42,1549.87,68.52,1552,80.81Z" transform="translate(-10.24 -5.86)" style="fill: #3b2f1f"/>
    <path d="M1390.59,181.31c7.76,19.4,20.26,7.88,31.46,4.81,1.69.14,3.38.22,5.07.21,6,16.66-8.63,13-16,15.7-19.94,7.41-37,16.14-26,42.36l-15.55,6.29c-.86-.8-1.72-1.6-2.6-2.39-2.49-12.1-8.75-20.71-21.58-23.22-16.18-2-12.73-13.92-12.38-24.31.38-4.9,2-9.14,6.66-11.56,8-2.7,15.52,2.4,23.42,1.49,8.72,2.61,18.71,7.64,17.22-9.09C1383.66,178.28,1387.06,177.55,1390.59,181.31Z" transform="translate(-10.24 -5.86)" style="fill: #573d22"/>
    <path d="M1660,1037.15c11.4-6.82,19.52-25.4,37-10.35-.92,26.38-6,51.1-28.32,69.76C1658.23,1077.75,1659.78,1057.34,1660,1037.15Z" transform="translate(-10.24 -5.86)" style="fill: #170d10"/>
    <path d="M1353.62,84.8c-2,7.26-10.24,1.3-13.37,6.24a9.43,9.43,0,0,0-2.31,1.16c-7.89,7.21-18.49,14-4.35,25-8.23,11.73-17.18,22.85-28.12,32.22-11.22-6.35-2.42-17-5.36-25.09-3.68-5.62,2.59-17.15-10.28-17.3-8.06,1.83-16.29,4.36-21.26-5.58,7.71-5,15-11.06,23.27-14.73,6.9-3,6.84-5.91,3.23-11,12.45,3.25,23.88,12.54,38,1.43C1337.34,73.92,1350.79,71.38,1353.62,84.8Z" transform="translate(-10.24 -5.86)" style="fill: #7f613a"/>
    <path d="M2245.41,710.79c33.14,11.13,43.17,37.62,60.65,56.37,2.33,2.51,3.87,6.92-.48,8.84-2.71,1.2-7.57,1.21-9.63-.48a115.32,115.32,0,0,1-16.52-16.76c-3.27-4.06-5.41-10.92-11-10.17C2233.5,753.3,2251.09,728.07,2245.41,710.79Z" transform="translate(-10.24 -5.86)" style="fill: #271c1c"/>
    <path d="M1390.49,308c8.18,16.08,20,32.65-3.42,46.06-5.34,3.06-12.75,10.15-17.69.13-2.83-5.74-12.87-11.09-3.49-19.77,12.76-11.81-2.75-11.08-7.14-15.25C1366.93,308.58,1377.58,305.08,1390.49,308Z" transform="translate(-10.24 -5.86)" style="fill: #e5b26a"/>
    <path d="M2473.88,1481.27c4.14,2.23,5.2,6,5.38,10.34-5.56,14.28-16.58,16.91-30.7,16.33-23.21-1-46.49-.32-69.74-.35C2406.66,1484.9,2444,1496.37,2473.88,1481.27Z" transform="translate(-10.24 -5.86)" style="fill: #260e1a"/>
    <path d="M1933.68,1515.8c-2.79,12.5-11.85,18.39-19.84,24.69-4.1,3.24-7.86-1-10.92-4.15-7.89-8.07-3.8-15.95.34-23.84.8-1.54,1.26-3.38,2.4-4.61,7.91-8.66,5.31-30.92,17.71-27.77C1937.55,1483.72,1923.9,1505.66,1933.68,1515.8Z" transform="translate(-10.24 -5.86)" style="fill: #1c1617"/>
    <path d="M1543.58,138.59c.22-14.39-8.25-17.3-20.35-15.41q15.42-18.66,30.85-37.33C1566.67,106.64,1564.94,124.57,1543.58,138.59Z" transform="translate(-10.24 -5.86)" style="fill: #5b482b"/>
    <path d="M1670.53,228.51c-6.1,5.32,1.85,10.28.39,15.48-10-5.76-19.52-12.68-32.09-10.29q-5.2-5.32-10.43-10.64c12.2-4.56,28.9,2.76,36.14-15.73,2.39-6.12,11.06.74,16.91.34C1684.66,218.2,1677.92,223.52,1670.53,228.51Z" transform="translate(-10.24 -5.86)" style="fill: #553220"/>
    <path d="M1100,699.32l6.25,6.07q-20,17.42-39.91,34.83c-13.84-11.3-2.75-18.41,5.11-24.31C1080.22,709.34,1090.45,704.77,1100,699.32Z" transform="translate(-10.24 -5.86)" style="fill: #685a52"/>
    <path d="M1850.34,709.63c3.57-.4,9.38-13.58,10.24.92,1.13,19,.21,38.07.17,57.12-7.46,3.54-11,1.51-10.84-7.08C1850.23,743.61,1850.22,726.62,1850.34,709.63Z" transform="translate(-10.24 -5.86)" style="fill: #402a21"/>
    <path d="M1416.22,449.69c3.29-11.35,1.25-25.72,17-30,4.16,12.11-1.83,24-.6,36.1-8.45-.92-10.44,7.3-15.61,11Q1416.62,458.25,1416.22,449.69Z" transform="translate(-10.24 -5.86)" style="fill: #4a3415"/>
    <path d="M951.68,186.67c.27,6.62,3.5,10.05,10.32,9.63,2.1.9,2.8,1.81,2.12,2.74a2.76,2.76,0,0,1-2.07,1.41c-17.12.93-30,18.81-49,12.15C923.65,200.6,939,195.59,951.68,186.67Z" transform="translate(-10.24 -5.86)" style="fill: #d7be9a"/>
    <path d="M211.7,1539.49c-23,7.91-46,8.21-69,0Z" transform="translate(-10.24 -5.86)" style="fill: #160709"/>
    <path d="M1897.75,318.43l5.3,10.53c-10.71-3.29-26.21,8-31.93-10.47,3.56-3.18,7.2-3.21,10.92-.29Z" transform="translate(-10.24 -5.86)" style="fill: #23120f"/>
    <path d="M1342.72,265.54c2.55-5.49,11.27-6.66,10.28-14.65a4.73,4.73,0,0,1-1.81-4.15c.18-1.56.47-2.33.85-2.34,6.92-4.31,11.72,0,16.61,4,0,0,.93,2.22.93,2.23C1364.46,262.57,1358.15,272.3,1342.72,265.54Z" transform="translate(-10.24 -5.86)" style="fill: #3f2e28"/>
    <path d="M1882,318.2l-10.92.29-20.93-.18-5.32-10.48c5.28-4.78,10.6-3.78,15.92-.07,1.72.05,3.44.07,5.17.06Z" transform="translate(-10.24 -5.86)" style="fill: #2e160d"/>
    <path d="M1347.9,1565l-142.37-.06c3.23-15.63-7.93-12.93-16.81-13.15-11.41-6.22-20.7-14.27-23.88-27.58a17.7,17.7,0,0,1,1.5-7.17c16.17-5.74-1.16-21.23,8.29-29,5.32-8.46,5-16.13-4.13-21.5-6.75-4-12.26-8.83-16.16-15.58a23.94,23.94,0,0,1-3.49-6.14c-.6-3.7.58-7,2.06-10.3-.78-24-17.35-38.75-31.88-54.69a27.34,27.34,0,0,1-4.67-6.08c-6.06-14.39.63-19.34,14.21-19.21a30.93,30.93,0,0,1,7.38,1.84c17.85,7,33.4,16.58,45.4,32.59,8.81,11.74,21.89,17.14,36.78,8.49,9.32-3.78,17.84-10.15,28.69-9.06,8.49,2.94,11.82,9.46,12.44,17.87a14,14,0,0,1-6.82,10.53c-10.45,6.43-21.34,11.59-10.15,27.28,3.93,5.52-3.48,12.64-7.88,18,.54,2.54-9.37,6.5.21,7.11,6.27.4,12.8-4.24,19.68-1.1,7.15,4.35,9.33,11.77,11.79,19,2.75,9.17,1.44,18.76,1.37,34.45,10.59-18.5,6.93-31.86,5.28-45.14-1.91-15.43-6.61-31.26,4.79-45.36,7.55-4.44,15.35-4.48,23.32-1.38,16,13.65.4,29,2.39,43.42-3.58,16.29,7.89,25.81,16.57,36.58C1331.07,1527.91,1350.59,1541.24,1347.9,1565Z" transform="translate(-10.24 -5.86)" style="fill: #25130d"/>
    <path d="M1347.9,1565q-15.4-26.62-30.83-53.24c-2.88-13.27-10.22-24.47-16.7-36.07-6.85-15.07,6.81-27.51,5.39-41.88,4-13.74,12.23-22.64,27.07-24.23,4.39.51,7.49,3.9,11.55,5.12,1.72-7-5.44-9.93-7.24-15.32-7.77-21.37-28.45-28.56-44.68-40.67a15.06,15.06,0,0,1,1.12-15.14c7.82-5.94,15.4-2.44,23,.49,16.21,7.66,33.5,13.79,44.21,29.69,5.34,10.33,10,17.79,25.54,16.24,19.3-1.93,35.29,12.91,53.26,19.14a162.59,162.59,0,0,1,20.12,16.65c5.33,5.25,9,11.4-.09,17a33.27,33.27,0,0,1-11.33,2.84c-7.48.47-15,.2-22.48.93-4.11.43-8.07,1.66-12.13,2.38-2.33.41-4.75.36-7,1.36,2.66,2.77,5.8-.52,8.65.65,11.21,1.42,10.15,17.56,22,18.14,4.74,1.34,9.36,2.87,12.36,7.16a8.19,8.19,0,0,1-1.79,6.89c-5.81,4.41-13,6.13-19.48,4.64-23.41-5.45-36.52,6.2-45.76,25.48-.76.39-1.57.72-2.32,1.13-8.73,4.8-15.87-10.54-21.4-4.37-9.87,11-4.18,24.28,1.21,36.36,1.74,3.93,4,7.65,5.2,11.82a7.59,7.59,0,0,1-1.71,6.83Z" transform="translate(-10.24 -5.86)" style="fill: #4e290d"/>
    <path d="M1004.37,1565.09l-110.63.1c-11.14-16.85,7.56-34.69-1.75-51.6,21.48-9.44,40.18-25,64-29.32a16.17,16.17,0,0,1,8.41,6.54c5.32,16,24.53,16.3,32.86,29C1000.9,1534.69,1005.14,1549.5,1004.37,1565.09Z" transform="translate(-10.24 -5.86)" style="fill: #be763e"/>
    <path d="M1447.94,1477.39l-15-2c-.9-5,2.23-7.26,6.1-9.06,11.07-3.31,21.06-.14,30.66,5.18,13.48,8.24,19.12,22.3,26.86,35.09,4.68,7.74,11.36,22.8,21.45,3.18,4.36-8.89,1.73-21.71,14.55-25.79,13.67,2,19,10.37,18.25,23.53,3.38,7.09,9,12,15.5,16.1,4.11,16.13-16.8,25.18-11.73,41.58h-17.1C1495.16,1548.59,1460.77,1524,1447.94,1477.39Z" transform="translate(-10.24 -5.86)" style="fill: #e6a857"/>
    <path d="M1004.37,1565.09c-15.36-12.95-9.87-30.6-10.56-46.85,1.45-7,5.7-11.28,12.65-12.9a120.87,120.87,0,0,1,45.43,16.41c1.31,17.87,10.77,20.24,25.87,14.51,14.47-5.49,26.38-5.7,21.42,15.91-2.94,5.88-7.59,9.35-14.17,10.07-14.79-4.3-29.27-3.12-43.48,2.64Z" transform="translate(-10.24 -5.86)" style="fill: #5d3314"/>
    <path d="M1511.59,1565.13l-89.12-.26c-14.87-8.41-33.16-7.86-47.37-18-1.53-16,16.1-15.63,21.86-25.45a23.78,23.78,0,0,1,7.75.53c11.92,2.45,22.37,16,33.2,11.94,11.1-4.17,5.89-22.3,14.41-31.48,2.43-1.3,6.32-1.57,6.82.47,6.1,25.06,25.81,37.54,45.47,50.14C1509,1555.89,1513.48,1558.67,1511.59,1565.13Z" transform="translate(-10.24 -5.86)" style="fill: #664018"/>
    <path d="M1083.5,1561.15l10.72-8.76c6.5-5.6,9.5-13.53,13.69-20.68,7.8-8.62,18.71-12.45,28.23-18.46,11.52-3.65,25.23-21.09,32.17,4.94a41.64,41.64,0,0,1,0,5.12c-.78,15.42,12.45,19.36,21.72,26.55,7.8-7.09,15.65-10.44,23.94-.61,10.6,12.55-8.55,8.92-8.49,15.71l-31.58,0c-1.56-.67-3.46-1-4.56-2.18-17.23-18-33.51-18.53-48.74,2.44l-37-.62C1083.59,1563.42,1083.54,1562.29,1083.5,1561.15Z" transform="translate(-10.24 -5.86)" style="fill: #41240e"/>
    <path d="M1744.34,1528.87c22.23-9.55,26.33,2.58,25.13,21-11,7-24.32,8.46-35.35,15.32l-64-.24,12.21-8.86c5.44-10.18,13.63-14.45,25.1-11.65A122.13,122.13,0,0,0,1744.34,1528.87Z" transform="translate(-10.24 -5.86)" style="fill: #ce8954"/>
    <path d="M1511.59,1565.13c-26.16-14.53-50.82-30.47-58.42-62.39-6.81-5.6-10.44-12.06-5.61-20.8a34.76,34.76,0,0,0,.38-4.55c20,7.51,13.48,32.9,30.06,43.71,20.63,13.43,39.7,29.27,59.44,44.07Z" transform="translate(-10.24 -5.86)" style="fill: #865213"/>
    <path d="M892.67,1513.81c9.48,5.48,13,12.92,9.09,23.83-3.23,9-5.39,18.35-8,27.55l-11-.28c.14-14.68-16.42-14.67-21.68-24.61.44-8,12.21-5,12.57-13.16,2.25-6.8,6.23-12.1,12.82-15.2A6,6,0,0,1,892.67,1513.81Z" transform="translate(-10.24 -5.86)" style="fill: #53340d"/>
    <path d="M1120.65,1565.18c16.19-40.4,21.27-40.42,53.3-.26Z" transform="translate(-10.24 -5.86)" style="fill: #9f7f4d"/>
    <path d="M1374.79,1544.47c17.36,3.36,36.3,3,47.68,20.4l-58.75.18a18.57,18.57,0,0,0,0-4.28C1359.26,1549.8,1356.8,1540.18,1374.79,1544.47Z" transform="translate(-10.24 -5.86)" style="fill: #a67033"/>
    <path d="M1554.53,1565.17c-12-7.54-10.68-16.16-1.34-24.5,5.55-5,14.28-7.08,13.06-17.08,4.37,14.15,6.76,29.23,18.89,39.7Z" transform="translate(-10.24 -5.86)" style="fill: #72410e"/>
    <path d="M1734.12,1565.22c8.37-13,19.51-19.59,35.36-15.32.43,5,.88,10.1,1.31,15.15Z" transform="translate(-10.24 -5.86)" style="fill: #824717"/>
    <path d="M1083.5,1561.15c0,1.14,0,2.28.14,3.41l-42.11.32C1054.79,1555.39,1067.93,1544.61,1083.5,1561.15Z" transform="translate(-10.24 -5.86)" style="fill: #371405"/>
    <path d="M1296.06,1345.09q.07,7,.14,14c-4.42,9.81-10.13,18-22.49,17.72-10.87-6.8-8.66-20-13.17-28.12-28.46,11.64-57.84,14.16-87.39,15.84a30.13,30.13,0,0,1-6.7-2.54c-13.06-8.77-30-1.16-43-10-15.58-11.54-27.69-29-51-27-4.79.42-11.67-4.29-9.8-12.53,53.65-11.92,108.08-18.76,162.43-26.51,23.86-3.41,46.81,3.31,70-.62,4.75-2.62,9.68-4.23,14.37-.29,5.67,4.78-2.71,11.67-1.86,11.57,7.72-.88,13.2,3,19.22,6.54,10,5.85,5.69,10.49-.68,15.32a32.18,32.18,0,0,1-6.54,2.79C1307.58,1325,1304.93,1338.14,1296.06,1345.09Z" transform="translate(-10.24 -5.86)" style="fill: #fbe3b3"/>
    <path d="M850.54,1518.29c-33.37,7.7-68.66-4.3-101.95,12.41-11.23,5.63-29.7.5-34.68-18.26,6.59-7.24.7-25.92,19.83-21.67,7.2,6.32-2.11,30.93,21.46,19.28,3.4-.23.63-2,.08-1.73-17.94,10.06-16.18-5.85-19.51-15.13-3.51-6.65-12.36-5.49-16.5-11.24,4.92-8,12.5-10.67,21.41-10.64,5.33,3,12.16-1.2,17,4.13-4.75-5.66-11.42-2.5-17-4.31-11.69-21.59-28.54-3.71-42.81-5.61-3.55-6.56-.59-11.86,3.29-17,7.39-6,17.92-5.89,25-12.68a122.87,122.87,0,0,1,12-8,144.76,144.76,0,0,1,13.18-6.9c10.45-4.9,21.91-5.77,33-7.41,13.22-1.94,28.21,2.53,28.43,16.27.52,32.58,20.76,32.66,43.65,31.52a16.42,16.42,0,0,1,7.29,3.52C875.11,1491.44,872.78,1500.89,850.54,1518.29Z" transform="translate(-10.24 -5.86)" style="fill: #2c100e"/>
    <path d="M1062.63,1312.4c4.34,2.85,9.68,9,12.84,8,27.62-8.5,36.38,14.66,50.54,28.78,1.64,2.3,1.63,4.53-.3,6.66-6.21,1.52-12.4,2.54-18.45-.45-2.88-.81-7.09-3.88-8,1.25-4.66,25.32-7.07,27.21-30.31,19-17.2-6.07-34-14-52.5-4.6-14.13,6.39-28.49,12.06-43.76,15.12-13.76-1.68-27.86,1.85-41.5-2.4-13.4-9.46-10.17-27-18.85-38.71-4.13-5.71-10.54-8.64-15.9-12.84-2.56-2.53-4.63-5.23-2.9-9.12,13-2.66,26-4,39.15-1.32C976.86,1330.72,1019.55,1318.93,1062.63,1312.4Z" transform="translate(-10.24 -5.86)" style="fill: #fad7a1"/>
    <path d="M740,1433.48l-10.48,5.4c-42.37,1.58-83.17,22.83-126.77,9.84-8.41-2.5-21.14.82-16.14-15.31.86-10.4,7.23-16.6,16-21a15,15,0,0,1,4.37,2.84c10.9,11.17,25.22,13.32,34.63,2.51,8.29-9.51-.78-21-9-29.37-2.43-2.49-5.15-4.72-7.65-7.15,23-4.15,33.85-22.74,46.58-39.21,7.82-10.11,15.94-20.45,28.48-4.6,9.13,11.53,19.46-2.81,29.12.7,24.52,13.09,24.83,14.66,5.51,27.41a160,160,0,0,1-22.92,2,16.76,16.76,0,0,1-6.84-2.45c-4.62-2-6.35-8.72-12.79-7.81,1,3,3.05,5.5,3.1,8.85a269.52,269.52,0,0,0-.6,28.83c.13,5.08,1,11.16-5.06,13.6-7.42,3-10.27-3.43-13.92-7.42,11.63,16.34,24.75,19.34,40.51,4.61a40.78,40.78,0,0,1,21.09-10c16.38-2.81,27.67-9,25.7-28.69-.65-6.58,4.93-10.77,11.74-12.06,10.44-.89,15.49,4.34,16.31,14.35,6.51,31.45,3.59,36.74-27.27,45.8C753.17,1418.29,745.31,1424,740,1433.48Z" transform="translate(-10.24 -5.86)" style="fill: #6d3f20"/>
    <path d="M893.5,1323.1l5.31,5.56c-7.89,25.51,12.93,3,16.3,9.75,15.89,10.12,8.08,29,15.55,42.21,10,18.3,1.79,25.59-16.24,26.42-9.28.42-19.18-2.85-26.7,5.54-2.4,2.38-5.84,4.73-5.44,8.27.9,7.85,9.81,17.29-.87,22.79-8.82,4.53-15.28-5.21-22-10-5.6-4-11.64-7.29-17-11.68-7.26-7.14-10.49-16.51-14.16-25.65-.19-5.59,2.47-10.19,5.62-14.4,4.88-6.52,5.82-12.92,1.86-16.12C864.94,1365,875.24,1338.69,893.5,1323.1Z" transform="translate(-10.24 -5.86)" style="fill: #e3b06e"/>
    <path d="M772.67,1359.65c-3.13,9.94-32.82,39.82-46.1,46.6-3.08,1.58-6.94,3-8.65,5.71-12.95,20.2-25.22,17.07-38.88.43-5.29-6.44-13.12-10.8-20.19-16.43,14.85-12,21.14.27,28.6,9.85,3.21-14.88-5.93-29.6,5.4-41.65,5.1-4.41,10.25-3.4,15.43-.15-.1.9-.21,1.8-.32,2.69,4.13,17,4.13,17,30.48,10.1,2.46-8.51-11.49-8-9.2-16.29,34.81-7.54-6.26-14.89-.06-22.36,15.65-2.17,31.1-6.84,47.17-4C785.77,1344.21,782.43,1352.39,772.67,1359.65Z" transform="translate(-10.24 -5.86)" style="fill: #9b5e30"/>
    <path d="M703.13,1449.68l-5.25,15.84c-14.2,20.37-22.74,44.51-57,43.15-16.17-.65-13.21-8.34-16.89-15.31-5.19-9.8-2.24-34.58-24.42-11-7.48,7.95-16.59-4.66-24.41-9.32-11.3-6.72-4.89-12.49.91-18.32,11.89-4.41,24.15-3.75,36.21-1.6,27.86,5,55.9,15,81.66-6.79C696.31,1444.37,700.6,1447,703.13,1449.68Z" transform="translate(-10.24 -5.86)" style="fill: #2b1914"/>
    <path d="M1321.48,1317.27c1.13-4.07,12.11-7.67.19-12.38-9.19-3.63-17.47-3.41-22.33,2.43-22.66-6.19,21.1-15.93-4.23-22l5.46-5.14c23.65-8.32,46.67-8.78,68.51,5.47l57.72,21.5c-20.14,9.28-37.14-7.75-56.78-6.77-14.33.71-28.94-4.4-44.2-5,28.7,14,65.82,11.39,84.89,43.34-4,6.16-9.73,8.33-16.86,7.21-16.72-9.46-34.1-16.21-53.84-16.82C1332.71,1328.87,1321.2,1331.15,1321.48,1317.27Z" transform="translate(-10.24 -5.86)" style="fill: #d5a763"/>
    <path d="M703.13,1449.68c-2.61.15-6.67-.74-7.62.59-20.4,28.57-46.39,17.16-71.94,10.72-15.53-3.92-32.35,1.26-47.47-6.25,1.35-8.17,4-15.71,10.52-21.33,16.1,15.33,37.41,8.85,56.15,12.5,13,2.53,26.21-2.39,39.27-8.46,14.65-6.8,31.93-7.7,47.5,1.43C724.31,1451.21,713.18,1449.12,703.13,1449.68Z" transform="translate(-10.24 -5.86)" style="fill: #542e16"/>
    <path d="M857.13,1465c-10.82,8.07-23.46,1-35.33,4.14-8.94,2.38-11.82-7.33-13-15.87-5.13-36-5.31-36-40.64-30.09-5.93,1-11.65,3.3-17.46,5-6.62-12.12,3.79-14.44,10.55-14.6,28.09-.68,31.91-17.94,29.58-40.29l2.5-3.33,15.06,10.75c4.34,3.15,6.58,7.58,7.82,12.63,5.32,15.38,6.08,32,15.36,46.46,6.52,10.13,13.11,7.44,21,4.06C858.49,1450,862.13,1456.56,857.13,1465Z" transform="translate(-10.24 -5.86)" style="fill: #462d14"/>
    <path d="M528.42,1519.3c.25,9.65,2.47,17.76-13.69,18.43-32.49,1.34-65.06,4.85-97.05-1.66-14.51-3-29.05,11.62-45.3-4.27,17.58-5,33.63-1.83,49.18-3.1,18.05-1.47,36.81,5,54.12-4.72C493.41,1524.15,510.45,1516.45,528.42,1519.3Z" transform="translate(-10.24 -5.86)" style="fill: #8b5933"/>
    <path d="M625,1381.26c29.41-3.55,25.21,22.92,28.24,36.92,3.7,17.08-16.48,9.14-25.32,12.64-14.61,5.79-25.13-.84-25.32-18.39C610.08,1402,620.89,1394.06,625,1381.26Z" transform="translate(-10.24 -5.86)" style="fill: #955731"/>
    <path d="M850.54,1518.29c9.25-16.18,20.09-32,10.31-52,5.32-5.24,11.94-3.66,18.3-3.53,10.87,5.63,6.82,15.38,6.71,24.07a145.15,145.15,0,0,1-4.43,16.42c-1.22,8.44-9,15.75-4.23,25.2,4.93,18-12.77,5.14-16.13,11.85C851.75,1535.74,851.49,1526.85,850.54,1518.29Z" transform="translate(-10.24 -5.86)" style="fill: #81562e"/>
    <path d="M810.2,1396.29q-.91-7.8-1.84-15.58c8.74-5.65,16.37-13.37,27.37-14.89l16.92,7.16c-12.11,3.55-11.92,17.92-22.27,22.57C823.93,1403.23,817.14,1401.81,810.2,1396.29Z" transform="translate(-10.24 -5.86)" style="fill: #ba905d"/>
    <path d="M1369.08,1285.6c-22.78-2.55-45.39-7.23-68.51-5.47C1317.82,1262.51,1358,1265.72,1369.08,1285.6Z" transform="translate(-10.24 -5.86)" style="fill: #210e04"/>
    <path d="M772.67,1359.65a40,40,0,0,0,3.68-25.47c25.93,2.33,13.35,22.88,16.94,35.78l-.47.46c-1.75,2.37-3.41,2.2-5-.19C787.13,1360.47,780.56,1359.12,772.67,1359.65Z" transform="translate(-10.24 -5.86)" style="fill: #462d14"/>
    <path d="M719.27,1482c8-1.23,15.69-2.09,15.38,9.74l.18-.11c-13.58.33-11.69,16.17-20.92,20.87C713.43,1501.88,712.12,1491.17,719.27,1482Z" transform="translate(-10.24 -5.86)" style="fill: #7b5a50"/>
    <path d="M1860.79,307.76l-15.92.07c-25.09-5.53-51.88-5.13-73.95-21.2C1802.7,285.93,1833.08,291.18,1860.79,307.76Z" transform="translate(-10.24 -5.86)" style="fill: #492a18"/>
    <path d="M1396.06,1343.85l14.65-5.14c19.25,14.58,41.21,26.59,49,52-.91,17.4-14.15,16-21.44,9.42-19-17.13-40.53-16.33-63-14.58-8.07.63-12.54-5-17.92-9.28q-20.91-13.6-41.81-27.22c-11.56-12.32-.56-15.37,8-19.47C1348.9,1328.28,1371,1343.42,1396.06,1343.85Z" transform="translate(-10.24 -5.86)" style="fill: #f0b259"/>
    <path d="M1707.4,1544.47l-25.1,11.65c-37.69-21.2-61.75-56.36-89.12-88-6.32-7.31-11.34-15.34-20.17-20.11-4.85-2.62-8.94-7.1-5.43-12.79,4.07-6.57,8.3-2.11,12.9.85C1627.69,1466.5,1668.33,1504.55,1707.4,1544.47Z" transform="translate(-10.24 -5.86)" style="fill: #100707"/>
    <path d="M1550.76,1507.49c-8-5.54-6.81-18.71-18-21.59-4.61-2.31-9.11,1-13.71.29-8.33-2-17.23-3.23-18.35-14.38,8.17-13.54,9.77-33.54,32.37-32.88,4.93,8.93,4.36,20,11.37,28.1-.84-10.51-8.37-18.41-11.45-28q-1.65-8.65-3.29-17.31l5.54-3.52c29.91,35.21,47.78,79.07,76.92,115.64C1590.78,1525.59,1576.82,1502.58,1550.76,1507.49Z" transform="translate(-10.24 -5.86)" style="fill: #100706"/>
    <path d="M1357.4,1376.24a90.71,90.71,0,0,0,22.75,2.27c19.45-.28,41-7.52,56.3,14.17,5.06,7.19,16.57,11.13,23.27-2,10.77,8.54,17.27,19.73,20.34,33-3.54,13.47-12,5.07-17.63,3.11-8.81-3-15.8-10.06-24.6-13.58-22.14,0-38.23-24.53-64.3-14.06C1366.06,1402.17,1357.15,1388.26,1357.4,1376.24Z" transform="translate(-10.24 -5.86)" style="fill: #ce8c38"/>
    <path d="M1437.83,1413.23c16.15-4.87,25.6,17.26,42.23,10.47,8.49,10.8,11.54,23.17,10.7,36.69a13.46,13.46,0,0,1-10.65,3.85c-12.25-3.45-21.06-10.26-22.94-23.74C1463.9,1422.06,1438.47,1426.44,1437.83,1413.23Z" transform="translate(-10.24 -5.86)" style="fill: #77450f"/>
    <path d="M1480,1461l10.8-.57,10,11.43c6,5.8,13.47,8.49,21.55,9.8-4.65,17.59-16.2,6.57-25.22,6.14-7.36-2.74-14.46-5.91-19-12.79a17.42,17.42,0,0,1-1.55-7.43A12.56,12.56,0,0,1,1480,1461Z" transform="translate(-10.24 -5.86)" style="fill: #bf8e53"/>
    <path d="M1305.47,149.45c2.41-16.29,11.76-26.85,27-32.53,2-1.11,3.63-.74,4.74,1.35,3.52,19.12,16.39,38.17.33,57.4-8.8,8.16-17.52,6.81-26.2-.21Q1308.38,162.45,1305.47,149.45Z" transform="translate(-10.24 -5.86)" style="fill: #c29965"/>
    <path d="M1353.38,245.91a23.69,23.69,0,0,1-.38,5c-19.25-1.82-30.36-18.92-47.47-26.08-10.31-4.31-20.22-25.66.5-38.42,12,2,21.54,7,24.85,19.84-3.79,13.09,6.35,16.41,14.79,20.92C1349.7,232.79,1358.53,236.5,1353.38,245.91Z" transform="translate(-10.24 -5.86)" style="fill: #53411f"/>
    <path d="M1327.41,207.66c-3.85-10.38-14.91-13.53-21.38-21.28,4.8-2.17,4-7.06,5.28-10.92l26.2.21-.09-.11c2.23,13-12.44,4.06-15.24,10.14,8.21-1.69,16.41-7.22,20.63,5.52q-3.15,5.85-6.29,11.72C1334.57,206.6,1332.49,210,1327.41,207.66Z" transform="translate(-10.24 -5.86)" style="fill: #997749"/>
    <path d="M1289.83,107.06c5.41-.63,7.68-12,11.18-7.7,5.52,6.77,8.39,17-.9,25l-2.4-.66-2.34.84C1289,120.14,1289.94,113.43,1289.83,107.06Z" transform="translate(-10.24 -5.86)" style="fill: #b89770"/>
    <path d="M1152.28,117.16c20.32-13.31,41.72-16.71,64.84-7.78,10.27,4,22.05-1.55,32.23,4.27-25.59,39.27-63.62,19.94-97.38,20.67C1148.25,128.53,1147.58,122.8,1152.28,117.16Z" transform="translate(-10.24 -5.86)" style="fill: #e4b867"/>
    <path d="M962.05,200.45c0-1.38,0-2.76,0-4.15l143-62.77c8,5,9.09,10.05-.08,15C1057.27,165.77,1011.93,189.35,962.05,200.45Z" transform="translate(-10.24 -5.86)" style="fill: #eac274"/>
    <path d="M1104.91,148.52c3.57-5,3-10,.08-15a18.14,18.14,0,0,1,4.93-.36c12.72,2.5,26-18.12,38.31.88C1137.4,149.66,1121.17,149.16,1104.91,148.52Z" transform="translate(-10.24 -5.86)" style="fill: #e4b867"/>
    <path d="M1148.23,134c-12.55-9.87-25.61,2.6-38.31-.88,13.69-6.46,27-14,42.36-16q-.15,8.56-.31,17.15l-1.91.31Z" transform="translate(-10.24 -5.86)" style="fill: #eac274"/>
    <path d="M1390.59,181.31l-10.26.29c-24.79-8.8-6.78-28.69-10.92-42.88-4.06-13.94,8.65-8.93,14.5-11a22.63,22.63,0,0,0,11.92-9.59c3-9.91,10-11.22,18.75-8.71,11.3,15.46-4.89,33.15,4,48.83a6.34,6.34,0,0,1-2.29,6.31C1402.94,162.86,1399.05,175.59,1390.59,181.31Z" transform="translate(-10.24 -5.86)" style="fill: #c09862"/>
    <path d="M1416.46,111.42l-20.63,6.71c-9.91-7.53-4.35-12.52,2.65-17.71,11.18-8.31,22.12-16.93,33.16-25.42l27.21,10.65a18,18,0,0,1-1,4.7C1445.8,100.81,1433.41,110.61,1416.46,111.42Z" transform="translate(-10.24 -5.86)" style="fill: #50320d"/>
    <path d="M1342.81,191.22c-5.65-7-14.59-3.32-23.28-6.64l17.89-9c14.26-4.63,19.12,6.72,25.7,15.13C1356.51,197.32,1349.71,196.12,1342.81,191.22Z" transform="translate(-10.24 -5.86)" style="fill: #c29965"/>
    <path d="M1337.18,118.27a32.79,32.79,0,0,0-4.74-1.35c-4.28-6.67-15.35-3.28-18.23-12.6,8.27-5.11,15.44-12.44,26-13.28C1334.16,99.54,1349.34,110.45,1337.18,118.27Z" transform="translate(-10.24 -5.86)" style="fill: #48300c"/>
    <path d="M1670.53,228.51l10.91-20.84c22.72-16.64,48.47-11,73.57-10,4.39,20-14.78,33.29-15.14,52.22-.07,3.49-9.92,5.95-10.7,3.75-6.18-17.52-31.33-4.53-37-24.86C1688.87,216.92,1678,236.77,1670.53,228.51Z" transform="translate(-10.24 -5.86)" style="fill: #c7773d"/>
    <path d="M1237.34,609.4c6.49-9,10-22.82,26.14-16.19C1260.17,607.34,1248.32,607.66,1237.34,609.4Z" transform="translate(-10.24 -5.86)" style="fill: #9a7647"/>
    <path d="M1416.46,111.42c12.42-9.72,24.72-19.69,41.39-21.06,23-4.92,21.33,20.3,34.09,27.9-16,2-2.5,13.76-6.48,19.75l-1.89,1.37-2.33-.22c-16.09,1.2-33.81-3.39-45.6,12.94-4.28,6.8-10.53,9.16-18.27,8.14-16.83-1.94-8-14.27-7.64-21.64C1410.15,129.45,1414.06,120.47,1416.46,111.42Z" transform="translate(-10.24 -5.86)" style="fill: #ddb27a"/>
    <path d="M1417.37,160.24,1433,149.77c9.24-8.81,19.44-12.35,31.47-5.68-9.22,23-28.61,22-48.23,20.47A29.16,29.16,0,0,1,1417.37,160.24Z" transform="translate(-10.24 -5.86)" style="fill: #654b2f"/>
    <path d="M1464.48,144.09c-11.25-2.31-21,3.55-31.48,5.67,8.17-17.85,23-17.53,38.81-14,3.23.72,6.29,2.24,9.42,3.39Z" transform="translate(-10.24 -5.86)" style="fill: #c9a16a"/>
    <path d="M1353.38,245.91c-2.3-6.72-12.62-8.73-10.59-18-2.91-5.45,1.9-7,4.81-9.49,11.81,6.65,32.22,7.28,21.05,30Z" transform="translate(-10.24 -5.86)" style="fill: #9a8155"/>
    <path d="M1347.6,218.42l-4.81,9.49c-16.19,1.66-14.22-10.49-15.38-20.25l9.11-4.73C1342.1,206.75,1333.42,220.76,1347.6,218.42Z" transform="translate(-10.24 -5.86)" style="fill: #c5ad7c"/>
    <path d="M1136.19,1520.18,1111.35,1534c-18.69-8.91-40-2.48-58.94-10.06-17.49-1-32.73-8.75-48.1-16.1-15.5-1.17-28-10.57-42.08-15.51l-4.48-5.42a16.54,16.54,0,0,1,5.72-5.28c15.84-5.84,32.7-8.59,48.12-15.82,11.63-3.33,24.12-1.06,35.57-5.6,26.14-.48,50-13.71,76.18-13.82,6.83,2.47,9.78,8.47,13,14.24,1.64,2.85,2.24,7.25,4.86,8.45,7,3.21,5.25-4.14,6.41-6.91,2.57-6.13,4.58-12.45,9.25-17.43,6.23,14.47,29,14.18,29.68,34.55.25,7.45.8,11.67-7.4,12.67-9.57-8.76-13.2,1.46-18.27,6C1152.56,1505.25,1144,1512.27,1136.19,1520.18Z" transform="translate(-10.24 -5.86)" style="fill: #34190d"/>
    <path d="M1274.2,1374.83c10-1.57,10.07-16.94,22-15.78,25.21.9,37.56,17.6,46.83,38.09-3.25,5.31-2.85,13.38-11.2,14.84l-26.07,21.85-26.22.65c-7.42-1.82-5.78-12.29-13.39-13.93-6.37-2.57-5.22-9.18-7.54-13.93l-11.06-16C1249.3,1373.23,1250.66,1372.43,1274.2,1374.83Z" transform="translate(-10.24 -5.86)" style="fill: #efba7b"/>
    <path d="M1274.2,1374.83c-6.6,9.13-25.54-2.56-26.65,15.81l-25.72,12.09c-16.74-15.72-44.08-18.24-53.57-43,24.85,2.57,47.44-16.11,73.18-7.54,5.57,1.85,8.75-4,10.77-9.23,1.87-4.86-.77-14.55,9.34-11.66,6.89,2,6.34,9.39,7.24,15.49C1270.16,1356.2,1272.36,1365.49,1274.2,1374.83Z" transform="translate(-10.24 -5.86)" style="fill: #f5ce94"/>
    <path d="M1268.06,1418.52c31.46-14.55-2.19,17.71,11.48,16-4.27,22.92,3.84,45,5.15,67.51,1.08,18.54-6.88,26.78-24.5,31.76,1-16.58,1.9-31.81,2.81-47-2.57-11.42-2-23.62-8.5-34a25.64,25.64,0,0,1-3.69-9.76C1253,1432.3,1261.14,1425.84,1268.06,1418.52Z" transform="translate(-10.24 -5.86)" style="fill: #ba8956"/>
    <path d="M1131.47,1465.2c-4-4.32-6.26-9.34-6-15.33-3.72-7.08-13.78-7.17-16.72-15.13-1-6.61-1.12-13.21.81-19.73,7.09-15.06-13.75-29.67-.75-44.8,6.11-3.62,8.87,1.75,12.54,4.68l0,0c15.51,19,30.13,38.54,35.56,63.23l-5.56,7.27C1147.6,1454.92,1148.86,1469.43,1131.47,1465.2Z" transform="translate(-10.24 -5.86)" style="fill: #cb9d63"/>
    <path d="M1168.26,1359.73c3.08,7.08,9.28,8.61,16.1,10.8,16.71,5.39,31.33,14.1,37.47,32.2-15.93,15.53-29.11,5.44-39.87-6.12-13.66-14.67-26.83-29.28-46.31-36.22,10.77-5,21.56-8.76,32.59-.66Z" transform="translate(-10.24 -5.86)" style="fill: #e1ab64"/>
    <path d="M1268.06,1418.52c6.61,16-12.72,15.74-15.94,25.56-2.13,22.78-5.73,25.38-21,15.19.41-6.93,22.59-14.69-1-20.81-10.85-2.81-5.19-7.07-.87-12.12,8-9.4,20-12.59,29.34-19.71Z" transform="translate(-10.24 -5.86)" style="fill: #734722"/>
    <path d="M1136.19,1520.18l36.76-47.79c8.71,5.68,5.35,13.16,6.16,19.53-1.23,2-3.85,5.49-3.49,5.84,13.11,12.51,5.35,17.3-7.31,20.43C1156.15,1495.46,1146.9,1519.58,1136.19,1520.18Z" transform="translate(-10.24 -5.86)" style="fill: #7f654c"/>
    <path d="M1156.89,1438.16c-14.31-19.69-27-40.29-35.56-63.22,23.72,11.15,29,37.22,44.08,55.36C1167.24,1432.49,1161.59,1437.3,1156.89,1438.16Z" transform="translate(-10.24 -5.86)" style="fill: #7e6041"/>
    <path d="M1231.13,1459.27c18,10.18,14-10.13,21-15.19l6.19,6.94c2.13,7.72.17,14.3-5.54,19.83-4,1.57-8.15,2.69-11.78,4.8-7.16,4.15-16.3,7.67-20.84.3C1214.69,1467.09,1227,1464.78,1231.13,1459.27Z" transform="translate(-10.24 -5.86)" style="fill: #9d815a"/>
    <path d="M1131.47,1465.2c13.75.57,3.33-23.14,19.86-19.77l5.51-.73c3.4,15-6.1,26.71-8.72,40.49C1136.68,1481.7,1136.49,1471.58,1131.47,1465.2Z" transform="translate(-10.24 -5.86)" style="fill: #8b6f4a"/>
    <path d="M1300.37,1475.71c20.37,5.18,19.15,20.34,16.7,36.07C1307.19,1501.75,1290.34,1495,1300.37,1475.71Z" transform="translate(-10.24 -5.86)" style="fill: #7b634b"/>
    <path d="M1190.08,1549.86c-17.5-.09-23.68-15.45-33.84-25.34-2.52-2.45-.32-5.41,2.63-5,3.27.39,6.34,2.49,9.49,3.84Z" transform="translate(-10.24 -5.86)" style="fill: #7f654c"/>
    <path d="M1121.31,1374.89l-10.56-5.39c-8.59-3-15.53-8-12.36-18.08,1.66-5.27,6.87-6.8,11.18-1,4.74,4.7,10.75,3.12,16.39,3.32,5.16-1.12,6.84,1,5.43,5.89C1116.78,1357.28,1117.06,1364.78,1121.31,1374.89Z" transform="translate(-10.24 -5.86)" style="fill: #7e6041"/>
    <path d="M1131.39,1359.61l-5.43-5.89c0-1.51.06-3,0-4.53,8.36.3,16,5.6,25.24,1.42,7.57-3.4,15.8-2.23,17,9.12l-32.59.66A8.94,8.94,0,0,1,1131.39,1359.61Z" transform="translate(-10.24 -5.86)" style="fill: #f5ce94"/>
    <path d="M1252.77,1470.85c0-7.13.21-14.21,5.54-19.84,13.92,10.28,6.57,23.36,4.7,35.71Q1257.88,1478.79,1252.77,1470.85Z" transform="translate(-10.24 -5.86)" style="fill: #734722"/>
    <path d="M1447.56,1481.94l5.61,20.8c2.72,15.3-6.32,28.53-6.36,45.48L1395.38,1524c-8.72,1.41-15.82.44-15.9-10.84,1.83-4.77,4.84-9.43,5.28-14.32,1.56-17.58,8.71-23.49,26.91-18.3C1422.86,1483.76,1435.55,1481.66,1447.56,1481.94Z" transform="translate(-10.24 -5.86)" style="fill: #11060c"/>
    <path d="M1379.48,1513.19l15.9,10.84c.44,14.18-13,14.38-20.6,20.44-10.75.63-11,8.43-11.09,16.3-25-20.65-17.48-45.2-7.07-71.46C1365.19,1496.28,1367.21,1510.28,1379.48,1513.19Z" transform="translate(-10.24 -5.86)" style="fill: #895c25"/>
    <path d="M1480,1461l.09,5.29c-19.43,5-35.25-1.14-48.32-15.72-.18-14.38,12.85-6,18.33-10.6l7.11.58Z" transform="translate(-10.24 -5.86)" style="fill: #efb161"/>
    <path d="M1450.06,1439.92c-3.93,6.45-15.51-.85-17.21,9.59,5.08,6,8.92,12.23,4.59,20.33-1.51,1.84-3,3.69-4.54,5.53-14.81.28-9.22-15.82-17-21.17-2.2-6.09,3.39-9.35,5.09-14Z" transform="translate(-10.24 -5.86)" style="fill: #77450f"/>
    <path d="M1321.4,1333.15c-3.3,4.79-10.58,8.14-5.81,15.88l-19.53-3.94c6.18-9.54-1.61-29.62,20.48-27.15C1318.87,1322.78,1325.41,1326.28,1321.4,1333.15Z" transform="translate(-10.24 -5.86)" style="fill: #d5a763"/>
    <path d="M1331.83,1412l11.2-14.84c1.14,1.33,2.35,2.61,3.41,4,5.52,7.25,17.9,15.85,8.58,23.82C1342.36,1435.8,1339.57,1416.89,1331.83,1412Z" transform="translate(-10.24 -5.86)" style="fill: #8e543d"/>
    <path d="M1421,1440.17q-2.54,7-5.09,14c-3,1.55-6.94,2.37-9,4.77-7.4,8.8-12.28,4-15.35-3.07-3.66-8.45,2.52-9.92,9.29-11S1414.28,1441.81,1421,1440.17Z" transform="translate(-10.24 -5.86)" style="fill: #a57644"/>
    <path d="M1048.37,1466.64l-38.7,3.95c-10,3-20.53,8.65-30.43,2.2-20-13-36.82-4-53.59,6.07a177.25,177.25,0,0,1-15.93,9c14.84-6.08,27.39-17.27,43.82-19.74,6.16-.92,12.87-1.77,15.55,5.82,2.24,6.36-2.07,9.6-7.37,11.75a10.3,10.3,0,0,1-4,1.14c-22.25,7.63-39,28.49-65.07,26.94-1.35,0-2.69,0-4-.09-12.79,5.38-12.48-2.31-11.07-11.1.51-5.95-.35-12.28,4.71-17,9.28-15.2,26.61-19.75,39.63-30,8.6-6.33,15.62-15.57,27.8-15.42,8.21,1.13,16.71-1.46,24.79,1.75,13.67,12.48,30.81,10.32,47.27,11.11C1030.43,1458,1042.25,1456.74,1048.37,1466.64Z" transform="translate(-10.24 -5.86)" style="fill: #dfac70"/>
    <path d="M962.23,1492.29c18.51-7,27.9,10.76,42.08,15.5a17,17,0,0,1-10.5,10.45C981,1512.38,960,1516.54,962.23,1492.29Z" transform="translate(-10.24 -5.86)" style="fill: #b48041"/>
    <path d="M1479.51,1471.18l15.7,11c6.32,13.1,25.16,15,27.94,31.26-5.77,24.14-15,20.56-27.85,4.35-10.27-13-12.38-30.83-26-41.56C1469.32,1467.68,1472.84,1466.25,1479.51,1471.18Z" transform="translate(-10.24 -5.86)" style="fill: #985206"/>
    <path d="M1523.15,1513.44c-11.84-8.16-30.68-10.07-27.94-31.26,9-2.29,18.27,10.72,27-.57,4.29-.48,8.18,0,10.52,4.3C1523.54,1493,1532.16,1506.29,1523.15,1513.44Z" transform="translate(-10.24 -5.86)" style="fill: #b7701c"/>
    <path d="M1479.51,1471.18c-4.41-.37-8.09.72-10.17,5-10.63-2.14-20.46-8.28-31.9-6.39-3.68-6.29-6.19-12.85-4.59-20.33l47.2,16.72A34.53,34.53,0,0,0,1479.51,1471.18Z" transform="translate(-10.24 -5.86)" style="fill: #b1731e"/>
    <path d="M1052.41,1523.9c20.94-4.24,42.47-11.88,58.94,10.06-1.41,10.14-8.56,14.93-17.13,18.42-1.53-5.27,10.16-21.62-10-11.42-6.7,3.4-14.69,4.14-21.92,6.6-8.41,2.86-13.06-2.36-17.18-7.82C1038.19,1530.51,1049.52,1529,1052.41,1523.9Z" transform="translate(-10.24 -5.86)" style="fill: #9d6538"/>
    <path d="M877.56,1502.62c4.13,3.27,2.51,12.26,11.07,11.1l-11.43,14.73C858.26,1519.58,874.39,1511.19,877.56,1502.62Z" transform="translate(-10.24 -5.86)" style="fill: #be763e"/>
    <path d="M1321.4,1333.15l-4.86-15.21a35.76,35.76,0,0,1,4.94-.67c10.09,9.41,23.1,3.89,34.6,6.29,15.57,3.25,29.59,7.67,40,20.29-15.83,13.23-29.61-.13-44.15-3.45C1341.72,1338.08,1331.57,1335.57,1321.4,1333.15Z" transform="translate(-10.24 -5.86)" style="fill: #ad670d"/>
    <path d="M877.62,1465.45c-5.37,4.62-11.07,2.62-16.77.84q-1.83-.74-3.72-1.29l-6.6-19.55c-7.91-7.9-12.93-16.35-5.13-27.21,14,3.65,23.11,14.67,31.94,22.38,22.46-7.4-28.2-21.72,5.23-27.77,8.15-1.75,16-1.87,22.55,4.44C909.56,1441.11,897.14,1455.31,877.62,1465.45Z" transform="translate(-10.24 -5.86)" style="fill: #c49456"/>
    <path d="M787.84,1370.23c1.66,0,3.32.09,5,.19,4.53,27.68-3.55,46.13-34.77,48.18-5.2.34-6.57,5.1-7.39,9.58l-10.65,5.3c-1.4-13.83,6.74-23.61,18.44-23.78C787.31,1409.28,790.09,1392.3,787.84,1370.23Z" transform="translate(-10.24 -5.86)" style="fill: #542e16"/>
    <path d="M734.65,1491.69c7.4,12.89,14.65,26.29,32.73,4.11-11.62,22.37-11.62,22.37-38.92,21.52.14-9.1,9.95-16.31,6.37-25.74Z" transform="translate(-10.24 -5.86)" style="fill: #6e4134"/>
    <path d="M740.69,1471.13c8.17-6.29,16.39-2.48,24.58-.11s8.16,9.22,5.79,14.62c-4.32,9.89-12.67,2.8-13.07-.86-1.26-11.74-18.73-.37-17.31-13.47Z" transform="translate(-10.24 -5.86)" style="fill: #6e4134"/>
    <path d="M877.62,1465.45c8.74-15.72,23.44-28,26.87-46.79,20.4-16.58,45.71-24.41,67.76-38.06l42.66-16a5.81,5.81,0,0,1,6.72-.56c12.68,10.56,5.15,18-4.08,24.78-16.87,12.48-34.52,23.52-54,31.71-18.14,7.62-33.64,18.59-38.77,39.37a160.3,160.3,0,0,1-42.48,25.78C876.14,1480,886.38,1470.52,877.62,1465.45Z" transform="translate(-10.24 -5.86)" style="fill: #a06e36"/>
    <path d="M1020.8,1365.71l-5.88-1.14c21.05-12.76,39.75-1.3,58.77,5.91,6.38,2.41,12.77,7.67,19.23,2.09,9-7.78-1.72-11.47-4.57-16.63-2.21-4-4.71-8.7.91-10.59,7.22-2.44,15.44-4.12,20.31,5.05-18.81,7.54,1.14,12.72,1.17,19.11.25,9.8-3.21,19.59,6.42,28.28,12.85,11.57,3.56,17.16-8,20.71-15.51,8.87-31.33,16.71-50,15.2a19.23,19.23,0,0,1-6.87-3.51c1.77-16.88,18.41-16.26,26.27-24.65-10.12,1.21-21.54.3-28.44-11.6C1054.42,1369.93,1032,1373.69,1020.8,1365.71Z" transform="translate(-10.24 -5.86)" style="fill: #e5b677"/>
    <path d="M972.25,1380.6c-17,22.64-43.2,28.9-67.77,38.06-7.25-2.12-16,1.42-21.91-5.82,0-19.94,13-18.26,25.22-13.79,19.12,7,23.78-1.7,22.86-18.43Z" transform="translate(-10.24 -5.86)" style="fill: #f5c684"/>
    <path d="M915.11,1338.41c-10.31,4.78-14.21,20.87-30,16.63-1.26-11.77,9-17.69,13.66-26.39C904.4,1331.64,911.54,1332,915.11,1338.41Z" transform="translate(-10.24 -5.86)" style="fill: #bc8b48"/>
    <path d="M729.24,1360.51c6.16,8,17.19,1.35,23.91,7.94-.74,24.47-24.33,18.06-36.89,25.39-7.75,4.52-8.68-11.67-13.88-16.84-12.78-12.71,8.9-4.37,5.59-10.31C714,1361.15,720.86,1358.16,729.24,1360.51Z" transform="translate(-10.24 -5.86)" style="fill: #bf7c4a"/>
    <path d="M708.28,1364l-15.43.15c-1.85-6.17-13-1.92-12.13-10.66.21-2.13,3.11-5.93,4.19-5.74C695,1349.6,705.22,1351.86,708.28,1364Z" transform="translate(-10.24 -5.86)" style="fill: #4e1602"/>
    <path d="M845.4,1418.24l5.13,27.2c-10,11.56-26,7.15-30.87-9.23-3.92-13.08-6.37-26.6-9.46-39.92l20.18-.73C846.28,1395.91,837.73,1412.44,845.4,1418.24Z" transform="translate(-10.24 -5.86)" style="fill: #9e6533"/>
    <path d="M1533,1439c14.65,6.51,17.5,23,32.12,34.71h-32v-34.77Z" transform="translate(-10.24 -5.86)" style="fill: #251a14"/>
    <path d="M961.72,1485.73c.7-5,11.52-15.08-4.9-11.87a78.9,78.9,0,0,0-26.58,10.85c-8.62,5.47-16.56,9.37-28.48,5,24.54-22.45,48.43-39.59,82.83-22.1,7,3.58,16.65,2.11,25.08,3C995.59,1481.66,979,1484.63,961.72,1485.73Z" transform="translate(-10.24 -5.86)" style="fill: #b48041"/>
    <path d="M1048.37,1466.64c-9.37-3.12-21.75,1.51-27.57-10.73.77-1.11,1.53-2.22,2.29-3.34,13.36-7.2,28.93-4.4,42.74-9.55,15.69,1.54,27-16.76,43.87-9.83,4.66,6.12,19.82,2.32,15.73,16.68C1099.87,1456.07,1075.24,1466.5,1048.37,1466.64Z" transform="translate(-10.24 -5.86)" style="fill: #f0c890"/>
    <path d="M1109.7,1433.19c-14.87,2.71-24.9,18.5-41.88,15.49-6.23-5.28-18.57,5-21.34-7.69-1.58-7.27,6-9.28,10.72-12.57,18.54,3,32.69-16.92,52-9.93C1114.4,1423.21,1112.76,1428.18,1109.7,1433.19Z" transform="translate(-10.24 -5.86)" style="fill: #664115"/>
    <path d="M1052,1391.49c10.38,9.07,23.42,9.69,40.5,11.68-17.14,6.8-25.18,21-40.62,24.16-8.1,16.61-24.36,13.85-38.44,16.3-13.67-2.21-27.25,6.12-41,.48-7.16-1.41-15,10.59-21.64-1.07,21.15-27.88,52.6-41,82.18-56.54C1038.86,1383.4,1046.79,1385.32,1052,1391.49Z" transform="translate(-10.24 -5.86)" style="fill: #f4cc93"/>
    <path d="M1052,1391.49c-31.28-4.3-47.45,25-73.35,33.23-10.19,3.21-18.6,12-27.82,18.32l-26,16.83c-8.18-.38-7.79-4.83-4.82-10.34,9.51-17.59,24-29.86,42.65-36.18,21-7.09,37.23-21.51,55.69-32.5,8.7-5.17,3.89-9.78,2.53-15.14,8.57-2.62,16.71-1.32,25.26,1.15C1063.38,1371.86,1064.68,1379.77,1052,1391.49Z" transform="translate(-10.24 -5.86)" style="fill: #7b4e1c"/>
    <path d="M972.43,1444.11c12.35-2.47,23.85-10.76,37.34-5.43,3.08,5.49,13.41,6.21,10.35,15.74l.67,1.49C1002.25,1461.89,984.45,1464.86,972.43,1444.11Z" transform="translate(-10.24 -5.86)" style="fill: #ad7d3c"/>
    <path d="M1020.12,1454.42c-3.4-5.28-11.43-7.52-10.35-15.74,13.46-5.85,29.59-1.84,42.07-11.35l5.36,1.09c-16.84,17.43,5.12,14.53,10.62,20.26C1052.55,1455.8,1036.61,1457.42,1020.12,1454.42Z" transform="translate(-10.24 -5.86)" style="fill: #87591f"/>
  </g>
</svg>
