<?xml version="1.0" encoding="utf-8"?>
<!-- Generator: Adobe Illustrator 23.0.1, SVG Export Plug-In . SVG Version: 6.00 Build 0)  -->
<svg version="1.1" id="Livello_1" xmlns="http://www.w3.org/2000/svg" xmlns:xlink="http://www.w3.org/1999/xlink" x="0px" y="0px"
	 width="1026.24px" height="577.78px" viewBox="0 0 1026.24 577.78" style="enable-background:new 0 0 1026.24 577.78;"
	 xml:space="preserve">
<style type="text/css">
	.st0{fill:#05040A;}
	.st1{fill:#0D070C;}
	.st2{fill:#251A14;}
	.st3{fill:#25130D;}
	.st4{fill:#160D10;}
	.st5{fill:#6C3C1B;}
	.st6{fill:#BF773E;}
	.st7{fill:#432B12;}
	.st8{fill:#E6A959;}
	.st9{fill:#4D2F15;}
	.st10{fill:#664018;}
	.st11{fill:#160709;}
	.st12{fill:#5D3314;}
	.st13{fill:#CE8954;}
	.st14{fill:#865213;}
	.st15{fill:#623E1A;}
	.st16{fill:#53340D;}
	.st17{fill:#A67033;}
	.st18{fill:#72410E;}
	.st19{fill:#824717;}
	.st20{fill:#371405;}
	.st21{fill:#CEA87F;}
	.st22{fill:#23120F;}
	.st23{fill:#37210F;}
	.st24{fill:#150D0E;}
	.st25{fill:#180E0F;}
	.st26{fill:#4B2A17;}
	.st27{fill:#26100D;}
	.st28{fill:#190F10;}
	.st29{fill:#2A1E16;}
	.st30{fill:#CD974B;}
	.st31{fill:#19100F;}
	.st32{fill:#F5E4AE;}
	.st33{fill:#2E170E;}
	.st34{fill:#76401C;}
	.st35{fill:#50341D;}
	.st36{fill:#1C120F;}
	.st37{fill:#562F13;}
	.st38{fill:#573A1A;}
	.st39{fill:#C89F69;}
	.st40{fill:#271611;}
	.st41{fill:#B08648;}
	.st42{fill:#8D7144;}
	.st43{fill:#221713;}
	.st44{fill:#8B642D;}
	.st45{fill:#A75F2E;}
	.st46{fill:#47341C;}
	.st47{fill:#8E4C1E;}
	.st48{fill:#977549;}
	.st49{fill:#A97939;}
	.st50{fill:#553C22;}
	.st51{fill:#7F613A;}
	.st52{fill:#E4B169;}
	.st53{fill:#271B1B;}
	.st54{fill:#1C1617;}
	.st55{fill:#5B482B;}
	.st56{fill:#54311F;}
	.st57{fill:#402A22;}
	.st58{fill:#D7BE9A;}
	.st59{fill:#4A3415;}
	.st60{fill:#3F2E28;}
	.st61{fill:#2A100D;}
	.st62{fill:#FBE3B3;}
	.st63{fill:#FAD7A1;}
	.st64{fill:#553017;}
	.st65{fill:#714124;}
	.st66{fill:#A8683A;}
	.st67{fill:#EEBE7E;}
	.st68{fill:#D5A763;}
	.st69{fill:#8B5933;}
	.st70{fill:#955730;}
	.st71{fill:#81562E;}
	.st72{fill:#CD9B5C;}
	.st73{fill:#7C5B51;}
	.st74{fill:#EFB058;}
	.st75{fill:#100708;}
	.st76{fill:#100808;}
	.st77{fill:#CF8E3C;}
	.st78{fill:#77450F;}
	.st79{fill:#BF8E53;}
	.st80{fill:#4B260B;}
	.st81{fill:#361B0C;}
	.st82{fill:#EFBB7B;}
	.st83{fill:#E7B777;}
	.st84{fill:#F5CE94;}
	.st85{fill:#BA8955;}
	.st86{fill:#AD8554;}
	.st87{fill:#DEA863;}
	.st88{fill:#734722;}
	.st89{fill:#7C6146;}
	.st90{fill:#9D815A;}
	.st91{fill:#8B6F4A;}
	.st92{fill:#7A624A;}
	.st93{fill:#8F7564;}
	.st94{fill:#E1AE71;}
	.st95{fill:#B48041;}
	.st96{fill:#A46011;}
	.st97{fill:#9B6337;}
	.st98{fill:#11060A;}
	.st99{fill:#8A5E25;}
	.st100{fill:#E4B867;}
	.st101{fill:#EAC274;}
	.st102{fill:#B89770;}
	.st103{fill:#B68F5B;}
	.st104{fill:#443417;}
	.st105{fill:#E9BC83;}
	.st106{fill:#C7773D;}
	.st107{fill:#48300C;}
	.st108{fill:#9A8155;}
	.st109{fill:#9E6533;}
	.st110{fill:#704336;}
	.st111{fill:#90510B;}
	.st112{fill:#AD670D;}
	.st113{fill:#9F6D35;}
	.st114{fill:#E0AC6A;}
	.st115{fill:#BE8E4C;}
	.st116{fill:#7B4B20;}
	.st117{fill:#4E1602;}
	.st118{fill:#EFB161;}
	.st119{fill:#8E543D;}
	.st120{fill:#8F6230;}
	.st121{fill:#ECC38B;}
	.st122{fill:#F4CC93;}
	.st123{fill:#7C4E1C;}
	.st124{fill:#664115;}
	.st125{fill:#87591F;}
	.st126{fill:#AD7D3C;}
</style>
<g>
	<g>
		<path class="st0" d="M2.05,569.34c0-186.29,0.04-372.57-0.16-558.86C1.88,4,2.47,1.82,9.99,1.83
			c336.07,0.26,672.13,0.24,1008.2,0.1c5.95,0,8.06,0.77,8.05,7.62c-0.24,186.97-0.24,373.94-0.01,560.91
			c0.01,6.33-1.54,7.27-7.43,7.24c-56.98-0.26-113.95-0.16-170.93-0.16c-2.7-4.41,0.83-6.17,3.62-7.88
			c4.71-2.88,10.05-4.28,15.48-4.68c7.2-0.53,14.2,0.8,20.11-6.28c3.43-4.11,11.18,0.82,16.5-2.34c19.94-4.72,40.77-3.61,60.56-9.41
			c8.11-2.38,15.07-1.18,20.67,6.33c4.45,5.98,10.83,3.98,16.7,1.73c6.02-2.31,5.41-6.9,4.1-11.81c-0.71-2.66-0.2-5.39-0.1-8.08
			c-5.63-6.92-13.24-4.38-19.21-2.37c-24.39,8.23-49.69,12.28-74.7,17.74c-5.06-0.81-10.26-1.2-15.25-0.46
			c-9.48,1.4-18.13,0.32-26.14-5.27c-2.53-1.77-5.97-2.6-8.84-1.57c-11.34,4.1-22.84,2.09-34.33,1.61
			c-2.71-0.11-5.47-0.17-8.09,0.72c-2.01,0.68-3.86,1.93-3.85,4.22c0.01,2.71,2.45,2.94,4.43,3.2c7.16,0.96,13.93,3.2,20.43,6.22
			c3.79,1.77,7.71,4.11,6.85,8.99c-0.94,5.35-5.43,6.13-10.2,6.41c-5.22,0.3-11.05-1.99-15.38,3c-44.37,0-88.75,0-133.12,0
			c-7.24-4.72-6.4-10.94-1.98-16.55c5.44-6.92,4.48-11.47-3.3-15.12c-6.1-2.87-8.78-7.68-9.3-14.54
			c-0.97-12.71-1.81-13.07-15.11-13.34c-29.07-0.58-56.51-6.71-80.73-23.79c-6.8-7.18-11.18-15.09-9.85-25.65
			c0.84-6.67-2.62-6.99-7.13-3.09c-5.66,4.89-11.6,5.48-17.71,1c-5.78-4.24-11.82-1.89-17.72-0.8
			c-15.44,2.86-28.85-9.07-27.73-24.85c0.2-2.78,2.2-6.93-2.84-6.93c-2.62,0-6.32-1.37-7.88,3.95c-2.18,7.45-10.41,10.19-18.28,7.26
			c-8.24-3.07-7.51-9.4-5.23-17.27c-7.68,8.08-15.26,10.77-23.28,1.91c-0.92-1.01-2.64-1.26-3.75-0.22
			c-1.68,1.58-0.54,3.09,0.73,4.27c1.25,1.15,2.75,2.01,3.99,3.19c2.39,2.26,3.83,4.91,2.57,8.22c-1.1,2.9-3.79,4.42-6.52,4.08
			c-9.32-1.13-8.41,3.92-7.35,10.37c1.87,11.35-1.27,15.59-12.45,18.16c-3.98,0.91-8.03,1.62-12.1,1.97
			c-5.07,0.45-9.99-0.29-11.49-6.05c-1.46-5.62,1.98-8.93,6.83-11c1.26-0.54,2.62-0.74,3.97-0.94c-3.36-0.81-6.58-0.57-9.73,0.99
			c-10.06,5.01-20.39,7.85-32.52,2.22c1.15,1.69,1.26,2.02,1.49,2.16c3.85,2.34,9.88,2.39,9.91,8.79c0.01,3.03-2.39,4.86-4.99,5.95
			c-5.18,2.18-11.27,4.18-15.28-0.63c-6.66-7.99-8.7-3.66-12.75,2.45c-5.97,9.01-11.4,19.51-25.38,18.37
			c-5.18-0.42-9.52-0.69-11.28-6.4c-2.38-7.75-7.56-8.95-14.89-7.27c-7,1.6-14.44,1.69-21.31-0.33c-7.25-2.13-11.3,0.88-13.72,6.76
			c-2.17,5.26-3.94,10.15-10.87,10.3c-2.61,0.06-4,2.37-5.07,4.58c-2.59,5.35-5.72,10.11-11.96,11.78
			c-1.35,0.36-2.91,1.38-2.98,2.57c-0.58,9.84-11.38,13.05-13.86,21.87c-1.31,4.68-5.96,7.42-10.74,8.74
			c-11.04,3.04-21.82,5.39-33.81,4.23c-8.06-0.78-16.96,2.89-25.57,4.27c-6.12,0.98-13.19-2.82-18.43,3.13
			c-6.72,3.62-14.34,2.35-21.42,4.05c-6.52,1.72-13.17,1.01-19.78,1.11c-8.32-1.82-16.76-0.91-25.15-1.11
			c-6.49,0.19-12.79-0.2-18.99-2.82c-5.14-2.17-10.68-1.81-15.95,0.4C13.82,570.04,8.34,574.81,2.05,569.34z"/>
		<path class="st1" d="M120.81,562.98c7.34-7.33,16.72-0.97,24.87-3.77c16.87-5.8,35.5-0.28,52.31-7.95c4.38-2,6.5-4.83,9.39-8.21
			c7.38-8.63,10.4-20.86,21.72-26.33c2.18-1.06,3.5-4.01,5.07-6.2c1.19-1.65,1.74-4.43,3.26-5.06c8.43-3.47,13.85-8.72,15.96-18.18
			c0.67-3.03,7.03-3.81,11.06-3.25c10.8,1.51,21.3,2.36,32.19-0.62c6.32-1.72,7.36,5.83,9.81,9.78c3.31,5.32,20.99,7.36,22.23,1.69
			c1.85-8.45,12.67-10.86,11.82-20.49c-0.24-2.75,3-3.21,5.5-3.26c3.66-0.08,7.02,0.62,7.95,4.76c0.93,4.11,3.18,6.36,7.19,4.65
			c3.49-1.48,9.88,0.24,9.95-4.94c0.05-4.09-5.66-3.8-9.14-4.43c-3.95-0.71-8.14-1.33-6.79-6.56c1.08-4.15,5.14-4.45,8.46-2.97
			c10.86,4.84,20.81,3.44,30.44-3.18c4.57-3.14,9.92,0.42,14.91-1.17c1.9-0.6,5.1,0.56,4.98,3.73c-0.11,2.68-2.25,4.26-4.8,4.52
			c-2.66,0.27-5.58-0.67-8.02,0.08c-3.35,1.03-6.2,3.55-5.11,7.64c0.98,3.7,4.18,4.07,7.46,3.45c2-0.38,3.95-1.06,5.95-1.42
			c21.49-3.82,19.26-2.43,14.73-24.11c-0.47-2.23-2.6-4.37-0.57-6.63c2.67-2.98,4.8,0,7.2,0.85c3.55,1.27,8.41,2.76,10.23-0.91
			c2.6-5.26-3.04-5.31-6.27-6.72c-3.45-1.51-4.95-4.83-5.16-8.24c-0.2-3.18,2.54-4.8,5.33-5.21c3.6-0.52,7.49-1.42,9.64,3.25
			c3.22,6.98,6.66,7.57,11.57,0.88c3.29-4.49,9.7-1.6,13.66-4.52c2.19,2.39,0.54,3.18-0.5,3.61c-6.22,2.61-5.56,8.2-3.39,12.01
			c3,5.29,9.26,2.82,14.03,2.4c4.55-0.4,6.68-3.28,3.4-7.87c-1.09-1.52-0.56-2.89,1.35-2.26c5.63,1.85,10.01-7.48,15.97-1.61
			c2.08,2.05,3.39,4.23,2.34,7.26c-1.31,3.77-5.03,7.7-2.36,11.48c3.65,5.17,8.46,9.55,12.99,14.05c2.41,2.39,5.11,0.25,7.71-0.17
			c9.07-1.45,18.21-7.65,26.71,2.82c2.82,3.47,8.59,0.86,10.86-3.79c2-4.1,4.4-5.81,8.85-3.85c4.44,1.96,6.16,4.78,4.5,9.73
			c-3.21,9.56,0.56,17.18,7.35,23.76c-11.59,4.26-21-1.99-30.81-6.35c-15.02-7.31-30.18-13.8-47.51-9.27
			c-26.78,0.29-53.07,5.27-79.57,8.18c-4.13,0.45-7.94,1.54-11.71,3.08c-20.57,5.75-41.52,5.11-62.5,3.73
			c-4.23,0.53-6.32,3.65-8.3,6.9c-2.04,3.34-4.95,5.57-8.62,6.85c-6.86,1.19-12.17,6.63-19.31,7.08c-5.84-1.06-8.78-4.94-8.98-10.52
			c-0.3-8.09-4.33-8.91-10.65-6.18c-3.2,1.45-6.66,1.41-10.03,1.9c-3.96,0.87-8.39,2.06-11.78-0.17c-5.94-3.91-9.12-1.68-11.83,3.62
			c-3.04,5.95-8,9.72-13.99,12.32c-4,2.4-7.1,5.83-10.36,9.08c-2.97,2.02-4.88,4.87-6.29,8.11c-1.78,2.56-2.74,5.57-4.32,8.22
			c-1.94,6.32,2.76,4.98,5.52,4.22c4.77-1.31,8.38-0.6,11.87,3.04c8.56,8.92,15.96,8.53,23.68-1.37c2.13-2.74,4-5.31,7.43-6.44
			c3.67-1.21,7.4-2.2,10.32,1.16c3.35,3.87,0.44,6.81-2.02,9.66c-1.93,2.64-2.68,5.44-1.07,8.53c3.57,4.36,7.83,4.67,12.76,2.54
			c11.9-5.12,23.9-3.1,35.9-0.23c2.87,1.37,3.91,4.61,6.47,6.31c2.6,3.72,9.93,5.04,6.09,12.02c-55.98,0-111.96,0-167.94,0
			c-0.54-7.1,4.8-8.05,9.77-8.95c3.67-0.67,7.53,0.15,11.22-0.45c2.58-0.42,6.86,0.11,4.98-5c-6.03,0.88-12.02,1.37-18.08,1.09
			c-15.13,0.64-30.35-1.65-45.34,2.73C129.9,568.31,124.36,567.9,120.81,562.98z"/>
		<path class="st2" d="M550.73,481.39c8.46,6.68,19.28,6.64,28.86,10.11c24.96,15.98,52.37,22.95,81.87,22.54
			c14.35-0.2,17.25,2.41,16.05,17.16c-0.59,7.19,2.25,9.6,8.03,11.8c10.35,3.93,11.74,8.71,4.58,17.63
			c-4.53,5.64-4.84,10.86-1.98,16.91c-2.05,0-4.1,0-6.14,0c-2.01-1.85-2.01-4.14-1.5-6.56c0.85-4.13-3.21-6.66-3.41-10.45
			c3.55-6.03,1.31-9.31-5-10.93c-2.96-0.76-5.96-1.29-8.91-2.06c-14.02-3.66-28.45-6.39-37.23-16.11c5.8,3.44,13.1,8.99,20.21,14.57
			c8.83,6.94,19.24,11.02,28.21,17.56c-2.17,6.91-7.89,7.46-13.78,7.72c-7.48-2.88-13.01-8.55-18.91-13.63
			c-8.91-7.67-18.55-14.42-26.38-20.87c8.12,9.32,17.96,19.19,28.35,28.51c2.52,2.26,5.3,4.35,6.3,7.85
			c0.35,3.62-3.28,2.87-4.83,4.41c-11.61,0-23.21,0-34.82,0c-6.65-2.17-6.05-9.28-9.37-13.72c-2.06-2.71-4.57-5.27-3.33-9.17
			c6.78-5.28,11.97-1.09,16.09,2.07c-5.42-5.1-10.8-11.89-14.49-19.96c-1.2-2.63-1.76-5.93-5.76-5.67c-0.64,0.54-1.3,0.98-1.97,1.46
			c-5.14,2.67-6.45,9.74-12.75,11.05c-2.71-0.28-4.39-1.92-5.56-4.22c-1.39-4.54-2.58-9.15-4.16-13.64
			c-1.84-4.75-5.02-8.64-8.08-12.6c-5.53-7.07-13.02-12.12-19.18-18.56c-6.32-6.08-13.35-10.53-22.56-10.35
			c-2.09,0.04-3.95-0.95-5.69-2.09c-2.38-1.56-4.76-3.55-3.54-6.57c1.1-2.72,4-1.93,6.36-1.53c9.4,1.58,18.83,2.98,27.79,6.45
			C546.23,481.29,548.23,483.28,550.73,481.39z"/>
		<path class="st3" d="M522.24,577.54c-19.11,0-38.23,0-57.34,0c-1.02-1.02,0.41-4.37-3.2-3.02c-2.34,0.88-4.53-0.33-6.37-1.94
			c-2.3-3.62-5.98-6.45-6.52-11.11c0.01-0.96,0.21-1.89,0.58-2.78c5.2-1.72,1.8-6.33,3.09-9.36c1.72-3.47,1.24-6.28-2.39-8.2
			c-2.73-1.44-4.18-4.03-5.72-6.53c-0.5-0.8-0.82-1.66-0.99-2.59c1.11-8.06-4.26-13.09-8.79-18.41c-2.82-3.32-6.67-5.72-8.79-9.72
			c-1.3-6.62,3.07-6.68,7.59-6.6c2.02,0.41,3.8,1.41,5.66,2.24c7.24,3.46,14.08,7.49,20.18,12.83c3.25,2.84,7.2,3.48,11.22,1.12
			c3.64-1.71,7.2-3.73,11.48-2.94c3.3,1.2,4.78,3.68,4.98,7.06c-6.43,5.86-6.17,14.5-8.97,21.82c1.5,3.43,5.08-0.26,6.9,2
			c2.85,1.51,3.68,4.43,4.97,7.03c0.87,2.18,0.43,4.61,1.29,7.05c1.51-5.78-0.67-11.21-0.59-16.71c0.06-4.28-0.8-8.78,3.3-11.96
			c2.97-1.69,5.99-1.71,9.05-0.29c6.17,5.11,1.61,11.33,1.8,17.07c-1.95,5.73,3.43,7.87,5.7,11.53c3.92,4.48,5.42,10.57,9.85,14.7
			C521.86,572.14,523.95,574.34,522.24,577.54z"/>
		<path class="st4" d="M903.26,559.21c-3.23,2.75-6.97,2.03-10.65,1.48c-1.93-0.29-4.53-1.59-5.19,1.15
			c-2.11,8.77-6.95,7.5-14.43,6.67c-8.78-0.97-18.82,0.31-25.11,9.03c-8.87,0-17.75,0-26.62,0c0.05-7.76,5.9-5.66,10.33-6.18
			c4.48-0.53,11.48,2.34,12.64-3.26c1.32-6.35-6.52-5.14-10.38-7.07c-4.86-2.42-9.88-4.51-15.63-4.04
			c-4.18,0.34-9.51-0.13-9.57-5.17c-0.06-5.05,3.23-9.73,8.98-10.95c2.62-0.56,5.44-0.16,8.17-0.2c11.67-0.17,23.49,4.23,35.05-1.73
			c2.29-1.18,7-0.83,8.83,0.8c12.56,11.18,27.59,6.2,41.7,7.14c-1.49,7.55-8.61,4.38-12.84,6.72c-1.19,0.65-1.78,1.47-0.6,0.79
			c0.31,0.62,0.74,1.13,1.38,1.51C900.97,556.63,902.54,557.42,903.26,559.21z"/>
		<path class="st5" d="M202.66,559.54c4.57,5.9,2.27,9.59-4.16,10.84c-5.3,1.03-10.82,0.89-16.23,1.33
			c-4.29,0.35-7.89,1.99-10.23,5.82c-12.97,0-25.94,0-38.91,0c-9.27-2.41-18.87-0.11-28.22-2.03c-5.26-1.08-7.31-3.16-4.62-8.29
			c6.44-3.38,14.02-1.23,20.53-4.23c20.45-0.56,40.86-3.1,61.37-1.64c0.24,4.32-3.09,3.82-5.58,3.81
			c-6.44-0.02-12.94,0.87-17.04-0.41C172.65,564.87,188.21,567.58,202.66,559.54z"/>
		<path class="st6" d="M387.07,577.54c-14.34,0-28.67,0-43.01,0c-4.92-6.61,1.24-13.64-0.8-20.37c7.34-5.51,15.86-8.02,24.73-9.67
			c0.95,0.21,1.83,0.59,2.64,1.11c4.41,3.47,9.57,5.94,13.56,10C386.17,564.76,387.65,570.99,387.07,577.54z"/>
		<path class="st7" d="M100.28,567.21c-0.13,4.2,2.29,5.2,6.03,6.51c8.79,3.07,18.36-0.6,26.81,3.82c-25.26,0-50.52,0-75.78,0
			c-11.33-2.57-22.52-5.94-34.37-5.34c-5,0.25-9.77-0.2-4.54-6.92c6.32-3.45,13-2.97,19.17-0.38c5.15,2.16,10.23,2.57,15.56,2.45
			c8.93,1.58,17.86,1.58,26.79,0C86.73,567.3,93.51,567.26,100.28,567.21z"/>
		<path class="st8" d="M598.75,554.94c2.02,2.09,4.04,4.19,6.06,6.28c0.52,6.05-3.33,10.83-4.75,16.32c-2.05,0-4.1,0-6.14,0
			c-15.98-4.99-27.72-15.3-36.61-29.18c-1.75-0.83-3.66-1.41-4.74-3.21c-0.48-1.59,0.1-2.87,1.19-3.99
			c8.65-4.55,13.77,1.65,19.34,6.4c2.08,1.77,3.47,4.14,5.07,6.31c2.82,3.81,5.46,5.2,7.93-0.34c1.24-2.78,2.53-5.65,6.2-5.99
			C596.5,548.21,599.08,550.32,598.75,554.94z"/>
		<path class="st9" d="M450.55,558.94c-0.04,0.79-0.08,1.57-0.11,2.36c-0.42,4.94,4.83,6.34,6.32,10.08
			c1.5,0.31,3.81,2.32,4.35,0.75c1.92-5.7,4.75-3.33,6.95-0.9c3.81,4.21-3.08,3.67-3.16,6.3c-8.87,0-17.75,0-26.62,0
			c-2.05-4.97-4.1-0.76-6.14,0c-4.78,0-9.56,0-14.34,0c-0.7-0.66-0.99-1.47-0.94-2.43c0.32-1.39,1.02-2.57,1.97-3.61
			c2.73-2.5,5.63-4.81,8.53-7.12c4.46-3.56,9.06-6.96,14.18-9.45C445.79,552.85,450.19,551.71,450.55,558.94z"/>
		<path class="st10" d="M583.68,577.54c-11.61,0-23.21,0-34.82,0c-5.29-4.65-13.72-1.43-18.51-7.35c-0.6-6.19,5.02-7.2,8.39-10.1
			c1.32-0.31,2.87-0.65,3.94,0.04c9.55,6.14,14.63,1.73,17.84-7.36c0.96-0.43,2.5-0.51,2.67,0.24c2.01,9.07,9.06,13.39,16.18,17.78
			C581.76,572.25,585.01,573.53,583.68,577.54z"/>
		<path class="st11" d="M18.44,565.27c-1.12,3.04-1.74,5.56,3.16,4.04c13.48-4.17,24.56,2.3,35.75,8.23
			c-15.7,0-31.42-0.47-47.09,0.21c-7.06,0.3-9.75-1.39-8.2-8.4C8.11,570.39,12.84,566.1,18.44,565.27z"/>
		<path class="st12" d="M419.81,573.75c-0.73,0.61-1.46,1.21-2.19,1.82c-5.49-0.07-11.12-1.25-16.22,1.97c-4.78,0-9.56,0-14.34,0
			c-6.44-5.01-4.13-11.99-4.13-18.44c0.31-2.93,2.01-4.63,4.77-5.39c6.73,0.16,12.77,2.27,18.05,6.49c1.2,4.67,4.57,5.9,9,6.43
			C418.44,567.06,422.61,568.23,419.81,573.75z"/>
		<path class="st13" d="M677.94,561.38c6.98,0.46,4.87,6.01,5.58,9.97c-3.67,4.16-9.73,2.99-13.83,6.18c-8.19,0-16.38,0-24.58,0
			c1.53-1.25,3.06-2.51,4.6-3.76c1.73-4.75,5.13-5.92,9.72-4.52c5.05-1.32,9.89-3.16,14.27-6.06
			C674.65,561.49,676.14,561.07,677.94,561.38z"/>
		<path class="st14" d="M583.68,577.54c-1.79-4.5-6.99-3.5-10.32-6.39c-5.96-5.19-10.03-10.82-12.46-18.04
			c-2.6-0.88-3.63-2.75-3.41-5.41c0.28-0.9,0.76-1.69,1.43-2.36c8.67,13.99,22.34,22.53,34.99,32.19
			C590.51,577.54,587.09,577.54,583.68,577.54z"/>
		<path class="st15" d="M522.24,577.54c-1.39-2.04-2.77-4.08-4.16-6.12c-2.84-6.08-4.13-12.7-6.61-18.91c-1.3-3.26-2-6.66,1.7-8.93
			c3.4-2.09,7.03-2.48,10.36,0.15c3.44,2.71,6.78,5.57,7.66,10.23c-3.54,5.03-10.26,9.5-3.01,16.52c1.21,2.32,1.65,4.66,0.2,7.05
			C526.34,577.54,524.29,577.54,522.24,577.54z"/>
		<path class="st16" d="M343.79,557.38c9.34,6.59-0.37,13.45,0.28,20.16c-1.37,0-2.73,0-4.1,0c-0.02-5.69-6.09-6.19-8.46-9.86
			c0.39-2.73,3.36-3.54,4.29-5.87c1.29-2.39,2.79-4.57,5.59-5.38C342.36,556.33,343.15,556.65,343.79,557.38z"/>
		<path class="st17" d="M528.38,577.54c-0.78-2-1.56-4.01-2.34-6.01c0.18-3.43,1.98-3.61,4.55-2.27c6.69,1.44,14.25,0.96,18.27,8.29
			C542.04,577.54,535.21,577.54,528.38,577.54z"/>
		<path class="st18" d="M600.06,577.54c-3.87-3.12-4.2-6.43-0.36-9.76c2.16-1.87,5.57-2.68,5.1-6.56c2.27,5.29,2.06,11.42,5.5,16.32
			C606.89,577.54,603.48,577.54,600.06,577.54z"/>
		<path class="st19" d="M669.7,577.54c3.22-5.17,7.57-7.83,13.83-6.19c-0.52,2.07-1.03,4.13-1.55,6.19
			C677.89,577.54,673.79,577.54,669.7,577.54z"/>
		<path class="st20" d="M401.41,577.54c4.96-4.32,10.04-7.66,16.22-1.97c0.01,0.66,0.07,1.32,0.16,1.97
			C412.33,577.54,406.87,577.54,401.41,577.54z"/>
		<path class="st21" d="M432.13,577.54c2.73-3.19,2.5-8.19,7.16-11.17c1.42,4.19,0.68,7.7-1.01,11.17
			C436.22,577.54,434.18,577.54,432.13,577.54z"/>
		<path class="st22" d="M686.18,108.44c-4.24,0.57-7.98-0.93-11.83-2.5c-4.81-1.96-8.45,1.25-9.83,4.87
			c-1.69,4.44,2.73,4.98,6.05,6.14c15.8,5.53,29.72,13.58,36.67,29.94c2.06,4.86,5.84,8.54,10.46,8.88
			c11.21,0.85,19.34,8.85,29.77,11.51c5.78,1.47,11.28,4.58,17.24,6.13c4.27,1.11,8.32,2.72,10.44,10.58
			c-10.66-8.39-22.09-7.62-32.31-12.57c-18.58-9-38.31-15.63-57.6-23.15c-3.01-1.17-6.16-1.13-8.2,2c-1.79,2.75-0.71,5.83,1.14,7.56
			c10.52,9.89,10.35,21.56,8.26,34.8c-2.28,14.43,4.25,20.92,24.62,21.81c12.84,0.56,15.65,10.5,22.51,16.82
			c0.61,0.56,0.98,2.05,0.69,2.81c-1.4,3.69-5.27,7.63-1.71,11.24c4.96,5.02,10.91,9.09,16.57,13.38c1.29,0.98,3.15,1.25,4.77,1.77
			c6.24,1.99,9.53,6.26,9.96,12.78c0.24,3.67-0.36,7.11-4.37,8.25c-5.85,1.66-10.53-1.06-14.79-4.77
			c-7.79-6.78-15.86-6.69-21.38,0.6c-1.42,1.87-2.16,4.22-4.47,5.32c-5.07-6.07,0.98-14.33-4-20.42
			c0.94-9.05-2.98-15.91-10.07-20.94c-3.94-2.8-7.33-5.84-10.03-9.9c-1.43-2.16-3.87-4.97-6.03-5.12
			c-22.39-1.59-28.43-19.28-35.62-35.72c-7.48-17.09-9.14-36.9-23.97-50.56c-2.67-2.46,0.63-4.03,1.62-5.97
			c4.82-9.37,12.17-17.3,10.75-29.65c-0.89-7.76-2.87-13.56-8.61-18.36c5.21-4.66,9.24-1.67,13.16,2c2.57,2.66,3.1,6.41,5.04,9.42
			c0.72,7.41,4.94,5.93,9.46,3.7C674.26,97.59,681.87,99.77,686.18,108.44z"/>
		<path class="st23" d="M456.78,65.59c-17.04,8.36-35.8,9.13-54.02,12.35c-7.95,1.4-15.87,3.19-23.65,5.36
			c-8.37,2.34-16.53,0.92-24.7-0.53c-2.06-0.37-4.88-1.63-2.73-4.96c6.9-1.17,12.01-6.88,19.09-7.61
			c17.96-6.03,36.13-11.36,54.03-17.54c5.8-0.48,11.93,0.17,16.44-4.76c0.91-0.38,1.86-0.61,2.84-0.73
			c6.06,0.24,12.14-0.31,18.19-0.16c7.32,0.18,13.19-1.95,17.45-8.04c2.71-2.25,5.69-3.86,9.34-3.72c3.06,1.48,6.41,2.22,9.62,3.41
			c1.8,1.9,2.39,4.2,2.29,6.73c-8.52,6.88-17.69,12.95-26.63,19.24C469.79,67.84,462.61,62.46,456.78,65.59z"/>
		<path class="st24" d="M479.04,228.9c-2.18,6.99-6.58,11.53-13.74,13.8c-7.91,2.5-14.12,8.05-20.48,13.08
			c-4.23,3.34-7.44,7.88-13.38,8.75c-2.91,0.42-3.84,2.94-2.68,5.47c1.11,2.43,3.2,2.15,4.97,0.48
			c11.48-10.79,26.93-14.98,39.67-24.05c10.48-7.46,24.37-10.14,38.84-15.75c-4,9.14-9.11,14.19-15.31,17.24
			c-19.47,9.57-39.17,18.68-59.01,27.44c-5.48,2.42-11.73,3.41-17.74,4.17c-1.74,0.22-8.08,1.64-5.14-4.86
			c0.59-1.31,0.33-3.19-1.34-3.03c-2.48,0.24-5.62,2.68-5.7-2.2c-0.06-3.94,2.83-5.02,6.3-4.92c9.69-2.74,17.66-8.67,25.62-14.41
			c11.68-8.42,24-15.85,35.93-23.89C477.47,226.46,478.46,227.43,479.04,228.9z"/>
		<path class="st25" d="M456.78,65.59c0.54-0.41,1.12-1.23,1.6-1.17c13.09,1.64,21.49-6.76,29.05-15c4.12-4.49,9.6,1.44,12.39-3.69
			c0.38-0.92,1.07-1.32,2.05-1.21c4.38,2.49,1.91,7.36,3.74,10.74c0.21,1.38,0.12,2.74-0.15,4.1c-0.41,2.33-0.08,4.81-0.83,7.02
			c-2.62,7.75,0.32,12.49,6.97,16.79c4.07,2.63,9.19,4.46,11.73,9.24c1.1,4.46-2.93,4.44-5.21,5.96c-0.53,0.41-1.06,0.82-1.6,1.23
			c-3.93-7.47-13.17-1.92-18.02-7.33c-0.82-0.91-2.7-1.94-3.56-1.59c-14.2,5.65-16.26-8.24-19.84-14.68
			C470.41,67.49,465.52,64.48,456.78,65.59z"/>
		<path class="st26" d="M763.85,119c21.88,21.39,47.61,38.23,69.88,59.15c-1.47,7.91-4.06,8.62-13.48,3.72
			c-4.24-6.31-7.63-14.19-17.81-9.6c-0.43,0.2-0.93,0.02-0.99-0.06c-7.76-10.23-24.82-6.62-30.14-21.9
			c-3.67-10.54-14.59-17.17-20.89-26.85c-3.25-5-10.93-4.55-17.06-4.66c-4.82-0.09-9.64-0.04-10.92-6.25
			c11.73-6.19,27.63-4.15,36.35,4.87C760.37,119.04,761.63,120.14,763.85,119z"/>
		<path class="st27" d="M903.26,559.21c-2.09-0.05-4.17-0.11-6.26-0.16c1.07-7.14,7.34-5.75,11.82-7.01
			c24.96-7.03,50.95-9.84,75.44-19.11c7.91-2.99,17.17-3.85,25.32,1.47c-0.02,3.22-2.08,6.17,0.18,9.74
			c4.68,7.4,0.91,11.84-6.1,14.95c-10.36,4.6-17.24,2.87-24.19-6.9c-2.45-3.44-5.48-3.51-8.95-2.81c-14.78,2.99-29.38,6.3-44.76,6.2
			C918.52,555.53,911.17,560.11,903.26,559.21z"/>
		<path class="st28" d="M821.1,178.27c4.25,4.44,8.49,7.35,12.62-0.13c6.93-0.31,10.76,5.72,16.33,8.25
			c2.57,1.17,4.35,4.49,1.35,8.55c-9.88,13.38-14.6,14.42-26.2,2.82c-8.98-8.99-20.78-12.36-31.5-17.85
			c-13.4-6.86-23.15-17.64-32.78-28.65c-4.52-5.17-6.02-11.31-5.3-18.06c2.7-2.14,4.5-0.83,5.34,1.79
			c2.59,7.97,9.29,13.21,13.24,20.26c1.32,2.35,3.26,5,5.7,5.59c12.4,3.01,20.95,15.13,34.85,14.52
			C817.09,175.27,819.26,176.7,821.1,178.27z"/>
		<path class="st29" d="M659.45,378.89c-1.35,0.02-2.69,0.03-4.04,0.05c-4.78,1.33-8.52,6.41-14.34,3.99
			c-1.15-10.22,2.78-18.26,9.53-25.85c16-17.99,31.45-36.48,47.88-54.36c-1.2,10.93-10.3,19.54-8.31,31.11
			c-1.86,3.23-1.82,7.3-4.43,10.18c-9.06,9.99-19.49,19-22.89,32.96C662.56,378.16,660.88,378.73,659.45,378.89z"/>
		<path class="st30" d="M517.96,128.85c1.54-4.25,1.04-9.6,6.37-11.8c6.2,0.72,6.2,0.72,7.88,9.72c7.11-3.12,1.52-10.03,4.47-14.06
			c3.92-2.1,7.08,0,10.3,1.84c4.8,4.46,6.41,9.5,2.52,15.34c-2.92,4.37-2.78,9.21-1.55,13.79c2.18,8.1,0.56,14.68-5.93,20.1
			c-2.67,2.23-3.58,5.74-5.55,8.51c-3.29,6.77-9,11.47-14.52,16.11c-3.85,3.23-8.77,5.34-11.78-1.65c1.17-4.02,5.71-6.12,6.05-10.61
			c2.91-5.78,1.97-13.12,7.85-17.81c2.04-1.63-0.2-4.31-0.84-6.5C520.97,144.29,517.16,137.09,517.96,128.85z"/>
		<path class="st31" d="M659.45,378.89c3.61-19.55,19.67-30.6,30.72-45.07c0.01,3.4-0.12,6.82,0.05,10.21
			c0.3,5.81-1.41,9.1-7.87,10.83c-11.3,3.03-12.32,7.21-4.86,16.41c6.37,7.87,11.66,16.49,18.59,24.07
			c4.61,5.04,5.55,13.49,7.91,20.49c0.34,1.03-0.21,2.98-1.04,3.64c-1.9,1.52-2.68-0.87-4-1.66c-8.12-4.84-12.61-13.21-18.91-19.78
			C673.52,391.21,666.92,384.63,659.45,378.89z"/>
		<path class="st32" d="M489.38,36.81c-2.48,1.57-4.95,3.14-7.43,4.71c-4.86,1.47-9.64,2.4-14.82,1.09
			c-7.45-1.89-14.65,0.16-21.76,2.34c-5.75,1.79-11.08,4.61-16.68,6.81c-0.95,0.28-1.9,0.51-2.86,0.74
			c-18.12,8.18-37.37,13.2-55.91,20.18c-3.13-0.27-5.48-1.06-3.29-4.9c34.49-15.39,68.1-33.14,105.75-40.16
			c9.03-1.68,18.2-1.73,27.35-0.73c4.21,2.41,2.24,4.58-0.17,6.88C496.65,36.53,492.83,35.99,489.38,36.81z"/>
		<path class="st33" d="M821.1,178.27c-26.47,0.24-53.19-18.12-62.44-42.94c-0.57-1.53-1.59-2.03-3.03-2.13
			c-9.87-13.85-26.3-11.81-39.98-16.38c-9.11-3.04-19.44-1.95-27.65-8.14c4.12-5.1,9.58-4.11,14.99-3.34
			c4.7,1.54,8.9,4.73,14.2,4.36c2.3,0.21,4.4,0.79,5.63,3c5.22,5.39,12,4.07,18.32,3.95c6.98-0.14,12.46,2.28,14.1,9.06
			c1.11,4.59,5.41,4.88,7.28,7.77c4.63,7.2,13.48,10.93,15,21.07c0.77,5.13,6.81,8.27,13.2,5.12c3.49-1.72,7.33-2.33,7.03,3.06
			c-0.23,4.2,0.27,6.61,4.76,7.08c4.93,0.51,4.92-3.46,6.02-7.33C813.86,167.33,818.61,171.85,821.1,178.27z"/>
		<path class="st34" d="M659.47,104.45c-2.99,1.23-4.94,6.25-8.1,4.64c-4.11-2.09-1.46-7.17-2.11-10.89
			c6.89-7.21,15.89-4.22,24.11-5.01c6.71-0.16,13.29-0.78,19.79-2.85c6.38-2.03,10.63-4.29,5.12-11.4
			c-0.59-0.76-0.33-1.93,0.09-2.89c8.83,3.36,17.65,6.72,26.48,10.08c0.76,4.7,5.01,5.88,8.09,8.38c3.02,2.45,7.22,4.1,8,8.73
			c-4.18,7.15-15.66,10.51-25.61,5.73c-14.6-7.02-30.51-3.98-45.49-7.53C666.05,100.54,662.51,101.99,659.47,104.45z"/>
		<path class="st35" d="M1009.57,534.39c-16.82-3-31.55,5.2-47.14,8.81c-20.27,4.7-40.58,9.26-60.86,13.94
			c-1.59,0.37-3.06,1.25-4.58,1.9c-3.61-0.49-7.4-1.91-7.03-5.86c0.36-3.84,5.02-2.33,7.67-3.46c4.35-1.86,9.64,0.52,13.72-2.87
			c24.35-6.28,49.52-9.02,73.43-17.16c7.23-2.46,14.78-1.17,22.17-1.29C1011.49,528.33,1009.85,531.88,1009.57,534.39z"/>
		<path class="st36" d="M558.83,130.68c-2.57,7.22,0.93,10.55,7.49,12.59c10.58,3.3,14.71,15.01,8.77,23.88
			c-1.08,1.61-2.22,0.98-3.33,0.29c-2.58-1.6-5.03-0.71-6.15,1.46c-5.16,9.95-8.94,5.98-12.64-0.97c-4.37-3.99-2.07-9.2-2.6-13.9
			c1.34-6.68-1.81-13.31,0.02-20.11C551.89,128.36,554.32,127.37,558.83,130.68z"/>
		<path class="st37" d="M659.47,104.45c0.89-1,1.74-2.83,2.67-2.87c16.98-0.77,34.37-5.27,50.58,3.03
			c7.57,3.87,14.59,4.49,22.44,1.93c3.33-1.08,4.1-3.1,4-6.07c0.72-1.17,1.58-1.29,2.59-0.35c8.6,4.85,14.59,12.74,22.09,18.87
			c-1.25,3.77-3.95,8.82-6.23,2.01c-2.35-7.04-5.91-6.84-11.62-7.54c-7.77-0.95-15.45-0.48-23.17-0.77
			c-2.01-0.04-4.01-0.07-6.02-0.11c-3.49-3.25-8.63-1.45-12.34-4.02c-5.49,0.04-10.98,0.07-16.47,0.11
			c-0.61-0.1-1.22-0.18-1.84-0.24C678.05,101.97,669.07,101.14,659.47,104.45z"/>
		<path class="st38" d="M479.04,228.9c-0.66-0.48-1.31-0.95-1.97-1.43c-0.25-0.39-0.5-0.78-0.75-1.17c0.1-0.92,0.44-1.75,1.05-2.45
			c3.26-2.06,7.12-3.35,9.06-7.13c15.52-11.31,28.85-25.15,43.44-37.51c3.06-2.59,2.96-5.52,4.79-7.99
			c4.22-1.92,5.94-10.04,12.88-5.17c0.66,2.15,0.58,4.23-0.59,6.21c0.24,11.54-11.12,12.9-17.35,17.71
			c-7.05,5.44-12.44,12.55-17.75,18.71C502.56,219.42,490.34,222.87,479.04,228.9z"/>
		<path class="st39" d="M593.92,24.44c3.26,0.93,4.64,3.68,6.12,6.33c-0.23,7.86-5.45,12.59-10.78,17.27
			c-5.03,4.05-10.56,6.29-17.13,4.56c-3.89-2.96-4.93-7.34-5.07-11.76c-0.11-3.46-1.29-5.83-4.08-7.62
			c1.78-10.15,10.78-8.29,17.19-9.41C584.41,23.07,589.37,23.38,593.92,24.44z"/>
		<path class="st40" d="M628.85,81.86c-4.44-4.41-4.47-10.3-3.79-15.6c0.89-6.92,9.52-9.27,14.94-3.98
			c4.72,4.61,8.62,5.38,15.2,3.35c8.64-2.67,16.55,3.57,24.82,5.77c-0.47,1.03-1.19,1.83-2.15,2.43c-8.54,3.26-18.05,0.8-26.53,4.45
			c-2.45,0.83-5.75-0.73-7.49,1.52C639.37,85.62,634.09,83.06,628.85,81.86z"/>
		<path class="st41" d="M534.81,172.32c-1.48,2.24,4.42,4.59-0.02,6.69c-10.69,5.06-17,14.88-24.93,22.9
			c-6.72,6.8-13.08,13.9-22.4,17.24c-3.71,1.54-6.83,4.03-10.1,6.29l-0.02,0.07c-2.51,0.93-4.7,1.31-4.45-2.56
			c14.12-10.32,25.39-23.56,37.26-36.2c6.26,4.4,9.57-0.62,13.38-4.15c4.11-3.81,8.01-7.78,10.9-12.63
			c0.59,0.44,0.84,0.94,0.76,1.49C535.1,172.03,534.98,172.32,534.81,172.32z"/>
		<path class="st42" d="M522.42,30.26c7.23-5.46,16.54-2.62,24.27-6.09c2.27-0.68,5.22-1.68,6.31,0.85
			c1.51,3.54-1.01,6.56-3.56,8.71c-3.76,3.16-9.06,4.83-9.38,10.92c-7.76,8.1-13.98,8.16-24.84,0.27c-1.5-3.9-1.72-7.87-0.58-11.91
			C516.46,29.93,519.11,29.15,522.42,30.26z"/>
		<path class="st43" d="M550.81,67.68c5.34-0.05,8.13,4.36,12.11,6.81c-3.87,3.85-13.44,6.11-2.4,13.27
			c3.2,2.08-1.29,4.13-3.83,4.25c-7.44,0.38-14.92,0.62-22.13-1.88c-6.33-8.93-5.19-12.89,4.42-17.69
			C542.83,70.52,547.83,71.61,550.81,67.68z"/>
		<path class="st44" d="M534.81,172.32c-0.12-0.78-0.25-1.57-0.37-2.35c1.19-2.03,1.97-4.52,3.64-6c7.1-6.32,9.07-13.54,5.96-22.67
			c-1.78-5.24-1.82-10.6,3.25-14.97c4.22-3.65-0.25-7.82-0.32-11.78c7.66,2.65,9,9.95,11.86,16.14c-8.16,1.57-6.02,8.58-5.3,12.91
			c0.62,3.75,1.79,6.92-0.27,10.39c-2.91,3.45-1.21,9.56-6.66,11.54C541.68,166.09,540.01,172.27,534.81,172.32z"/>
		<path class="st45" d="M677.88,72.05c0.71-0.22,1.42-0.44,2.13-0.66c0.67,0.24,1.34,0.47,2.01,0.71c3.92,1.41,9.19,1.09,10.16,6.63
			c0.97,5.57-3.36,8.27-6.91,11.32c-3.38,2.9-7.84,3.73-11.46,6.14c-8.44-2.49-16.09,4.74-24.55,2.01
			c-3.66-1.49-3.83-4.84-4.28-8.05c-1.05-2.47-4.18-4.74-0.71-7.64c4.18-2.56,7.75-2.19,12.14,0.6c10.65,6.76,11.1,6.41,16.8-4.44
			C674.48,76.24,676.31,74.25,677.88,72.05z"/>
		<path class="st46" d="M538.65,43.15c-4.5-5.45,1.32-6.85,3.96-8.59c3.06-2.02,6.15-3.55,7.59-7.22c1.71-4.37-2.28-2.18-3.49-3.17
			c15.76-2.51,31.52-7.1,47.22,0.26c-7.33,1.34-14.65,2.8-22.01,3.96c-3.48,0.55-6.52,1.68-9.04,4.15
			c-0.35,0.91-0.92,1.64-1.68,2.24c-4.6,1.3-8.12,4.44-11.96,7.04c-0.75,0.58-1.57,1.04-2.44,1.42
			C544.07,43.88,541.34,45.04,538.65,43.15z"/>
		<path class="st47" d="M673.81,96.2c2.22-3.9,5.76-6.46,9.19-9.17c9.72-7.7,9.69-7.9-0.98-14.93c6.01-1,10.95,2.45,16.35,3.96
			c11.99,10.99,11.7,10.38-3.04,17.29C688.06,96.76,681.04,95.83,673.81,96.2z"/>
		<path class="st48" d="M472.89,222.96c1.48,0.85,2.97,1.7,4.45,2.56c-0.06,0.66-0.15,1.31-0.27,1.95
			c-10.71,12.04-26.28,17.32-38.35,27.61c-6.54,5.58-15.6,7.64-23.01,12.45c-3.17,2.06-2.36-1.19-1.41-2.98
			C433.84,250.68,453.37,236.82,472.89,222.96z"/>
		<path class="st49" d="M517.96,128.85c5,7.53,5.17,17.31,11.38,24.31c1.46,1.65,1.48,4.58-0.01,5.56
			c-6.54,4.29-7.92,12.27-13.12,17.42c0.01-12.5,0.04-25.01,0.02-37.51C516.22,135.26,515.77,131.83,517.96,128.85z"/>
		<path class="st50" d="M550.81,67.68c1.79,6.27-3.63,5.02-6.56,6.14c-7.6,2.91-13.86,6.47-9.69,16.31c-2,0.83-3.99,1.66-5.99,2.48
			c-0.39-0.26-0.78-0.52-1.18-0.78c-1.85-6.36-6.83-8.21-12.7-8.79c-1.79-1.14-2.61-2.85-2.87-4.88
			c0.43-6.62,3.29-10.82,10.61-10.05c5.03,0.53,8.31-4.16,13.12-4.11c3.67,1.46,7.54,2.32,11.27,3.6
			C548.15,67.64,549.48,67.66,550.81,67.68z"/>
		<path class="st51" d="M522.42,30.26c-1.75,0.83-3.49,1.66-5.24,2.48c-4.54,2.44-3.45,6.26-2.48,10.07
			c-2.01,5.32-2.88,11.58-10.34,12.32c-5.34-1.86-1.63-6.36-2.75-9.45c-1.49-2.13-1.18-5.32-3.95-6.68
			c-3.16,0.76-6.33,1.56-8.29-2.2c2.04-4.78,10.56-2.8,10.35-9.93c4.78,1.45,9.18,4.5,14.64,0.64
			C516.23,26.2,521.05,25.48,522.42,30.26z"/>
		<path class="st43" d="M571.41,51.36c6.74,1.16,11.39-3.36,16.68-6.15c2.74-1.71,5.78-2.7,8.06,0.18c1.85,2.34,0.1,4.33-2.07,5.72
			c-3.3,4.23-7.95,3.99-12.7,4.32c-4.41,0.31-10.16-3.03-11.91,6.14c-0.65,3.42-10.56,3.46-16.27,0.21
			c-0.36-0.35-0.73-0.71-1.1-1.06c-0.6-1.52-0.48-2.97,0.35-4.38c4.57-4.46,10.2-6.27,16.46-6.47
			C569.93,50.05,570.76,50.55,571.41,51.36z"/>
		<path class="st31" d="M641.07,382.93c4.28-3.12,7.6-9.7,14.34-3.99c-0.32,9.11-3.27,17.06-10.59,23.6
			C641.21,396.29,640.78,389.68,641.07,382.93z"/>
		<path class="st52" d="M536.67,112.71c3,6.34,7.72,12.86-1.62,18.03c-1.95,1.08-4.42,3-6.24,0.29c-1.48-2.21-4.99-4.97-1.88-7.71
			c6.15-5.42-0.87-4.58-2.61-6.27C527.52,112.98,531.65,111.57,536.67,112.71z"/>
		<path class="st53" d="M891.93,283.46c-0.2,2.48-1.93,3.62-3.37,2.54c-6.27-4.7-11.5-10.78-19.4-13.33
			c-0.86-0.28-1.31-5.57-0.18-7.48c1.96-3.31,4.79-0.22,6.87,0.83C883.4,269.85,887.1,277.32,891.93,283.46z"/>
		<path class="st54" d="M746.7,557.62c0.11,4.92-3.71,7.05-6.69,9.59c-2.1,1.79-3.79,0.06-5.09-1.52c-2.72-3.3-0.88-6.34,0.75-9.34
			c0.32-0.59,0.61-1.32,1.12-1.67c3.17-2.16,1.56-9.82,6.97-8.05C747.49,547.86,744.46,554.19,746.7,557.62z"/>
		<path class="st55" d="M594.08,51.1c3.47-7.53-2.62-5.33-5.99-5.9c3.98-4.81,7.96-9.63,11.95-14.44
			C605.4,41.13,603.54,47.49,594.08,51.1z"/>
		<path class="st56" d="M645.14,83.98c-1.99,2.01,0.71,4.14-0.15,6.18c-3.56-2.76-7.38-4.79-12.11-4.16
			c-1.34-1.38-2.68-2.76-4.02-4.14c8.14,2.48,12.4-8.42,20.54-5.94C650.81,80.1,647.09,81.58,645.14,83.98z"/>
		<path class="st26" d="M741.76,100.13c-0.86,0.12-1.73,0.23-2.59,0.35c-4.19-2.19-8.38-4.37-12.56-6.57
			c-3.61-1.9-3.34-4.69-1.76-7.77C731.6,89.45,737.02,94.38,741.76,100.13z"/>
		<path class="st57" d="M714.83,262.21c1.81-1.36,4.02-4.09,4.03,1.08c0.02,6.45-0.02,12.89-0.03,19.34
			c-3.32,1.41-4.23-0.26-4.19-3.24C714.72,273.67,714.77,267.94,714.83,262.21z"/>
		<path class="st43" d="M546.81,67.61c-3.91,2.32-7.78,4.4-10.1-1.87c3.21-8,5.96-8.84,15.79-4.8c0.24,0.27,0.48,0.54,0.71,0.82
			C551.11,63.75,547.04,63.58,546.81,67.61z"/>
		<path class="st58" d="M366.64,67.78c0.25,2.39,1.47,3.74,3.98,3.68c1.39,0.53,1.39,1.08,0.01,1.64
			c-6.63,0.32-11.6,7.34-18.96,4.72C355.78,73.16,361.72,71.23,366.64,67.78z"/>
		<path class="st59" d="M546.59,165.54c0.89-4.62,1.86-9.18,6.66-11.55c-0.09,4.65-0.19,9.3-0.28,13.95
			c-3.12-0.11-4.14,2.71-6.03,4.32C546.83,170.02,546.71,167.78,546.59,165.54z"/>
		<path class="st11" d="M79.96,567.34c-8.93,2.92-17.86,3.06-26.79,0C62.1,567.34,71.03,567.34,79.96,567.34z"/>
		<path class="st60" d="M518.13,98.35c1.08-2,4.12-2.68,3.82-5.62c-0.62-0.84-0.71-1.73-0.2-2.66c2.73-1.78,4.58-0.04,6.44,1.62
			c0,0,0.38,0.92,0.38,0.92C526.58,97.25,524.02,100.82,518.13,98.35z"/>
		<path class="st61" d="M327.47,561.15c-13.12,0.94-26.38-3.79-39.52,2.7c-4.56,2.25-11.42,0.11-13.44-7.01
			c1.02-3.17,3.42-6.04,2.08-9.72c0.07-2.89,8.29-3.78,2.68-7.37c-3.57-2.29-10.36-0.3-11.18,3.82c-1.56,7.83-8.18,8.85-12.97,11.42
			c-5.57,2.99-12.23,3.9-15.7-4.75c-1.48-3.69-3.28-9.49-9.92-3.03c-2.71,2.64-9.49-0.74-12.45-4.4c-3.19-3.94,1.95-4.57,4.02-6.27
			c7.38-1.98,14.64-1.36,22.09,0.11c7.21,1.42,13.9-0.59,21.21-2.45c13.23-3.37,22.71-14.64,36.9-15.08
			c9-0.28,11.77,1.01,12.91,9.96c0.6,4.68,0.57,9.22,7.29,8.01c2.33,0.19,4.69,0.02,7.04,0.32c2.04,0.53,3.75,1.56,5.03,3.27
			C337.97,549.4,335.1,555.98,327.47,561.15z"/>
		<path class="st62" d="M409.62,483.44c20.83-4.62,41.94-7.37,63.06-10.24c9.73-1.32,19.27,1.66,28.79-0.6
			c5.01,2.24,8.74,6.21,12.7,9.77c0.98,0.88-0.99,2.82-2.22,3.92c-0.73,0.57-1.54,1.04-2.37,1.44c-4.88,1.19-5.15,5.77-6.82,9.32
			c-0.48,2.44-1.8,4.48-3.01,6.59c-2.21,2.79-4.4,5.66-8.64,4.79c-3.6-7.27-8.75-8.97-16.88-6.88c-7.01,1.8-14.41,3.64-21.94,2.72
			c-0.95-0.19-1.85-0.53-2.72-0.94c-4.28-3.3-10.31-0.67-14.5-4.27c-0.85-0.38-1.69-0.79-2.52-1.22
			c-6.22-2.91-10.98-8.69-18.69-8.86C411.5,488.94,408.7,487.07,409.62,483.44z"/>
		<path class="st63" d="M409.62,483.44c1.67,1.07,3.68,3.37,4.97,3.02c10.5-2.89,14.21,5.49,19.55,11.22
			c-4.82,1.13-10.62-0.49-10.56,8.59c0.03,4.84-6.95,3.73-11.21,2.35c-6.7-2.18-13.2-5.82-20.45-1.87
			c-7.06,2.75-13.83,6.22-21.15,8.31c-4.09,0.06-8.12,2.8-12.28,0.31c-5.76-4.94-4.43-12.73-7.49-18.75
			c-1.81-2.09-4.51-3.14-6.29-5.28c-0.87-1.16-1.32-2.4-0.64-3.82c4.04-0.29,8.23-1.42,12.1-0.73
			C374.31,490.01,391.94,486.6,409.62,483.44z"/>
		<path class="st64" d="M323.41,538.73c-8.19,3.91-12.42,1.49-12.16-7.75c0.21-7.51-2.58-10.33-10.49-8.57
			c-6.38,1.42-12.58,2.71-17.6,7.09c-3.71,3.24-7.62,5.56-12.8,5.11c-1.29-0.11-3.35,0-3.86,0.78c-7.88,12.09-18.11,5.99-27.7,3.58
			c-5.86-1.48-12.32,1.85-17.74-2.43c0.71-3.1,1.68-6.06,4.11-8.31c4.06-0.73,7.98-0.67,12.11,0.27c6.68,1.53,13.48,1.81,19.94-1.48
			c2.47-1.26,5.22-1.73,7.96-1.58c8.63,0.49,15.88-2.32,21.68-8.77c12.93-4.25,12.97-4.31,8.83-14.38
			c-0.74-4.1-3.33-7.36-5.05-11.01c9.92-2.96,13.23-1.32,14.33,8.15c0.55,4.75,2.07,8.29,6.21,10.63c1.79,1.09,3.58,2.19,4.47,4.23
			c2.46,6.45,2.62,13.83,8.04,19.13C325.09,534.78,325.38,537.06,323.41,538.73z"/>
		<path class="st65" d="M288.82,518.18c-4.96,8.17-13.25,8.41-21.49,10.72c-12.78,3.59-25.14,3.72-37.96,2.6
			c-2.67-0.23-3.6-1.15-4.19-3.27c0.43-3.96,2.85-6.38,6.23-8.06c1.33,0.26,2.55,0.83,3.67,1.57c3.42,2.27,7.47,2.84,10.22,0.07
			c3.23-3.25-0.86-5.92-2.4-8.63c-0.66-1.17-1.33-2.32-1.72-3.61c8.73-0.98,12.01-8.36,16.63-14.17c3.3-4.15,6.38-8.4,11.73-1.99
			c3.27,3.92,7.66-1.54,11.39,0.59c2.63,1.67,7.34,1.6,6.58,6.26c-0.65,3.99-4.49,4.54-7.81,5.2c-1.99,0.39-4.01,0.4-6,0.02
			c-2.09-0.39-3.36-2.1-5.03-3.16c-3.22-2.04-0.32,0.93-0.8,1.24c0.89,5.75,3.94,12.02-3.86,15.53c-0.25,0.11-0.83-0.27-0.94-0.14
			c-0.77,0.9,0.62,0.62,0.71,1.14c3.91,3.35,7.11,1.72,10.78-0.78C278.88,516.35,283.65,513.05,288.82,518.18z"/>
		<path class="st66" d="M262.15,520.15c-2.38-2.06-5.95-2.88-7.11-6.58c4.63-2.98,6.67-0.3,7.85,3.63c6.15-3.71-0.73-9.9,3.41-13.66
			c2.01-1.81,3.99-1.35,5.96,0.07c1.9-0.63,3.77-1.42,5.71-1.85c2.47-0.55,6.09,1.45,7.24-1.68c1.08-2.96-3.61-3.46-4.29-6.1
			c3.29-0.72,6.95-0.14,9.72-2.73c7.23,0.44,10.36,3.31,6.23,10.49c-1.08,8.53-4.94,14.4-14.24,15.44
			c-3.74,0.42-7.45,1.73-9.82,4.71C267.94,528.03,265.04,524.69,262.15,520.15z"/>
		<path class="st67" d="M358.61,513.91c4.02-0.65,8.04-1.3,12.06-1.95c-3.56,10.64-13.34,11.1-21.98,13.44
			c-7.93-2.43-16.83,3.41-24.34-2.81c-3.41-8.21-2.04-15.18,5.36-20.59c8.58-1.07,6.99-12.22,14.36-14.48
			c0.65,0.7,1.31,1.39,1.96,2.09c1.85,3.03-4.54,8.15,2.5,9.87c1.1,4.19-3.58,5.38-4.61,9.17
			C348.17,511.92,353.95,511.54,358.61,513.91z"/>
		<path class="st68" d="M509.9,485.33c0.18-1.41,3.44-2.29,1.25-3.87c-3.42-2.48-7.23-2.71-10.23,0.49
			c-5.34-3.95,5.12-5.73,0.54-9.34c14.52-4.87,27.52,1.81,40.9,5.43c2.88,0.78,5.57,2.22,8.35,3.35c-3.84,4.19-7.49-0.13-11.08-0.55
			c-9.01-1.05-17.9-3.11-27.3-3.76c11.11,4.88,24.93,4.59,32.14,16.55c-1.37,2.62-3.61,3.52-6.43,3.33
			c-7.47-3.19-14.8-6.72-23.26-6.79C512.25,490.15,509.13,489.36,509.9,485.33z"/>
		<path class="st69" d="M202.66,559.54c0.35,4.1,0.08,6.78-5.59,7.14c-11.88,0.75-23.88,1.8-35.5-0.33
			c-6.05-1.11-12.44,3.66-19.45-1.82c14.15-3.57,27.54,1.48,40.06-3.18C189.04,561.17,195.69,558.56,202.66,559.54z"/>
		<path class="st70" d="M241.18,509.57c5.73,1.96,12.82,12.59,9.76,14.49c-3.77,2.35-8.75,3.45-13.28,3.65
			c-4.15,0.18-6.5-3.08-6.26-7.55C234.66,516.63,237.92,513.1,241.18,509.57z"/>
		<path class="st71" d="M327.47,561.15c1.5-6.75,8.27-12.43,4.11-20.32c1.83-2.01,4.15-2.04,6.58-1.63
			c4.62,1.92,3.89,5.88,3.67,9.65c-0.33,1.84-0.92,3.6-1.73,5.29c-0.92,2.92-3.88,5.31-2.33,8.89c1.92,6.93-4.75,2.31-6.25,4.65
			C328.76,566.37,328.09,563.78,327.47,561.15z"/>
		<path class="st72" d="M329.71,502.01c-2.46,6.41-5.35,12.75-3.69,19.92c-0.36,0.27-0.72,0.53-1.08,0.8
			c-4.89-1.38-7.62-5.89-11.84-8.23c-0.64-1.49-1.27-2.97-1.91-4.46C316.69,505.83,322.45,502.21,329.71,502.01z"/>
		<path class="st73" d="M276.59,547.12c3.09-0.12,8.2-1.72,3.21,4.22c-1.63,1.94-3.52,3.67-5.29,5.5
			C274.17,553.37,274.43,550.04,276.59,547.12z"/>
		<path class="st0" d="M677.94,561.38c-1.41,0.61-2.82,1.21-4.24,1.82c-5.23,0.31-9.82-0.97-14.35-3.94
			c-16.11-10.54-30.95-22.63-47.06-35.51c6.47-0.97,9.63,2.36,12.44,4.6c15.19,12.13,34.31,13.27,51.73,19.07
			c4.28,1.43,7.89,3.3,8.86,7.37C686.67,560.44,679.25,557.79,677.94,561.38z"/>
		<path class="st74" d="M538.82,495.62c1.89-0.66,3.78-1.33,5.67-1.99c7.56,4.72,14,10.63,18.98,18.07
			c0.03,7.67-5.56,6.35-8.98,4.33c-8.55-5.06-17.49-3.57-26.47-3.27c-8.63-2.56-15.05-8.53-21.77-14.06
			c-2.32-4.51-0.47-7.24,3.82-8.92C520.17,489.08,529.1,494.32,538.82,495.62z"/>
		<path class="st75" d="M659.43,569.26c-3.24,1.51-6.48,3.01-9.72,4.52c-13.61-8.27-23.7-20.38-34.33-31.85
			c-2.77-2.99-5.08-6.29-8.63-8.5c-1.51-0.94-2.43-2.65-1.35-4.38c1.2-1.93,2.83-1.21,4.32-0.11
			C626.94,541.59,644.7,553.56,659.43,569.26z"/>
		<path class="st76" d="M598.75,554.94c-2.34-2.15-4.67-4.29-7.01-6.44c-1.92-0.59-3.61,0.76-5.47,0.69
			c-3.51-0.63-6.77-1.55-6.92-6.03c3.21-5.2,3.97-12.83,12.55-12.75c0.65,2.22,2.02,4.14,2.7,6.63c-0.42-2.59-2.15-4.36-2.73-6.6
			c0.3-2.29-2.36-4.53-0.45-6.7c1.03-1.18,2.76-0.36,3.46,0.76c8.6,13.78,17.47,27.37,27.56,40.39
			C614.12,561.58,608.67,553.24,598.75,554.94z"/>
		<path class="st77" d="M528.3,510.09c8.86-1.67,17.66-3.69,25.87,2.48c3.02,2.27,6.62,3.9,9.29-0.87c4.19,3.34,6.68,7.73,7.89,12.9
			c-1.52,5.2-5.22,2.6-7.84,1.77c-3.08-0.98-5.76-3.25-9.29-2.86c-6.26-0.7-11.9-3-16.99-6.68
			C534.42,514.36,528.5,516.02,528.3,510.09z"/>
		<path class="st78" d="M554.98,520.48c6.24-1.76,9.99,6.43,16.37,4.11c3.3,4.16,4.35,8.98,4.15,14.17
			c-0.99,1.34-2.4,1.77-3.97,1.84c-5.06-0.58-7.72-4.2-10.21-8.04C560.13,528.06,553.38,526.45,554.98,520.48z"/>
		<path class="st79" d="M571.26,538.95c1.41-0.06,2.83-0.13,4.24-0.19c1.28,1.47,2.56,2.94,3.84,4.41c2.36,2.22,5.2,3.35,8.38,3.71
			c-1.9,7.06-7,5.13-11.1,3.29c-3.25-1.45-6.57-3.69-7.93-7.53C568.49,540.67,569.46,539.52,571.26,538.95z"/>
		<path class="st80" d="M554.98,520.48c0.5,4.94,9.81,3.6,7.51,10.54c-0.96,1.22-2.23,1.93-3.72,2.28
			c-2.85,0.25-5.73,0.08-8.58,0.37c-1.27,0.14-2.52,0.41-3.77,0.65c-0.63,0.12-1.26,0.18-1.9,0.26c0.65,0.4,1.38-0.01,2.1,0.2
			c4.98,1.4,4.78,6.14,6.37,9.72c1.98,0.28,3.96,0.56,5.95,0.84c-0.06,0.59-0.13,1.17-0.22,1.75c-1.91,2.16-4.46,3.39-7.16,3.04
			c-7.67-1-13.5,2.16-18.59,7.43c-1.74,0.11-2.83-0.47-2.6-2.45c-2.75-2.93-6.05-5.53-8.12-8.88c-2.4-3.88-4.65-0.83-6.87-0.61
			c-4.62,0.46-2.04,3.34-1.26,5.11c2.91,6.62,4.68,13.4,3.97,20.69c-5.15-3.72-6.59-9.9-9.87-14.85c-0.58-4.84-4.83-7.69-6.49-11.95
			c-2.44-5.8,2.46-10.64,2.1-16.16c0.62-6.28,4.5-9.11,10.37-9.82c6.64,1.21,0.57-3.27,1.93-4.4c-0.02-0.95,0.14-1.88,0.45-2.78
			c2.11-3.34,4.49-3.44,7.16-0.62c4.27,4.52,9.65,3.98,15.06,3.25C543.46,518.06,549.49,518.6,554.98,520.48z"/>
		<path class="st81" d="M405.68,561.3c-6.77-0.45-12.7-3.38-18.67-6.24c-6.8,2.99-11.81-3.67-18.12-3.33
			c0.02-0.94,0.03-1.87,0.05-2.81c0.44-0.96,1.11-1.72,2-2.28c5.94-2.92,12.8-3.23,18.62-6.53c4.58-0.72,9.37-0.02,13.75-2.08
			c9.61,0.21,18.38-3.79,27.6-5.51c1.06-0.02,2.08,0.19,3.06,0.58c2.4,1.21,3.49,3.55,4.84,5.63c0.86,0.94,1.53,3.68,2.99,0.52
			c1.12-2.42,2.41-4.67,4.28-6.57c2.76,1.77,4.09,4.79,7.3,6.6c3.82,2.16,7.88,6.96,1.47,11.7c-5.13-1.18-8.44,2.31-12.17,4.73
			c-4.99,3.24-9.46,7.37-15.37,9.1C420.25,562.64,412.36,565.69,405.68,561.3z"/>
		<path class="st82" d="M518.1,512.28c0.18,0.65,0.24,1.31,0.18,1.99c-1.02,2.23-1.08,5.19-4.34,5.72
			c-3.37,2.82-6.74,5.65-10.12,8.47c-3.39,0.08-6.78,0.15-10.16,0.23c-2.72-0.76-3.63-3.55-5.71-5.03c-2.09-1.4-1.5-3.9-2.4-5.8
			c-1.41-2.05-2.82-4.11-4.23-6.16c1.13-7.09,5.91-5.13,10.29-4.15c3.41-0.51,3.53-4.53,6.23-5.8
			C507.29,498.19,513.52,501.43,518.1,512.28z"/>
		<path class="st83" d="M433.76,534.89c-0.64,0.02-1.2-0.17-1.68-0.58c-2.3-1.32-5.47-1.06-7.02-3.79c-1.06-2.89-2.5-4.54-6.06-3.18
			c-3.78,1.45-7.75,2.71-11.88,0.99c-0.84-0.46-1.53-1.09-2.06-1.89c3.37-5.28,3.37-5.28,10.06-8.58
			c-4.52,0.41-8.43-0.28-10.58-4.78c-0.72-7.48-7.84-4.76-11.66-7.29c-0.8-0.54-1.4-1.25-1.79-2.14c8.18-5.07,15.47,0,23.07,1.95
			c2.44,0.63,5.15,3.09,7.5,0.57c2.39-2.56-0.96-4-1.96-5.86c-2.26-4.22,0.65-4.78,3.56-4.54c3.65,0.3,7.25,1.24,10.87,1.9
			c0,0-0.04,0.1-0.04,0.1c0.52,0.49,0.69,0.98,0.52,1.46c-0.18,0.48-0.36,0.72-0.53,0.72c-1.81,1.51-7.66-3.49-5.95,3.69
			c4.73,6.8,10.89,12.93,11.86,21.64C440.49,529.7,442.87,536.33,433.76,534.89z"/>
		<path class="st84" d="M491.61,507.56c-2.57,3.51-8.08-0.27-10.29,4.15c-3.34,1.57-6.69,3.13-10.04,4.7
			c-8.27-2.95-17.71-4.23-20.76-14.61c9.71,0.97,18.56-6.11,28.53-3.08c0.69,0.21,1.79-0.67,2.61-1.2c2.49-1.6,0.59-7.52,4.72-6.49
			c4.49,1.12,2.49,6.3,3.35,9.71C490.31,503.03,490.98,505.29,491.61,507.56z"/>
		<path class="st85" d="M489.21,522.52c11.45-5.13-0.35,6.51,4.45,6.17c-1.49,8.16,1.06,16.03,1.88,24
			c0.72,7.03-2.11,10.59-9.38,12.25c0.38-5.65,0.74-10.83,1.09-16.02c-0.61-4.51-1.69-8.88-3.95-12.89
			c-0.71-1.23-1.11-2.55-1.16-3.97C482.81,527.64,485.43,524.65,489.21,522.52z"/>
		<path class="st86" d="M433.76,534.89c10.33-7.89-1.55-14.22-1.69-21.42c-0.06-3.33-4.85-5.57-3.94-9.8
			c8.4,4.93,12.75,13.6,19.05,20.46c4.69,5.12-2.68,5.52-2.94,8.61c-1.16,4.19-1.03,9.7-8.06,7.93
			C434.7,539.03,433.6,537.22,433.76,534.89z"/>
		<path class="st87" d="M450.53,501.8c5.78,6.49,16.62,5.79,20.76,14.61c-4.11,4.04-8.24,3.7-12.51,0.19
			c-6.56-5.4-12.79-11.29-20.86-14.53C442.08,500.03,446.25,498.63,450.53,501.8L450.53,501.8z"/>
		<path class="st88" d="M489.21,522.52c2.48,6.15-4.82,6.16-6.22,9.88c0.42,3.09,0.84,6.19-2.55,8.06
			c-2.69,1.48-4.49,0.58-5.55-2.16c0.92-2.83,7.95-6.02-0.68-8.29c-3.4-0.9-1.34-2.79-0.09-4.36c3.02-3.79,7.68-5.1,11.43-7.77
			C486.77,519.42,487.99,520.97,489.21,522.52z"/>
		<path class="st89" d="M428.1,563.24c9.58-4.57,17.64-11.04,24.29-19.42c3.44,1.65,2.1,4.68,2.44,7.14
			c1.85,5.66,1.85,5.66-4.28,7.98c-2.27-4.88-5.2-3.86-8.66-1.21c-4.46,3.41-9.12,6.56-13.69,9.82
			C426.95,566.14,426.95,564.71,428.1,563.24z"/>
		<path class="st90" d="M474.89,538.29c6.65,3.47,5.64-3.6,8.1-5.89c0.81,0.94,1.63,1.88,2.44,2.82c0.85,2.98,0.07,5.49-2.18,7.58
			c-1.51,0.61-3.08,1.1-4.51,1.84c-2.76,1.43-6.33,2.79-8.04,0.05C468.62,541.33,473.34,540.41,474.89,538.29z"/>
		<path class="st91" d="M436.18,540.68c5.09-0.2,2.27-8.44,8.06-7.93c0.61-0.07,1.22-0.1,1.83-0.07c1.67,5.74-2.56,10.03-2.96,15.27
			C438.21,547.24,438.44,542.87,436.18,540.68z"/>
		<path class="st92" d="M501.72,544.62c6.58,1.59,7.72,6.13,6.48,11.95C505.63,552.81,497.69,551.97,501.72,544.62z"/>
		<path class="st84" d="M450.52,501.8c-4.2,0.09-8.4,0.17-12.6,0.26c-1.28-0.7-2.56-1.39-3.84-2.09c0.01-0.73,0.01-1.46,0.02-2.19
			C438.94,501.7,446.78,493.36,450.52,501.8z"/>
		<path class="st88" d="M483.26,542.8c0.12-2.7,0.08-5.45,2.18-7.59c5.31,3.95,2.51,8.97,1.81,13.71
			C485.92,546.88,484.59,544.84,483.26,542.8z"/>
		<path class="st93" d="M456.76,571.39c-3.25-2.81-6.56-5.56-9.73-8.47c-0.83-0.77-1.99-2.33-0.1-2.98c0.9-0.31,2.32,0.86,3.5,1.36
			C452.07,564.96,456.84,566.65,456.76,571.39z"/>
		<path class="st94" d="M404.13,541.16c-5.01,0.5-10.03,1-15.04,1.5c-3.81,1.68-8.09,3.02-11.68,0.87
			c-8.61-5.16-15.31-0.84-20.48,2.14c2.4-1.64,6.77-4.06,11.96-4.43c2.19-0.16,4.09,0.54,4.68,2.87c0.63,2.49-1.04,3.64-3.08,4.41
			c-0.49,0.25-1,0.39-1.55,0.4c-8.31,3.02-16.21,7.3-25.15,8.45c-0.54,0-1.07-0.01-1.61-0.03c-4.86,2.01-5-0.67-4.23-4.26
			c0.59-1.56,1.17-3.11,1.76-4.67c3.01-6.6,9.91-8.38,15.16-12.22c3.56-2.42,6.44-6.05,11.21-6.33c5.53,0.09,10.93-4.81,16.59-0.5
			c0.23,6.69,4.72,6.17,9.33,5.44c0.95,0.05,1.86,0.25,2.76,0.57C397.52,537.87,402.48,536.85,404.13,541.16z"/>
		<path class="st95" d="M368.89,551.73c6.85-3.29,12.32,0.93,18.12,3.33c-1.36,1.34-2.71,2.69-4.07,4.03
			C376.9,559.23,373.91,553.53,368.89,551.73z"/>
		<path class="st96" d="M569.54,540.62c5.22,4.54,9.54,11.69,18.19,6.26c1.64-0.21,3.13-0.04,4.01,1.62
			c-3.67,4.67-1.68,14.3-8.1,14.93c-5.87,0.58-8.22-7.72-11.75-12.48c-4.16-5.61-9.24-9.95-17.02-8.7c-4.17-1.7-4.53-4.53-2.43-8.11
			C559.96,531.48,564.78,535.98,569.54,540.62z"/>
		<path class="st78" d="M553.01,534.63c-0.49,2.81,0.25,5.32,1.86,7.62c-0.63,0.75-1.25,1.5-1.88,2.26c-5.28-0.16-3.9-5.56-6.3-7.99
			c-1.39-2.64,1.22-3.89,2.01-5.77c3.66,0.04,7.32,0.08,10.98,0.12C559.24,535.28,554.61,532.28,553.01,534.63z"/>
		<path class="st97" d="M428.1,563.24c0.03,1.43,0.06,2.87,0.1,4.3c-2.79,2.07-5.59,4.13-8.39,6.2c-1.3-6.41-5.82-4.37-9.61-3.44
			c-3.14,0.78-5.27-0.24-7.09-2.59c-2.77-3.57,1.1-4.52,2.55-6.42C413.41,559.01,421.02,558.07,428.1,563.24z"/>
		<path class="st98" d="M532.38,557.15c3.27-17.77,16.88-8.45,26.33-10.05c0.73,2,1.47,4.01,2.2,6.01
			c0.96,5.87-2.12,10.98-2.75,17.41c-6.97-3.25-13.29-6.21-19.62-9.16C535.09,562.01,532.3,561.68,532.38,557.15z"/>
		<path class="st99" d="M532.38,557.15c2.05,1.4,4.11,2.81,6.16,4.21c-0.05,5.25-4.88,5.69-7.95,7.89
			c-1.51,0.76-3.03,1.51-4.54,2.27c-4.63-2.96-7.13-7.27-5.63-12.57c1.39-4.88,6.76-2.09,9.94-3.85
			C531.03,555.79,531.71,556.47,532.38,557.15z"/>
		<path class="st6" d="M337.95,553.09c1.41,1.42,1.24,4.41,4.23,4.26c-1.47,1.89-2.95,3.79-4.42,5.68
			C331.18,559.59,336.54,556.38,337.95,553.09z"/>
		<path class="st100" d="M444.34,42.86c12.25-8.59,25-3,37.61-1.34c-9.94,15.14-24.66,7.68-37.74,7.98
			C442.72,47.26,442.53,45.04,444.34,42.86z"/>
		<path class="st101" d="M370.63,73.09c0.02-0.54,0.02-1.09-0.01-1.64c18.23-8.01,37.81-12.67,55.43-22.21
			c3.33,1.96,3.57,3.89-0.05,5.78C407.54,61.05,389.08,67.07,370.63,73.09z"/>
		<path class="st100" d="M425.99,55.03c1.32-1.91,1.15-3.84,0.05-5.78c0.61-0.15,1.24-0.21,1.87-0.18
			c4.93,0.97,10.06-7.05,14.84,0.35C438.51,55.3,432.24,55.11,425.99,55.03z"/>
		<path class="st101" d="M442.76,49.42c-4.87-3.54-9.92,0.82-14.84-0.35c5.44-2.17,10.23-6.03,16.42-6.21
			c-0.04,2.21-0.09,4.42-0.13,6.63c0,0-0.74,0.14-0.74,0.14L442.76,49.42z"/>
		<path class="st102" d="M497.66,39.01c1.98-0.3,2.87-4.42,4.24-2.88c2.36,2.66,3.11,6.47-0.28,9.56c0,0-0.91-0.25-0.91-0.25
			s-0.9,0.28-0.89,0.28C497.41,44.03,497.73,41.46,497.66,39.01z"/>
		<path class="st103" d="M552.5,60.95c-5.7,0.16-11.46,0.12-15.79,4.8c-5.74,2.97-9.79,10.52-18.53,5.26
			c-2.34-1.41-1.65,5.08-4.13,6.86c-9.96-2.86-10.65-4.15-9.76-18.51c0.03-1.41,0.05-2.81,0.08-4.22
			c4.38-3.28,3.84-10.45,9.85-12.43c0.82-0.66,1.44-0.51,1.88,0.44c7.52,2.39,15.03,8.55,22.55,0c2.66-0.8,5.33-1.61,7.99-2.41
			c2.52,2.5,1.6,5.6,1.24,8.46c-0.4,3.11,0.56,5.12,3.5,6.18c0.79,0.53,1.39,1.23,1.81,2.07C552.95,58.62,552.73,59.78,552.5,60.95z
			"/>
		<path class="st104" d="M504.29,59.36c0.21,7.78,5.08,13.09,9.76,18.51c0.37,1.34,0.75,2.69,1.12,4.03
			c4.19,1.66,9.61,2.38,7.05,9.21c-0.05,0.55-0.14,1.09-0.27,1.62c-7.26-1.22-11.47-8.01-18.49-10.12
			c-2.14-0.65-4.63-6.09-4.03-8.64C500.6,69.06,500.77,63.56,504.29,59.36z"/>
		<path class="st26" d="M704.48,108.57c4.25,0.91,9.95-2.61,12.34,4.02C712.21,112.77,707.81,112.33,704.48,108.57z"/>
		<path class="st48" d="M477.36,225.44c2.4-3.65,4.03-8.54,10.1-6.29C486.28,224.75,481.39,224.41,477.36,225.44z"/>
		<path class="st105" d="M550.72,57.09c-5.92,2.52-8.67,1.27-6.79-5.64c0.96-3.55,1.8-7.14,2.7-10.71c0,0,0,0,0,0
			c5.18-2.06,10.42-3.98,14.55-7.95c0.53-0.28,1.1-0.36,1.69-0.24c4.07,0.23,7.92,0.11,7.11,6.43c-0.52,4.02,2.57,8.02,1.43,12.37
			c0,0-0.77,0.31-0.77,0.31l-0.83-0.08C562.74,50.97,556.5,53.22,550.72,57.09z"/>
		<path class="st106" d="M645.14,83.98c-0.11-3.49,2.9-5.34,4.25-8.07c8.8-6.42,18.77-4.28,28.5-3.86
			c1.7,7.53-5.07,12.66-5.66,19.68c-0.19,2.24-5.16,3.11-5.77,1.21c-2.18-6.73-11.9-0.99-13.44-9.17
			C652.36,80.39,647.97,86.73,645.14,83.98z"/>
		<path class="st107" d="M516.1,43.15c-0.62-0.18-1.25-0.32-1.88-0.44c-2.28-1.25-4.56-2.49-7.3-3.99
			c3.25-3.11,6.13-5.57,10.26-5.97C515.38,36.07,519.22,39.97,516.1,43.15z"/>
		<path class="st103" d="M561.18,32.79c-1.97,7.92-8.18,8.08-14.55,7.95C550.35,36.01,555.04,33.07,561.18,32.79z"/>
		<path class="st108" d="M522.22,91.1c-2.35-3.07-4.69-6.14-7.04-9.21c9.87-2.39,14.85,1.37,13.01,9.8
			C526.2,91.49,524.21,91.3,522.22,91.1z"/>
		<path class="st39" d="M550.72,57.09c3.6-7.48,11.24-9.69,19.08-5.52c-5.54,1.96-11.08,3.91-16.62,5.87
			C552.36,57.33,551.54,57.21,550.72,57.09z"/>
		<path class="st72" d="M337.9,540.63c-2.05,1.74-4.18,1.11-6.32,0.2c-1.26-0.8-2.52-1.6-3.78-2.4c-4.21-4.8-6.86-9.84-2.5-15.97
			c0,0,0.71-0.53,0.71-0.53c7.44,0.77,15.01-3.23,22.35,0.65C350.17,531.67,346.48,537.57,337.9,540.63z"/>
		<path class="st109" d="M325.31,522.46c0.83,5.32,1.66,10.65,2.5,15.97c-1.46,0.2-2.79,2.28-4.39,0.3
			c-7.59-6.31-10.09-14.78-10.32-24.23C320.6,511.88,323.79,515.9,325.31,522.46z"/>
		<path class="st110" d="M280.37,558.04c0.64-4.17,3.08-4.47,6.56-3.46c2.14,0.62,4.06-0.34,4.96-2.5c0.91-2.2-1.26-3.72-1.53-5.61
			c-0.39-2.67-6.13,1.45-4.09-3.21c1.23-2.82,4.07-1.23,6.37-0.87c3.27,0.5,4.59,2.08,4.46,5.47
			C296.77,555.83,290.7,559.66,280.37,558.04z"/>
		<path class="st111" d="M518.1,512.28c-6.62-3.76-10.92-11.99-20.26-10.52c0.72-2,1.44-4,2.16-5.99c3.29-3.3,5.16,0.83,7.7,1.47
			c6.87,4.29,13.73,8.57,20.6,12.86c2.79,3.18,7.99,0.03,10.49,3.99c-1.2,4.13-1.67,7.14-7.91,4.02
			C526.86,516.09,523.98,510.31,518.1,512.28z"/>
		<path class="st112" d="M538.82,495.62c-6.15,5.01-11.52-0.02-17.17-1.35c-3.95-0.93-7.89-1.91-11.84-2.86
			c-2.67-1.3-4.08-2.99-1.8-5.81c0.63-0.12,1.26-0.21,1.89-0.26c6.3,3.33,13.6,1.62,20.13,4.07
			C533.63,490.75,536.12,493.23,538.82,495.62z"/>
		<path class="st68" d="M508.01,485.59c0.6,1.94,1.2,3.88,1.8,5.82c-0.88,1.88-4,2.95-2.11,5.82c-2.57-0.49-5.14-0.98-7.7-1.47
			C502.36,492.13,499.65,484.5,508.01,485.59z"/>
		<path class="st113" d="M337.9,540.63c4.14-5.64,7.8-11.56,10.47-18.05c8.05-2.25,15.63-5.48,22.3-10.61
			c6.81-2.77,13.61-5.54,20.42-8.31c0.77,0.15,1.55,0.3,2.32,0.45c5.73,3.78,3,6.65-1.24,8.75c-7.23,3.58-13.85,8.2-21.16,11.66
			c-6.31,2.99-12.88,6.19-14.8,14.02c-4.99,4.15-10.43,7.55-16.5,9.89C337.72,546.14,340.9,542.67,337.9,540.63z"/>
		<path class="st114" d="M358.61,513.91c-7.23,4.39-13.54-0.44-19.93-2.39c-3.75-1.15-2.52-4.13,0.2-5.99
			c3.01-2.07,6.14-3.98,9.22-5.96c-1.84-4.4-0.4-6.43,4.37-6.07C358.51,499.1,356.99,506.98,358.61,513.91z"/>
		<path class="st115" d="M352.47,493.5c-2.54,1.24-4.08,3.2-4.37,6.07c-2.59,0.42-5.19,0.84-7.95,1.29
			c-1.78-5.73,2.9-8.06,5.88-11.25C348.22,490.84,351.03,491.04,352.47,493.5z"/>
		<path class="st116" d="M262.15,520.15c3.16,1.8,6.4,6.3,9.24-0.44c0.31-0.74,1.61-1.52,2.45-1.52
			c11.66,0.06,16.15-9.85,23.03-16.43c7.49,1.61,6.32,7.99,5.17,12.27c-1.83,6.79-8.63,3.07-13.21,4.15
			c-6.09-0.59-10.68,2.23-15.43,5.74C268.67,527.41,263.29,529.13,262.15,520.15z"/>
		<path class="st117" d="M272.26,503.63c-1.99-0.02-3.97-0.05-5.96-0.07c-0.82-2.18-4.82-1.16-4.48-4.34
			c0.08-0.76,1.26-2.1,1.73-2.01C267.44,497.92,271.23,498.97,272.26,503.63z"/>
		<path class="st2" d="M591.86,530.44c4.95,2.42,6.63,7.28,9.49,11.57c-10.52,3.27-10.52,3.27-9.46-11.59
			C591.89,530.42,591.86,530.44,591.86,530.44z"/>
		<path class="st118" d="M553.01,534.63c0.57-4.17,5.07-1.39,6.65-3.77c0.94,0.05,1.89,0.11,2.83,0.16
			c2.92,2.64,5.85,5.29,8.77,7.93c-0.57,0.56-1.15,1.12-1.72,1.68C564.03,538.63,558.52,536.63,553.01,534.63z"/>
		<path class="st119" d="M513.94,519.99c1.45-1.91,2.89-3.82,4.34-5.72c0.48,0.47,1,0.9,1.42,1.42c2.24,2.76,6.58,6.26,3.13,9.21
			C518.04,528.98,516.76,522.12,513.94,519.99z"/>
		<path class="st120" d="M548.69,530.74c-0.67,1.92-1.34,3.85-2.01,5.77c-1.5,0.77-3.37,1.2-4.42,2.36
			c-2.51,2.8-3.77,1.71-4.99-1.01c-1.23-2.74-0.81-4.54,2.48-5.15C542.75,532.16,545.71,531.41,548.69,530.74z"/>
		<path class="st95" d="M370.49,548.53c1.94-3.79,2.07-5.24-3.33-4.41c-6.68,1.02-11,8.55-18.75,6.39
			c9.32-11.32,16.42-13.48,29.93-9.63c3.47,0.99,7.16,1.21,10.76,1.79C383.57,546.77,377.17,548.11,370.49,548.53z"/>
		<path class="st121" d="M404.13,541.16c-3.84-1-8.53,0.14-10.98-4.36c4.22-6.11,11.6-2.3,16.78-5.38
			c5.12-0.66,9.97-4.37,15.43-1.45c2.87,0.46,6.05,0.45,6.72,4.34C423.24,538.54,413.89,540.67,404.13,541.16z"/>
		<path class="st122" d="M383.04,530.5c-5.91-3.15-10.77,5.38-16.74,1.51c1.04-7.46,8.3-7.93,12.82-11.49
			c4.79-3.78,10.44-6.04,15.58-9.18c3.72-2.27,7.43-3.3,10.78,0.71c3.98,3.47,9.08,3.56,15.39,4.75c-6.46,2.46-9.49,7.96-15.41,9.1
			c-2.18,7.43-8.77,5.96-14.11,7.03C388.36,532.9,385.47,532.48,383.04,530.5z"/>
		<path class="st123" d="M405.48,512.05c-12.09-1.62-18.36,9.72-28.43,12.84c-3.94,1.22-7.19,4.68-10.75,7.13
			c-3.37,2.17-6.73,4.35-10.1,6.52c-5.22-7.26,2.17-10.09,5.65-12.42c8.61-5.77,18.12-10.21,27.37-15c3-1.56,6.82-2.24,4.19-7.01
			c4.56-1.72,8.87-0.36,12.8,1.69C410.62,508.08,409.24,510.36,405.48,512.05z"/>
		<path class="st124" d="M425.36,529.97c-4.75,0.81-8.46,5.07-13.73,4.2c-2.48-1.72-6.48,1.54-8.06-1.94
			c-1.47-3.25,2.14-4.2,3.93-5.88c4.46-0.12,8.56-1.36,12.42-3.64c3.18-1.88,6.34-0.37,8.21,1.88
			C430.45,527.37,425.99,527.96,425.36,529.97z"/>
		<path class="st125" d="M407.5,526.34c-5.75,6.37,1.87,5.68,4.13,7.83c-5.87,2.92-12.14,2.98-18.48,2.63c0,0,0.15-0.55,0.15-0.55
			c-3.24-0.68-6.74-1.17-4.17-5.93c5.26-2.15,11.47-0.78,16.33-4.42C406.14,526.04,406.82,526.19,407.5,526.34z"/>
		<path class="st126" d="M389.13,530.32c-0.1,3.02,2.48,4.16,4.17,5.93c-6.12,3.65-11.77,3.47-17.03-1.59
			c1.45-3.44,5.25-1.8,6.78-4.16C385.05,529.86,387.03,528.04,389.13,530.32z"/>
	</g>
</g>
</svg>
