<?xml version="1.0" encoding="utf-8"?>
<!-- Generator: Adobe Illustrator 23.0.1, SVG Export Plug-In . SVG Version: 6.00 Build 0)  -->
<svg version="1.1" id="Livello_1" xmlns="http://www.w3.org/2000/svg" xmlns:xlink="http://www.w3.org/1999/xlink" x="0px" y="0px"
	 width="2649px" height="1559px" viewBox="0 0 2649 1559" style="enable-background:new 0 0 2649 1559;" xml:space="preserve">
<style type="text/css">
	.st0{fill:#220701;}
	.st1{fill:#FEFEFE;}
	.st2{fill:#3C1602;}
	.st3{fill:#F59239;}
	.st4{fill:#021F00;}
	.st5{fill:#002E19;}
	.st6{fill:#066A37;}
	.st7{fill:#0EB26A;}
	.st8{fill:#262A04;}
	.st9{fill:#23491B;}
	.st10{fill:#BC6523;}
	.st11{fill:#F5C562;}
	.st12{fill:#5B300A;}
	.st13{fill:#59561E;}
	.st14{fill:#8E6D2B;}
</style>
<g>
	<path d="M1804.43,12.71c274.44,0,548.89,0.23,823.33-0.53c18.08-0.05,21.64,3.69,21.62,22.45
		c-0.63,505.91-0.51,1011.82-0.51,1517.73c-489.57,0-979.14,0.01-1468.71-0.04c-11.4,0-22.81-0.67-34.21-1.03
		c29.03-23.44,45.78-57.09,67.09-86.95c5.91-4.94,6.84-10.66,2.5-17.21c-0.21-1.76-0.65-3.46-1.33-5.09
		c-1.66-3.61-3.32-7.21-4.97-10.82l-0.34-0.59c-1.5-1.76-3-3.51-4.5-5.27l-0.66-0.64c-2.63-6.98-5.26-13.96-7.89-20.94
		c8.21-10.19,16.43-20.37,24.64-30.56c2.68-1.6,6.83-2.44,3.39-7.16c0.75-3.21,1.49-6.42,2.24-9.62
		c13.94-23.25,1.25-39.78-13.85-54.68c-5.97-5.89-15.87-7.66-16.21-18.75c7.41-3.17,12.96-8.6,17.41-15.37
		c25.82-15.44,15.4-34.65,5.19-53.84c-2.95-15.23-11.29-25.04-26.24-28.23c-10.73-14.76-25.8-11.99-39.84-9.22
		c-10.19,2.01-8.1,11.74-7.02,19.7c-21.71,14.5-41.41,27.55-47.72,59.12c-3.78,18.9-20.82,40.7-46.15,43.65
		c-38.01,4.43-70.04,25.43-99.14,46.97c-49.4,36.56-105.88,38.44-161.4,47.47c-12.5,2.03-21.47-7.66-13.43-17.37
		c11.18-13.51,23.18-30.13,44.33-29.24c22.53,0.95,50.34-17.59,56.71-38.04c4-12.83-4.71-15.03-12.91-13.22
		c-31.42,6.93-64.1,10.53-90.73,32.16c-30.58,4.15-58.3,20.76-89.52,22.12c-5.36-6.97-10.65-6.99-15.88,0.15
		c-12.21,0.11-24.41,0.22-36.63,0.33c-12.73,2.43-25.16,5.86-38.46,5.23c-28.7-1.36-31.68-4.72-25.43-33.31
		c4.23-2.34,5.17-6.43,5.38-10.91c12.82-8.61,23.38-19.57,31.64-32.9l0.04-0.07c6.92,0.13,10.43-3.51,10.84-10.57
		c6.94-3.76,13.88-7.52,20.83-11.28c23.44-1.54,47.21,4.02,70.37-3.61c40.35-13.3,73.76-39.73,109.27-62.19
		c9.17,0.83,13.7-7.74,20.81-11.08c4.57,0.25,8.57-0.72,10.85-5.4c25.72-7.03,41.68-33.05,68.51-37.91
		c3.81,5.63,7.35,5.22,10.65-0.52c30.27-1.67,58.04-11.71,84.2-27.13c10.78-7,25.22-8.31,31.71-21.98l0.05,0.02
		c7.24-2.96,10.78-8.42,10.43-16.54c0.18-5.31,0.36-10.63,0.54-15.94c11-14.11,3.02-24.04-7.97-31.09
		c-18.56-11.91-37.95-22.61-61.23-18.12c-25.97,1.9-52.06,2.81-77.83,6.26c-8.13,1.09-20.19,1.25-22.66,14.45
		c-3.13,0.51-6.26,1.02-9.4,1.53c-26.27,7.23-54.54,9.52-74.44,32.48c-3.39,0.7-6.78,1.39-10.18,2.09
		c-14.85-13.58-23.96-4.66-31.91,8.78l-0.1,0.01c-4.53-0.18-8.46,0.8-10.35,5.75c0.1,1.81,0.21,3.63,0.31,5.44
		c-7.18,3.78-14.37,7.57-21.55,11.35c-21.78-16.26,1.72-34.43-2.01-51.46c6.78-9.79,6.56-20.92-4.4-24.18
		c-14.02-4.16-21.95,6.26-24.74,20.32l-0.35,0.4c-4.65,1.42-6.03,5.1-6.16,9.64l-0.12,0.23c-1.47,1.95-2.94,3.91-4.42,5.86
		c-25.28,13.15-53.34,22.82-63.61,54.76c-9.11,19.12-26.97,32.87-31.35,54.9c-0.57,1.51-0.87,3.07-0.91,4.68
		c0,0-0.13,0.27-0.12,0.28c-18.52,12.81-26.35,32.72-32.89,53.48c-14.2,6.55-27,15.05-36.38,28.29c-9.07,2.1-10.78,10.61-14.23,17.6
		c-14.02,11.73-10,28.2-10.56,43.46c-7.74,12.14-10.09,32.96,0.58,34.43c25.55,3.52,17.25,20.42,16.63,32.91
		c-0.85,17.14,3.62,26.56,21.08,25.74c13.71-0.65,20.5,3.69,26.38,18.96c10.62,27.55,39.57,32.9,56.41,13.95
		c1.84-0.02,3.69-0.05,5.53-0.07c2.28,5.85,16.93,12.17,1.74,17.71c-25.51,9.3-36.15,37.15-59.6,48.41
		c-9.56,14.6-11.31,32-16.1,48.31c-170.41,0.27-340.83-0.11-511.22,1.53c-24.4,0.24-27.67-7.47-27.64-30.07
		C10.14,1019.58,10,516.15,10,12.71c344.81,0,689.63,0,1034.44,0c-2.67,15.38-14.43,25.39-21.08,38.42
		c-30.65,48.19-47.68,101.63-61.1,161.05c18.33-6.6,27-13.87,24.23-30.73c-0.99-6.03-1.04-12.72,3.34-18.23
		c15.19-19.13,24.74-41.46,32.64-64.51c2.72-7.95-1.04-18.89,12.33-20.22c10.66-1.06,18.63,2.47,25.35,10.82
		c7.49,9.32,2.11,19.76-2.56,24.75c-14.28,15.25-20.63,37.12-34.89,50.27c-22.99,21.19-6.66,24.08,8.7,28.6
		c12.88,3.79,17.4,5.65,4.52,17.87c-21.26,20.18-33.93,46.71-43.66,74.29c13.22,5.31,18.92-15.25,29.56-8.18
		c10.91,7.26,12.1,1.45,14.91-6.8c2.99-8.78,11.33-14,15.76-21.15c11.62-18.77,37.32-21.77,44.33-44.73
		c4.38-0.2,8.45-1.02,10.7-5.59c3.35-0.72,6.81-1.11,10.04-2.21c17.22-5.89,40.48-28.03,38.53,16.08c-0.23,5.13,3.95,8,8.92,7.14
		c6.79-1.18,13.24-7.48,10-12.69c-9.28-14.93,5.01-23.74,6.19-35.62c0.01,0,0.24-0.09,0.24-0.09c8.29-6.45,28.86,9.37,26.77-15.91
		c9.09,0.06,18.05-0.48,25.89-6.12c21.24-1.4,40.58-6.91,53.37-26.6c11.21-1.23,22.36-1.74,33.65-3.76
		c40.87-7.3,82.05-10.57,123.7-5.49c58.85,7.17,115.15,23.45,169.58,47.32c50.69,30.56,107.46,50.28,152.01,91.73
		c4.14,3.85,8.45,4.16,11.35,0.5c5.04-6.35-1.83-9.79-5.17-12.59c-48.61-40.76-97.86-80.56-158.33-101.4
		c-27.6-22.42-59.74-37.22-92.44-46.85c-16.18-4.77-36.44-15.93-55.31-2.89c-5.14-0.04-10.29-0.08-15.43-0.12
		c-1.76-3.28-3.82-3.39-6.14-0.61c-8.44,0.04-16.88,0.08-25.32,0.12c-9.15-6.35-18.22-6.84-27.2,0.35
		c-38-3.49-73.57,9.62-109.69,18.12c-12.97,3.05-31.2-5.51-37.83,15.2c-37.14-6.04-63.02,22.76-94.88,33.05
		c-8.87-0.47-17.39,0.34-25.55,4.78c-4.23,2.3-9.41,7.3-14.14,1.95c-4.78-5.43-2.37-12.02,0.2-17.93
		c3.29-7.57,6.74-15.66,16.2-15.89c12.65-0.31,22.87-2.89,23.65-18.89c0.2-4.12,3.04-7.91,6.48-6.81
		c18.27,5.79,26.27-9.79,38.24-18.06c19.97-13.81,41.56-23.27,66.41-13.95c14.64,5.49,28.01,3.1,37.96-9.47
		c18.15-22.92,46.82-14.73,68.9-25.96c3.98-2.02,11.19-0.71,12.28,6.53c1.12,7.42-4.33,8.6-9.87,9.4
		c-12.07,1.74-24.09,4.92-36.18,5.27c-14.21,0.4-17.07,7.9-16.85,23.33c23.88-13.17,47.26-19.8,70.62-26.84
		c10.11-3.05,23.33,6.59,26.97-0.32c8.09-15.37,28.41-20.05,30.2-39.7c15.83,0,31.67,0,47.5,0c7.6,27.11,27.56,42.43,51.21,37.45
		c17.29-3.64,34.2-11.83,38.15,17.42c0.9,6.69,12.16,9.1,20,10.66c28.97,5.75,57.71,7.23,85.7-5c20.57,20.29,40.49,41.39,62,60.54
		c10.66,9.5,14.92,27.82,33.11,27.52c5.11,21.07,16.66,36.21,36.97,43.28c0.75,0.73,1.49,1.46,2.24,2.19
		c-0.69-0.79-1.38-1.57-2.07-2.36c-6.22-22.72-19.78-40.03-37.27-54.44c-1.78-1.88-3.55-3.75-5.33-5.63
		c0.64-31.85-18.3-56.98-30.55-86.73c28.09,9.56,42.9,34.35,67.44,43.11c0.76,6.27-0.27,13.62,2.55,18.64
		c18.37,32.7,37.57,64.89,56.53,97.23c2.29,3.9,5.14,8.54,9.83,3.82c5.26-5.29,14.68-10.4,7.77-20.02
		c-12.23-17.05-14.96-38.2-24.89-56.62C1843.59,101.35,1824.84,56.55,1804.43,12.71z M1113.31,785.07c1.66,1.89,3.33,3.79,4.99,5.68
		c0.31,5.2,0.62,10.4,0.93,15.6c-0.09,8.97-4.84,19.95,9.13,22.87c0.15,3.62,0.31,7.24,0.46,10.87c-6.55,4.63-5.19,11.21-4.04,17.74
		c0.02,2.81,0.05,5.61,0.07,8.42c-0.36,56.45,24.61,109.22,22.45,165.97c-0.05,1.21,2.15,3.65,3.23,3.61
		c20.32-0.81,19.15,19.18,28.73,32.4c-1.46-16.49,9.81-21.53,18.72-27.81c8.23-5.8,8.52-13.13,1.3-16.82
		c-19.61-10.04-11.45-24.4-8.61-39.21c2.38-12.42,15.2-20.79,11.78-35.05l-0.01,0.13c1.59-2.44,3.17-4.89,4.76-7.33
		c3.46-4.96,6.92-9.91,10.39-14.87c14.45,4.18,24.16-8.39,36.52-11.93c24.77-7.09,50.42-12.03,67.12-39.18
		c9.55-15.53,29.75-31.08,50.52-8.64c-5.28,5.54-10.56,11.08-15.84,16.61c-17.89,3.72-23.63,20.47-29.99,34.03
		c-7.61,16.23,13.11,11.88,17.58,20.05c2.97,5.42,4.75,11.55,7.06,17.35c-10.09,6.21-23.9,7.04-31.84,3.9
		c-22.64-8.94-35.22,1.29-47.04,18.01c-14.71-10.2-30.53-28.21-38.67,6.29c-0.48,2.06-3.9,3.34-5.9,5.04
		c-18.74,16.03-17.74,31.8,2.59,44.71c11,6.99,16.23,18.18,19.66,30.6c4.84,17.54,14.96,31.6,27.48,44.02
		c9.12,2.44,9.23,17.29,20.84,16.3c3.58,11.6-10.25,32.89,17.55,31.63c4.55-0.21,5.2,12.34-2.61,17.28
		c-23.39,14.8-32.01,41.1-46.28,63.09c-5.62,8.66-2.27,12.47,3.4,17.98c9.46,9.19,13.07-0.95,15.52-5.91
		c15.26-30.89,54.17-36.02,68.31-68.22c1.51-3.45,9.09-5.62,13.88-5.66c22.25-0.19,33.41-15.64,45.44-31.79
		c6.02-8.08,4.88-13.79-0.84-18.33c-4.96-3.94-18.6,0.31-11.8-13.32c6.66-13.36,14.16-2.34,21.64,0.67
		c11.81,4.76,21.26,0.02,17.59-13.29c-6.15-22.34,4.54-21.23,20.55-23.97c22.3-3.82,43.17,0.57,64.28,4.07
		c16.28,2.7,22.47-4.99,23.93-19.26c3.09-30.17-3.9-36.76-44.6-43.87l-0.11-0.11c0.04-3.66,0.07-7.32,0.11-10.99
		c3.48,0.01,6.96,0.02,10.44,0.02c1.79,3.72,3.55,3.75,5.26-0.06c3.52-0.07,7.04-0.14,10.56-0.21c8.28-0.47,14.9,2.98,21.78,7.7
		c5.28,3.63,13.88,9.17,18.65,2.77c4.93-6.62,8.66-15.99,6.35-25.58c-2.54-10.57-9.05-9.67-18.13-8.87
		c-12.16,1.07-23.4-5.63-34.1-12.03c-11.86-7.08-23.18-17.3-37.33-17.09c-22.07,0.32-30.81-10.77-31.1-32.12
		c-0.21-15.74,6.17-36.13-22.3-31.37c-5.95,1-8.94-7.61-9.36-14.47c10.72-14.59,28.26-10.82,42.15-16.87
		c1.81-1.72,3.62-3.45,5.43-5.17c3.49-0.1,6.98-0.21,10.47-0.31c0.04,15.42,7.6,26.3,22.37,36.6c2.51-30.49,14.03-14.58,24.63-6.17
		c4.1,3.26,8.41,8.72,13.81,6.05c22.36-11.09,34.08,4.12,46.13,19.06c7.83,9.71,15.29,19.76,23.52,29.1
		c16.26,18.46,24.86,15.1,35.75-5.72c23.54-44.97,34.57-97.75,80.76-128.89c27.93-18.84,41.71-53.64,57.29-82.52
		c16.87-31.26,2.03-71.98,14.3-109.21c6.77-20.55-11.9-50.38-19.89-75.75c-2.64-8.37-3.99-18.91-12.8-23.03
		c-29.2-13.64-57.2-31.28-90.69-31.8c-1.65-0.13-3.29-0.26-4.93-0.41c-1.84-1.71-3.68-3.43-5.52-5.14
		c-1.66-0.09-3.32-0.24-4.97-0.47c-35.61-7.13-71.22-14.26-106.83-21.39c15.76-10.6,30.95-18.9,46.83-20.7
		c12.24-1.39,27.77-12.35,37.42-0.55c14.05,17.2,33.39,19.12,51.14,23.96c12.95,3.53,42.87,25.05,31.46-19.46
		c-0.88-3.44,4.74-9.17,8.09-13.17c5.82-6.94,7.32-15.09,4.53-23c-18.48-52.29-63.65-78.46-102.17-111.04
		c-1.62-1.37-5.13-0.32-7.76-0.39c-1.63-12.5-11.17-14.42-20.52-16.2c-13.62-2.59-26.12-7.72-37.21-16.41
		c-1.89-0.02-3.77-0.05-5.66-0.07c-3.45-0.02-6.9-0.04-10.35-0.06c-0.84-11.47-7.27-18.33-17.36-21.47
		c-26.18-8.14-53.74-11.88-80.06-17.81c-49.72-11.22-102.71-20.5-153.86,3.93c-15.57,7.44-34.89-2.66-52.91,7.24
		c-27.49,15.09-57.68,24.42-87.85,32.91c-4.13,1.16-10.11,1.49-11.89,4.41c-16.58,27.17-44.64,39.45-68.13,57.52
		c-30.16,23.2-53.78,52.81-77.55,82.43c-23.13,28.82-29.76,65.76-33.96,99.44c-3.57,28.61-9.02,55.22-18.82,81.55
		c-3.82,10.28-10.28,23.1,4.03,27.37c10.98,3.27,18.99-6.75,20.72-19.23c1-7.16,1.22-14.46,2.43-21.57
		c3.7-21.75,11.12-41.84,24.79-62.76c4.78,38.07-2,70.51-8.28,103.6c-8.36,44.03,9.61,85.96,16.25,128.8
		c-10.76,4.99-21.58,8.33-32.84,1.5c-1.95-3.65-4.91-4.93-8.8-4.01c-21.31,5.21-42.71-3.2-64.02,0.42
		c-12.02-3.74-24.31-4.2-36.72-3.32l0.82,0.64c-4.26-3.23-8.8-4.46-13.84-2.04c-10.17,7.53-22.12-12-31.85,2.26
		c-3.57-1.82-7.13-3.65-10.69-5.47c-9.13-4.33-18.39-7.77-28.63-4.44c-5.5,1.77-12.87,3.14-12.37,10.3
		c0.71,10.17,9.52,9.99,16.98,10.44c1.14,0.32,2.24,0.74,3.31,1.25c5.62,6.73,11.74,6.93,18.29,1.51
		c21.54,0.7,42.73,7.99,64.75,3.85c8.92,4.03,17.79,3.38,26.62-0.3c4.59,8.93,11.59,3.66,17.76,3.24c3.71,0.14,7.43,0.29,11.14,0.43
		c6.77,4.23,13.79,2.76,20.83,1.01l2.05,1.48l2.42-0.65c16.99,10.61,36.77-5.84,53.62,5.98c2.42,11.5,10.99,10.3,17.82,7.41
		c10.64-4.51,21.7-1.76,32.29-4.24c3.95-1.34,7.91-2.68,11.86-4.02c9.42,1.57,18.84,3.14,28.27,4.71l-0.03,0.02
		c0.22,3.72,2.1,5.51,5.71,5.28c1.72,1.64,3.44,3.29,5.16,4.94C1108.32,782.14,1110.06,784.19,1113.31,785.07z M1471.96,1245.5
		c4.81,13.6-10.74,26.91-0.98,42.59c13.33-8.77,11.48-23.19,14.8-34.3c5.27-17.64-8.71-6.15-13.86-8.25
		c-2.38-11.64-4.77-23.27-7.1-34.67c-16.57,4.86-11.07,23.74-25.34,31.05c5.34-22.58-11.31-35.79-12.59-54.25
		c-3.11,0.84-4.37,0.82-4.57,1.29c-4.92,11.38-13.2,20.82-14.8,34.26c-1.55,13.01-10.81,21.42-23.58,21.72
		c-18.89,0.44-6.16-10.7-5.71-17.83c0.12-1.96-4.6-4.94-7.59-6.29c-6.83-3.07-8.93,2.81-11.67,7.42
		c-8.24,13.9-14.8,29.45-25.27,41.25c-22.47,25.32-21.2,39.86,8.91,55.93c2.7-10.77,9.4-22.41,7.16-31.73
		c-4.67-19.45,6.22-38.28,25.21-37.14c6.85,0.41,14.63,2.92,11.12,10.59c-11.36,24.83-12.74,55.07-37.41,73.01
		c-9.93,7.22-16.7,18.34-19.28,31.35c-1.3,1.95-2.61,3.89-3.91,5.84c0.67,0.45,1.34,0.91,2,1.36c0.66-2.38,1.33-4.75,1.99-7.13
		c16.09-6.97,37.57-4.57,40.63-32.13c1.22-11,11.25-28.3,19.38-29.72c21.82-3.81,26.3-14.83,25.33-34.71
		c-0.35-7.17,2.84-18.36,12.91-17.05c12.31,1.6,0.4,11.98,3.76,17.56c1.76,2.93,3.15,6.09,5.54,10.78
		C1444.13,1266.79,1446.13,1244.59,1471.96,1245.5z M1330.99,1232.56c-24.38,0.77-47.04,35.94-43.8,64c0.73,6.33,0.1,14,8.93,13.46
		c10.23-0.62,8.73-7.82,7.68-15.82C1300.39,1268.32,1305.33,1245.82,1330.99,1232.56z M1452.73,1323.76
		c7.73,2.78,14.4,6.08,17.6-1.84c1.82-4.5,1.31-10.67,0.11-15.63c-1-4.14-39.63-1.36-42.01,2.77c-3.2,5.56-5.91,12.01-2.59,17.71
		c3.51,6.03,9.31,0.71,13.99,0.17C1444.78,1326.37,1449.6,1324.58,1452.73,1323.76z M702.69,778.38c0.9,5.98,3.73,10.92,9.54,11.15
		c13.48,0.54,19.99-9.84,24.68-20.55c2.52-5.77-1.62-10.44-8.12-10.61C715.32,758.03,709.32,768.33,702.69,778.38z M1829.66,440.39
		c-2.12-7.61-7.2-11.21-15.09-10.87c-6.08,0.26-10.19,3.21-9.01,9.92c1.32,7.52,6.16,13.71,13.28,14.55
		C1826.58,454.89,1826.95,446.45,1829.66,440.39z M1834.83,220.54c-0.4-0.56-0.81-1.12-1.21-1.68c-0.5,0.46-0.99,0.93-1.49,1.39
		c0.67,0.72,1.35,1.45,2.02,2.17C1834.37,221.8,1834.6,221.17,1834.83,220.54z"/>
	<path class="st0" d="M1096.82,204.23c-7.01,22.96-32.71,25.96-44.33,44.73c-4.43,7.16-12.78,12.37-15.76,21.15
		c-2.81,8.25-3.99,14.06-14.91,6.8c-10.64-7.08-16.34,13.49-29.56,8.18c9.72-27.58,22.39-54.11,43.66-74.29
		c12.88-12.22,8.36-14.08-4.52-17.87c-15.36-4.52-31.69-7.4-8.7-28.6c14.26-13.14,20.61-35.02,34.89-50.27
		c4.67-4.99,10.05-15.43,2.56-24.75c-6.71-8.36-14.69-11.88-25.35-10.82c-13.37,1.33-9.61,12.28-12.33,20.22
		c-7.89,23.05-17.44,45.38-32.64,64.51c-4.38,5.52-4.33,12.21-3.34,18.23c2.77,16.86-5.9,24.13-24.23,30.73
		c13.42-59.41,30.45-112.86,61.1-161.05c1.06,2.3,2.13,4.6,3.19,6.9c18.18-15.24,43.68-20.92,54.83-45.32c3.52,0,7.04,0,10.56,0
		c9.13,9.01-13.77,29.09,10.53,32.85l0.05,0.05c0.65,6.01,3.9,8.46,9.41,11.11c26.35,12.65,48.63-3.33,73.03-7.13
		c26.63-4.15,28.87-16.35,28.36-36.88c77.41,0,154.81,0,232.22,0c-1.79,19.65-22.12,24.33-30.2,39.7
		c-3.64,6.91-16.85-2.72-26.97,0.32c-23.35,7.04-46.74,13.67-70.62,26.84c-0.22-15.43,2.64-22.93,16.85-23.33
		c12.1-0.34,24.11-3.53,36.18-5.27c5.54-0.8,10.99-1.98,9.87-9.4c-1.09-7.24-8.3-8.55-12.28-6.53
		c-22.08,11.24-50.75,3.05-68.9,25.96c-9.95,12.57-23.33,14.95-37.96,9.47c-24.85-9.32-46.43,0.14-66.41,13.95
		c-11.97,8.28-19.97,23.85-38.24,18.06c-3.44-1.09-6.28,2.69-6.48,6.81c-0.78,16-11,18.58-23.65,18.89
		c-9.46,0.23-12.91,8.32-16.2,15.89c-2.57,5.91-4.98,12.5-0.2,17.93c4.72,5.36,9.9,0.36,14.14-1.95c8.17-4.44,16.68-5.25,25.55-4.78
		c2.85,21.15,19.3,13.81,31.18,16.04c-1.17,11.88-15.46,20.69-6.19,35.62c3.24,5.22-3.21,11.51-10,12.69
		c-4.97,0.86-9.15-2.01-8.92-7.14c1.96-44.12-21.31-21.97-38.53-16.08c-3.23,1.11-6.69,1.49-10.04,2.22
		c0.49-22.56,25.94-10.65,33.26-26.62c-31.67-2.04-53.46,12.55-69.95,37.95c-2.3,2.21-4.61,4.41-6.91,6.62
		c1.04,0.7,2.07,1.39,3.11,2.09c1.26-2.91,2.52-5.82,3.78-8.73C1079.48,208.04,1088.15,206.13,1096.82,204.23z M1120.17,88.19
		c-16.63,4.55-29.2,1.92-32.77,16.74c-1.37,5.7,1.74,11.05,8.13,11.07C1109.83,116.04,1112.11,103.81,1120.17,88.19z"/>
	<path class="st1" d="M10,12.71c0,503.44,0.15,1006.87-0.48,1510.31c-0.03,22.6,3.24,30.31,27.64,30.07
		c170.4-1.64,340.81-1.27,511.22-1.53c28.18-0.03,56.37-0.06,84.55-0.09c49.22,0,98.43,0,147.65-0.01
		c19.32-0.01,38.63-0.02,57.95-0.02c26.25,0.01,52.5,0.02,78.74,0.04c25.09-0.02,50.17-0.04,75.26-0.06
		c10.21-0.03,20.43-0.06,30.64-0.08c10.44,0.01,20.87,0.01,31.31,0.02c7.22,0.09,14.44,0.19,21.65,0.28
		c23.27-0.12,46.53-0.23,69.8-0.35c11.4,0.36,22.81,1.03,34.21,1.03c489.57,0.05,979.14,0.04,1468.71,0.04
		c-4.75,11.33-14.26,5.12-21.11,5.14c-130.18,0.46-260.37,0.34-390.55,0.34c-736.24,0-1472.49-0.1-2208.73,0.52
		c-19.79,0.02-24.28-4.62-24.25-25.17c0.64-498.6,0.46-997.21,0.83-1495.81C5.05,29.35-1.04,18.79,10,12.71z"/>
	<path class="st0" d="M1688.1,73.23c-28,12.23-56.73,10.75-85.7,5c-7.84-1.56-19.1-3.97-20-10.66
		c-3.94-29.25-20.86-21.06-38.15-17.42c-23.65,4.98-43.61-10.34-51.21-37.45c29.91,0,59.81,0,89.72,0
		c26.61,4.7,45.47,25.96,70.15,35.73C1664.81,53.15,1680.39,59,1688.1,73.23z"/>
	<path class="st2" d="M1688.1,73.23c-7.71-14.23-23.29-20.08-35.19-24.79c-24.68-9.77-43.54-31.03-70.15-35.73
		c40.46,0,80.93,0,121.39,0c-10.25,20.51,8.44,31.99,12.7,47.71c10.13,37.34,39.5,56.98,60.91,83.92c1.78,1.88,3.55,3.75,5.33,5.63
		c0.04,3.78,0.09,7.56,0.13,11.34c-18.2,0.29-22.45-18.03-33.11-27.52C1728.59,114.62,1708.68,93.52,1688.1,73.23z"/>
	<path class="st0" d="M1777.76,144.33c-21.4-26.94-50.77-46.58-60.91-83.92c-4.27-15.72-22.95-27.2-12.7-47.71
		c14.07,0,28.15,0,42.22,0c22.61,29.44,49.18,55.53,68.64,87.62l-0.37,0.39c-24.53-8.76-39.34-33.55-67.43-43.11
		C1759.46,87.35,1778.4,112.48,1777.76,144.33z"/>
	<path class="st0" d="M1804.43,12.71c20.41,43.84,39.16,88.64,62.02,131.06c9.92,18.42,12.66,39.58,24.89,56.62
		c6.9,9.62-2.51,14.73-7.77,20.02c-4.69,4.72-7.55,0.07-9.83-3.82c-18.96-32.34-38.16-64.54-56.53-97.23
		c-2.82-5.02-1.79-12.37-2.55-18.64c0,0,0.37-0.38,0.37-0.38c15.02-3.44,12.03-13.69,6.4-22.37c-7.15-11.03-15.02-22.21-24.76-30.62
		c-13.38-11.56-18.45-21.59-2.78-34.63C1797.39,12.71,1800.91,12.71,1804.43,12.71z"/>
	<path class="st2" d="M1102.47,45.56c-24.3-3.76-1.4-23.84-10.53-32.85c40.46,0,80.93,0,121.39,0c0.5,20.53-1.74,32.73-28.36,36.88
		c-24.4,3.8-46.68,19.78-73.03,7.13c-5.52-2.65-8.76-5.1-9.41-11.11c8.93-2.44,17.86-4.87,28.78-7.85
		C1118.06,31.9,1106.1,22.72,1102.47,45.56z"/>
	<path class="st2" d="M1793.88,12.71c-15.67,13.03-10.6,23.06,2.78,34.63c9.73,8.41,17.6,19.59,24.76,30.62
		c5.63,8.68,8.62,18.93-6.4,22.37c-19.47-32.09-46.03-58.18-68.64-87.62C1762.21,12.71,1778.04,12.71,1793.88,12.71z"/>
	<path class="st2" d="M1081.38,12.71c-11.15,24.4-36.66,30.08-54.83,45.32c-1.06-2.3-2.13-4.6-3.19-6.9
		c6.65-13.03,18.41-23.04,21.08-38.42C1056.75,12.71,1069.06,12.71,1081.38,12.71z"/>
	<path class="st0" d="M1008.66,740.34c-6.64-42.84-24.61-84.77-16.25-128.8c6.28-33.09,13.06-65.53,8.28-103.6
		c-13.67,20.92-21.09,41-24.79,62.76c-1.21,7.12-1.43,14.41-2.43,21.57c-1.73,12.48-9.75,22.5-20.72,19.23
		c-14.31-4.26-7.85-17.09-4.03-27.37c9.79-26.33,15.25-52.94,18.82-81.55c4.2-33.68,10.83-70.62,33.96-99.44
		c23.77-29.62,47.39-59.22,77.55-82.43c23.5-18.07,51.55-30.35,68.13-57.52c1.78-2.92,7.76-3.25,11.89-4.41
		c30.17-8.48,60.36-17.82,87.85-32.91c18.02-9.89,37.34,0.2,52.91-7.24c51.15-24.44,104.14-15.15,153.86-3.93
		c26.31,5.94,53.88,9.67,80.06,17.81c10.1,3.14,16.52,10,17.36,21.47c-11.7,9.8-25.04,5.35-37.6,3.75
		c-9.41-1.2-13.39-13.23-24.42-14.37c-28.7-2.98-57.25-7.57-85.86-11.52c-24.19,0.01-48.89-3.16-72.46,0.8
		c-32.74,5.51-67.06,7.35-96.36,26.98c-36.41-1.99-63.02,21.94-92.14,38.51c-11,6.26-29.02,4.98-31.95,20.42
		c-3.79,19.99-18.26,30.68-28.75,44.96c-2.99,1.38-6.87,1.96-8.82,4.28c-18.06,21.55,7.22,26.96,13.88,39.37
		c-24.04-6.71-31.27,12.28-40.59,28.38c-2.21,3.82-6.76,7.32-3.85,11.83c3.32,5.16,9.91,4.81,14.48,3.17
		c19.53-7.01,27.36-23.37,30.01-43.32c27.05,12.6,57.27-1.23,84.39,10.89c0.05,3.59,0.1,7.17,0.15,10.76
		c-54.82-13.97-97.32,10.35-125.94,73.37c10.34-0.02,15.49-7.8,22.62-11.83c13.32-7.54,21.55-25,39.96-22.69
		c1.71,3.28,3.42,6.57,5.13,9.85c-14.72,6.12-29.07,12.75-36.59,28.74c-6.31,3.48-17.95,3.65-9.47,16.36c0,0-0.84,0.89-0.84,0.88
		c-24.71,1.69-28.17,16.31-21.06,37.35c-1.89,1.84-3.77,3.69-5.66,5.53c-22.86,15.16-15.41,43.53-25.15,64.65
		c-4.27,9.26-10.87,23.54-2.54,36.1c14.97,22.56,12.19,48.12,11.62,73.32C1018.41,740.46,1013.53,740.4,1008.66,740.34z"/>
	<path class="st3" d="M1108.59,778.51c-1.72-1.64-3.44-3.29-5.17-4.93c-0.43-3.48-2.3-5.28-5.71-5.28c0,0,0.03-0.02,0.02-0.02
		c-1.88-3.58-3.75-7.16-5.63-10.73c-4.02-22.66,12.58-23.16,26.57-27.37c19.37-5.82,44.35-7.38,31.83-40.84
		c-2.38-6.35,1.04-12.54,8.85-13.43c22.95-2.61,25.68-20.29,27.17-38.96c3.78-0.06,7.57-0.12,11.35-0.18
		c13.7,17.48,35.71,29.48,52.61,30.45c24.89,1.42,34.09,20.31,36.87,32.55c4.51,19.8,7.83,19.57,22.58,11.75
		c11.96-6.33,20.55-5.05,15.43,13.73c-2.64,9.66-6.26,18.67-9.55,27.97c-8.35,23.57-17.29,47.15-14.8,73.14
		c-7.28,14.74-17.01,27.83-31.59,34.51c-9.26,4.24-9.04,11.02-10,18.52c-5.15,3.38-10.31,6.77-15.46,10.15l-0.71-1.14
		c0,0,0.48,1.32,0.48,1.32c-2.85,2.62-5.69,5.24-8.54,7.87c-8.49-0.07-11.18,7.05-14.88,12.92c-5.55-0.56-17.35,1.35-14.69-4.63
		c7.05-15.82-7.14-26.47-5.18-40.53c1.54-11.08-5.39-27.62-12-27.29c-27.94,1.36-38.42-20.74-53.76-36.73
		c-3.57-3.73-7.14-7.46-10.71-11.19c-0.55-6.25-3.46-10.24-9.76-10.98C1112.34,778.94,1110.46,778.73,1108.59,778.51z
		 M1207.57,673.74c-11.91-5.4-23,0.83-25.88,14.84c-3.26,15.87-7.84,36.65-0.91,48.24c8.24,13.77,10.22-15.43,22.33-12
		c3.22,0.91,6.97-0.19,10.47-0.35c22.83-1.08,28.15-25.54,44.1-35.96c2.76-1.8-0.92-9.24-2.94-8.37
		C1238.57,687.12,1225.62,670.4,1207.57,673.74z"/>
	<path class="st4" d="M1677.59,478.5c33.5,0.52,61.49,18.16,90.7,31.8c8.82,4.12,10.17,14.66,12.8,23.03
		c7.99,25.38,26.66,55.21,19.89,75.75c-12.26,37.23,2.57,77.95-14.3,109.21c-15.58,28.87-29.36,63.68-57.29,82.52
		c-46.19,31.15-57.22,83.92-80.76,128.89c-10.89,20.82-19.49,24.18-35.75,5.72c-8.22-9.34-15.69-19.39-23.52-29.1
		c-12.05-14.94-23.77-30.15-46.13-19.06c-5.4,2.68-9.7-2.79-13.81-6.05c-10.59-8.41-22.12-24.32-24.63,6.17
		c-14.77-10.31-22.32-21.18-22.37-36.6c0.19-3.14,0.37-6.29,0.55-9.45c1.62-0.58,3.28-0.97,4.98-1.18c1.78-1.69,3.57-3.38,5.35-5.07
		c1.34-0.42,2.68-0.85,4.02-1.3c16.53-0.27,21.31,25.06,36.97,21.1c15.45-3.91,24.22,3.78,35.24,10.68
		c32.93,20.59,61.1,10.22,71.24-25.54l0,0c10.06-0.45,15.3-5.97,15.93-16.33c0.01-1.77,0.14-3.52,0.4-5.27
		c31.3-7.69,50.39-27.89,57.5-60.4c0.14-1.86,0.28-3.73,0.42-5.59c11.16-6.11,33.2-8.57,21.4-27.34
		c-16.58-26.38-9.36-48.88,3.05-70.74c6.2-10.92,2.57-18.62,1.19-27.94c9.54-8.52,21.16-17.31,19.64-31.38
		c-2.55-23.6-4.56-46.69-19.32-68.32C1724.31,502.28,1697.65,495.87,1677.59,478.5z"/>
	<path class="st4" d="M564.48,1503.24c23.45-11.26,34.09-39.11,59.6-48.41c15.19-5.54,0.54-11.86-1.74-17.7
		c3.94-3.39,7.39-8,11.9-9.98c50.69-22.25,100.32-46.55,147.24-76.7c6.49-4.17,13.27-8.32,12.58-15.25
		c-1.23-12.3-12.3-5.66-18.98-7.7c26.63-21.63,59.31-25.23,90.73-32.16c8.2-1.81,16.9,0.39,12.91,13.22
		c-6.37,20.45-34.19,38.99-56.71,38.04c-21.15-0.89-33.15,15.73-44.33,29.24c-8.04,9.72,0.94,19.41,13.43,17.37
		c55.51-9.03,112-10.91,161.4-47.47c29.11-21.54,61.14-42.54,99.14-46.97c25.33-2.95,42.37-24.76,46.15-43.65
		c6.31-31.56,26.01-44.62,47.71-59.11c13.42-0.21,26.91-1.74,40.1,2.38c0.33,6.54,0.66,13.09,1,19.63
		c-6.92,3.37-10.49,8.88-10.04,16.95c-5.28,3.41-7.49,11.32-15.2,11.18c-12.44,0.9-14.86-11.85-20.82-19.74
		c-13.36,14.96,1.34,27.75-1.38,40.61c-1.96,4.35-5.59,5.83-9.87,6.18c-15.66-1.17-25.83,6.8-32.33,20.9
		c-13.8,2.06-26.78,6.02-36.59,17.21c-24.67-3.3-43.5,7.13-58.39,26.8c-1.61,0.3-3.23,0.52-4.86,0.66
		c-50.7,14.38-91.09,52.84-145.86,60.78c-47.77,6.92-94.64,22.95-142.37,33.33c-28.95,6.3-59.74,14.67-81.78,38
		C609.43,1489.62,592.08,1506.39,564.48,1503.24z"/>
	<path class="st4" d="M1624.86,286.73c2.63,0.08,6.15-0.98,7.76,0.39c38.52,32.59,83.69,58.75,102.17,111.04
		c2.79,7.9,1.29,16.06-4.53,23c-3.35,3.99-8.97,9.73-8.09,13.17c11.42,44.52-18.51,23-31.46,19.46
		c-17.75-4.84-37.09-6.76-51.14-23.96c-9.65-11.8-25.18-0.84-37.42,0.55c-15.88,1.81-31.07,10.1-46.83,20.7
		c35.61,7.13,71.22,14.26,106.83,21.4c-21.11,3.71-43.29-5.22-63.77,5.83c-19.62-0.2-38.9,24.11-58.84,0.88
		c1.71-4.7,8.1-11.87,2.5-14.05c-28.22-10.99-4.67-19.31,2.02-23.38c17.78-10.84,37.26-18.63,55.76-28.26
		c17.68-9.2,22.15-32.03,8.72-46.39c-5.83-6.24-15.66-8.76-15.03-20.1c1.6-0.07,3.2-0.15,4.8-0.25c6.92,0.05,13.88,0.62,20.73-0.01
		c6.42-0.59,15.5,3.8,18.51-4.67c2.94-8.26-5.23-12.69-10.96-15.86c-12.88-7.14-19.14-18.72-24.52-31.65
		C1610.22,289.85,1619.67,295.22,1624.86,286.73z"/>
	<path class="st5" d="M564.48,1503.24c27.6,3.15,44.95-13.62,62.65-32.35c22.05-23.33,52.83-31.71,81.78-38
		c47.73-10.38,94.6-26.41,142.37-33.33c54.77-7.93,95.16-46.4,145.86-60.78c-1.45,3.16-2.36,6.79-4.45,9.4
		c-4.97,6.22-20.07,6.16-14.5,18.22c4.95,10.71,15.17,1.25,23.16,1.1c28.29-0.53,48.44-23.82,75.27-27.88
		c1.82,21.87-20.26,12.12-27.24,22.29c14.55,8.91,15.42,13.34,0.81,19.73c-29.49,12.89-58.68,27.02-90.32,33.87
		c-1.42-8.48,11.3-20,0.71-23.85c-6.84-2.48-23.49-3.89-26.98,12.7c-13.4,6.41-29.48,1.78-42.19,11.01
		c-8.27,1.1-19.27-3.53-21.23,10.86c-1.68,0.14-3.35,0.25-5.03,0.33c-1.83,1.73-3.66,3.46-5.48,5.19
		c-5.41,2.58-10.61,6.15-17.03,3.87c2.1-12.89,0.11-23.61-15.7-18.67c-74.48,23.27-156.07,28.07-216.3,88.85
		c-5.14,5.19-17.01,6.53-11.47,17.58c4.89,9.77,15.36,7.42,23.82,6.41c11.12-1.33,14.54-12.35,19.63-20.34
		c12.55-19.72,27.89-36.45,51.46-37.63c28.33-1.42,54.41-11.99,81.75-17.14c-5.6,17.49-22.22,16.44-34.64,20.39
		c-43.89,13.97-79.94,39.03-108.24,76.38c-28.18,0.03-56.37,0.06-84.55,0.09C553.18,1535.24,554.93,1517.84,564.48,1503.24z"/>
	<path class="st4" d="M1503.65,1015.53c40.7,7.11,47.69,13.7,44.6,43.87c-1.46,14.27-7.65,21.96-23.93,19.26
		c-21.11-3.5-41.98-7.89-64.28-4.07c-16.01,2.74-26.7,1.63-20.55,23.97c3.67,13.31-5.78,18.05-17.59,13.29
		c-7.48-3.02-14.98-14.03-21.64-0.67c-6.79,13.63,6.85,9.38,11.8,13.32c5.72,4.55,6.86,10.26,0.84,18.33
		c-12.03,16.15-23.19,31.6-45.44,31.79c-4.79,0.04-12.36,2.21-13.88,5.66c-14.14,32.2-53.05,37.33-68.31,68.22
		c-2.45,4.96-6.06,15.11-15.52,5.91c-5.67-5.52-9.02-9.32-3.4-17.98c14.27-21.99,22.89-48.29,46.28-63.09
		c7.81-4.94,7.16-17.48,2.61-17.28c-27.8,1.26-13.98-20.03-17.55-31.62c3.24-12.15,7.92-23.11,21.02-26.99
		c0.63,10.08-12.9,22.79,4.91,29.68c11.56,4.47,16.71-6.22,19.61-12.88c5.33-12.24-0.72-20.74-14.04-22.47
		c0.68-4.24-1.39-11.41,3.44-11.95c22.26-2.51,44.83-12.72,66.85,1.63c5.29,3.45,12.37,6.26,13.8-3.86
		c2.37-16.78,14.21-12.02,24.03-12.72c30.64-2.19,58.2-14.35,87.05-25.06C1517.84,1027.55,1503.71,1028.43,1503.65,1015.53z"/>
	<path class="st6" d="M590.81,1163.42c4.39-22.03,22.24-35.78,31.35-54.9c-1.42,16.69,10.37,26.94,21.58,30.34
		c15.88,4.81,15.04,10.95,8.64,22.49c-2.56,4.61-5.78,10.22-0.66,14.72c4.88,4.29,9.83-0.94,14.62-2.09
		c19.65-4.71,31.24-22.66,47.81-32.07c21.84-12.4,34.03-41.5,60-43.6c38.92-3.14,68.68-23.3,98.41-45.66
		c9.53-7.16,3.28-9.48-2.79-12.31c2.14-4.43,4.29-8.87,6.43-13.3c3.13-0.51,6.26-1.02,9.4-1.53c12.8-0.27,25.05-9.17,39.6-2
		c-10.49,18.34-22.15,34.73-42.63,41.42c-7.68,2.51-11.72,7.48-13.13,15.33c-26.02,1.14-42.58,26.56-68.23,28.65
		c-7.21-0.3-14.25-0.3-15.56,9.66c-7.08,0.47-14.16,0.93-21.24,1.4c-7.83,7.24-15.42,14.79-23.54,21.66
		c-20.2,17.1-36.31,37.76-62.3,49.57c-26.1,11.86-58.7,22.67-66.65,59.37c-10.31,6.62-19.24,16.04-32.26,17.18
		c-6.63-9.86-15.81-12.98-26.93-10.95c8.3-11.5,16.53-23.03,30.3-28.3c7.76-2.97,5.96-7.1,0.82-11.29
		c14.98-14.58,5.36-32.39,5.95-48.85c0,0,0.13-0.27,0.13-0.27c0.8-0.26,1.58-0.53,2.37-0.8
		C591.79,1166.01,591.3,1164.72,590.81,1163.42z"/>
	<path class="st4" d="M1424.38,873.14c0.42,6.85,3.41,15.46,9.36,14.46c28.47-4.76,22.09,15.63,22.3,31.37
		c0.29,21.35,9.02,32.44,31.1,32.12c14.15-0.21,25.47,10.01,37.33,17.09c10.7,6.39,21.93,13.1,34.1,12.03
		c9.08-0.8,15.58-1.7,18.13,8.87c2.31,9.59-1.41,18.96-6.35,25.58c-4.77,6.4-13.38,0.86-18.65-2.77c-6.87-4.72-13.5-8.17-21.77-7.7
		c0.33-7.57-2.33-11.9-8.83-17.14c-17.75-14.32-36.52,0.7-54.1-4.67l-0.23-0.12c-0.87-4.95,1.9-12.04-5.31-13.51
		c-4.01-0.82-4.9,4.05-5.77,7.5c-15.75-2.17-30.7,5.05-48.38-6.22c-8.28-5.28-26.98-31.03-45.69-8.81
		c-4.36-0.43-8.53-1.25-11.02-5.63c-2.31-5.81-4.1-11.93-7.07-17.36c-4.47-8.17-25.19-3.83-17.58-20.05
		c6.36-13.57,12.11-30.31,29.99-34.04c-0.04,1.68-0.08,3.36-0.13,5.04c0.09,4.58,0.93,8.77,5.26,11.2
		C1380.54,887.19,1401.54,877.86,1424.38,873.14z M1489.49,963.56c-0.3-0.57-0.48-1.43-0.93-1.62c-0.54-0.23-1.3,0.12-1.96,0.22
		c0.43,0.85,0.86,1.7,1.29,2.54C1488.42,964.31,1488.96,963.94,1489.49,963.56z"/>
	<path class="st7" d="M869.77,1040.36c6.07,2.83,12.32,5.14,2.79,12.31c-29.73,22.36-59.49,42.52-98.41,45.66
		c-25.97,2.1-38.16,31.2-60,43.6c-16.57,9.4-28.16,27.36-47.81,32.07c-4.79,1.15-9.74,6.38-14.62,2.09
		c-5.12-4.5-1.89-10.12,0.66-14.72c6.4-11.54,7.24-17.68-8.64-22.49c-11.21-3.39-23-13.65-21.58-30.34
		c10.27-31.94,38.33-41.62,63.61-54.76c1.47-1.95,2.94-3.91,4.42-5.86c0,0,0.12-0.23,0.12-0.23c4.45-1.56,5.96-5.15,6.16-9.64
		c0,0,0.35-0.4,0.34-0.39c9.16-2.09,15.56,0.26,16.68,11.15c-9.73,22.89-19.46,45.77-30.24,71.12
		c20.16-4.57,30.98-18.34,44.72-26.96c7.18-3.78,14.37-7.57,21.55-11.35c12.96,0.3,25.04-1.55,32.66-14.36
		c3.13-1.87,6.27-3.74,9.4-5.62c3.39-0.7,6.78-1.39,10.18-2.09C826.77,1062.12,845.45,1040.47,869.77,1040.36z"/>
	<path class="st8" d="M1624.86,286.73c-5.19,8.48-14.65,3.12-22.79,7.84c5.38,12.93,11.64,24.51,24.52,31.65
		c5.73,3.17,13.9,7.6,10.96,15.86c-3.01,8.47-12.09,4.09-18.51,4.67c-6.86,0.63-13.82,0.06-20.73,0.01
		c-9.06-23.44-32.95,6.48-42.94-13.36c3.66-9.15,14.66-14.79,14.36-28.81c-13.34,1.38-28.94,8.17-38.2,2.91
		c-21.37-12.12-41.59-17.71-64.81-9.63c-16.85,7.61-31.52,6.28-42.26-11.12c7.69,0.59,14.61-1.97,21.26-5.65
		c7.9-1.26,17.68,3.62,25.25-8.76c-10.45-1.37-18.35-5.05-25.34,3.22c-3.53-0.01-7.06-0.02-10.59-0.04
		c0.61-22.09-15.54-14.6-26.54-16.21c-1.75-9.16-3.51-18.32-5.26-27.48c28.61,3.95,57.16,8.54,85.86,11.52
		c11.03,1.14,15.01,13.18,24.42,14.37c12.56,1.6,25.9,6.05,37.6-3.75c3.45,0.02,6.9,0.04,10.35,0.06c1.84,3.61,3.73,3.69,5.66,0.08
		c11.09,8.69,23.59,13.82,37.21,16.41C1613.69,272.32,1623.24,274.23,1624.86,286.73z"/>
	<path class="st6" d="M917.28,1551.47c-26.25-0.01-52.5-0.02-78.74-0.04c17.39-8.58,35.32-13.97,54.8-15.99
		c26.76-2.78,54.94-7.27,76.25-24.25c32.46-25.86,69.48-43.44,103.4-66.55c48.7-33.18,91.6-64.85,76.96-134.81
		c15.37-8.95,30.73-17.9,46.1-26.85c0.34,11.09,10.24,12.86,16.21,18.75c15.1,14.91,27.78,31.44,13.84,54.68
		c-2.56-11.52-4.51-23.23-7.93-34.46c-1.8-5.91-11.28-13.14-12.42-5.47c-3.51,23.74-22.61,37.95-29.05,58.72
		c-6.56,21.16-17.79,36.58-35.91,47.79c-20.12,12.44-39.15,26.89-59.69,38.46c-45.15,25.44-85.3,60.41-135.47,76.37
		C935.76,1540.97,925.03,1543.16,917.28,1551.47z"/>
	<path class="st9" d="M1598.4,478.31c20.48-11.05,42.66-2.12,63.77-5.83c1.65,0.22,3.31,0.38,4.97,0.46
		c1.84,1.71,3.68,3.43,5.52,5.14c1.64,0.15,3.29,0.28,4.93,0.41c20.06,17.37,46.72,23.78,63.4,48.23
		c14.76,21.63,16.77,44.72,19.32,68.32c1.52,14.07-10.1,22.85-19.63,31.38c-19.1,18.31-38.16,0.22-57.24-0.06
		c-3.71-5.55-7.42-11.09-11.12-16.64c1.76-6.78-8.25-16.08-0.69-19.43c19.36-8.59,6.51-20.82,4.54-31
		c-1.65-8.5-6.77-16.28-10.36-24.38c7.05-2.18,16.68-0.59,16.88-12.69c0.15-9.35-5.96-14.16-11.98-19.7
		C1649.91,483.41,1622.27,487.05,1598.4,478.31z"/>
	<path class="st5" d="M775.09,1327.51c6.68,2.05,17.76-4.59,18.98,7.7c0.69,6.92-6.08,11.07-12.58,15.25
		c-46.92,30.14-96.55,54.45-147.24,76.7c-4.52,1.98-7.96,6.59-11.9,9.98c-1.84,0.02-3.69,0.05-5.53,0.07
		c-21.25-2.47-38.35-26.58-36.86-51.52c0.88-14.67,6.3-22.43,21.55-16.68c17.78,6.7,28.56,0.95,31.57-18.88
		c12.21-0.11,24.41-0.22,36.62-0.34c5.35,6.9,10.65,6.81,15.88-0.15C716.79,1348.27,744.51,1331.66,775.09,1327.51z"/>
	<path class="st7" d="M917.28,1551.47c7.75-8.31,18.48-10.49,28.34-13.63c50.18-15.97,90.33-50.93,135.47-76.37
		c20.55-11.58,39.57-26.02,59.69-38.46c18.12-11.21,29.36-26.63,35.91-47.79c6.43-20.77,25.54-34.98,29.05-58.72
		c1.13-7.67,10.62-0.44,12.42,5.47c3.42,11.23,5.36,22.95,7.93,34.46c-0.74,3.21-1.49,6.42-2.24,9.63
		c-1.13,2.39-2.26,4.77-3.39,7.16c-8.21,10.19-16.43,20.37-24.64,30.56c-13.57,13.85-27.15,27.7-40.72,41.54
		c-26.4,4.94-38.69,32.4-62.18,41.99c-35.71,17.57-68.07,40.81-100.38,64.11C967.45,1551.43,942.37,1551.45,917.28,1551.47z"/>
	<path class="st5" d="M801.2,1108.93c25.65-2.09,42.21-27.51,68.24-28.64c0.01,0.01,1.11,1.26,1.11,1.25
		c-23.34,23.61-48.84,43.45-82.12,48.98c-16.76,2.79-20.03,12.2-13.5,27.15c-4.37,0.86-10.33,2.26-9.08,7.49
		c7.8,32.5-13.07,30.9-33.09,31.13c-6.65,0.08-16.88-2.76-18.51,5.46c-3.18,15.98-13.16,16.38-25.01,17.02
		c-7.32,0.4-12.55,6.36-14.1,13.21c-1.07,4.72,10.01-0.46,9.55,6.35c-15.77,7.83-39.41-11.24-46.79,17.96
		c-6.94,3.76-13.88,7.52-20.83,11.28c-6.87-0.07-10.52,3.41-10.83,10.58c0,0-0.04,0.07-0.04,0.08c-20.2,0.96-34.04,8.51-31.65,32.9
		c-0.2,4.48-1.14,8.57-5.37,10.91c-10.23-1.31-20.73,16.51-25.14,8.82c-12.25-21.33-34.19-8.8-48.31-19.64
		c0.57-15.26-3.46-31.72,10.56-43.46c0.62,6.88-2.16,14.93,4.87,19.78c10.42,7.19,59.43-7.19,68.49-19.77
		c13.02-1.13,21.95-10.56,32.26-17.17c4-1.54,9.15-1.92,11.82-4.8c24.77-26.69,55.96-41.53,87.5-57.76
		c25.25-12.99,59.05-25.82,53.18-68.05c7.08-0.47,14.16-0.93,21.25-1.39C793.27,1119.61,798.23,1115.99,801.2,1108.93z"/>
	<path class="st4" d="M1329.39,1371.52c2.58-13.01,9.35-24.13,19.28-31.35c24.67-17.95,26.05-48.18,37.41-73.01
		c3.51-7.67-4.28-10.18-11.12-10.59c-18.99-1.14-29.89,17.68-25.21,37.14c2.24,9.32-4.47,20.96-7.16,31.73
		c-30.11-16.07-31.38-30.6-8.91-55.93c10.47-11.8,17.03-27.35,25.27-41.25c2.74-4.62,4.85-10.5,11.67-7.42
		c2.99,1.35,7.71,4.33,7.59,6.29c-0.45,7.13-13.17,18.27,5.71,17.83c12.77-0.3,22.03-8.71,23.58-21.72
		c1.6-13.44,9.88-22.88,14.8-34.26c0.2-0.47,1.47-0.45,4.57-1.29c1.28,18.46,17.92,31.68,12.59,54.25
		c14.27-7.3,8.76-26.18,25.34-31.05c2.34,11.4,4.72,23.04,7.1,34.67l0.05-0.05c-25.83-0.91-27.83,21.29-34.92,40.82
		c-2.39-4.69-3.78-7.86-5.54-10.78c-3.36-5.58,8.55-15.95-3.76-17.56c-10.08-1.31-13.26,9.87-12.91,17.05
		c0.97,19.89-3.51,30.9-25.33,34.71c-8.13,1.42-18.16,18.71-19.38,29.72c-3.05,27.57-24.54,25.16-40.63,32.13L1329.39,1371.52z"/>
	<path class="st4" d="M495.72,1311.22c14.13,10.84,36.07-1.69,48.31,19.64c4.42,7.69,14.91-10.13,25.14-8.82
		c-6.25,28.58-3.27,31.95,25.43,33.3c13.3,0.63,25.73-2.8,38.46-5.23c-3.01,19.84-13.78,25.59-31.56,18.89
		c-15.25-5.75-20.67,2.01-21.55,16.68c-1.49,24.94,15.61,49.05,36.86,51.52c-16.84,18.95-45.8,13.6-56.41-13.95
		c-5.88-15.26-12.68-19.6-26.38-18.96c-17.46,0.82-21.93-8.6-21.08-25.74c0.62-12.49,8.92-29.4-16.63-32.91
		C485.63,1344.17,487.98,1323.36,495.72,1311.22z"/>
	<path class="st8" d="M1503.65,1015.53c0.06,12.9,14.19,12.02,20.72,24.28c-28.85,10.71-56.41,22.87-87.05,25.06
		c-9.82,0.7-21.66-4.06-24.03,12.72c-1.43,10.13-8.51,7.31-13.8,3.86c-22.02-14.34-44.6-4.14-66.85-1.63
		c-4.83,0.54-2.76,7.71-3.44,11.95c-3.49,1.89-6.98,3.78-10.48,5.67c-13.11,3.88-17.78,14.84-21.02,26.99
		c-11.61,0.98-11.72-13.86-20.84-16.3c11.31-18.1-1.18-36.08-0.29-54.13c6.61,2.52,14.23,8.61,16.25-4.98
		c8.67-0.02,17.35-0.04,26.02-0.07c2.23,11.41,7.59,13.06,15.91,5.48c3.5-1.52,7.01-3.03,10.51-4.55c3.37-0.19,6.73-0.38,10.1-0.57
		c3.83,4.41,7.65,4.42,11.45-0.03c26.02-3.18,52.81,2.82,78.26-7.13c40.7,1.3,41.72,0.46,31.56-26.23
		c8.97-0.17,17.95-0.34,26.92-0.51L1503.65,1015.53z"/>
	<path class="st2" d="M1614.41,160.68c-54.43-23.87-110.73-40.15-169.58-47.32c-41.65-5.07-82.83-1.8-123.7,5.49
		c-11.29,2.02-22.44,2.53-33.65,3.75c-1.98-0.25-3.96-0.5-5.94-0.74c62.64-25.7,127.08-32.75,193.24-18.47
		c1.36-8.71-7.03-8.87-8.26-14.21c18.87-13.04,39.12-1.88,55.31,2.89c32.7,9.63,64.84,24.43,92.44,46.85
		C1614.32,146.18,1614.37,153.43,1614.41,160.68z M1487.92,100.17c-0.86-0.35-1.71-0.69-2.57-1.04c0.72,0.48,1.45,0.96,2.17,1.44
		c10.41,12.01,22.44,18.25,43.45,14.15C1514.65,102.82,1501.78,99.83,1487.92,100.17z"/>
	<path class="st0" d="M1202.48,949.33c3.41,14.26-9.4,22.63-11.78,35.05c-2.84,14.8-10.99,29.17,8.61,39.21
		c7.21,3.69,6.93,11.02-1.3,16.82c-8.91,6.28-20.18,11.32-18.72,27.81c-9.58-13.22-8.41-33.21-28.73-32.4
		c-1.08,0.04-3.28-2.4-3.23-3.61c2.16-56.74-22.8-109.52-22.46-165.95c18.9,3.15,5.7,41.24,34.22,33.92
		c0.3,1.71,1.17,3.57,0.81,5.12c-4.85,21.05,9.57,40.01,6.04,60.87c-0.44,0.7-0.88,1.39-1.32,2.09c0.38-0.76,0.77-1.51,1.15-2.27
		c13.48,1.06,25.26-1.63,31.89-15.62C1199.15,949.47,1200.76,949.13,1202.48,949.33z"/>
	<path class="st5" d="M917.71,1136.11c-26.83,4.86-42.8,30.88-68.51,37.91c-8.21-8.14-9.51-1.34-10.85,5.4
		c-7.11,3.33-11.64,11.9-20.81,11.08c-11.79-16.06-21.62,17.02-33.84,0.79c4.36-15.57,22.8-18.86,28.56-33.42
		c1.71-0.08,3.43-0.13,5.14-0.15c6.97,0.1,10.48-3.57,10.83-10.7c3.42-0.06,6.83-0.12,10.25-0.19c7.78,0.22,13.05-3.54,16.04-10.91
		c3.44-0.02,6.88-0.05,10.32-0.07c10.34-11.04,27.53-9.55,37.16-21.88c3.44-0.04,6.88-0.08,10.32-0.11
		c10.06-3.28,23.04-1.24,26.83-15.91c5.15-0.02,10.3-0.04,15.46-0.06c6.21,8.09,12.53-0.46,18.69,0.19
		c13.54,1.42,29.73-7.4,39.27,10.39c-26.16,15.43-53.93,25.47-84.2,27.14C924.55,1130.16,921.01,1130.47,917.71,1136.11z"/>
	<path class="st4" d="M812.25,1157.86c-5.76,14.57-24.21,17.85-28.56,33.42c12.23,16.24,22.06-16.85,33.84-0.79
		c-35.51,22.46-68.92,48.89-109.27,62.19c-23.16,7.63-46.93,2.08-70.37,3.61c7.38-29.21,31.02-10.13,46.79-17.97
		c0.46-6.81-10.62-1.64-9.55-6.35c1.55-6.85,6.79-12.82,14.1-13.21c11.85-0.64,21.83-1.04,25.01-17.02
		c1.64-8.22,11.87-5.38,18.51-5.46c20.02-0.23,40.89,1.37,33.09-31.13c-1.26-5.24,4.71-6.64,9.08-7.49
		C787.32,1170.12,799.84,1152.25,812.25,1157.86z"/>
	<path class="st7" d="M1145.94,1551.28c-23.27,0.12-46.54,0.23-69.8,0.35c33.53-12.19,53.15-43.88,81.69-63.21
		c5.94-4.02,4.35-13.11-2.83-18.24c0.25-3.52,0.5-7.05,0.74-10.57c15.61,1.88,26.15-4.73,31.91-20.02
		c2.86-7.6,6.94-14.32,16.07-14.88c0,0,0.66,0.64,0.66,0.64c1.5,1.76,3,3.51,4.5,5.27c0,0,0.34,0.59,0.34,0.59
		c-0.42,4.64,0.57,8.58,4.98,10.82c0.68,1.63,1.12,3.33,1.33,5.1c-0.83,5.74-1.66,11.47-2.49,17.21
		C1191.73,1494.19,1174.98,1527.84,1145.94,1551.28z"/>
	<path class="st4" d="M1012.55,1108.45c-9.54-17.79-25.72-8.97-39.27-10.39c-6.17-0.65-12.49,7.9-18.69-0.19
		c20.01-11.88,44.06-15.53,60.85-34.31c6.96-7.78,9.6-15.4,6.78-24.47c-3.29-10.6-10.85-4.98-17.46-3.65
		c-4.97,1-11.76,2.37-15.19-0.15c-18.11-13.33-32.81-5.65-46.95,6.64c-5.84,5.07-12.27,6.66-19.5,6.41
		c13.11-19.02,28.75-33.59,53.16-33.24c6.36,0.09,9.22-4.09,9.8-10.28c23.28-4.49,42.67,6.21,61.23,18.12
		c10.99,7.05,18.97,16.98,7.97,31.09c-1.32-9.07-4.05-16.8-14.88-18.03c-2.46,11.57-0.8,22.42-5.01,32.76
		c-3.18,7.82-2.52,16.39,8.87,17.72C1037.77,1100.15,1023.33,1101.45,1012.55,1108.45z"/>
	<path class="st10" d="M1202.48,949.33c-1.72-0.21-3.33,0.14-4.83,1.02c-15.42-11.95-21.3-27.28-22.09-47.78
		c-0.48-12.41,5.31-34.64-3.58-36.59c-24.54-5.39-27.82-26.01-37.74-42.38c-0.98-5.07-1.96-10.13-2.94-15.2
		c1.13-2.36,2.26-4.73,3.39-7.09c15.34,16,25.82,38.1,53.76,36.74c6.62-0.32,13.54,16.21,12,27.29
		c-1.95,14.06,12.23,24.7,5.18,40.53c-2.66,5.98,9.14,4.07,14.68,4.64c2.52,0.3,5.04,0.58,7.57,0.87
		c-3.42,5.29-6.84,10.59-10.26,15.88c-3.46,4.96-6.92,9.91-10.39,14.88c-1.59,2.45-3.18,4.88-4.76,7.32
		C1202.47,949.47,1202.48,949.33,1202.48,949.33z"/>
	<path class="st0" d="M1217.62,927.27c3.42-5.29,6.84-10.59,10.24-15.88c7.11-1.91,7.51-7.69,7.34-13.8
		c2.85-2.62,5.69-5.24,8.53-7.87c-0.01,0,0.25-0.18,0.25-0.18c5.15-3.38,10.31-6.77,15.45-10.15
		c33.52-13.73,63.34-39.35,102.65-34.63c10.93-0.88,16.3,4.42,16.27,15.75c-2.19,2.34-4.38,4.67-6.57,7.01
		c-20.77-22.44-40.97-6.89-50.52,8.64c-16.7,27.14-42.35,32.09-67.12,39.18C1241.78,918.87,1232.07,931.45,1217.62,927.27z"/>
	<path class="st0" d="M1276.56,1054.02c-0.88,18.05,11.61,36.02,0.29,54.12c-12.51-12.42-22.63-26.49-27.47-44.02
		c-3.43-12.42-8.66-23.61-19.66-30.6c-20.32-12.92-21.32-28.69-2.59-44.71c2-1.71,5.41-2.99,5.9-5.04
		c8.14-34.51,23.96-16.5,38.67-6.3c-3.62,8.99-7.24,17.99-10.85,26.98c0,0-0.01,0.01-0.01,0.01c-10.21,0.87-15.87,6.29-15.36,17.26
		c0.48,10.46,8.1,9.69,15.03,9.8c1.89,0.12,3.79,0.23,5.68,0.35c-0.02,3.63-0.03,7.25-0.05,10.88
		C1261.6,1054.51,1271.28,1052.07,1276.56,1054.02z"/>
	<path class="st0" d="M1503.55,1015.42c-8.97,0.17-17.95,0.34-26.92,0.51c-45.49-2.83-91.42,4.06-136.58-6.41
		c-3.57-5.31-11.48-7.53-10.61-16.01c9.49-6.22,18.84-5.11,29.51-2.2c12.03,3.28,25.84,6.61,34.49-8.44
		c22.72,15.97,48.47,8.89,73.1,10.35c12.86,2,25.89,3.37,37.11,11.21C1503.62,1008.09,1503.58,1011.75,1503.55,1015.42z"/>
	<path class="st0" d="M1614.41,160.68c-0.04-7.25-0.09-14.51-0.13-21.76c60.47,20.84,109.71,60.64,158.33,101.4
		c3.34,2.8,10.21,6.24,5.17,12.59c-2.91,3.66-7.21,3.35-11.35-0.5C1721.87,210.96,1665.1,191.24,1614.41,160.68z"/>
	<path class="st11" d="M1008.66,740.34c4.88,0.06,9.75,0.13,14.63,0.19c5.39,3.14,10.78,6.28,16.17,9.41
		c0.6,0.43,1.78,1.07,1.71,1.26c-0.43,1.25-1.11,2.41-1.72,3.6c-6.99,16.28-20.92,7.76-31.94,9.62
		c-16.86-11.82-36.64,4.62-53.63-5.98c0-5.03,0-10.06,0-15.1c-0.79-0.07-1.58-0.14-2.37-0.21c-0.7,4.82-1.41,9.65-2.11,14.47
		c-7.04,1.75-14.06,3.22-20.83-1.01c-3.44-7.77-7.24-5.39-11.14-0.43c-6.17,0.42-13.17,5.69-17.84-3.22
		c4.63-3.98,2.65-9.69,3.4-14.7c21.32-3.62,42.72,4.79,64.04-0.43c2.93,1.34,5.86,2.68,8.79,4.02
		C987.07,748.67,997.9,745.33,1008.66,740.34z"/>
	<path class="st7" d="M1196.04,1282.99c-15.37,8.95-30.73,17.9-46.1,26.86c-6.92,2.43-13.83,4.85-20.75,7.27
		c-10.99,1.07-21.97,2.13-34.49,3.35c4.73-12.55,15.23-15.44,24.14-20.09c33.16-17.31,59.07-45,89.13-66.73l2.6,0.01l2.6-0.06
		c9.98,11.24,0.43,22.67,0.29,34.01C1209,1274.38,1203.45,1279.82,1196.04,1282.99z"/>
	<path class="st12" d="M1134.23,823.61c9.92,16.37,13.2,36.99,37.74,42.38c8.89,1.95,3.1,24.18,3.58,36.59
		c0.79,20.5,6.67,35.82,22.09,47.78c-6.64,14-18.41,16.69-31.89,15.63l0.17,0.18c3.53-20.86-10.89-39.82-6.04-60.87
		c0.36-1.55-0.51-3.41-0.81-5.12c-28.52,7.31-15.32-30.77-34.22-33.92c-0.01-2.82-0.04-5.62-0.07-8.44
		c9.51-3.9,12.67-9.36,4.05-17.73c-0.15-3.62-0.31-7.24-0.46-10.87C1130.33,827.35,1132.28,825.48,1134.23,823.61z"/>
	<path class="st8" d="M1371.77,867.52c2.19-2.34,4.38-4.67,6.55-7c18.21,4.05,39.02,15.71,45-16.42
		c5.96-5.33,11.92-10.66,17.88-15.99c0.73,1.19,1.78,1.68,3.12,1.45c10.74-0.36,15.34-14.95,27.22-12.66
		c3.08,8.52-8.92,24.65,11.44,24.44c-0.19,3.15-0.37,6.29-0.56,9.43c-3.49,0.1-6.98,0.21-10.47,0.31c-1.81,1.72-3.62,3.45-5.43,5.17
		c-13.89,6.05-31.43,2.29-42.15,16.88c-22.84,4.72-43.85,14.06-63.32,27.23c0.03-4.64-0.85-8.81-5.26-11.2
		c0.05-1.68,0.1-3.36,0.13-5.04C1361.21,878.59,1366.49,873.06,1371.77,867.52z"/>
	<path class="st12" d="M1466.53,89.18c1.23,5.34,9.62,5.5,8.26,14.21c-66.16-14.28-130.6-7.23-193.23,18.48
		c-1.62,0.21-3.24,0.42-4.86,0.62c-4.33-0.08-8.27,0.79-10.87,4.87c-5.15,1.88-10.3,3.76-15.44,5.63
		c-1.82-3.58-3.65-7.17-5.47-10.75c6.63-20.7,24.85-12.15,37.83-15.2c36.12-8.5,71.69-21.61,109.69-18.11
		c9.07-0.12,18.13-0.24,27.2-0.36c8.44-0.04,16.88-0.08,25.33-0.12c2.05,0.21,4.09,0.41,6.14,0.61
		C1456.24,89.1,1461.38,89.14,1466.53,89.18z"/>
	<path class="st2" d="M1244.91,122.24c1.82,3.58,3.65,7.17,5.47,10.75c-3.6,7.37-16.59,4.59-16.26,16.22
		c-7.84,5.65-16.8,6.19-25.9,6.12c-10.07,3.22-22.97,1.31-26.77,15.91c0,0-0.24,0.1-0.24,0.09c-11.89-2.23-28.33,5.11-31.18-16.04
		C1181.89,145,1207.77,116.2,1244.91,122.24z"/>
	<path class="st5" d="M986.09,1004.81c-0.58,6.19-3.43,10.38-9.8,10.28c-24.41-0.35-40.04,14.22-53.16,33.24
		c-0.04,1.79-0.07,3.57-0.11,5.36c-7.01,3.12-10.57,8.59-10.49,16.55c-8.76,3.7-17.53,7.4-26.29,11.1
		c-1.86,0.02-3.72,0.04-5.58,0.06c-3.37,0.04-6.74,0.09-10.11,0.13c0,0-1.1-1.25-1.11-1.26c1.41-7.85,5.44-12.83,13.13-15.34
		c20.48-6.69,32.14-23.08,42.63-41.42c-14.54-7.17-26.8,1.73-39.6,2c2.47-13.21,14.52-13.37,22.66-14.46
		C934.03,1007.62,960.12,1006.71,986.09,1004.81z"/>
	<path class="st8" d="M1260.85,1004.45c3.62-9,7.23-17.99,10.85-26.98c11.83-16.71,24.41-26.94,47.05-18
		c7.94,3.14,21.74,2.3,31.84-3.9c2.49,4.39,6.67,5.2,11.02,5.63c-0.15,5.27-0.29,10.54-0.43,15.82c-9.45,6.29-20.84,8.22-30.41,4.94
		c-27.62-9.46-48.16-1.06-64.44,22.48C1264.5,1004.45,1262.68,1004.45,1260.85,1004.45z"/>
	<path class="st9" d="M579.64,1267.77c-9.06,12.58-58.06,26.96-68.49,19.77c-7.03-4.85-4.25-12.9-4.87-19.78
		c3.46-6.99,5.17-15.5,14.24-17.6c10.05,5.77,19.05,17.01,32.19,6.66C563.83,1254.79,573.01,1257.91,579.64,1267.77z"/>
	<path class="st5" d="M727.98,1092.95c-13.74,8.62-24.56,22.39-44.72,26.96c10.78-25.35,20.51-48.23,30.23-71.12
		c4.15-2.43,8.32-4.86,12.48-7.3C729.69,1058.52,706.2,1076.69,727.98,1092.95z"/>
	<path class="st13" d="M552.72,1256.82c-13.14,10.35-22.13-0.89-32.19-6.66c9.36-13.25,22.16-21.75,36.38-28.29
		c8.98-1.54,17.95-3.09,26.92-4.64c5.14,4.19,6.95,8.31-0.82,11.29C569.25,1233.79,561.02,1245.32,552.72,1256.82z"/>
	<path class="st11" d="M872.84,753.19c-21.81,4.18-42.99-3.11-64.54-3.8c0.3-1.02,0.75-1.96,1.35-2.82l-0.27,0
		c3.38,5.1,8.9,7.63,13.05,3.78c3.85-3.58,2.17-9.85-1.03-14.55c9.72-14.27,21.68,5.27,31.85-2.27c0.42,2.68,0.85,5.37,1.27,8.05
		c-5.36-3.33-10.96-7.41-11.33,4.13c-0.13,4.25-1.56,10.4,5.13,8.94c5.93-1.29,3.52-9,6.06-13.28
		C865.29,737.31,868.76,745.75,872.84,753.19z"/>
	<path class="st4" d="M1330.99,1232.56c-25.66,13.26-30.6,35.76-27.19,61.64c1.06,8,2.55,15.2-7.68,15.82
		c-8.84,0.54-8.2-7.13-8.93-13.46C1283.95,1268.49,1306.61,1233.33,1330.99,1232.56z"/>
	<path class="st6" d="M1203.72,1424.71c-9.12,0.57-13.21,7.28-16.07,14.88c-5.76,15.29-16.29,21.9-31.91,20.01
		c-0.21-4.77-0.43-9.53-0.64-14.29c13.58-13.85,27.15-27.7,40.72-41.54C1198.45,1410.75,1201.09,1417.73,1203.72,1424.71z"/>
	<path class="st9" d="M583.83,1217.23c-8.97,1.55-17.94,3.1-26.92,4.64c6.53-20.77,14.35-40.68,32.88-53.49
		C589.2,1184.85,598.81,1202.65,583.83,1217.23z"/>
	<path class="st8" d="M1503.66,1004.43c-11.22-7.84-24.25-9.21-37.11-11.2c0.15-3.62,0.29-7.24,0.44-10.86
		c17.58,5.37,36.35-9.65,54.1,4.67c6.5,5.24,9.16,9.57,8.83,17.14c-3.52,0.07-7.04,0.14-10.56,0.21c-1.75-0.03-3.51-0.01-5.26,0.06
		C1510.62,1004.45,1507.14,1004.44,1503.66,1004.43z"/>
	<path class="st4" d="M1452.73,1323.76c-3.14,0.81-7.96,2.6-12.91,3.18c-4.68,0.54-10.48,5.86-13.99-0.17
		c-3.32-5.7-0.61-12.16,2.59-17.71c2.38-4.13,41.01-6.92,42.01-2.77c1.2,4.96,1.71,11.13-0.11,15.63
		C1467.13,1329.84,1460.46,1326.55,1452.73,1323.76z"/>
	<path class="st2" d="M1070.83,209.97c16.49-25.39,38.28-39.98,69.95-37.95c-7.31,15.97-32.76,4.06-33.26,26.62
		c-2.26,4.56-6.33,5.39-10.7,5.59c-8.67,1.91-17.34,3.81-26.01,5.72L1070.83,209.97z"/>
	<path class="st13" d="M1185.62,1198.41c-13.19-4.12-26.68-2.6-40.1-2.38c-1.07-7.96-3.16-17.69,7.03-19.7
		c14.04-2.77,29.12-5.53,39.84,9.22C1192.23,1191.01,1190.34,1195.51,1185.62,1198.41z"/>
	<path class="st9" d="M1185.62,1198.41c4.71-2.9,6.6-7.39,6.77-12.87c14.96,3.2,23.3,13.01,26.25,28.23
		c-1.83,6.6-3.65,13.22-5.48,19.84l-2.6,0.06c0,0-2.6-0.01-2.6,0c-0.54-11.26-8.56-9.8-15.66-9.92c-1.9-1.9-3.79-3.8-5.69-5.7
		C1186.29,1211.5,1185.95,1204.95,1185.62,1198.41z"/>
	<path class="st5" d="M869.77,1040.36c-24.31,0.11-42.99,21.76-68.01,19.18c19.9-22.96,48.16-25.25,74.44-32.48
		C874.06,1031.49,871.91,1035.92,869.77,1040.36z"/>
	<path class="st5" d="M702.69,778.38c6.63-10.06,12.63-20.35,26.1-20.01c6.5,0.17,10.64,4.84,8.12,10.61
		c-4.69,10.71-11.19,21.09-24.68,20.55C706.42,789.31,703.59,784.36,702.69,778.38z"/>
	<path class="st0" d="M1783.22,161.3c-0.04-3.78-0.08-7.56-0.13-11.34c17.49,14.41,31.04,31.73,37.27,54.45l-0.17,0.17
		C1799.88,197.5,1788.33,182.36,1783.22,161.3z"/>
	<path class="st6" d="M725.96,1041.5c-4.16,2.43-8.33,4.86-12.48,7.3c-1.11-10.88-7.51-13.23-16.67-11.15
		c2.79-14.07,10.73-24.48,24.74-20.32C732.53,1020.57,732.75,1031.71,725.96,1041.5z"/>
	<path class="st1" d="M1039.45,754.8c0.6-1.19,1.29-2.35,1.72-3.6c0.06-0.19-1.11-0.83-1.71-1.26c8.19-3.34,14.15-12.26,24.37-10.53
		c-0.01-0.01,0.36,0.21,0.36,0.21c6.32,4.6,7.2,11.44,7.14,18.67c-0.62,1.76-1.23,3.51-1.85,5.27c-3.95,1.34-7.91,2.68-11.87,4.02
		C1051.55,763.32,1045.5,759.06,1039.45,754.8z"/>
	<path class="st5" d="M1044.26,1086.47c-11.39-1.34-12.06-9.9-8.87-17.72c4.21-10.34,2.55-21.19,5.01-32.76
		c10.83,1.23,13.56,8.96,14.88,18.03c-0.18,5.32-0.36,10.63-0.54,15.95c-10.37,0.82-10.45,8.65-10.43,16.54L1044.26,1086.47z"/>
	<path class="st14" d="M854.53,741.57c-0.43-2.69-0.85-5.37-1.27-8.05c5.04-2.42,9.58-1.19,13.85,2.03c0-0.01-0.82-0.63-0.82-0.63
		c12.41-0.88,24.7-0.42,36.72,3.32c-0.75,5.01,1.23,10.72-3.4,14.7c-8.75,3.67-17.62,4.32-26.65,0.26
		c-4.18-7.46-7.66-15.9-18.56-11.84L854.53,741.57z"/>
	<path class="st1" d="M809.38,746.56c0,0,0.27,0,0.27,0c-6.55,0.44-13.1,0.87-19.64,1.31c-1.07-0.51-2.17-0.93-3.32-1.26
		c-4.04-6.32-7.12-12.86-4.61-20.74c10.24-3.34,19.49,0.11,28.64,4.44C812.78,735.96,813.31,741.46,809.38,746.56z"/>
	<path class="st0" d="M1234.12,149.21c-0.34-11.62,12.65-8.85,16.26-16.22c5.15-1.88,10.3-3.76,15.45-5.63
		c4.46,0.37,8.4-0.49,10.87-4.87c1.62-0.2,3.24-0.41,4.86-0.62c1.97,0.24,3.95,0.49,5.93,0.74
		C1274.7,142.29,1255.36,147.81,1234.12,149.21z"/>
	<path class="st4" d="M1471.91,1245.55c5.15,2.09,19.13-9.39,13.86,8.25c-3.32,11.1-1.46,25.53-14.8,34.3
		c-9.76-15.68,5.79-28.99,0.98-42.59C1471.96,1245.5,1471.91,1245.55,1471.91,1245.55z"/>
	<path class="st6" d="M1213.16,1233.6c1.83-6.62,3.65-13.23,5.48-19.84c10.22,19.2,20.64,38.4-5.18,53.85
		C1213.6,1256.28,1223.14,1244.85,1213.16,1233.6z"/>
	<path class="st4" d="M1829.66,440.39c-2.71,6.06-3.08,14.5-10.82,13.59c-7.13-0.83-11.96-7.03-13.28-14.55
		c-1.18-6.71,2.93-9.65,9.01-9.92C1822.46,429.18,1827.54,432.78,1829.66,440.39z"/>
	<path class="st4" d="M574.55,1311.14c-2.4-24.39,11.45-31.94,31.65-32.9C597.93,1291.57,587.37,1302.53,574.55,1311.14z"/>
	<path class="st12" d="M1039.45,754.8c6.05,4.26,12.1,8.52,18.16,12.79c-10.59,2.48-21.64-0.27-32.29,4.24
		c-6.82,2.89-15.4,4.09-17.81-7.41C1018.53,762.56,1032.45,771.08,1039.45,754.8z"/>
	<path class="st0" d="M1134.23,823.61c-1.95,1.87-3.9,3.74-5.85,5.61c-13.97-2.92-9.23-13.9-9.15-22.86
		c4.01,0.69,8.04,1.37,12.06,2.05C1132.27,813.48,1133.25,818.54,1134.23,823.61z"/>
	<path class="st5" d="M791.58,1061.63c-3.13,1.87-6.27,3.74-9.4,5.6c-8.17-3.97-14.78,3.8-22.51,3.18
		C767.62,1056.96,776.73,1048.05,791.58,1061.63z"/>
	<path class="st14" d="M782.08,725.88c-2.51,7.88,0.58,14.42,4.61,20.74c-7.46-0.44-16.27-0.27-16.98-10.44
		C769.22,729.01,776.58,727.65,782.08,725.88z"/>
	<path class="st0" d="M1181.45,171.24c3.8-14.6,16.7-12.69,26.77-15.91C1210.32,180.61,1189.75,164.79,1181.45,171.24z"/>
	<path class="st6" d="M759.67,1070.4c7.72,0.62,14.34-7.15,22.51-3.18c-7.61,12.82-19.69,14.67-32.65,14.38
		c-0.1-1.81-0.2-3.62-0.31-5.44c4.31-0.25,8.14-1.43,10.35-5.75L759.67,1070.4z"/>
	<path class="st12" d="M1131.29,808.41c-4.02-0.68-8.05-1.36-12.06-2.05c-0.3-5.21-0.61-10.41-0.92-15.61
		c1.89-0.2,3.78-0.41,5.67-0.61c3.57,3.73,7.14,7.46,10.71,11.19C1133.55,803.68,1132.42,806.05,1131.29,808.41z"/>
	<path class="st12" d="M1069.47,763.56c0.62-1.76,1.23-3.51,1.85-5.27c6.93-0.25,13.86-0.5,20.79-0.75
		c1.87,3.58,3.75,7.16,5.62,10.74C1088.31,766.71,1078.89,765.14,1069.47,763.56z"/>
	<path class="st4" d="M685.57,1349.63c-5.23,6.97-10.52,7.06-15.88,0.15C674.92,1342.64,680.21,1342.66,685.57,1349.63z"/>
	<path class="st0" d="M1128.83,840.08c8.62,8.37,5.46,13.83-4.05,17.73C1123.64,851.29,1122.28,844.72,1128.83,840.08z"/>
	<path class="st14" d="M809.38,746.56c3.93-5.1,3.4-10.6,1.34-16.24c3.55,1.82,7.12,3.64,10.68,5.47c3.2,4.7,4.88,10.97,1.03,14.55
		C818.29,754.19,812.77,751.66,809.38,746.56z"/>
	<path class="st4" d="M1044.31,1086.5c-0.02-7.89,0.06-15.71,10.43-16.54C1055.09,1078.07,1051.55,1083.54,1044.31,1086.5z"/>
	<path class="st2" d="M1419.63,88.57c-9.07,0.12-18.13,0.24-27.2,0.36C1401.41,81.73,1410.48,82.22,1419.63,88.57z"/>
	<path class="st4" d="M606.23,1278.16c0.32-7.16,3.96-10.65,10.83-10.58C616.66,1274.65,613.15,1278.29,606.23,1278.16z"/>
	<path class="st4" d="M838.35,1179.42c1.34-6.74,2.64-13.54,10.85-5.4C846.91,1178.7,842.91,1179.67,838.35,1179.42z"/>
	<path class="st4" d="M917.71,1136.11c3.3-5.64,6.84-5.95,10.65-0.52C925.06,1141.33,921.52,1141.74,917.71,1136.11z"/>
	<path class="st14" d="M949.4,757.6c0.7-4.82,1.41-9.65,2.11-14.47c0.79,0.07,1.58,0.14,2.37,0.21c0,5.03,0,10.07,0,15.1
		c0,0-2.42,0.65-2.42,0.65L949.4,757.6z"/>
	<path class="st14" d="M790.01,747.87c6.55-0.44,13.09-0.87,19.64-1.31c-0.6,0.86-1.05,1.8-1.35,2.82
		C801.75,754.8,795.63,754.6,790.01,747.87z"/>
	<path class="st10" d="M1123.98,790.13c-1.89,0.2-3.78,0.41-5.67,0.61c-1.66-1.89-3.33-3.79-4.99-5.68c0.3-1.97,0.6-3.94,0.9-5.91
		C1120.51,779.9,1123.42,783.89,1123.98,790.13z"/>
	<path class="st6" d="M1213.03,1464.33c0.83-5.74,1.66-11.47,2.49-17.21C1219.88,1453.67,1218.94,1459.39,1213.03,1464.33z"/>
	<path class="st5" d="M759.57,1070.41c-2.21,4.32-6.05,5.5-10.35,5.75C751.11,1071.21,755.04,1070.23,759.57,1070.41z"/>
	<path class="st6" d="M1220.46,1373.21c1.13-2.39,2.26-4.77,3.39-7.16C1227.29,1370.77,1223.14,1371.61,1220.46,1373.21z"/>
	<path class="st4" d="M1329.48,1371.59c-0.66,2.38-1.33,4.75-1.99,7.13c-0.67-0.45-1.34-0.91-2-1.36c1.3-1.95,2.61-3.89,3.91-5.84
		C1329.39,1371.52,1329.48,1371.59,1329.48,1371.59z"/>
	<path class="st6" d="M696.47,1038.04c-0.19,4.49-1.71,8.07-6.16,9.64C690.44,1043.14,691.82,1039.46,696.47,1038.04z"/>
	<path class="st14" d="M917.43,756.17c3.9-4.96,7.71-7.34,11.14,0.43C924.86,756.45,921.15,756.31,917.43,756.17z"/>
	<path class="st0" d="M1834.83,220.54c-0.23,0.63-0.46,1.25-0.68,1.88c-0.67-0.72-1.35-1.45-2.02-2.17c0.5-0.46,0.99-0.93,1.49-1.39
		C1834.02,219.42,1834.42,219.98,1834.83,220.54z"/>
	<path class="st6" d="M1214.19,1442.03c-4.41-2.24-5.4-6.18-4.98-10.82C1210.88,1434.81,1212.54,1438.42,1214.19,1442.03z"/>
	<path class="st12" d="M1114.21,779.16c-0.3,1.97-0.6,3.94-0.9,5.91c-3.25-0.88-5-2.93-4.72-6.55
		C1110.46,778.73,1112.34,778.94,1114.21,779.16z"/>
	<path class="st12" d="M1097.71,768.3c3.41,0,5.28,1.8,5.71,5.28C1099.81,773.81,1097.93,772.02,1097.71,768.3z"/>
	<path class="st2" d="M1451.1,89.06c-2.05-0.2-4.09-0.4-6.14-0.61C1447.28,85.67,1449.33,85.78,1451.1,89.06z"/>
	<path class="st6" d="M690.19,1047.9c-1.47,1.95-2.95,3.91-4.42,5.86C687.25,1051.81,688.72,1049.86,690.19,1047.9z"/>
	<path class="st0" d="M1567.13,254.13c-1.93,3.61-3.82,3.53-5.66-0.08C1563.36,254.08,1565.24,254.11,1567.13,254.13z"/>
	<path class="st9" d="M590.81,1163.42c0.49,1.29,0.98,2.59,1.47,3.89c-0.79,0.27-1.58,0.54-2.37,0.8
		C589.94,1166.49,590.24,1164.93,590.81,1163.42z"/>
	<path class="st11" d="M866.27,734.92c0,0,0.83,0.62,0.82,0.63C867.09,735.56,866.27,734.92,866.27,734.92z"/>
	<path class="st0" d="M1202.47,949.47c1.59-2.44,3.18-4.87,4.76-7.32C1205.64,944.58,1204.06,947.03,1202.47,949.47z"/>
	<path class="st0" d="M1820.35,204.41c0.69,0.79,1.38,1.57,2.07,2.36c-0.75-0.73-1.49-1.46-2.24-2.19
		C1820.19,204.58,1820.35,204.41,1820.35,204.41z"/>
	<path class="st6" d="M1208.88,1430.61c-1.5-1.75-3-3.51-4.5-5.27C1205.88,1427.1,1207.38,1428.86,1208.88,1430.61z"/>
	<path class="st0" d="M1514.1,1004.45c1.75-0.07,3.51-0.09,5.26-0.06C1517.65,1008.21,1515.89,1008.17,1514.1,1004.45z"/>
	<path class="st4" d="M1466.53,856.26c1.81-1.72,3.62-3.45,5.43-5.17C1470.15,852.81,1468.34,854.54,1466.53,856.26z"/>
	<path class="st4" d="M1672.66,478.09c-1.84-1.71-3.68-3.43-5.52-5.14C1668.98,474.66,1670.82,476.37,1672.66,478.09z"/>
	<path class="st0" d="M975.82,741.83c-2.93-1.34-5.85-2.68-8.79-4.02C970.91,736.91,973.86,738.18,975.82,741.83z"/>
	<path class="st2" d="M1120.17,88.19c-8.06,15.61-10.34,27.85-24.64,27.81c-6.39-0.02-9.5-5.37-8.13-11.07
		C1090.97,90.11,1103.54,92.74,1120.17,88.19z"/>
	<path class="st2" d="M1070.82,209.95c-1.26,2.91-2.52,5.82-3.78,8.73c-1.04-0.7-2.07-1.39-3.11-2.09c2.3-2.21,4.61-4.41,6.91-6.62
		C1070.83,209.97,1070.82,209.95,1070.82,209.95z"/>
	<path d="M891.41,1415.37c12.72-9.23,28.79-4.6,42.19-11.01c1.18,22.98,13.18,18.43,26.27,11.14c31.64-6.84,60.84-20.98,90.32-33.87
		c14.61-6.39,13.75-10.82-0.81-19.73c6.98-10.17,29.05-0.41,27.23-22.29c0-0.01,0.24-0.6,0.24-0.6c1.65-1.59,3.3-3.18,4.95-4.77
		c15.54-4.11,31.07-8.22,46.61-12.33c6.55,4.55,7.1,10.98,2.44,16.38c-16.79,19.44-25.48,45.52-47.09,61.02
		c-23.72,17.01-35.82,48.47-64.81,58.48c-18.35,6.34-35.35,12.32-48.16,29.29c-6.42,8.51-16.84,17.38-29.38,15.7
		c-27.61-3.7-51.62,6.78-75.22,19.04c-27.21,14.14-62.08,4.21-85.61,29.63c-49.22,0-98.43,0-147.65,0.01
		c28.3-37.35,64.35-62.4,108.24-76.38c12.43-3.96,29.05-2.9,34.64-20.4c3.31-0.28,6.63-0.55,9.95-0.83
		c2.14,3.85,3.78,3.49,4.95-0.65c6.81-2.11,13.61-4.22,20.42-6.33c9.37,1.32,16.67-2.27,22.22-10.05c3.09-0.41,6.18-0.81,9.27-1.22
		c6.43,2.29,11.63-1.28,17.04-3.86c1.83-1.73,3.66-3.46,5.48-5.19c1.68-0.08,3.36-0.19,5.04-0.33
		C878.63,1425.49,886.01,1422.52,891.41,1415.37z"/>
	<path class="st4" d="M780.58,1551.46c23.52-25.43,58.4-15.49,85.61-29.63c23.6-12.26,47.61-22.74,75.22-19.04
		c12.54,1.68,22.96-7.19,29.38-15.7c12.81-16.97,29.81-22.95,48.16-29.29c28.99-10.02,41.09-41.48,64.81-58.48
		c21.62-15.5,30.3-41.58,47.09-61.02c4.67-5.4,4.11-11.83-2.43-16.38c0.29-1.59,0.54-3.19,0.76-4.79
		c6.92-2.42,13.83-4.84,20.75-7.27c14.63,69.96-28.26,101.62-76.96,134.81c-33.92,23.11-70.94,40.69-103.4,66.55
		c-21.31,16.98-49.49,21.47-76.25,24.25c-19.48,2.02-37.41,7.41-54.8,15.99C819.22,1551.44,799.9,1551.45,780.58,1551.46z"/>
	<path class="st6" d="M1155,1470.18c7.19,5.13,8.77,14.22,2.83,18.24c-28.54,19.33-48.16,51.02-81.69,63.21
		c-7.22-0.09-14.44-0.19-21.65-0.28c9.27-12.05,29.68-12.25,31.64-32.06c9.46-4.79,16.31-12.43,21.78-21.56
		C1128.92,1498.32,1135.18,1471.76,1155,1470.18z"/>
	<path class="st4" d="M1107.91,1497.71c-5.47,9.13-12.32,16.77-21.77,21.56c-24.89,2.41-47.13,10.45-62.96,32.04
		c-10.21,0.03-20.43,0.05-30.64,0.08c32.32-23.3,64.67-46.53,100.38-64.11C1097.92,1490.77,1102.92,1494.24,1107.91,1497.71z"/>
	<path class="st5" d="M1023.18,1551.32c15.84-21.6,38.07-29.63,62.96-32.04c-1.96,19.82-22.38,20.01-31.65,32.06
		C1044.05,1551.33,1033.62,1551.33,1023.18,1551.32z"/>
	<path class="st0" d="M1102.47,45.56c3.63-22.84,15.59-13.66,28.83-7.8c-10.92,2.98-19.85,5.41-28.78,7.85
		C1102.51,45.61,1102.47,45.56,1102.47,45.56z"/>
	<path class="st12" d="M1424.46,286.77c10.75,17.4,25.41,18.73,42.26,11.11c1.64,5.42,3.28,10.85,4.93,16.28
		c-32.17,2.15-64.77-0.3-94.74-10.38c-29.6-9.96-56.33,4.45-84.47,1.75c-5.25-0.51-4.83,8.49-5.1,13.84
		c-5.79,1.93-11.69,3.58-17.34,5.88c-7.44,3.03-20.4,0.55-20.39,11.68c0.01,12.4,11.7,17.36,22.34,19.65
		c6.78,1.46,13.99,1.17,21,0.99c24.77-0.64,48.33,4.49,71.02,14.39c0.71,10.02-12.77,6.65-12.61,18.43
		c0.15,10.63-10.19,13.76-18.25,3.82c-25.43-31.33-53.22-2.3-80.18-2.86c29.08,11.54,58.16,23.08,87.23,34.62
		c-19.94,4.23-39.18,6.07-57.94,3.74c-21.15-2.63-30.11,3.76-25.95,26.21c-9.06-7.11-18.12-14.21-27.18-21.32
		c-14.51-17.05-34.56-24.27-54.65-30.35c7.39-23.93,22.61-33.01,44.2-34.68c-34.88-5.02-68.91-13.95-102.67,2.95
		c-13.31,6.66-28.51,16.86-34.42-8.97c10.48-14.28,24.96-24.97,28.75-44.96c2.93-15.44,20.95-14.17,31.95-20.42
		c29.12-16.57,55.73-40.5,92.14-38.52c22.47-0.29,44.19,2.62,63.37,16.21c-5.91,7.94-15.43,7.63-21.81,5.04
		c-31.44-12.73-51.67,10.16-78.28,23.16c12.31,6.36,20.99,2.18,30.27,0.42c34.23-6.49,68.94-17.67,102.94-15.92
		C1362.44,290.17,1393.3,292.36,1424.46,286.77z"/>
	<path class="st12" d="M1063.83,739.42c-10.23-1.74-16.19,7.17-24.38,10.52c-5.39-3.14-10.78-6.28-16.17-9.41
		c0.57-25.2,3.35-50.76-11.62-73.32c-8.33-12.56-1.73-26.85,2.54-36.1c9.74-21.12,2.3-49.49,25.15-64.66
		c-0.59,13.95,1.61,28.06-3.79,41.71c-2.9,7.34,0.97,11.68,8.44,12.45c4.8,9.59,7.96,22.35,18.47,25.18
		c17.96,4.84,18.09,15.09,13.96,30.19c-1.8,6.6,0.23,14.33,0.52,21.55c-8.58,5.17-5.56,14.19-6.72,21.82
		C1057.85,722.51,1059.02,730.34,1063.83,739.42z"/>
	<path class="st8" d="M1229.12,434.59c9.06,7.11,18.12,14.21,27.17,21.33c2.72,6.31,7.44,9.61,13.95,10.96
		c6.73,1.39,15.8,2.55,14.12,12.08c-1.37,7.77-10.11,8.95-17,9.76c-8.92,1.06-20.21-3.91-23.13,10.82
		c-1.01,1.33-0.83,2.44,0.54,3.35c-7.96-0.28-15.91-0.57-23.87-0.85c-2-0.57-4-1.13-6-1.7c-5.61-2.31-11.21-4.61-16.82-6.92
		c-2.17-0.97-4.35-1.94-6.52-2.9c-5.32-0.25-10.64-0.5-15.96-0.75c-11.85-0.97-23.69-1.94-35.54-2.91
		c-5.8-13.24-17.94-6.54-27.09-9.27c-1.71-3.28-3.42-6.57-5.13-9.85c32.6-15.52,69.89,0.3,106.91-16.5
		c-16.72-9.06-38.04-0.86-43.54-22.34c-0.05-3.59-0.1-7.17-0.15-10.76C1190.68,422.61,1207.46,437.88,1229.12,434.59z"/>
	<path class="st2" d="M1229.12,434.59c-21.66,3.29-38.43-11.98-58.05-16.46c-27.11-12.11-57.33,1.72-84.39-10.89l-0.06-0.06
		c-6.65-12.41-31.93-17.81-13.88-39.37c1.95-2.32,5.83-2.9,8.82-4.28c5.91,25.84,21.11,15.64,34.42,8.98
		c33.76-16.9,67.79-7.97,102.67-2.95c-21.59,1.67-36.81,10.75-44.2,34.68C1194.56,410.32,1214.61,417.54,1229.12,434.59z"/>
	<path d="M1171.22,428.89c5.5,21.48,26.83,13.29,43.54,22.34c-37.02,16.79-74.3,0.98-106.91,16.5
		c-18.41-2.31-26.64,15.15-39.96,22.69c-7.12,4.03-12.28,11.81-22.62,11.83C1073.91,439.23,1116.41,414.91,1171.22,428.89z"/>
	<path class="st2" d="M1297.78,275.85c-19.18-13.59-40.89-16.5-63.37-16.21c29.3-19.63,63.62-21.47,96.36-26.98
		c23.58-3.97,48.27-0.79,72.46-0.8c1.75,9.16,3.51,18.32,5.26,27.48c-10.3,0.05-20.7-3.44-30.33-3.42
		c-22.82,0.04-49.94-10.3-64.89,19.47C1308.12,275.54,1302.95,275.69,1297.78,275.85z"/>
	<path class="st13" d="M1112.99,477.58c9.14,2.73,21.28-3.97,27.09,9.28c-24.5,17.85-49.01,35.69-73.51,53.53
		c-0.16-5.6-0.32-11.21-0.48-16.81c0,0,0.84-0.89,0.82-0.9c9.59-1.42,9.04-9.2,9.49-16.36
		C1083.92,490.33,1098.27,483.7,1112.99,477.58z"/>
	<path class="st2" d="M1086.69,407.24c-2.65,19.95-10.48,36.31-30.01,43.32c-4.58,1.64-11.17,1.99-14.48-3.17
		c-2.9-4.51,1.64-8.02,3.85-11.83c9.32-16.09,16.54-35.09,40.59-28.38C1086.63,407.18,1086.69,407.24,1086.69,407.24z"/>
	<path class="st13" d="M1044,620.6c-7.47-0.77-11.33-5.11-8.43-12.44c5.4-13.65,3.2-27.76,3.79-41.71c1.89-1.84,3.77-3.69,5.65-5.53
		c11.93,0.91,8.63-18.33,20.88-17c-5.39,22.06-10.77,44.12-16.16,66.18C1045.34,612.14,1044.7,616.38,1044,620.6z"/>
	<path class="st12" d="M1065.88,543.91c-12.24-1.33-8.95,17.91-20.88,17c-7.1-21.03-3.64-35.65,21.07-37.35
		c0.17,5.62,0.33,11.22,0.48,16.81C1066.4,541.56,1066.18,542.74,1065.88,543.91z"/>
	<path class="st12" d="M1076.4,506.32c-0.45,7.16,0.1,14.94-9.49,16.36C1058.45,509.97,1070.08,509.81,1076.4,506.32z"/>
	<path class="st10" d="M1301.03,826.36c-2.48-25.99,6.45-49.57,14.8-73.14c3.29-9.3,6.91-18.3,9.55-27.97
		c5.12-18.78-3.48-20.06-15.43-13.73c-14.76,7.81-18.08,8.05-22.58-11.75c-2.78-12.24-11.99-31.13-36.87-32.55
		c-16.9-0.97-38.91-12.97-52.61-30.44c33.18-5.99,66.36-11.99,99.54-17.96c2.18,16.15,9.1,32.38-3.91,48.06
		c23.31,1.31,37.32-7.83,46.67-26.74c8.63-17.45,19.84-17.24,33.34-4.04c9.44,9.23,14.34,20.15,17.78,32.52
		c10.2,36.64,6.46,77.86,33.13,109.1c-5.64,2.37-10.61-0.44-14.94-3.15c-28.05-17.59-54.07-15.51-79.64,6.11
		c-10.36,8.76-18.11,18.35-15.28,31.98c2.85,13.77,12.72,8.51,20.93,5.01C1333.65,861.76,1312.49,823.32,1301.03,826.36z"/>
	<path class="st10" d="M1065.88,543.91c0.3-1.17,0.52-2.35,0.68-3.53c24.51-17.82,49.02-35.66,73.52-53.52
		c11.84,0.96,23.69,1.93,35.55,2.9c0.81,11.37-7.68,10.05-14.2,10.96c-21.02,2.91-39.9,10.35-54.56,27.03
		c-12.88,2.56-24.46,11.81-18.01,23.73c10.01,18.49,2.51,35.33,2.9,52.84c-0.69,0.79-1.39,1.59-2.08,2.38
		c0.8-0.69,1.59-1.37,2.39-2.06c12.08,0.21,20.82-2.13,16.46-18.45c-2.32-8.66,1.88-15.74,9.19-20.56
		c4.98,10.48,12.29,20.5,6.17,33.21c1.32,20.97,35.34,41.67,62.65,38.12c-1.49,18.67-4.23,36.35-27.17,38.96
		c-7.81,0.89-11.23,7.08-8.85,13.43c12.52,33.46-12.46,35.03-31.83,40.84c-14,4.2-30.59,4.71-26.57,27.37
		c-6.93,0.25-13.86,0.5-20.79,0.75c0.06-7.23-0.83-14.07-7.15-18.68c2.02-6.77,4.04-13.52,6.06-20.27
		c1.16-7.63-1.86-16.65,6.71-21.82c5.23,0.1,10.78-0.94,15.65,0.51c19.69,5.85,34.73,10.31,21.12-21.54
		c-6.23-14.57-9.79-31.37-25.46-34.59c-19.35-3.98-29.06-16.87-38.53-31.82C1055.11,588.03,1060.5,565.97,1065.88,543.91z"/>
	<path class="st12" d="M1186.53,636.95c-27.3,3.56-61.33-17.15-62.65-38.11c8.05,0.37,16.11,0.73,24.16,1.1
		c8.01,16.46,21.44,22.04,38.37,20.62c12.91,4.09,25.3,3.11,37.07-4.01c10.52-0.21,19.44-4.71,27.67-11.08
		c6.49-3.28,13.87-5.55,15.41-14.5c4.59-0.45,9.17-0.91,13.76-1.36c1.15,4.15,2.23,8.37,7.67,8.17c3.06,0.58,6.12,1.17,9.18,1.75
		c0.44,3.77,0.88,7.53,1.32,11.3c-0.36,2.66-0.72,5.32-1.08,7.98c-33.18,5.99-66.36,11.99-99.54,17.98
		C1194.1,636.83,1190.32,636.89,1186.53,636.95z"/>
	<path class="st11" d="M1207.57,673.74c18.05-3.35,31,13.37,47.18,6.4c2.02-0.87,5.7,6.57,2.94,8.37
		c-15.94,10.42-21.27,34.88-44.1,35.96c-3.51,0.17-7.25,1.27-10.47,0.35c-12.11-3.43-14.09,25.78-22.33,12
		c-6.93-11.59-2.36-32.37,0.91-48.24C1184.57,674.57,1195.66,668.35,1207.57,673.74z"/>
	<path class="st12" d="M1301.03,826.36c11.46-3.04,32.62,35.41,34.46-8.68c9-5.79,17.91-9.21,26.31,1.09
		c5.6,8.61,5.57,17.28,0.28,26.01c-39.31-4.72-69.13,20.9-102.65,34.63c0.98-7.5,0.76-14.28,10.01-18.52
		C1284.01,854.18,1293.75,841.1,1301.03,826.36z"/>
	<path class="st12" d="M1235.2,897.59c0.17,6.11-0.23,11.89-7.34,13.8c-2.51-0.29-5.04-0.58-7.55-0.87
		C1224.02,904.64,1226.71,897.52,1235.2,897.59z"/>
	<path class="st12" d="M1243.98,889.55c0,0-0.25,0.18-0.25,0.18c0.01,0-0.47-1.32-0.47-1.32L1243.98,889.55z"/>
	<path class="st9" d="M1715.03,752.44c-0.14,1.86-0.28,3.73-0.42,5.59c-9.09,6.84-20.19,12.05-26.79,20.9
		c-9.99,13.39-33.8,15.45-30.71,39.51c-0.26,1.74-0.4,3.5-0.4,5.26c-10.13,0.37-15.44,5.82-15.93,16.33c0,0,0,0,0,0
		c-10.95-0.16-20.19,3.03-27.16,12.67c-7.24,10.03-15.91,13.82-25.9,3.26c1.33-8.32,16.41-9.07,12.23-18.42
		c-8.72-19.48-8-43.11-26.2-58.76c-9.13-7.84-17.78-10.84-28.55-9.18c-13.06,2.02-8.24,13.69-10.19,21.67
		c-1.86-0.15-3.72-0.3-5.57-0.46c1.19-7.96-1.09-15.02-5.18-21.62c-2.42-3.72-5-7.34-7.22-11.18c-3.63-6.29-16.29-10.17-9.06-19.15
		c5.76-7.15,14.17-0.79,21.09,3.71c13.86,9.02,16.59-0.11,17.01-12.13c6.12,2.04,12.73,9.47,18.47,1.37
		c5.39-7.6-2.02-12.73-5.97-18.37c-19.61-28.02-18.46-52.59,2.83-65.03c7.07,23.52,25.79,21.99,42.11,17.68
		c11.66-3.08,21.94-13.3,10.57-28.76c1.92-3.71,3.85-7.43,5.77-11.14c8.73,0.05,17.46,0.11,26.19,0.16
		c9.31,19.64,20.35,37.47,42.32,43.99c7.41,11.03-11.73,29.65,7.96,36.04C1721.51,714.59,1720.97,731.79,1715.03,752.44z
		 M1614.33,686.7c-12.16-2.07-20.76,6.3-29.07,14.31c-3.57,3.45-2.12,8.59,1.64,11.94c12.04,10.73,24.61,21.46,41.03,22.47
		c11.51,0.71,27.37-6.25,22.83-17.58C1645.18,703.94,1636.21,685.48,1614.33,686.7z"/>
	<path class="st8" d="M1715.03,752.44c5.94-20.65,6.48-37.85-18.71-46.03c-19.7-6.39-0.56-25.01-7.96-36.04
		c0.01-14.87-8.2-28.75-4.91-44.01c19.08,0.28,38.14,18.38,57.24,0.06c1.38,9.32,5,17.02-1.2,27.94
		c-12.41,21.86-19.63,44.36-3.05,70.74C1748.23,743.87,1726.19,746.34,1715.03,752.44z"/>
	<path class="st8" d="M1529.44,790.82c1.86,0.15,3.72,0.3,5.58,0.45c2.84,11.21-12.14,26.13-0.52,32.37
		c18.38,9.87,30.43,30.92,53.24,32.32c9.99,10.56,18.65,6.77,25.9-3.26c6.96-9.64,16.21-12.83,27.16-12.67
		c-10.13,35.75-38.31,46.13-71.24,25.54c-11.03-6.89-19.79-14.59-35.24-10.68c-15.66,3.97-20.44-21.37-36.96-21.09
		c0.35-6.95,0.68-13.9,1.02-20.86c1.58-0.42,3.19-0.65,4.83-0.67C1520.71,816.69,1520.86,798.19,1529.44,790.82z"/>
	<path class="st8" d="M1657.11,818.43c-3.09-24.06,20.72-26.11,30.71-39.51c6.6-8.84,17.7-14.06,26.79-20.9
		C1707.51,790.54,1688.41,810.75,1657.11,818.43z"/>
	<path class="st13" d="M1498.36,812.94c-0.34,6.95-0.68,13.91-1.02,20.85c-1.34,0.44-2.68,0.87-4.03,1.29
		c-1.78,1.69-3.57,3.38-5.35,5.08c-1.7,0.21-3.36,0.59-4.98,1.18c-20.36,0.22-8.36-15.91-11.44-24.42
		C1479.61,809.2,1489.25,812.99,1498.36,812.94z"/>
	<path class="st8" d="M1640.79,840.03c0.49-10.51,5.8-15.95,15.93-16.33C1656.08,834.06,1650.84,839.57,1640.79,840.03z"/>
	<path class="st8" d="M1487.97,840.16c1.78-1.69,3.56-3.39,5.35-5.08C1491.53,836.78,1489.75,838.47,1487.97,840.16z"/>
	<path class="st6" d="M1129.19,1317.12c-0.22,1.6-0.48,3.2-0.76,4.79c-15.54,4.11-31.08,8.22-46.61,12.32
		c-1.65,1.59-3.3,3.18-4.95,4.78c0,0-0.24,0.6-0.24,0.6c-26.83,4.06-46.97,27.35-75.27,27.88c-8,0.15-18.22,9.61-23.16-1.1
		c-5.57-12.07,9.53-12.01,14.5-18.22c2.09-2.61,3-6.24,4.45-9.4c1.63-0.14,3.25-0.36,4.86-0.65c20.01-7.64,44.13-5.65,58.38-26.8
		c9.82-11.19,22.79-15.15,36.6-17.2c13.32-2.73,26.88-5.07,32.33-20.91c4.28-0.35,7.91-1.83,9.87-6.18
		c8.3-5.93,18.79-9.34,22.2-20.87c7.71,0.15,9.92-7.77,15.2-11.18c7.58-0.22,12.71-4.14,15.73-11.25c7.1,0.12,15.12-1.35,15.66,9.92
		c-30.07,21.71-55.98,49.41-89.14,66.72c-8.91,4.65-19.41,7.54-24.14,20.09C1107.22,1319.25,1118.2,1318.18,1129.19,1317.12z"/>
	<path class="st5" d="M1060.39,1311.33c-14.26,21.15-38.37,19.16-58.38,26.8C1016.89,1318.45,1035.72,1308.03,1060.39,1311.33z"/>
	<path class="st5" d="M1161.39,1246.17c-3.41,11.53-13.9,14.94-22.2,20.87c2.72-12.86-11.98-25.65,1.38-40.61
		C1146.53,1234.32,1148.95,1247.07,1161.39,1246.17z"/>
	<path class="st5" d="M1129.31,1273.21c-5.45,15.84-19.01,18.18-32.33,20.91C1103.48,1280.01,1113.65,1272.04,1129.31,1273.21z"/>
	<path class="st5" d="M1192.31,1223.74c-3.02,7.1-8.15,11.02-15.73,11.25c-0.45-8.07,3.12-13.58,10.04-16.95
		C1188.51,1219.94,1190.41,1221.84,1192.31,1223.74z"/>
	<path class="st13" d="M1598.4,478.31c23.87,8.74,51.51,5.11,72.31,24.22c6.02,5.53,12.13,10.34,11.98,19.7
		c-0.19,12.1-9.83,10.51-16.87,12.67c-20.24-8.34-38.22-23.36-61.58-22.48c-36.12-4.51-69.94-2.43-93.34,32.72
		c-8.12,12.2-21.15,10.88-33.43,10.63c-20.62-21.95-25.11-21.43-37.54,4.3c0,0-0.16,0.18-0.16,0.19
		c-32.38,6.81-36.82,11.79-31.2,43.94c6.63,37.95,14.95,75.59,23.14,113.23c3.42,15.7,3.72,32.6,14.22,46
		c-0.4,1.8-0.8,3.59-1.21,5.39c-8.06-0.26-11.17-6.8-16.07-12.06c-14.22-15.24-8.23-34.62-11.08-51.9
		c-6.83-41.35-30.84-77.02-33.22-120.34c-1.16-21.11,10.16-36.76,20.83-37.94c30.83-3.43,37.23-21.2,36.94-47.51
		c8.1,0.19,16.22,0.38,24.34,0.56c14.9-5.44,29.98-10.47,42.73-20.68c10.19-8.7,20.26-2.76,30.36,0.25
		C1559.49,502.42,1578.77,478.11,1598.4,478.31z M1511.99,519.57c0.65-6.59-3.45-7.98-7.96-8.2c-8.96-0.43-17.94-0.11-20.6,11.44
		c-1.22,5.27,1.71,9.98,6.65,8.41C1497.93,528.72,1507.88,529.27,1511.99,519.57z"/>
	<path class="st8" d="M1539.55,479.18c-10.1-3.01-20.17-8.94-30.37-0.25c-22.41-16.86,0.16-27.88,6.08-39.22
		c11.72-22.46,10.03-31.42-11.84-37.57c-1.83-16.04-27.63-17.82-21.33-38.69c6.02-0.31,12.45,0.69,16.69-5.48
		c32.32,3.28,63.44-4.57,94.72-10.96c-0.63,11.35,9.2,13.87,15.03,20.1c13.43,14.36,8.95,37.19-8.72,46.39
		c-18.5,9.63-37.98,17.42-55.76,28.26c-6.68,4.07-30.24,12.39-2.02,23.38C1547.65,467.32,1541.26,474.49,1539.55,479.18z"/>
	<path class="st9" d="M1593.52,347.01c-31.28,6.39-62.41,14.24-94.73,10.96c-0.83-5.61-3.07-10.81-8.6-12.07
		c-17.21-3.9-20.28-16.19-18.54-31.74c-1.64-5.43-3.29-10.85-4.93-16.28c23.22-8.08,43.44-2.49,64.81,9.63
		c9.27,5.25,24.86-1.53,38.2-2.91c0.3,14.03-10.7,19.66-14.36,28.81c9.98,19.83,33.88-10.09,42.94,13.36
		C1596.72,346.86,1595.12,346.94,1593.52,347.01z"/>
	<path class="st6" d="M811.13,1446.88c-6.81,2.11-13.61,4.22-20.42,6.34c-1.68-0.09-3.34,0.12-4.95,0.64
		c-3.32,0.27-6.64,0.54-9.95,0.83c-27.33,5.16-53.41,15.73-81.74,17.15c-23.57,1.18-38.91,17.92-51.46,37.63
		c-5.09,7.99-8.51,19.01-19.63,20.34c-8.46,1.01-18.93,3.36-23.82-6.41c-5.54-11.06,6.32-12.4,11.47-17.58
		c60.23-60.78,141.82-65.57,216.3-88.85c15.81-4.94,17.81,5.77,15.7,18.67c-3.1,0.39-6.19,0.8-9.28,1.21
		C821.04,1428.48,815.93,1437.31,811.13,1446.88z"/>
	<path class="st4" d="M959.88,1415.51c-13.09,7.29-25.09,11.83-26.27-11.14c3.49-16.6,20.14-15.19,26.98-12.7
		C971.18,1395.5,958.46,1407.03,959.88,1415.51z"/>
	<path class="st4" d="M891.41,1415.37c-5.4,7.15-12.79,10.12-21.23,10.86C872.14,1411.83,883.14,1416.47,891.41,1415.37z"/>
	<path class="st4" d="M865.15,1426.56c-1.83,1.73-3.66,3.46-5.48,5.19C861.49,1430.02,863.32,1428.29,865.15,1426.56z"/>
	<path d="M1318.72,1097.46c3.49-1.89,6.99-3.78,10.48-5.67c13.32,1.73,19.37,10.23,14.04,22.47c-2.9,6.66-8.05,17.35-19.61,12.88
		C1305.83,1120.25,1319.35,1107.54,1318.72,1097.46z"/>
	<path class="st9" d="M764.4,1119.99c5.87,42.23-27.93,55.07-53.18,68.05c-31.54,16.22-62.73,31.07-87.5,57.76
		c-2.67,2.87-7.82,3.26-11.82,4.8c7.95-36.71,40.55-47.51,66.65-59.38c25.99-11.81,42.1-32.47,62.3-49.57
		C748.98,1134.78,756.57,1127.23,764.4,1119.99z"/>
	<path class="st9" d="M801.2,1108.93c-2.97,7.06-7.93,10.68-15.56,9.67C786.95,1108.63,793.99,1108.63,801.2,1108.93z"/>
	<path class="st9" d="M1466.98,982.36c-0.14,3.62-0.29,7.24-0.44,10.86c-24.63-1.46-50.38,5.61-73.11-10.36
		c-9.34-10.37-21.48-4.09-32.26-5.86c0.14-5.27,0.28-10.55,0.43-15.82c18.72-22.21,37.42,3.54,45.7,8.82
		c17.68,11.27,32.63,4.05,48.38,6.23c3.69,2.01,7.38,4,11.07,6L1466.98,982.36z"/>
	<path class="st8" d="M1466.76,982.25c-3.69-2-7.38-3.99-11.07-6c0.86-3.47,1.75-8.33,5.76-7.51
		C1468.66,970.2,1465.88,977.29,1466.76,982.25z"/>
	<path d="M1355.8,889.16c4.41,2.39,5.29,6.56,5.26,11.2C1356.73,897.93,1355.89,893.74,1355.8,889.16z"/>
	<path d="M1489.49,963.56c-0.53,0.38-1.07,0.76-1.6,1.14c-0.43-0.85-0.86-1.7-1.29-2.54c0.66-0.1,1.43-0.44,1.96-0.22
		C1489.01,962.13,1489.19,962.99,1489.49,963.56z"/>
	<path class="st13" d="M1297.78,275.85c5.17-0.16,10.33-0.31,15.51-0.46c40.59,0.06,81.17,0.11,121.75,0.16
		c3.53,0.01,7.06,0.02,10.59,0.04c0.03,1.85,0.06,3.69,0.09,5.54c-6.64,3.68-13.56,6.24-21.26,5.65
		c-31.16,5.59-62.02,3.4-93.57,1.78c-34-1.75-68.7,9.44-102.94,15.92c-9.28,1.76-17.96,5.93-30.27-0.42
		c26.62-13,46.84-35.88,78.28-23.16C1282.35,283.47,1291.87,283.78,1297.78,275.85z"/>
	<path class="st12" d="M1435.04,275.54c-40.58-0.05-81.16-0.1-121.75-0.16c14.95-29.77,42.06-19.43,64.89-19.47
		c9.62-0.02,20.03,3.47,30.33,3.42C1419.49,260.94,1435.65,253.45,1435.04,275.54z"/>
	<path class="st12" d="M1445.72,281.12c-0.03-1.85-0.06-3.69-0.09-5.54c6.99-8.27,14.88-4.59,25.34-3.22
		C1463.39,284.75,1453.62,279.86,1445.72,281.12z"/>
	<path class="st4" d="M1604.23,512.41c23.36-0.88,41.35,14.14,61.58,22.48c3.57,8.11,8.7,15.89,10.35,24.39
		c1.97,10.18,14.83,22.42-4.54,31c-7.56,3.35,2.45,12.65,0.69,19.44c-11.11,1.56-18.47,9.49-26.28,16.65
		c-8.73-0.05-17.46-0.11-26.19-0.16c0,0,0.03,0.11,0.03,0.11c0.11-8.12,6.19-11.81,10.67-17.23c10.51-12.7,12.84-26.48-2.77-41.39
		c-3.41,12.05-6.96,22.94-19.07,25.68c-2.72-4.48-8.52-9.72-7.7-13.32c8.15-35.39-12.8-23.23-28.69-19.54
		C1576.62,539.96,1604.52,536.27,1604.23,512.41z"/>
	<path class="st5" d="M1646.04,626.38c7.81-7.16,15.17-15.09,26.28-16.65c3.7,5.54,7.41,11.09,11.12,16.63
		c-3.28,15.26,4.93,29.14,4.92,44.01C1666.39,663.85,1655.35,646.02,1646.04,626.38z"/>
	<path class="st5" d="M1107.91,1497.71c-5-3.47-10-6.95-14.99-10.42c23.49-9.59,35.78-37.06,62.18-41.99
		c0.21,4.77,0.42,9.53,0.64,14.3c-0.24,3.53-0.49,7.05-0.74,10.57C1135.18,1471.76,1128.92,1498.32,1107.91,1497.71z"/>
	<path d="M886.24,1081.35c8.76-3.7,17.53-7.4,26.29-11.1c10.69-0.6,10.63-8.55,10.49-16.55c0.04-1.79,0.08-3.57,0.11-5.36
		c7.23,0.26,13.66-1.33,19.5-6.4c14.15-12.29,28.85-19.97,46.95-6.64c3.43,2.53,10.22,1.15,15.19,0.15
		c6.61-1.33,14.16-6.95,17.46,3.65c2.82,9.08,0.18,16.69-6.78,24.47c-16.8,18.79-40.85,22.44-60.85,34.31
		c-5.15,0.03-10.31,0.05-15.46,0.06c-11.31,1.01-27.33-6.55-26.83,15.91c-3.44,0.04-6.88,0.08-10.32,0.11
		c-17.79-2.6-33.13-0.72-37.16,21.88c-3.44,0.02-6.88,0.05-10.32,0.07c-13.82-9.77-13.56,2.72-16.03,10.91
		c-3.42,0.06-6.83,0.12-10.25,0.18c-6.93-0.05-10.52,3.53-10.82,10.7c-1.71,0.02-3.43,0.07-5.14,0.15
		c-12.41-5.61-24.93,12.25-37.32-0.19c-6.53-14.96-3.26-24.37,13.5-27.15c33.28-5.53,58.77-25.37,82.12-48.98
		c3.37-0.04,6.74-0.08,10.11-0.13C882.55,1084.99,884.41,1084.96,886.24,1081.35z"/>
	<path class="st12" d="M1340.05,1009.52c45.17,10.46,91.09,3.57,136.58,6.41c10.15,26.7,9.14,27.54-31.56,26.24
		c15.37-15.95-6.52-13.04-7.87-12.84c-42.82,6.07-86.01-1.42-130.35,3.43c4.86,4.18,8.5,7.32,12.13,10.45
		c-0.04,1.92-0.09,3.85-0.13,5.77c-8.67,0.02-17.35,0.04-26.03,0.05c-8.89-2.1-17.79-4.18-26.68-6.27
		c0.02-3.63,0.03-7.25,0.05-10.88c6.1-8.28,14.46-13.12,24.03-14.84C1306.75,1014.06,1323.43,1011.98,1340.05,1009.52z"/>
	<path class="st14" d="M1318.97,1043.2c-3.64-3.13-7.27-6.26-12.13-10.45c44.35-4.85,87.54,2.64,130.35-3.43
		c1.36-0.19,23.25-3.11,7.87,12.84c-25.45,9.95-52.25,3.94-78.27,7.12c-3.82,0.01-7.63,0.02-11.45,0.04
		c-3.37,0.19-6.73,0.38-10.09,0.56c-1.44-5.82-5.62-7-10.62-6.81C1329.36,1036.79,1324.2,1043.74,1318.97,1043.2z"/>
	<path class="st2" d="M1318.97,1043.2c5.22,0.54,10.39-6.41,15.66-0.13c0.04,3.79,0.08,7.58,0.11,11.38
		c-8.31,7.59-13.67,5.94-15.91-5.48C1318.89,1047.05,1318.93,1045.13,1318.97,1043.2z"/>
	<path class="st2" d="M1266.14,1042.76c8.89,2.09,17.78,4.18,26.68,6.27c-2.02,13.6-9.64,7.51-16.25,4.99
		C1271.28,1052.07,1261.6,1054.51,1266.14,1042.76z"/>
	<path class="st12" d="M1334.75,1054.44c-0.04-3.79-0.08-7.59-0.11-11.38c5-0.19,9.19,0.99,10.62,6.81
		C1341.75,1051.41,1338.25,1052.93,1334.75,1054.44z"/>
	<path class="st12" d="M1355.35,1049.32c3.82-0.01,7.63-0.03,11.45-0.04C1363,1053.74,1359.18,1053.73,1355.35,1049.32z"/>
	<path class="st12" d="M1487.92,100.17c13.86-0.34,26.73,2.64,43.06,14.55c-21.01,4.11-33.05-2.14-43.45-14.15L1487.92,100.17z"/>
	<path class="st12" d="M1487.52,100.58c-0.72-0.48-1.45-0.96-2.17-1.44c0.86,0.35,1.71,0.69,2.57,1.03
		C1487.92,100.17,1487.52,100.58,1487.52,100.58z"/>
	<path class="st12" d="M1165.75,965.98c-0.38,0.76-0.77,1.51-1.15,2.27c0.44-0.7,0.88-1.39,1.32-2.09
		C1165.92,966.17,1165.75,965.98,1165.75,965.98z"/>
	<path class="st4" d="M864.83,1135.85c4.03-22.6,19.37-24.48,37.16-21.88C892.35,1126.3,875.16,1124.8,864.83,1135.85z"/>
	<path class="st4" d="M912.3,1113.85c-0.5-22.46,15.52-14.91,26.83-15.91C935.34,1112.61,922.36,1110.58,912.3,1113.85z"/>
	<path class="st4" d="M838.47,1146.83c2.47-8.19,2.22-20.69,16.03-10.91C851.52,1143.29,846.25,1147.05,838.47,1146.83z"/>
	<path class="st4" d="M817.39,1157.71c0.3-7.17,3.9-10.75,10.82-10.7C827.88,1154.14,824.36,1157.82,817.39,1157.71z"/>
	<path class="st13" d="M1362.07,844.76c5.29-8.73,5.32-17.4-0.28-26.01c9.55,1.93,13.88,10.5,19.65,17.04
		c12.1,13.72,25.62,18.04,41.88,8.31c-5.98,32.12-26.79,20.47-45,16.42C1378.38,849.18,1373,843.88,1362.07,844.76z"/>
	<path class="st2" d="M1340.05,1009.52c-16.62,2.46-33.3,4.54-49.83,7.52c-9.57,1.72-17.93,6.56-24.03,14.84
		c-1.89-0.12-3.78-0.23-5.67-0.35c0.11-9.02,0.22-18.04,0.32-27.07c0,0,0.01-0.01,0.01-0.01c1.83,0,3.65-0.01,5.48-0.01
		c2.45,4.85,5.5,11.56,11.39,6.5c15.23-13.06,34.61-11.32,51.72-17.43C1328.57,1001.99,1336.48,1004.21,1340.05,1009.52z"/>
	<path class="st8" d="M1260.84,1004.47c-0.11,9.02-0.21,18.05-0.32,27.07c-6.93-0.11-14.56,0.65-15.04-9.81
		C1244.97,1010.75,1250.62,1005.33,1260.84,1004.47z"/>
	<path class="st12" d="M1329.44,993.51c-17.11,6.11-36.49,4.37-51.72,17.43c-5.9,5.06-8.94-1.65-11.39-6.5
		c16.28-23.55,36.82-31.94,64.44-22.48c9.57,3.27,20.96,1.34,30.41-4.94c10.78,1.77,22.92-4.51,32.26,5.86
		c-8.65,15.04-22.46,11.72-34.48,8.44C1348.28,988.4,1338.93,987.29,1329.44,993.51z"/>
	<path class="st14" d="M1442.13,499.04c0.27,26.32-6.13,44.09-36.96,47.52c-10.68,1.19-21.99,16.84-20.83,37.94
		c2.38,43.32,26.39,78.99,33.22,120.34c2.85,17.29-3.14,36.66,11.08,51.9c4.91,5.26,8.01,11.8,16.08,12.06
		c9.14,20.32,8.49,40.57-0.4,60.76c-1.35,0.23-2.39-0.26-3.13-1.45c1.87-19.47-1.72-36.99-16.75-50.4
		c-26.67-31.25-22.93-72.46-33.13-109.1c-3.45-12.37-8.34-23.29-17.78-32.52c-13.5-13.2-24.71-13.41-33.34,4.04
		c-9.35,18.91-23.36,28.05-46.67,26.74c13-15.68,6.09-31.91,3.91-48.06c0.36-2.68,0.72-5.34,1.07-8.01
		c17.68,9.99,32.49,11.62,38.74-13.72c0.52-2.12,4.62-3.09,5.68-5.31c10.38-21.73,38.43-33.23,34.14-63.41
		c10.81-0.83,16.71-12.78,28.55-12.45c30.2,0.82,19.67-24.75,24.49-41.09c7.29-24.73-13.4-11.08-20-16.19
		c-13.06-10.12-29.72,1.96-42.91-3.33c-21.28-8.53-28.16,2.41-33.58,19.96c-3.63,11.75-6.08,30.03-21.42,25.7
		c-23.2-6.55-45.57,5.13-67.96-1.43c2.92-14.72,14.21-9.76,23.13-10.82c6.89-0.82,15.63-1.99,17-9.76
		c1.68-9.53-7.4-10.69-14.12-12.08c-6.51-1.35-11.23-4.65-13.95-10.96c-4.15-22.46,4.8-28.84,25.95-26.21
		c18.76,2.33,38,0.49,57.94-3.74c-29.08-11.54-58.16-23.08-87.23-34.62c26.96,0.56,54.75-28.46,80.18,2.86
		c8.07,9.94,18.4,6.81,18.25-3.82c-0.17-11.78,13.32-8.41,12.61-18.43c-22.69-9.9-46.25-15.03-71.02-14.39
		c-7,0.18-14.22,0.47-21-0.99c-10.64-2.29-22.33-7.25-22.34-19.65c-0.01-11.14,12.95-8.66,20.39-11.68
		c5.65-2.3,11.55-3.94,17.34-5.87c42.24-3.82,79.06,15.25,116.68,30.37c9.66,3.88,23.99,2.68,25.46,19.01
		c-5.73,0.52-12.12-0.95-15.89,5.6c-5.18,0.12-10.37,0.24-15.55,0.37c-2.99-3.9-7.29-6.21-9.36-0.52
		c-2.86,7.87,2.98,10.4,9.38,11.31c-0.06,9.03,7.02,11.05,12.86,14.74c24.11,15.19,41.79,36.75,55.79,61.83
		C1463.56,478,1441.14,480.13,1442.13,499.04z"/>
	<path class="st11" d="M1424.44,777.71c15.04,13.42,18.63,30.93,16.75,50.4c-5.95,5.33-11.91,10.66-17.87,15.99
		c-16.27,9.73-29.78,5.41-41.88-8.31c-5.77-6.54-10.1-15.12-19.65-17.04c-8.39-10.29-17.3-6.87-26.3-1.08
		c-8.2,3.48-18.07,8.75-20.92-5.02c-2.83-13.64,4.92-23.23,15.28-31.98c25.57-21.62,51.59-23.7,79.64-6.11
		C1413.83,777.28,1418.8,780.08,1424.44,777.71z"/>
	<path class="st6" d="M1444.33,829.57c8.89-20.19,9.54-40.44,0.4-60.76c0.39-1.8,0.79-3.6,1.19-5.39
		c5.33,5.19,10.65,10.37,15.98,15.56c10.32,3.97,20.65,7.94,30.97,11.91c2.84,7.44,10.8,12.21,10.31,21.38
		c-1.63,0.03-3.24,0.25-4.82,0.67c-9.11,0.05-18.76-3.74-26.81,3.98C1459.66,814.62,1455.06,829.2,1444.33,829.57z"/>
	<path class="st2" d="M1276.7,122.48c-2.47,4.39-6.42,5.25-10.87,4.87C1268.43,123.28,1272.36,122.4,1276.7,122.48z"/>
	<path class="st4" d="M923.02,1053.69c0.14,8,0.2,15.95-10.49,16.55C912.44,1062.28,916.01,1056.81,923.02,1053.69z"/>
	<path class="st4" d="M886.24,1081.35c-1.83,3.61-3.69,3.65-5.58,0.06C882.52,1081.39,884.38,1081.37,886.24,1081.35z"/>
	<path class="st14" d="M854.38,741.37c-2.54,4.28-0.13,11.99-6.06,13.28c-6.68,1.45-5.26-4.69-5.13-8.94
		c0.36-11.54,5.96-7.46,11.33-4.13C854.53,741.57,854.38,741.37,854.38,741.37z"/>
	<path class="st14" d="M1070.23,719.34c-2.02,6.75-4.05,13.51-6.06,20.27c0.01,0.01-0.36-0.21-0.35-0.2
		C1059.02,730.34,1057.85,722.51,1070.23,719.34z"/>
	<path class="st5" d="M811.13,1446.88c4.8-9.57,9.91-18.4,22.22-10.04C827.8,1444.6,820.5,1448.2,811.13,1446.88z"/>
	<path class="st5" d="M1076.86,1339.02c1.65-1.59,3.3-3.19,4.95-4.78C1080.16,1335.83,1078.51,1337.42,1076.86,1339.02z"/>
	<path class="st5" d="M785.76,1453.86c1.61-0.52,3.27-0.74,4.95-0.64C789.54,1457.34,787.91,1457.7,785.76,1453.86z"/>
	<path class="st13" d="M1429.49,368.75c-1.46-16.33-15.79-15.13-25.45-19.01c-37.63-15.12-74.44-34.19-116.68-30.37
		c0.27-5.35-0.15-14.35,5.1-13.84c28.14,2.71,54.87-11.71,84.47-1.75c29.97,10.09,62.57,12.53,94.74,10.38
		c-1.74,15.55,1.33,27.84,18.53,31.74c5.53,1.25,7.77,6.46,8.6,12.07c-4.24,6.17-10.66,5.16-16.68,5.48
		C1464.38,363.19,1446.65,362.91,1429.49,368.75z"/>
	<path class="st14" d="M1049.72,610.09c9.47,14.95,19.18,27.84,38.53,31.82c15.67,3.22,19.23,20.02,25.46,34.59
		c13.62,31.86-1.43,27.39-21.12,21.54c-4.87-1.45-10.42-0.41-15.65-0.51c-0.28-7.22-2.31-14.95-0.51-21.55
		c4.13-15.1,4-25.35-13.96-30.19c-10.51-2.83-13.67-15.6-18.47-25.18C1044.7,616.38,1045.34,612.14,1049.72,610.09z"/>
	<path class="st3" d="M1244.23,499.54c22.39,6.56,44.75-5.12,67.96,1.43c15.34,4.33,17.78-13.95,21.42-25.7
		c5.43-17.55,12.31-28.49,33.58-19.96c13.19,5.29,29.85-6.79,42.91,3.33c6.6,5.11,27.29-8.53,20,16.19
		c-4.82,16.34,5.71,41.91-24.49,41.09c-11.85-0.32-17.74,11.63-28.55,12.45c-18.68,11.19-30.08,30.77-45.75,45.44
		c-10.87,10.17-20.91,19.62-34.13,25.72c-3.06-0.58-6.12-1.17-9.19-1.75c-0.65-4.65-2.12-8.47-7.67-8.18
		c-4.59,0.45-9.17,0.91-13.76,1.34c7.31-13.05,31.77-19.05,15.85-41.62c14.67,2,29.66,5.46,41.8-7.35
		c4.39-4.63,19.63-1.88,11.3-15.14c-5.07-8.08-4.66-20.84-23.19-17.77c-21.71,3.6-46.38,9.93-67.56-6.17
		C1243.4,501.98,1243.22,500.86,1244.23,499.54z M1381.62,488.56c-4.03-7.45-8.74-15.14-18.69-15.29
		c-13.97-0.21-16.68,10.75-17.51,22.03c-0.53,7.12-0.6,16.44,9.83,14.64C1366.55,508,1376.44,502.22,1381.62,488.56z"/>
	<path class="st11" d="M1244.78,502.89c21.19,16.11,45.85,9.78,67.56,6.17c18.53-3.07,18.12,9.69,23.19,17.77
		c8.32,13.26-6.92,10.51-11.3,15.14c-12.14,12.8-27.13,9.35-41.81,7.35c-2.18,0.23-4.35,0.46-6.52,0.69
		c-1.11-1.88-2.23-3.77-3.35-5.65c3.13-3.63,1.3-4.71-2.32-4.86c-24.91-17.16-52.7-17.91-81.07-15.34
		c-16.66-1.21-34.91-7.74-44.65,14.33l0.01,0.01c-1.82,1.5-3.63,3.01-5.45,4.51c0,0,0.18,1.3,0.18,1.3
		c-4.43-0.4-8.74-0.56-10.43,5.08l-0.18,0.16c-5.63,1.5-8.57,6.04-11.31,10.81c-9.77-8.7-9.91-20.72-10.44-32.6
		c14.66-16.68,33.53-24.12,54.56-27.03c6.53-0.9,15.02,0.41,14.2-10.96c5.31,0.25,10.63,0.5,15.95,0.75
		c2.17,0.97,4.35,1.94,6.52,2.91c5.61,2.31,11.21,4.61,16.8,6.92c1.29,3.23,3.37,3.57,6.02,1.7
		C1228.86,502.32,1236.82,502.6,1244.78,502.89z"/>
	<path class="st3" d="M1220.91,502.03c-2.65,1.87-4.72,1.53-6.02-1.7C1216.91,500.9,1218.91,501.47,1220.91,502.03z"/>
	<path class="st14" d="M1198.09,493.41c-2.17-0.97-4.35-1.94-6.52-2.91C1193.74,491.48,1195.92,492.45,1198.09,493.41z"/>
	<path class="st3" d="M1106.86,527.75c0.54,11.88,0.67,23.9,10.45,32.6c0.52,1.73,0.65,3.49,0.4,5.28
		c-7.31,4.82-11.51,11.9-9.19,20.56c4.36,16.32-4.38,18.66-16.46,18.45l-0.31-0.32c-0.39-17.5,7.11-34.35-2.9-52.84
		C1082.4,539.56,1093.98,530.31,1106.86,527.75z"/>
	<path class="st14" d="M1117.71,565.63c0.25-1.79,0.12-3.55-0.4-5.28c2.74-4.76,5.67-9.31,11.31-10.81
		c1.86,10.9,11.32,16.39,16.47,24.94c0.99,8.48,1.97,16.97,2.96,25.45c-8.06-0.36-16.11-0.73-24.16-1.1
		C1130,586.13,1122.69,576.11,1117.71,565.63z"/>
	<path class="st3" d="M1092.06,604.63c-0.8,0.69-1.59,1.37-2.39,2.06c0.69-0.79,1.39-1.59,2.08-2.38
		C1091.75,604.31,1092.06,604.63,1092.06,604.63z"/>
	<path class="st10" d="M1297.19,599.52c13.23-6.1,23.26-15.55,34.13-25.72c15.67-14.66,27.07-34.25,45.75-45.44
		c4.29,30.19-23.77,41.69-34.14,63.42c-1.06,2.21-5.15,3.18-5.68,5.31c-6.25,25.34-21.07,23.71-38.74,13.72
		C1298.06,607.05,1297.63,603.29,1297.19,599.52z"/>
	<path class="st10" d="M1275.88,550c2.18-0.23,4.35-0.45,6.53-0.69c15.93,22.57-8.53,28.57-15.84,41.62
		c-1.54,8.97-8.92,11.23-15.41,14.52c-0.29-9.5-0.58-18.99-0.87-28.49C1251.95,560.95,1280.68,572.63,1275.88,550z"/>
	<path class="st3" d="M1148.05,599.93c-0.99-8.48-1.97-16.97-2.96-25.45c1.68-1.08,3.35-2.15,5.03-3.23
		c5.44-0.1,10.44,0.71,10.79,7.87c0.87,17.87,12.67,27.74,24.98,37.3c-0.07,1.41,0.11,2.78,0.54,4.12
		C1169.49,621.97,1156.06,616.39,1148.05,599.93z"/>
	<path class="st3" d="M1250.28,576.96c0.29,9.5,0.58,18.99,0.87,28.49c-8.23,6.38-17.15,10.88-27.66,11.08
		c0.97-5.92,9.82-11.77,0.13-17.76c3.72-8.87,7.44-17.75,11.16-26.63C1239.95,573.75,1245.12,575.36,1250.28,576.96z"/>
	<path class="st14" d="M1223.63,598.77c9.69,6,0.84,11.84-0.13,17.76c-11.78,7.12-24.17,8.11-37.08,4.02
		c-0.43-1.34-0.61-2.71-0.53-4.12c20.91-3.19,0.64-19.24,7.75-26.75c8.25-3.38,9.94,2.03,10.74,8.64
		C1210.49,612.2,1217.18,600.12,1223.63,598.77z"/>
	<path class="st10" d="M1280.33,589.59c5.55-0.29,7.02,3.53,7.67,8.18C1282.56,597.96,1281.48,593.74,1280.33,589.59z"/>
	<path class="st8" d="M1604.23,512.41c0.29,23.85-27.61,27.55-31.91,48.12c-0.19,1.81-0.31,3.62-0.36,5.44c-4.86,0-9.73,0-14.59,0
		c-12.63,1.73-24.63,4.95-27.36,20.37c-2.36,13.33,5.1,22.09,14.58,29.7c6.8,5.45,14.78,4.76,22.46,5.88
		c17.59,1.66,35.74-3.8,52.83,4.42c0,0-0.03-0.11-0.03-0.11c-1.92,3.71-3.85,7.42-5.77,11.14c-17.56,3.69-35.12,7.38-52.68,11.08
		c-21.29,12.44-22.44,37.01-2.83,65.03c3.95,5.64,11.36,10.77,5.97,18.37c-5.75,8.1-12.35,0.67-18.48-1.37
		c0.16-9.55-0.39-18.93-5.62-27.28c-3.34-11.3-12.75-19.1-16.98-29.28c-7.28-17.51-26.78-30.81-22.19-51.89
		c4.34-19.92-4.93-30.49-18.03-39.5c-6.42-4.42-10.98-8.48-11.39-16.55c8.21,0.35,9.01-3.67,5.59-10.19
		c12.28,0.24,25.31,1.56,33.42-10.64C1534.29,509.98,1568.11,507.91,1604.23,512.41z"/>
	<path class="st5" d="M1540.45,703.18c5.23,8.35,5.78,17.74,5.62,27.28c-0.41,12.02-3.14,21.14-17.01,12.13
		c-6.92-4.5-15.33-10.86-21.09-3.71c-7.23,8.98,5.43,12.86,9.06,19.15c2.22,3.84,4.8,7.46,7.23,11.17
		c-13.19,1.28-21.76-7.1-27.89-16.96c-12.47-20.05-23.48-17.3-35,0.3c-28.24-61.55-38.62-125.26-21.61-192.29
		c0,0,0.16-0.18,0.17-0.18c1.82,0.22,3.64,0.44,5.46,0.66c-0.15,8.5,1.25,16.21,8.99,21.18c7.26,4.66,7.51,11.24,4.77,18.89
		c-9.76,27.24,2.01,78.75,21.86,93.95c3.08,2.35,9.24,3.91,12.2,2.3C1510.63,687.56,1524.98,699.3,1540.45,703.18z"/>
	<path class="st13" d="M1587.73,855.96c-22.81-1.41-34.86-22.45-53.24-32.32c-11.61-6.24,3.37-21.16,0.52-32.37
		c1.95-7.97-2.87-19.64,10.19-21.66c10.76-1.66,19.42,1.33,28.55,9.18c18.2,15.65,17.48,39.27,26.2,58.76
		C1604.15,846.89,1589.06,847.64,1587.73,855.96z"/>
	<path class="st4" d="M1461.37,752.54c11.52-17.6,22.53-20.36,35-0.3c6.14,9.87,14.71,18.24,27.89,16.96
		c4.09,6.6,6.37,13.66,5.18,21.62c-8.59,7.37-8.73,25.87-26.26,21.45c0.49-9.17-7.48-13.94-10.31-21.38
		c0.63-23.3-18.11-18.35-30.56-22.59C1462,763.04,1461.69,757.79,1461.37,752.54z"/>
	<path class="st13" d="M1614.33,686.7c21.88-1.23,30.85,17.24,36.43,31.14c4.54,11.33-11.32,18.28-22.83,17.58
		c-16.41-1.01-28.99-11.74-41.03-22.47c-3.76-3.35-5.22-8.49-1.64-11.94C1593.57,693.01,1602.17,684.64,1614.33,686.7z"/>
	<path class="st13" d="M1561.41,648.43c17.56-3.69,35.12-7.38,52.68-11.08c11.37,15.46,1.09,25.68-10.57,28.76
		C1587.2,670.42,1568.47,671.95,1561.41,648.43z"/>
	<path class="st9" d="M1461.37,752.54c0.32,5.25,0.63,10.51,0.94,15.76c-0.14,3.56-0.28,7.12-0.41,10.67
		c-5.33-5.19-10.66-10.37-15.98-15.56c-10.49-13.4-10.8-30.3-14.22-46c-8.19-37.63-16.51-75.28-23.14-113.23
		c-5.62-32.15-1.18-37.13,31.2-43.94C1422.76,627.27,1433.13,690.99,1461.37,752.54z"/>
	<path class="st9" d="M1503.43,402.14c21.86,6.15,23.56,15.11,11.84,37.57c-5.92,11.34-28.49,22.36-6.08,39.22
		c-12.75,10.22-27.83,15.25-42.73,20.69c-1.69-10.89,5.7-15.76,12.84-20.75c9.68-6.77,2.56-11.25-1.99-16.11
		c10.72-14.8,1.25-26.57-5.4-38.75c7.65-0.23,12.98-4.05,16.15-11.22c1.79-1.8,3.59-3.6,5.38-5.4
		C1496.77,405.64,1500.1,403.89,1503.43,402.14z"/>
	<path class="st8" d="M1477.31,462.77c4.55,4.85,11.67,9.34,1.99,16.1c-7.15,4.99-14.53,9.86-12.84,20.75
		c-8.12-0.19-16.24-0.38-24.34-0.57c-0.97-18.92,21.44-21.05,24.61-36.98C1470.26,462.3,1473.78,462.54,1477.31,462.77z"/>
	<path class="st9" d="M1445.39,560.73c-1.82-0.22-3.64-0.44-5.46-0.66c12.43-25.74,16.92-26.25,37.54-4.31
		c3.41,6.53,2.62,10.55-5.59,10.2C1463.69,560.7,1454.74,559.62,1445.39,560.73z"/>
	<path class="st14" d="M1511.99,519.57c-4.1,9.7-14.06,9.15-21.91,11.65c-4.94,1.57-7.87-3.14-6.65-8.41
		c2.66-11.55,11.64-11.87,20.6-11.44C1508.54,511.59,1512.64,512.97,1511.99,519.57z"/>
	<path class="st12" d="M1503.43,402.14c-3.33,1.75-6.66,3.51-9.99,5.26c-3.9-6.75-10.36-5.51-16.37-5.68
		c-7.33-0.68-17.49,3.01-20.5-6.32c-7.56-23.41-26.27-19.4-42.97-21.04c3.77-6.55,10.15-5.07,15.89-5.6
		c17.16-5.84,34.89-5.56,52.62-5.31C1475.8,384.31,1501.6,386.1,1503.43,402.14z"/>
	<path class="st9" d="M1619.88,626.33c-17.08-8.23-35.23-2.76-52.83-4.43c0-15.9-19.3-26.82-10.73-44.92
		c5.25,1.88,10.51,3.75,15.76,5.63c11.08,7.73,15.93,38.26,36.62,10.77c12.11-2.74,15.66-13.63,19.07-25.68
		c15.62,14.91,13.28,28.69,2.77,41.39C1626.07,614.52,1619.99,618.2,1619.88,626.33z"/>
	<path d="M1608.71,593.38c-20.69,27.49-25.54-3.04-36.62-10.77c-0.04-5.55-0.09-11.1-0.13-16.64c0.05-1.82,0.17-3.63,0.36-5.43
		c15.9-3.69,36.84-15.86,28.69,19.53C1600.18,583.66,1605.98,588.9,1608.71,593.38z"/>
	<path class="st13" d="M1413.6,374.35c16.7,1.64,35.4-2.36,42.97,21.04c3.01,9.33,13.17,5.64,20.5,6.32
		c0.11,1.75-0.04,3.47-0.45,5.17c-11.12,0.5-21.27,2.95-29.38,15.66c9.82,0.59,17.24,1.03,24.67,1.48
		c6.65,12.19,16.13,23.95,5.4,38.75c-3.53-0.22-7.06-0.46-10.58-0.69c-13.99-25.09-31.68-46.65-55.79-61.83
		c-5.85-3.68-12.92-5.71-12.86-14.74c-0.01-3.6-0.02-7.19-0.02-10.79C1403.24,374.59,1408.42,374.47,1413.6,374.35z"/>
	<path class="st12" d="M1398.05,374.71c0.01,3.6,0.01,7.19,0.02,10.79c-6.4-0.9-12.24-3.44-9.38-11.3
		C1390.76,368.5,1395.06,370.82,1398.05,374.71z"/>
	<path class="st5" d="M1461.9,778.97c0.13-3.56,0.27-7.11,0.41-10.67c12.45,4.23,31.2-0.72,30.57,22.58
		C1482.55,786.91,1472.23,782.94,1461.9,778.97z"/>
	<path class="st11" d="M1381.62,488.56c-5.18,13.66-15.08,19.44-26.36,21.38c-10.43,1.8-10.36-7.53-9.83-14.64
		c0.83-11.28,3.54-22.23,17.51-22.03C1372.89,473.42,1377.6,481.12,1381.62,488.56z"/>
	<path class="st12" d="M1250.28,576.96c-5.16-1.61-10.33-3.21-15.49-4.82c-14.06-25.85-20.14-27.54-42.66-11.84
		c-3.5,1.93-7.01,3.87-10.51,5.8c-20.83-4.42-0.51-9.99-0.14-15.94c-15.23-0.02-25.78,6.39-31.36,21.09
		c-1.68,1.08-3.35,2.15-5.03,3.23c-5.15-8.56-14.61-14.05-16.47-24.94c0,0,0.18-0.16,0.18-0.16c4.37,0.27,8.35-0.3,10.43-5.08
		c0,0-0.18-1.3-0.18-1.29c1.82-1.5,3.63-3.01,5.45-4.51c0,0-0.01-0.01-0.01-0.01c14.88-4.78,29.77-9.55,44.65-14.33
		c28.37-2.57,56.16-1.82,81.07,15.34c0.78,1.62,1.55,3.24,2.32,4.86c1.12,1.88,2.24,3.77,3.35,5.65
		C1280.68,572.63,1251.95,560.95,1250.28,576.96z"/>
	<path class="st3" d="M1189.14,524.16c-14.88,4.78-29.76,9.55-44.65,14.33C1154.22,516.42,1172.47,522.95,1189.14,524.16z"/>
	<path class="st14" d="M1139.23,544.3c-2.08,4.78-6.07,5.35-10.43,5.08C1130.49,543.73,1134.8,543.89,1139.23,544.3z"/>
	<path class="st3" d="M1272.54,544.35c-0.77-1.62-1.55-3.24-2.32-4.86C1273.84,539.64,1275.66,540.72,1272.54,544.35z"/>
	<path class="st3" d="M1144.5,538.49c-1.82,1.5-3.63,3.01-5.45,4.51C1140.86,541.5,1142.68,539.99,1144.5,538.49z"/>
	<path class="st2" d="M1150.11,571.25c5.58-14.69,16.13-21.11,31.36-21.09c-0.37,5.95-20.68,11.52,0.14,15.94
		c0.97,9.53,4.61,17.59,12.02,23.58c-7.11,7.5,13.16,23.55-7.75,26.74c-12.31-9.56-24.11-19.44-24.98-37.3
		C1160.55,571.97,1155.56,571.16,1150.11,571.25z"/>
	<path class="st2" d="M1192.13,560.31c22.53-15.7,28.6-14.01,42.66,11.84c-3.72,8.88-7.44,17.76-11.16,26.63
		c-6.45,1.35-13.14,13.42-19.26-0.45C1222.55,579.48,1219.75,570.76,1192.13,560.31z"/>
	<path class="st0" d="M1192.13,560.31c27.62,10.45,30.43,19.17,12.24,38.02c-0.79-6.61-2.48-12.02-10.73-8.64
		c-7.41-5.98-11.04-14.05-12.02-23.58C1185.12,564.17,1188.62,562.24,1192.13,560.31z"/>
	<path class="st4" d="M1445.39,560.73c9.35-1.1,18.3-0.03,26.49,5.24c0.41,8.07,4.96,12.13,11.38,16.55
		c13.1,9.01,22.37,19.58,18.03,39.5c-4.59,21.08,14.91,34.38,22.19,51.89c4.23,10.17,13.65,17.98,16.98,29.28
		c-15.47-3.88-29.83-15.61-47.25-6.13c-2.95,1.61-9.12,0.05-12.2-2.3c-19.85-15.19-31.62-66.7-21.86-93.95
		c2.74-7.65,2.5-14.23-4.77-18.89C1446.64,576.94,1445.24,569.22,1445.39,560.73z"/>
	<path class="st14" d="M1556.32,576.98c-8.57,18.1,10.73,29.02,10.73,44.92c-7.68-1.11-15.66-0.42-22.46-5.87
		c-9.48-7.6-16.94-16.37-14.58-29.7c2.74-15.42,14.73-18.63,27.36-20.37C1557.01,569.64,1556.67,573.31,1556.32,576.98z"/>
	<path class="st4" d="M1556.32,576.98c0.34-3.67,0.69-7.34,1.04-11.01c4.87,0,9.74,0,14.6,0c0.04,5.55,0.08,11.09,0.13,16.64
		C1566.83,580.73,1561.58,578.86,1556.32,576.98z"/>
	<path class="st12" d="M1471.91,424.01c-7.42-0.44-14.84-0.89-24.67-1.48c8.11-12.71,18.26-15.15,29.39-15.65
		c2.45,4.82,6.69,5.89,11.43,5.91C1484.89,419.96,1479.56,423.78,1471.91,424.01z"/>
	<path class="st8" d="M1488.06,412.79c-4.74-0.03-8.98-1.09-11.43-5.91c0.4-1.7,0.55-3.43,0.44-5.17
		c6.01,0.18,12.47-1.06,16.37,5.68C1491.65,409.19,1489.86,410.99,1488.06,412.79z"/>
</g>
</svg>
