<?xml version="1.0" encoding="utf-8"?>
<!-- Generator: Adobe Illustrator 23.0.1, SVG Export Plug-In . SVG Version: 6.00 Build 0)  -->
<svg version="1.1" id="Livello_1" xmlns="http://www.w3.org/2000/svg" xmlns:xlink="http://www.w3.org/1999/xlink" x="0px" y="0px"
	 width="980.06px" height="551.93px" viewBox="0 0 980.06 551.93" style="enable-background:new 0 0 980.06 551.93;"
	 xml:space="preserve">
<style type="text/css">
	.st0{fill:#220701;}
	.st1{fill:#FEFEFE;}
	.st2{fill:#3C1602;}
	.st3{fill:#F59239;}
	.st4{fill:#021F00;}
	.st5{fill:#002E19;}
	.st6{fill:#066A37;}
	.st7{fill:#0EB26A;}
	.st8{fill:#262A04;}
	.st9{fill:#23491B;}
	.st10{fill:#BC6523;}
	.st11{fill:#F5C562;}
	.st12{fill:#5B300A;}
	.st13{fill:#59561E;}
	.st14{fill:#8E6D2B;}
</style>
<g>
	<path d="M667.1,0.19c101.65,0,203.3,0.08,304.95-0.19c6.7-0.02,8.02,1.32,8.01,8.01c-0.23,180.5-0.19,360.99-0.19,541.49
		c-181.33,0-362.67,0-544-0.02c-4.22,0-8.45-0.24-12.67-0.37c10.75-8.36,16.96-20.37,24.85-31.02c2.19-1.76,2.53-3.8,0.92-6.14
		c-0.08-0.63-0.24-1.24-0.49-1.82c-0.61-1.29-1.23-2.57-1.84-3.86l-0.13-0.21c-0.56-0.63-1.11-1.25-1.67-1.88l-0.25-0.23
		c-0.97-2.49-1.95-4.98-2.92-7.47c3.04-3.63,6.08-7.27,9.13-10.9c0.99-0.57,2.53-0.87,1.26-2.55c0.28-1.14,0.55-2.29,0.83-3.43
		c5.16-8.29,0.46-14.19-5.13-19.51c-2.21-2.1-5.88-2.73-6-6.69c2.74-1.13,4.8-3.07,6.45-5.48c9.57-5.51,5.71-12.36,1.92-19.21
		c-1.09-5.43-4.18-8.93-9.72-10.07c-3.97-5.26-9.56-4.28-14.76-3.29c-3.77,0.72-3,4.19-2.6,7.03c-8.04,5.17-15.34,9.83-17.68,21.09
		c-1.4,6.74-7.71,14.52-17.09,15.57c-14.08,1.58-25.94,9.07-36.72,16.76c-18.3,13.04-39.22,13.72-59.78,16.94
		c-4.63,0.72-7.95-2.73-4.98-6.2c4.14-4.82,8.59-10.75,16.42-10.43c8.34,0.34,18.65-6.28,21.01-13.57c1.48-4.58-1.74-5.36-4.78-4.72
		c-11.64,2.47-23.74,3.76-33.61,11.47c-11.33,1.48-21.59,7.41-33.16,7.89c-1.98-2.49-3.94-2.49-5.88,0.05
		c-4.52,0.04-9.04,0.08-13.57,0.12c-4.71,0.87-9.32,2.09-14.24,1.87c-10.63-0.48-11.73-1.68-9.42-11.88
		c1.57-0.83,1.92-2.29,1.99-3.89c4.75-3.07,8.66-6.98,11.72-11.74l0.01-0.03c2.56,0.05,3.86-1.25,4.01-3.77
		c2.57-1.34,5.14-2.68,7.71-4.02c8.68-0.55,17.49,1.43,26.06-1.29c14.95-4.74,27.32-14.18,40.47-22.19c3.4,0.3,5.07-2.76,7.71-3.95
		c1.69,0.09,3.17-0.26,4.02-1.93c9.53-2.51,15.44-11.79,25.38-13.52c1.41,2.01,2.72,1.86,3.94-0.19c11.21-0.59,21.5-4.18,31.19-9.68
		c3.99-2.5,9.34-2.96,11.75-7.84l0.02,0.01c2.68-1.05,3.99-3,3.86-5.9c0.07-1.9,0.13-3.79,0.2-5.69c4.08-5.03,1.12-8.58-2.95-11.09
		c-6.87-4.25-14.06-8.07-22.68-6.46c-9.62,0.68-19.28,1-28.83,2.23c-3.01,0.39-7.48,0.45-8.39,5.16c-1.16,0.18-2.32,0.37-3.48,0.55
		c-9.73,2.58-20.2,3.4-27.57,11.59c-1.26,0.25-2.51,0.5-3.77,0.75c-5.5-4.84-8.87-1.66-11.82,3.13l-0.04,0
		c-1.68-0.06-3.14,0.29-3.83,2.05c0.04,0.65,0.08,1.29,0.11,1.94c-2.66,1.35-5.32,2.7-7.98,4.05c-8.07-5.8,0.64-12.28-0.74-18.36
		c2.51-3.49,2.43-7.46-1.63-8.63c-5.19-1.48-8.13,2.23-9.16,7.25l-0.13,0.14c-1.72,0.51-2.23,1.82-2.28,3.44l-0.04,0.08
		c-0.55,0.7-1.09,1.39-1.64,2.09c-9.36,4.69-19.76,8.14-23.56,19.54c-3.38,6.82-9.99,11.73-11.61,19.59
		c-0.21,0.54-0.32,1.09-0.34,1.67c0,0-0.05,0.1-0.04,0.1c-6.86,4.57-9.76,11.67-12.18,19.08c-5.26,2.34-10,5.37-13.47,10.09
		c-3.36,0.75-3.99,3.79-5.27,6.28c-5.19,4.19-3.7,10.06-3.91,15.5c-2.87,4.33-3.74,11.76,0.22,12.28c9.46,1.25,6.39,7.29,6.16,11.74
		c-0.31,6.11,1.34,9.48,7.81,9.18c5.08-0.23,7.59,1.32,9.77,6.76c3.93,9.83,14.66,11.74,20.89,4.98c0.68-0.01,1.37-0.02,2.05-0.03
		c0.85,2.09,6.27,4.34,0.64,6.32c-9.45,3.32-13.39,13.25-22.08,17.27c-3.54,5.21-4.19,11.42-5.96,17.24
		c-63.12,0.1-126.24-0.04-189.35,0.55c-9.04,0.08-10.25-2.66-10.24-10.73C2.51,359.42,2.45,179.8,2.45,0.19
		c127.72,0,255.43,0,383.15,0c-0.99,5.49-5.34,9.06-7.81,13.71c-11.35,17.19-17.66,36.26-22.63,57.46c6.79-2.35,10-4.95,8.98-10.96
		c-0.37-2.15-0.38-4.54,1.24-6.51c5.63-6.83,9.16-14.79,12.09-23.02c1.01-2.83-0.39-6.74,4.57-7.21c3.95-0.38,6.9,0.88,9.39,3.86
		c2.77,3.33,0.78,7.05-0.95,8.83c-5.29,5.44-7.64,13.24-12.92,17.93c-8.52,7.56-2.47,8.59,3.22,10.2c4.77,1.35,6.44,2.02,1.67,6.38
		c-7.88,7.2-12.57,16.67-16.17,26.51c4.9,1.9,7.01-5.44,10.95-2.92c4.04,2.59,4.48,0.52,5.52-2.43c1.11-3.13,4.2-4.99,5.84-7.55
		c4.3-6.7,13.82-7.77,16.42-15.96c1.62-0.07,3.13-0.37,3.96-1.99c1.24-0.26,2.52-0.4,3.72-0.79c6.38-2.1,14.99-10,14.27,5.74
		c-0.08,1.83,1.46,2.85,3.3,2.55c2.52-0.42,4.9-2.67,3.7-4.53c-3.44-5.33,1.86-8.47,2.29-12.71c0,0,0.09-0.03,0.09-0.03
		c3.07-2.3,10.69,3.34,9.92-5.68c3.37,0.02,6.69-0.17,9.59-2.18c7.87-0.5,15.03-2.47,19.77-9.49c4.15-0.44,8.28-0.62,12.46-1.34
		c15.14-2.6,30.39-3.77,45.82-1.96c21.8,2.56,42.65,8.37,62.81,16.88c18.77,10.9,39.8,17.94,56.3,32.73
		c1.53,1.37,3.13,1.48,4.21,0.18c1.87-2.26-0.68-3.49-1.92-4.49c-18.01-14.54-36.25-28.74-58.64-36.18
		c-10.22-8-22.13-13.28-34.24-16.72c-5.99-1.7-13.5-5.68-20.49-1.03c-1.9-0.01-3.81-0.03-5.71-0.04c-0.65-1.17-1.41-1.21-2.28-0.22
		c-3.13,0.01-6.25,0.03-9.38,0.04c-3.39-2.26-6.75-2.44-10.07,0.13c-14.07-1.25-27.25,3.43-40.63,6.46
		c-4.81,1.09-11.56-1.96-14.01,5.42c-13.76-2.15-23.34,8.12-35.14,11.79c-3.29-0.17-6.44,0.12-9.46,1.71
		c-1.57,0.82-3.49,2.61-5.24,0.69c-1.77-1.94-0.88-4.29,0.07-6.4c1.22-2.7,2.5-5.59,6-5.67c4.69-0.11,8.47-1.03,8.76-6.74
		c0.07-1.47,1.13-2.82,2.4-2.43c6.77,2.07,9.73-3.49,14.16-6.44c7.4-4.93,15.39-8.3,24.6-4.98c5.42,1.96,10.37,1.11,14.06-3.38
		c6.72-8.18,17.34-5.26,25.52-9.26c1.47-0.72,4.14-0.25,4.55,2.33c0.41,2.65-1.6,3.07-3.66,3.35c-4.47,0.62-8.92,1.76-13.4,1.88
		c-5.26,0.14-6.32,2.82-6.24,8.32c8.84-4.7,17.51-7.06,26.16-9.57c3.75-1.09,8.64,2.35,9.99-0.12c3-5.48,10.52-7.15,11.19-14.16
		c5.86,0,11.73,0,17.59,0c2.82,9.67,10.21,15.14,18.97,13.36c6.4-1.3,12.67-4.22,14.13,6.21c0.33,2.39,4.5,3.25,7.41,3.8
		c10.73,2.05,21.37,2.58,31.74-1.78c7.62,7.24,15,14.77,22.96,21.6c3.95,3.39,5.52,9.92,12.27,9.82
		c1.89,7.52,6.17,12.92,13.69,15.44c0.28,0.26,0.55,0.52,0.83,0.78c-0.26-0.28-0.51-0.56-0.77-0.84
		c-2.31-8.11-7.33-14.28-13.8-19.42c-0.66-0.67-1.32-1.34-1.97-2.01c0.24-11.36-6.78-20.33-11.31-30.94
		c10.41,3.41,15.89,12.26,24.98,15.38c0.28,2.24-0.1,4.86,0.94,6.65c6.8,11.67,13.91,23.15,20.94,34.69
		c0.85,1.39,1.9,3.05,3.64,1.36c1.95-1.89,5.44-3.71,2.88-7.14c-4.53-6.08-5.54-13.63-9.22-20.2
		C681.6,31.82,674.66,15.83,667.1,0.19z M411.11,275.75c0.62,0.68,1.23,1.35,1.85,2.03c0.12,1.86,0.23,3.71,0.35,5.57
		c-0.03,3.2-1.79,7.12,3.38,8.16c0.06,1.29,0.11,2.58,0.17,3.88c-2.43,1.65-1.92,4-1.5,6.33c0.01,1,0.02,2,0.03,3
		c-0.13,20.14,9.11,38.97,8.31,59.21c-0.02,0.43,0.8,1.3,1.2,1.29c7.53-0.29,7.09,6.84,10.64,11.56c-0.54-5.88,3.63-7.68,6.93-9.92
		c3.05-2.07,3.16-4.68,0.48-6c-7.26-3.58-4.24-8.71-3.19-13.99c0.88-4.43,5.63-7.42,4.36-12.5l0,0.05c0.59-0.87,1.18-1.74,1.76-2.62
		c1.28-1.77,2.56-3.54,3.85-5.31c5.35,1.49,8.95-2.99,13.53-4.26c9.17-2.53,18.67-4.29,24.86-13.98
		c3.54-5.54,11.02-11.09,18.71-3.08c-1.96,1.98-3.91,3.95-5.87,5.93c-6.63,1.33-8.75,7.3-11.11,12.14
		c-2.82,5.79,4.86,4.24,6.51,7.15c1.1,1.94,1.76,4.12,2.62,6.19c-3.74,2.21-8.85,2.51-11.79,1.39c-8.39-3.19-13.05,0.46-17.42,6.42
		c-5.45-3.64-11.31-10.07-14.32,2.25c-0.18,0.73-1.44,1.19-2.18,1.8c-6.94,5.72-6.57,11.34,0.96,15.95
		c4.07,2.49,6.01,6.48,7.28,10.92c1.79,6.26,5.54,11.28,10.18,15.71c3.38,0.87,3.42,6.17,7.72,5.81c1.33,4.14-3.8,11.74,6.5,11.28
		c1.68-0.07,1.93,4.4-0.97,6.16c-8.66,5.28-11.86,14.66-17.14,22.51c-2.08,3.09-0.84,4.45,1.26,6.42c3.5,3.28,4.84-0.34,5.75-2.11
		c5.65-11.02,20.07-12.85,25.3-24.34c0.56-1.23,3.37-2,5.14-2.02c8.24-0.07,12.38-5.58,16.83-11.34c2.23-2.88,1.81-4.92-0.31-6.54
		c-1.84-1.41-6.89,0.11-4.37-4.75c2.47-4.76,5.24-0.84,8.02,0.24c4.37,1.7,7.87,0.01,6.51-4.74c-2.28-7.97,1.68-7.57,7.61-8.55
		c8.26-1.36,15.99,0.2,23.81,1.45c6.03,0.96,8.32-1.78,8.86-6.87c1.14-10.76-1.45-13.11-16.52-15.65l-0.04-0.04
		c0.01-1.31,0.03-2.61,0.04-3.92c1.29,0,2.58,0.01,3.87,0.01c0.66,1.33,1.31,1.34,1.95-0.02c1.3-0.03,2.61-0.05,3.91-0.08
		c3.07-0.17,5.52,1.06,8.07,2.75c1.95,1.29,5.14,3.27,6.91,0.99c1.83-2.36,3.21-5.7,2.35-9.12c-0.94-3.77-3.35-3.45-6.71-3.17
		c-4.51,0.38-8.67-2.01-12.63-4.29c-4.39-2.53-8.58-6.17-13.83-6.1c-8.18,0.12-11.41-3.84-11.52-11.46
		c-0.08-5.61,2.28-12.89-8.26-11.19c-2.2,0.36-3.31-2.72-3.47-5.16c3.97-5.2,10.47-3.86,15.61-6.02c0.67-0.61,1.34-1.23,2.01-1.84
		c1.29-0.04,2.59-0.07,3.88-0.11c0.02,5.5,2.81,9.38,8.28,13.06c0.93-10.88,5.2-5.2,9.12-2.2c1.52,1.16,3.12,3.11,5.11,2.16
		c8.28-3.96,12.62,1.47,17.09,6.8c2.9,3.46,5.66,7.05,8.71,10.38c6.02,6.59,9.21,5.39,13.24-2.04c8.72-16.05,12.8-34.87,29.91-45.99
		c10.35-6.72,15.45-19.14,21.22-29.44c6.25-11.15,0.75-25.68,5.29-38.96c2.51-7.33-4.41-17.97-7.37-27.03
		c-0.98-2.99-1.48-6.75-4.74-8.22c-10.82-4.87-21.19-11.16-33.59-11.35c-0.61-0.04-1.22-0.09-1.83-0.15
		c-0.68-0.61-1.36-1.22-2.05-1.84c-0.62-0.03-1.23-0.09-1.84-0.17c-13.19-2.54-26.38-5.09-39.57-7.63
		c5.84-3.78,11.46-6.74,17.34-7.39c4.53-0.5,10.29-4.41,13.86-0.2c5.21,6.14,12.37,6.82,18.94,8.55c4.79,1.26,15.88,8.94,11.65-6.94
		c-0.33-1.23,1.76-3.27,3-4.7c2.16-2.48,2.71-5.39,1.68-8.2c-6.85-18.66-23.57-27.99-37.84-39.62c-0.6-0.49-1.9-0.11-2.88-0.14
		c-0.6-4.46-4.14-5.14-7.6-5.78c-5.05-0.92-9.68-2.75-13.78-5.85c-0.7-0.01-1.4-0.02-2.1-0.03c-1.28-0.01-2.56-0.01-3.83-0.02
		c-0.31-4.09-2.69-6.54-6.43-7.66c-9.7-2.91-19.91-4.24-29.65-6.36c-18.42-4-38.04-7.31-56.99,1.4c-5.77,2.65-12.92-0.95-19.6,2.58
		c-10.18,5.38-21.36,8.71-32.54,11.74c-1.53,0.41-3.75,0.53-4.41,1.57c-6.14,9.69-16.53,14.07-25.24,20.52
		c-11.17,8.28-19.92,18.84-28.73,29.41c-8.57,10.28-11.02,23.46-12.58,35.48c-1.32,10.21-3.34,19.7-6.97,29.1
		c-1.42,3.67-3.81,8.24,1.49,9.76c4.07,1.17,7.03-2.41,7.68-6.86c0.37-2.56,0.45-5.16,0.9-7.7c1.37-7.76,4.12-14.93,9.18-22.39
		c1.77,13.58-0.74,25.16-3.07,36.96c-3.09,15.71,3.56,30.67,6.02,45.95c-3.98,1.78-7.99,2.97-12.16,0.53
		c-0.72-1.3-1.82-1.76-3.26-1.43c-7.89,1.86-15.82-1.14-23.71,0.15c-4.45-1.33-9.01-1.5-13.6-1.18l0.3,0.23
		c-1.58-1.15-3.26-1.59-5.13-0.73c-3.77,2.69-8.19-4.28-11.8,0.81c-1.32-0.65-2.64-1.3-3.96-1.95c-3.38-1.54-6.81-2.77-10.6-1.58
		c-2.04,0.63-4.77,1.12-4.58,3.68c0.26,3.63,3.53,3.57,6.29,3.73c0.42,0.12,0.83,0.26,1.23,0.45c2.08,2.4,4.35,2.47,6.77,0.54
		c7.98,0.25,15.83,2.85,23.98,1.37c3.3,1.44,6.59,1.21,9.86-0.11c1.7,3.19,4.29,1.3,6.58,1.16c1.38,0.05,2.75,0.1,4.13,0.15
		c2.51,1.51,5.11,0.98,7.72,0.36l0.76,0.53l0.9-0.23c6.29,3.78,13.62-2.08,19.86,2.13c0.89,4.1,4.07,3.67,6.6,2.64
		c3.94-1.61,8.04-0.63,11.96-1.51c1.46-0.48,2.93-0.96,4.39-1.43c3.49,0.56,6.98,1.12,10.47,1.68l-0.01,0.01
		c0.08,1.33,0.78,1.97,2.12,1.88c0.64,0.59,1.28,1.17,1.91,1.76C409.26,274.7,409.91,275.44,411.11,275.75z M543.95,440.02
		c1.78,4.85-3.98,9.6-0.36,15.2c4.94-3.13,4.25-8.28,5.48-12.24c1.95-6.29-3.23-2.2-5.13-2.94c-0.88-4.15-1.77-8.3-2.63-12.37
		c-6.14,1.74-4.1,8.47-9.39,11.08c1.98-8.06-4.19-12.77-4.66-19.36c-1.15,0.3-1.62,0.29-1.69,0.46c-1.82,4.06-4.89,7.43-5.48,12.22
		c-0.57,4.64-4,7.64-8.73,7.75c-7,0.16-2.28-3.82-2.12-6.36c0.05-0.7-1.7-1.76-2.81-2.24c-2.53-1.1-3.31,1-4.32,2.65
		c-3.05,4.96-5.48,10.51-9.36,14.72c-8.32,9.03-7.85,14.22,3.3,19.95c1-3.84,3.48-7.99,2.65-11.32c-1.73-6.94,2.3-13.66,9.34-13.25
		c2.54,0.15,5.42,1.04,4.12,3.78c-4.21,8.86-4.72,19.65-13.86,26.05c-3.68,2.58-6.19,6.54-7.14,11.18
		c-0.48,0.69-0.97,1.39-1.45,2.08c0.25,0.16,0.49,0.32,0.74,0.49c0.25-0.85,0.49-1.7,0.74-2.54c5.96-2.49,13.92-1.63,15.05-11.46
		c0.45-3.93,4.17-10.1,7.18-10.6c8.08-1.36,9.74-5.29,9.38-12.39c-0.13-2.56,1.05-6.55,4.78-6.08c4.56,0.57,0.15,4.27,1.39,6.26
		c0.65,1.04,1.17,2.17,2.05,3.85C533.65,447.62,534.38,439.7,543.95,440.02z M491.74,435.4c-9.03,0.28-17.42,12.82-16.22,22.83
		c0.27,2.26,0.04,4.99,3.31,4.8c3.79-0.22,3.24-2.79,2.84-5.64C480.4,448.16,482.23,440.13,491.74,435.4z M536.83,467.94
		c2.86,0.99,5.33,2.17,6.52-0.66c0.67-1.61,0.48-3.81,0.04-5.58c-0.37-1.48-14.68-0.49-15.56,0.99c-1.19,1.98-2.19,4.29-0.96,6.32
		c1.3,2.15,3.45,0.25,5.18,0.06C533.88,468.87,535.67,468.23,536.83,467.94z M259.02,273.37c0.33,2.13,1.38,3.9,3.53,3.98
		c4.99,0.19,7.4-3.51,9.14-7.33c0.93-2.06-0.6-3.72-3.01-3.78C263.7,266.1,261.48,269.78,259.02,273.37z M676.44,152.78
		c-0.79-2.71-2.67-4-5.59-3.88c-2.25,0.09-3.77,1.15-3.34,3.54c0.49,2.68,2.28,4.89,4.92,5.19
		C675.3,157.95,675.44,154.94,676.44,152.78z M678.36,74.34c-0.15-0.2-0.3-0.4-0.45-0.6c-0.18,0.17-0.37,0.33-0.55,0.5
		c0.25,0.26,0.5,0.52,0.75,0.78C678.19,74.79,678.27,74.56,678.36,74.34z"/>
	<path class="st0" d="M405,68.52c-2.6,8.19-12.11,9.26-16.42,15.96c-1.64,2.55-4.73,4.41-5.84,7.55c-1.04,2.94-1.48,5.02-5.52,2.43
		c-3.94-2.53-6.05,4.81-10.95,2.92c3.6-9.84,8.29-19.31,16.17-26.51c4.77-4.36,3.1-5.02-1.67-6.38c-5.69-1.61-11.74-2.64-3.22-10.2
		c5.28-4.69,7.63-12.49,12.92-17.93c1.73-1.78,3.72-5.5,0.95-8.83c-2.49-2.98-5.44-4.24-9.39-3.86c-4.95,0.47-3.56,4.38-4.57,7.21
		c-2.92,8.22-6.46,16.19-12.09,23.02c-1.62,1.97-1.61,4.35-1.24,6.51c1.03,6.01-2.19,8.61-8.98,10.96
		c4.97-21.2,11.28-40.26,22.63-57.46c0.39,0.82,0.79,1.64,1.18,2.46c6.73-5.44,16.18-7.46,20.31-16.17c1.3,0,2.61,0,3.91,0
		c3.38,3.21-5.1,10.38,3.9,11.72l0.02,0.02c0.24,2.15,1.44,3.02,3.49,3.96c9.76,4.51,18.01-1.19,27.05-2.54
		c9.86-1.48,10.69-5.83,10.51-13.16c28.67,0,57.34,0,86.01,0c-0.66,7.01-8.19,8.68-11.19,14.16c-1.35,2.47-6.24-0.97-9.99,0.12
		c-8.65,2.51-17.31,4.88-26.16,9.57c-0.08-5.51,0.98-8.18,6.24-8.32c4.48-0.12,8.93-1.26,13.4-1.88c2.05-0.28,4.07-0.71,3.66-3.35
		c-0.4-2.58-3.07-3.05-4.55-2.33c-8.18,4.01-18.8,1.09-25.52,9.26c-3.69,4.48-8.64,5.34-14.06,3.38c-9.2-3.32-17.2,0.05-24.6,4.98
		c-4.43,2.95-7.4,8.51-14.16,6.44c-1.27-0.39-2.33,0.96-2.4,2.43c-0.29,5.71-4.07,6.63-8.76,6.74c-3.5,0.08-4.78,2.97-6,5.67
		c-0.95,2.11-1.85,4.46-0.07,6.4c1.75,1.91,3.67,0.13,5.24-0.69c3.03-1.58,6.18-1.87,9.46-1.71c1.06,7.55,7.15,4.93,11.55,5.72
		c-0.43,4.24-5.73,7.38-2.29,12.71c1.2,1.86-1.19,4.11-3.7,4.53c-1.84,0.31-3.39-0.72-3.3-2.55c0.73-15.74-7.89-7.84-14.27-5.74
		c-1.2,0.39-2.48,0.53-3.72,0.79c0.18-8.05,9.61-3.8,12.32-9.5c-11.73-0.73-19.8,4.48-25.91,13.54c-0.85,0.79-1.71,1.57-2.56,2.36
		c0.38,0.25,0.77,0.5,1.15,0.75c0.47-1.04,0.93-2.08,1.4-3.11C398.58,69.88,401.79,69.2,405,68.52z M413.65,27.12
		c-6.16,1.62-10.82,0.68-12.14,5.97c-0.51,2.03,0.64,3.94,3.01,3.95C409.82,37.06,410.67,32.69,413.65,27.12z"/>
	<path class="st1" d="M2.45,0.19c0,179.61,0.05,359.23-0.18,538.84c-0.01,8.06,1.2,10.81,10.24,10.73
		c63.11-0.59,126.23-0.45,189.35-0.55c10.44-0.01,20.88-0.02,31.32-0.03c18.23,0,36.46,0,54.69,0c7.15,0,14.31-0.01,21.46-0.01
		c9.72,0,19.44,0.01,29.17,0.01c9.29-0.01,18.58-0.02,27.88-0.02c3.78-0.01,7.57-0.02,11.35-0.03c3.87,0,7.73,0,11.6,0.01
		c2.67,0.03,5.35,0.07,8.02,0.1c8.62-0.04,17.24-0.08,25.85-0.12c4.22,0.13,8.45,0.37,12.67,0.37c181.33,0.02,362.67,0.02,544,0.02
		c-1.76,4.04-5.28,1.83-7.82,1.83c-48.22,0.16-96.44,0.12-144.66,0.12c-272.7,0-545.4-0.03-818.1,0.18
		c-7.33,0.01-8.99-1.65-8.98-8.98C0.55,364.77,0.48,186.88,0.62,8.99C0.62,6.13-1.64,2.36,2.45,0.19z"/>
	<path class="st0" d="M624.01,21.78c-10.37,4.36-21.01,3.84-31.74,1.78c-2.9-0.56-7.07-1.41-7.41-3.8
		c-1.46-10.44-7.73-7.51-14.13-6.21c-8.76,1.78-16.15-3.69-18.97-13.36c11.08,0,22.15,0,33.23,0c9.86,1.68,16.84,9.26,25.98,12.75
		C615.38,14.62,621.16,16.71,624.01,21.78z"/>
	<path class="st2" d="M624.01,21.78c-2.86-5.08-8.63-7.17-13.03-8.85C601.84,9.45,594.85,1.87,585,0.19c14.99,0,29.97,0,44.96,0
		c-3.8,7.32,3.12,11.41,4.7,17.02c3.75,13.32,14.63,20.33,22.56,29.94c0.66,0.67,1.32,1.34,1.97,2.01c0.02,1.35,0.03,2.7,0.05,4.04
		c-6.74,0.1-8.32-6.43-12.27-9.82C639.01,36.55,631.63,29.02,624.01,21.78z"/>
	<path class="st0" d="M657.22,47.15c-7.93-9.61-18.81-16.62-22.56-29.94c-1.58-5.61-8.5-9.7-4.7-17.02c5.21,0,10.43,0,15.64,0
		c8.37,10.5,18.21,19.81,25.42,31.26l-0.14,0.14c-9.09-3.13-14.57-11.97-24.98-15.38C650.44,26.82,657.46,35.79,657.22,47.15z"/>
	<path class="st0" d="M667.1,0.19c7.56,15.64,14.5,31.62,22.97,46.76c3.68,6.57,4.69,14.12,9.22,20.2c2.56,3.43-0.93,5.26-2.88,7.14
		c-1.74,1.68-2.8,0.03-3.64-1.36c-7.02-11.54-14.13-23.03-20.94-34.69c-1.04-1.79-0.66-4.41-0.94-6.65c0,0,0.14-0.14,0.14-0.14
		c5.56-1.23,4.46-4.88,2.37-7.98c-2.65-3.93-5.56-7.92-9.17-10.92c-4.96-4.13-6.83-7.7-1.03-12.35
		C664.49,0.19,665.8,0.19,667.1,0.19z"/>
	<path class="st2" d="M407.1,11.91c-9-1.34-0.52-8.51-3.9-11.72c14.99,0,29.97,0,44.96,0c0.19,7.32-0.64,11.68-10.51,13.16
		c-9.04,1.36-17.29,7.06-27.05,2.54c-2.04-0.94-3.24-1.82-3.49-3.96c3.31-0.87,6.61-1.74,10.66-2.8
		C412.87,7.04,408.44,3.76,407.1,11.91z"/>
	<path class="st2" d="M663.19,0.19c-5.8,4.65-3.93,8.23,1.03,12.35c3.6,3,6.52,6.99,9.17,10.92c2.09,3.1,3.19,6.75-2.37,7.98
		C663.81,20,653.97,10.69,645.6,0.19C651.46,0.19,657.32,0.19,663.19,0.19z"/>
	<path class="st2" d="M399.29,0.19c-4.13,8.7-13.58,10.73-20.31,16.17c-0.39-0.82-0.79-1.64-1.18-2.46
		c2.46-4.65,6.82-8.22,7.81-13.71C390.16,0.19,394.72,0.19,399.29,0.19z"/>
	<path class="st0" d="M372.35,259.79c-2.46-15.28-9.11-30.24-6.02-45.95c2.33-11.8,4.84-23.38,3.07-36.96
		c-5.06,7.46-7.81,14.63-9.18,22.39c-0.45,2.54-0.53,5.14-0.9,7.7c-0.64,4.45-3.61,8.03-7.68,6.86c-5.3-1.52-2.91-6.1-1.49-9.76
		c3.63-9.39,5.65-18.89,6.97-29.1c1.56-12.02,4.01-25.2,12.58-35.48c8.81-10.57,17.55-21.13,28.73-29.41
		c8.7-6.45,19.09-10.83,25.24-20.52c0.66-1.04,2.88-1.16,4.41-1.57c11.17-3.03,22.36-6.36,32.54-11.74
		c6.68-3.53,13.83,0.07,19.6-2.58c18.94-8.72,38.57-5.41,56.99-1.4c9.75,2.12,19.96,3.45,29.65,6.36c3.74,1.12,6.12,3.57,6.43,7.66
		c-4.33,3.5-9.27,1.91-13.93,1.34c-3.49-0.43-4.96-4.72-9.05-5.13c-10.63-1.06-21.21-2.7-31.8-4.11c-8.96,0-18.11-1.13-26.84,0.29
		c-12.13,1.96-24.84,2.62-35.69,9.63c-13.48-0.71-23.34,7.83-34.13,13.74c-4.07,2.23-10.75,1.78-11.83,7.29
		c-1.4,7.13-6.76,10.94-10.65,16.04c-1.11,0.49-2.55,0.7-3.27,1.53c-6.69,7.69,2.67,9.62,5.14,14.05
		c-8.91-2.39-11.58,4.38-15.03,10.12c-0.82,1.36-2.5,2.61-1.43,4.22c1.23,1.84,3.67,1.72,5.37,1.13c7.23-2.5,10.14-8.34,11.12-15.46
		c10.02,4.5,21.21-0.44,31.26,3.88c0.02,1.28,0.04,2.56,0.06,3.84c-20.3-4.99-36.04,3.69-46.65,26.18c3.83-0.01,5.74-2.78,8.38-4.22
		c4.93-2.69,7.98-8.92,14.8-8.09c0.63,1.17,1.27,2.34,1.9,3.51c-5.45,2.18-10.77,4.55-13.55,10.25c-2.34,1.24-6.65,1.3-3.51,5.84
		c0,0-0.31,0.32-0.31,0.31c-9.15,0.6-10.43,5.82-7.8,13.32c-0.7,0.66-1.4,1.32-2.1,1.97c-8.47,5.41-5.71,15.53-9.32,23.07
		c-1.58,3.3-4.03,8.4-0.94,12.88c5.54,8.05,4.52,17.17,4.3,26.16C375.96,259.84,374.16,259.81,372.35,259.79z"/>
	<path class="st3" d="M409.36,273.41c-0.64-0.59-1.28-1.17-1.91-1.76c-0.16-1.24-0.85-1.88-2.12-1.88c0,0,0.01-0.01,0.01-0.01
		c-0.69-1.28-1.39-2.55-2.08-3.83c-1.49-8.08,4.66-8.26,9.84-9.76c7.17-2.08,16.43-2.63,11.79-14.57c-0.88-2.27,0.39-4.47,3.28-4.79
		c8.5-0.93,9.51-7.24,10.06-13.9c1.4-0.02,2.8-0.04,4.21-0.06c5.07,6.24,13.23,10.52,19.48,10.86c9.22,0.51,12.63,7.25,13.66,11.61
		c1.67,7.07,2.9,6.98,8.36,4.19c4.43-2.26,7.61-1.8,5.72,4.9c-0.98,3.45-2.32,6.66-3.54,9.98c-3.09,8.41-6.4,16.82-5.48,26.09
		c-2.69,5.26-6.3,9.93-11.7,12.31c-3.43,1.51-3.35,3.93-3.7,6.61c-1.91,1.21-3.82,2.42-5.73,3.62l-0.26-0.41
		c0,0,0.18,0.47,0.18,0.47c-1.05,0.94-2.11,1.87-3.16,2.81c-3.14-0.03-4.14,2.51-5.51,4.61c-2.05-0.2-6.43,0.48-5.44-1.65
		c2.61-5.65-2.64-9.44-1.92-14.46c0.57-3.95-2-9.85-4.45-9.74c-10.35,0.49-14.23-7.4-19.91-13.11c-1.32-1.33-2.64-2.66-3.97-3.99
		c-0.21-2.23-1.28-3.65-3.62-3.92C410.75,273.56,410.06,273.49,409.36,273.41z M446.03,236.03c-4.41-1.93-8.52,0.3-9.59,5.3
		c-1.21,5.66-2.9,13.08-0.34,17.21c3.05,4.91,3.78-5.51,8.27-4.28c1.19,0.33,2.58-0.07,3.88-0.13c8.46-0.39,10.43-9.11,16.33-12.83
		c1.02-0.64-0.34-3.3-1.09-2.99C457.51,240.8,452.71,234.84,446.03,236.03z"/>
	<path class="st4" d="M620.12,166.37c12.41,0.18,22.78,6.48,33.59,11.34c3.27,1.47,3.77,5.23,4.74,8.22
		c2.96,9.05,9.87,19.7,7.37,27.03c-4.54,13.28,0.95,27.81-5.29,38.96c-5.77,10.3-10.87,22.72-21.22,29.44
		c-17.11,11.11-21.19,29.94-29.91,45.99c-4.04,7.43-7.22,8.63-13.24,2.04c-3.05-3.33-5.81-6.92-8.71-10.38
		c-4.46-5.33-8.8-10.76-17.09-6.8c-2,0.95-3.59-1-5.11-2.16c-3.92-3-8.19-8.68-9.12,2.2c-5.47-3.68-8.27-7.56-8.28-13.06
		c0.07-1.12,0.14-2.24,0.21-3.37c0.6-0.21,1.21-0.35,1.84-0.42c0.66-0.6,1.32-1.21,1.98-1.81c0.5-0.15,0.99-0.3,1.49-0.46
		c6.12-0.1,7.89,8.94,13.69,7.53c5.72-1.4,8.97,1.35,13.05,3.81c12.2,7.35,22.63,3.65,26.39-9.11l0,0c3.72-0.16,5.67-2.13,5.9-5.83
		c0-0.63,0.05-1.26,0.15-1.88c11.59-2.74,18.67-9.95,21.3-21.55c0.05-0.66,0.1-1.33,0.15-1.99c4.14-2.18,12.3-3.06,7.93-9.75
		c-6.14-9.41-3.47-17.44,1.13-25.24c2.3-3.9,0.95-6.64,0.44-9.97c3.53-3.04,7.84-6.17,7.27-11.19c-0.95-8.42-1.69-16.66-7.16-24.38
		C637.42,174.86,627.55,172.57,620.12,166.37z"/>
	<path class="st4" d="M207.83,531.98c8.69-4.02,12.63-13.95,22.08-17.27c5.63-1.97,0.2-4.23-0.64-6.32
		c1.46-1.21,2.74-2.85,4.41-3.56c18.78-7.94,37.16-16.61,54.54-27.36c2.41-1.49,4.91-2.97,4.66-5.44c-0.45-4.39-4.56-2.02-7.03-2.75
		c9.86-7.72,21.97-9,33.61-11.47c3.04-0.65,6.26,0.14,4.78,4.72c-2.36,7.3-12.66,13.91-21.01,13.57
		c-7.83-0.32-12.28,5.61-16.42,10.43c-2.98,3.47,0.35,6.92,4.98,6.2c20.56-3.22,41.48-3.89,59.78-16.94
		c10.78-7.68,22.64-15.18,36.72-16.76c9.38-1.05,15.69-8.83,17.09-15.57c2.34-11.26,9.63-15.92,17.67-21.09
		c4.97-0.08,9.97-0.62,14.85,0.85c0.12,2.33,0.25,4.67,0.37,7c-2.56,1.2-3.88,3.17-3.72,6.05c-1.96,1.22-2.77,4.04-5.63,3.99
		c-4.61,0.32-5.5-4.23-7.71-7.04c-4.95,5.34,0.5,9.9-0.51,14.49c-0.73,1.55-2.07,2.08-3.66,2.2c-5.8-0.42-9.57,2.43-11.98,7.46
		c-5.11,0.73-9.92,2.15-13.55,6.14c-9.14-1.18-16.11,2.54-21.63,9.56c-0.6,0.11-1.2,0.19-1.8,0.23
		c-18.78,5.13-33.74,18.85-54.03,21.68c-17.69,2.47-35.06,8.19-52.73,11.89c-10.72,2.25-22.13,5.23-30.29,13.56
		C224.48,527.12,218.05,533.1,207.83,531.98z"/>
	<path class="st4" d="M600.59,97.96c0.97,0.03,2.28-0.35,2.88,0.14c14.27,11.63,31,20.96,37.84,39.62c1.03,2.82,0.48,5.73-1.68,8.2
		c-1.24,1.42-3.32,3.47-3,4.7c4.23,15.88-6.86,8.2-11.65,6.94c-6.58-1.73-13.74-2.41-18.94-8.55c-3.57-4.21-9.33-0.3-13.86,0.2
		c-5.88,0.64-11.51,3.6-17.34,7.39c13.19,2.54,26.38,5.09,39.57,7.63c-7.82,1.32-16.03-1.86-23.62,2.08
		c-7.27-0.07-14.41,8.6-21.8,0.31c0.63-1.68,3-4.23,0.93-5.01c-10.45-3.92-1.73-6.89,0.75-8.34c6.59-3.87,13.8-6.65,20.65-10.08
		c6.55-3.28,8.21-11.43,3.23-16.55c-2.16-2.22-5.8-3.12-5.57-7.17c0.59-0.03,1.18-0.05,1.78-0.09c2.56,0.02,5.14,0.22,7.68,0
		c2.38-0.21,5.74,1.35,6.86-1.67c1.09-2.95-1.94-4.53-4.06-5.66c-4.77-2.55-7.09-6.68-9.08-11.29
		C595.16,99.07,598.67,100.98,600.59,97.96z"/>
	<path class="st5" d="M207.83,531.98c10.22,1.12,16.65-4.86,23.2-11.54c8.17-8.32,19.57-11.31,30.29-13.56
		c17.68-3.7,35.04-9.42,52.73-11.89c20.29-2.83,35.25-16.55,54.02-21.68c-0.54,1.13-0.87,2.42-1.65,3.35
		c-1.84,2.22-7.43,2.2-5.37,6.5c1.83,3.82,5.62,0.45,8.58,0.39c10.48-0.19,17.94-8.5,27.88-9.95c0.67,7.8-7.5,4.32-10.09,7.95
		c5.39,3.18,5.71,4.76,0.3,7.04c-10.92,4.6-21.73,9.64-33.45,12.08c-0.53-3.03,4.19-7.14,0.26-8.51c-2.53-0.89-8.7-1.39-9.99,4.53
		c-4.96,2.29-10.92,0.63-15.63,3.93c-3.06,0.39-7.14-1.26-7.86,3.88c-0.62,0.05-1.24,0.09-1.86,0.12c-0.68,0.62-1.35,1.23-2.03,1.85
		c-2,0.92-3.93,2.19-6.31,1.38c0.78-4.6,0.04-8.42-5.82-6.66c-27.59,8.3-57.81,10.01-80.12,31.7c-1.9,1.85-6.3,2.33-4.25,6.27
		c1.81,3.49,5.69,2.65,8.82,2.29c4.12-0.48,5.39-4.41,7.27-7.26c4.65-7.03,10.33-13.01,19.06-13.43
		c10.49-0.51,20.15-4.28,30.28-6.11c-2.07,6.24-8.23,5.87-12.83,7.28c-16.26,4.98-29.61,13.92-40.09,27.25
		c-10.44,0.01-20.88,0.02-31.32,0.03C203.64,543.39,204.29,537.19,207.83,531.98z"/>
	<path class="st4" d="M555.69,357.97c15.07,2.54,17.66,4.89,16.52,15.65c-0.54,5.09-2.83,7.84-8.86,6.87
		c-7.82-1.25-15.55-2.82-23.81-1.45c-5.93,0.98-9.89,0.58-7.61,8.55c1.36,4.75-2.14,6.44-6.51,4.74c-2.77-1.08-5.55-5-8.02-0.24
		c-2.52,4.86,2.54,3.35,4.37,4.75c2.12,1.62,2.54,3.66,0.31,6.54c-4.46,5.76-8.59,11.27-16.83,11.34c-1.77,0.01-4.58,0.79-5.14,2.02
		c-5.24,11.49-19.65,13.32-25.3,24.34c-0.91,1.77-2.24,5.39-5.75,2.11c-2.1-1.97-3.34-3.33-1.26-6.42
		c5.29-7.85,8.48-17.23,17.14-22.51c2.89-1.76,2.65-6.24,0.97-6.16c-10.3,0.45-5.18-7.15-6.5-11.28c1.2-4.34,2.93-8.24,7.79-9.63
		c0.23,3.6-4.78,8.13,1.82,10.59c4.28,1.59,6.19-2.22,7.26-4.6c1.97-4.37-0.27-7.4-5.2-8.02c0.25-1.51-0.51-4.07,1.27-4.26
		c8.24-0.9,16.6-4.54,24.76,0.58c1.96,1.23,4.58,2.23,5.11-1.38c0.88-5.99,5.26-4.29,8.9-4.54c11.35-0.78,21.56-5.12,32.24-8.94
		C560.95,362.26,555.71,362.58,555.69,357.97z"/>
	<path class="st6" d="M217.58,410.74c1.62-7.86,8.24-12.76,11.61-19.59c-0.53,5.95,3.84,9.61,7.99,10.82
		c5.88,1.72,5.57,3.91,3.2,8.02c-0.95,1.64-2.14,3.65-0.24,5.25c1.81,1.53,3.64-0.33,5.42-0.74c7.28-1.68,11.57-8.09,17.71-11.44
		c8.09-4.42,12.6-14.81,22.22-15.55c14.42-1.12,25.44-8.31,36.45-16.29c3.53-2.56,1.21-3.38-1.04-4.39
		c0.79-1.58,1.59-3.16,2.38-4.74c1.16-0.18,2.32-0.37,3.48-0.55c4.74-0.09,9.28-3.27,14.67-0.71c-3.89,6.54-8.2,12.39-15.79,14.78
		c-2.84,0.89-4.34,2.67-4.86,5.47c-9.64,0.41-15.77,9.48-25.27,10.22c-2.67-0.11-5.28-0.11-5.76,3.45c-2.62,0.17-5.25,0.33-7.87,0.5
		c-2.9,2.58-5.71,5.28-8.72,7.73c-7.48,6.1-13.45,13.47-23.08,17.69c-9.67,4.23-21.74,8.09-24.69,21.18
		c-3.82,2.36-7.13,5.72-11.95,6.13c-2.46-3.52-5.86-4.63-9.97-3.91c3.07-4.1,6.12-8.22,11.22-10.1c2.88-1.06,2.21-2.53,0.3-4.03
		c5.55-5.2,1.99-11.55,2.2-17.43c0,0,0.05-0.1,0.05-0.09c0.29-0.09,0.59-0.19,0.88-0.29C217.95,411.66,217.76,411.2,217.58,410.74z"
		/>
	<path class="st4" d="M526.33,307.17c0.16,2.44,1.26,5.51,3.47,5.16c10.55-1.7,8.18,5.58,8.26,11.19
		c0.11,7.62,3.34,11.58,11.52,11.46c5.24-0.07,9.43,3.57,13.83,6.1c3.96,2.28,8.12,4.67,12.63,4.29c3.36-0.29,5.77-0.6,6.71,3.17
		c0.85,3.42-0.52,6.76-2.35,9.12c-1.77,2.28-4.95,0.31-6.91-0.99c-2.55-1.69-5-2.92-8.07-2.75c0.12-2.7-0.86-4.25-3.27-6.12
		c-6.58-5.11-13.53,0.25-20.04-1.67l-0.08-0.04c-0.32-1.77,0.71-4.3-1.97-4.82c-1.49-0.29-1.82,1.44-2.14,2.68
		c-5.83-0.77-11.37,1.8-17.92-2.22c-3.07-1.88-9.99-11.07-16.92-3.14c-1.61-0.16-3.16-0.44-4.08-2.01
		c-0.86-2.07-1.52-4.26-2.62-6.19c-1.66-2.92-9.33-1.37-6.51-7.15c2.36-4.84,4.48-10.81,11.11-12.14c-0.01,0.6-0.03,1.2-0.05,1.8
		c0.03,1.63,0.34,3.13,1.95,3.99C510.09,312.18,517.87,308.85,526.33,307.17z M550.45,339.43c-0.11-0.2-0.18-0.51-0.35-0.58
		c-0.2-0.08-0.48,0.04-0.73,0.08c0.16,0.3,0.32,0.6,0.48,0.91C550.05,339.7,550.25,339.57,550.45,339.43z"/>
	<path class="st7" d="M320.91,366.83c2.25,1.01,4.56,1.83,1.04,4.39c-11.01,7.98-22.04,15.17-36.45,16.29
		c-9.62,0.75-14.13,11.13-22.22,15.55c-6.14,3.36-10.43,9.76-17.71,11.44c-1.78,0.41-3.61,2.28-5.42,0.74
		c-1.89-1.61-0.7-3.61,0.24-5.25c2.37-4.12,2.68-6.31-3.2-8.02c-4.15-1.21-8.52-4.87-7.99-10.82c3.8-11.4,14.2-14.85,23.56-19.54
		c0.54-0.7,1.09-1.39,1.64-2.09c0,0,0.04-0.08,0.05-0.08c1.65-0.56,2.21-1.84,2.28-3.44c0,0,0.13-0.14,0.13-0.14
		c3.39-0.74,5.76,0.09,6.18,3.98c-3.6,8.16-7.21,16.33-11.2,25.37c7.47-1.63,11.47-6.54,16.56-9.62c2.66-1.35,5.32-2.7,7.98-4.05
		c4.8,0.11,9.28-0.55,12.1-5.12c1.16-0.67,2.32-1.34,3.48-2c1.26-0.25,2.51-0.5,3.77-0.75C304.98,374.59,311.9,366.87,320.91,366.83
		z"/>
	<path class="st8" d="M600.59,97.96c-1.92,3.03-5.43,1.11-8.44,2.8c1.99,4.61,4.31,8.74,9.08,11.29c2.12,1.13,5.15,2.71,4.06,5.66
		c-1.12,3.02-4.48,1.46-6.86,1.67c-2.54,0.22-5.12,0.02-7.68,0c-3.36-8.36-12.21,2.31-15.9-4.76c1.36-3.26,5.43-5.28,5.32-10.28
		c-4.94,0.49-10.72,2.91-14.15,1.04c-7.92-4.32-15.41-6.32-24-3.43c-6.24,2.72-11.67,2.24-15.65-3.97c2.85,0.21,5.41-0.7,7.87-2.01
		c2.93-0.45,6.55,1.29,9.35-3.13c-3.87-0.49-6.8-1.8-9.38,1.15c-1.31,0-2.62-0.01-3.92-0.01c0.23-7.88-5.76-5.21-9.83-5.78
		c-0.65-3.27-1.3-6.54-1.95-9.8c10.6,1.41,21.17,3.05,31.8,4.11c4.08,0.41,5.56,4.7,9.05,5.13c4.65,0.57,9.59,2.16,13.93-1.34
		c1.28,0.01,2.56,0.02,3.83,0.02c0.68,1.29,1.38,1.32,2.1,0.03c4.11,3.1,8.74,4.93,13.78,5.85
		C596.45,92.81,599.99,93.5,600.59,97.96z"/>
	<path class="st6" d="M338.5,549.18c-9.72,0-19.44-0.01-29.17-0.01c6.44-3.06,13.08-4.98,20.3-5.7c9.91-0.99,20.35-2.59,28.24-8.65
		c12.02-9.22,25.73-15.5,38.3-23.74c18.04-11.84,33.93-23.14,28.51-48.1c5.69-3.19,11.38-6.39,17.08-9.58
		c0.12,3.96,3.79,4.59,6,6.69c5.59,5.32,10.29,11.22,5.13,19.51c-0.95-4.11-1.67-8.29-2.94-12.3c-0.67-2.11-4.18-4.69-4.6-1.95
		c-1.3,8.47-8.38,13.54-10.76,20.95c-2.43,7.55-6.59,13.05-13.3,17.05c-7.45,4.44-14.5,9.59-22.11,13.72
		c-16.72,9.08-31.59,21.55-50.18,27.25C345.35,545.44,341.37,546.22,338.5,549.18z"/>
	<path class="st9" d="M590.78,166.31c7.59-3.94,15.8-0.76,23.62-2.08c0.61,0.08,1.23,0.13,1.84,0.17c0.68,0.61,1.36,1.22,2.04,1.84
		c0.61,0.05,1.22,0.1,1.83,0.15c7.43,6.2,17.3,8.49,23.48,17.21c5.47,7.72,6.21,15.96,7.16,24.38c0.56,5.02-3.74,8.15-7.27,11.19
		c-7.07,6.53-14.13,0.08-21.2-0.02c-1.37-1.98-2.75-3.96-4.12-5.94c0.65-2.42-3.06-5.74-0.26-6.93c7.17-3.06,2.41-7.43,1.68-11.06
		c-0.61-3.03-2.51-5.81-3.84-8.7c2.61-0.78,6.18-0.21,6.25-4.53c0.06-3.34-2.21-5.05-4.44-7.03
		C609.86,168.13,599.63,169.42,590.78,166.31z"/>
	<path class="st5" d="M285.84,469.28c2.47,0.73,6.58-1.64,7.03,2.75c0.26,2.47-2.25,3.95-4.66,5.44
		c-17.38,10.75-35.76,19.43-54.54,27.36c-1.67,0.71-2.95,2.35-4.41,3.56c-0.68,0.01-1.37,0.02-2.05,0.03
		c-7.87-0.88-14.21-9.48-13.65-18.38c0.33-5.23,2.33-8,7.98-5.95c6.59,2.39,10.58,0.34,11.69-6.74c4.52-0.04,9.04-0.08,13.56-0.12
		c1.98,2.46,3.94,2.43,5.88-0.05C264.24,476.69,274.51,470.76,285.84,469.28z"/>
	<path class="st7" d="M338.5,549.18c2.87-2.96,6.85-3.74,10.5-4.86c18.59-5.7,33.46-18.17,50.18-27.25
		c7.61-4.13,14.66-9.28,22.11-13.72c6.71-4,10.87-9.5,13.3-17.05c2.38-7.41,9.46-12.48,10.76-20.95c0.42-2.74,3.93-0.16,4.6,1.95
		c1.27,4.01,1.99,8.19,2.94,12.3c-0.27,1.15-0.55,2.29-0.83,3.43c-0.42,0.85-0.84,1.7-1.26,2.55c-3.04,3.63-6.08,7.27-9.13,10.9
		c-5.03,4.94-10.06,9.88-15.08,14.82c-9.78,1.76-14.33,11.56-23.03,14.98c-13.23,6.27-25.21,14.56-37.18,22.87
		C357.09,549.17,347.8,549.18,338.5,549.18z"/>
	<path class="st5" d="M295.51,391.3c9.5-0.74,15.63-9.82,25.27-10.22c0,0,0.41,0.45,0.41,0.45c-8.65,8.42-18.09,15.5-30.42,17.48
		c-6.21,0.99-7.42,4.35-5,9.69c-1.62,0.31-3.83,0.8-3.36,2.67c2.89,11.59-4.84,11.02-12.26,11.11c-2.46,0.03-6.25-0.99-6.86,1.95
		c-1.18,5.7-4.87,5.84-9.26,6.07c-2.71,0.14-4.65,2.27-5.22,4.71c-0.4,1.68,3.71-0.16,3.54,2.27c-5.84,2.79-14.6-4.01-17.33,6.41
		c-2.57,1.34-5.14,2.68-7.71,4.02c-2.55-0.03-3.9,1.22-4.01,3.77c0,0-0.01,0.03-0.01,0.03c-7.48,0.34-12.61,3.04-11.72,11.74
		c-0.07,1.6-0.42,3.06-1.99,3.89c-3.79-0.47-7.68,5.89-9.31,3.15c-4.54-7.61-12.66-3.14-17.89-7.01c0.21-5.44-1.28-11.32,3.91-15.51
		c0.23,2.45-0.8,5.33,1.8,7.06c3.86,2.57,22.01-2.56,25.37-7.05c4.82-0.4,8.13-3.77,11.95-6.13c1.48-0.55,3.39-0.69,4.38-1.71
		c9.17-9.52,20.73-14.82,32.41-20.61c9.35-4.63,21.87-9.21,19.7-24.28c2.62-0.17,5.25-0.33,7.87-0.5
		C292.57,395.11,294.41,393.82,295.51,391.3z"/>
	<path class="st4" d="M491.15,484.98c0.95-4.64,3.46-8.61,7.14-11.18c9.14-6.4,9.65-17.19,13.86-26.05c1.3-2.74-1.58-3.63-4.12-3.78
		c-7.04-0.41-11.07,6.31-9.34,13.25c0.83,3.33-1.65,7.48-2.65,11.32c-11.15-5.73-11.62-10.92-3.3-19.95
		c3.88-4.21,6.31-9.76,9.36-14.72c1.01-1.65,1.79-3.74,4.32-2.65c1.11,0.48,2.86,1.54,2.81,2.24c-0.17,2.55-4.88,6.52,2.12,6.36
		c4.73-0.11,8.16-3.11,8.73-7.75c0.59-4.79,3.66-8.16,5.48-12.22c0.08-0.17,0.54-0.16,1.69-0.46c0.47,6.59,6.64,11.3,4.66,19.36
		c5.29-2.61,3.25-9.34,9.39-11.08c0.86,4.07,1.75,8.22,2.63,12.37l0.02-0.02c-9.57-0.33-10.31,7.6-12.93,14.56
		c-0.88-1.67-1.4-2.8-2.05-3.85c-1.24-1.99,3.17-5.69-1.39-6.26c-3.73-0.47-4.91,3.52-4.78,6.08c0.36,7.1-1.3,11.03-9.38,12.39
		c-3.01,0.51-6.73,6.68-7.18,10.6c-1.13,9.83-9.09,8.98-15.05,11.46L491.15,484.98z"/>
	<path class="st4" d="M182.36,463.47c5.23,3.87,13.36-0.6,17.89,7.01c1.64,2.74,5.52-3.61,9.31-3.15
		c-2.31,10.2-1.21,11.4,9.42,11.88c4.93,0.22,9.53-1,14.24-1.87c-1.11,7.08-5.1,9.13-11.69,6.74c-5.65-2.05-7.66,0.72-7.98,5.95
		c-0.55,8.9,5.78,17.5,13.65,18.38c-6.24,6.76-16.96,4.85-20.89-4.98c-2.18-5.44-4.7-6.99-9.77-6.76c-6.47,0.29-8.12-3.07-7.81-9.18
		c0.23-4.46,3.3-10.49-6.16-11.74C178.62,475.23,179.5,467.8,182.36,463.47z"/>
	<path class="st8" d="M555.69,357.97c0.02,4.6,5.25,4.29,7.67,8.66c-10.69,3.82-20.89,8.16-32.24,8.94
		c-3.64,0.25-8.02-1.45-8.9,4.54c-0.53,3.61-3.15,2.61-5.11,1.38c-8.16-5.12-16.52-1.48-24.76-0.58c-1.79,0.19-1.02,2.75-1.27,4.27
		c-1.29,0.68-2.59,1.35-3.88,2.02c-4.85,1.38-6.58,5.29-7.79,9.63c-4.3,0.35-4.34-4.95-7.72-5.82c4.19-6.46-0.44-12.87-0.11-19.31
		c2.45,0.9,5.27,3.07,6.02-1.78c3.21-0.01,6.43-0.01,9.64-0.02c0.83,4.07,2.81,4.66,5.89,1.95c1.3-0.54,2.6-1.08,3.89-1.62
		c1.25-0.07,2.49-0.14,3.74-0.2c1.42,1.57,2.83,1.58,4.24-0.01c9.64-1.14,19.56,1.01,28.99-2.54c15.08,0.46,15.45,0.16,11.69-9.36
		c3.32-0.06,6.65-0.12,9.97-0.18L555.69,357.97z"/>
	<path class="st2" d="M596.72,52.98c-20.16-8.52-41.01-14.32-62.81-16.88c-15.43-1.81-30.68-0.64-45.82,1.96
		c-4.18,0.72-8.31,0.9-12.46,1.34c-0.73-0.09-1.47-0.18-2.2-0.27c23.2-9.17,47.07-11.69,71.57-6.59c0.5-3.11-2.61-3.16-3.06-5.07
		c6.99-4.65,14.49-0.67,20.49,1.03c12.11,3.44,24.01,8.72,34.24,16.72C596.68,47.81,596.7,50.4,596.72,52.98z M549.86,31.4
		c-0.32-0.12-0.63-0.25-0.95-0.37c0.27,0.17,0.54,0.34,0.8,0.51c3.85,4.28,8.31,6.51,16.1,5.05C559.77,32.34,555,31.27,549.86,31.4z
		"/>
	<path class="st0" d="M444.14,334.36c1.26,5.09-3.48,8.07-4.36,12.5c-1.05,5.28-4.07,10.41,3.19,13.99c2.67,1.32,2.57,3.93-0.48,6
		c-3.3,2.24-7.47,4.04-6.93,9.92c-3.55-4.72-3.12-11.85-10.64-11.56c-0.4,0.02-1.22-0.85-1.2-1.29c0.8-20.24-8.45-39.07-8.32-59.21
		c7,1.13,2.11,14.71,12.68,12.1c0.11,0.61,0.43,1.27,0.3,1.83c-1.8,7.51,3.54,14.27,2.24,21.72c-0.16,0.25-0.33,0.5-0.49,0.75
		c0.14-0.27,0.28-0.54,0.43-0.81c4.99,0.38,9.35-0.58,11.81-5.57C442.91,334.4,443.5,334.28,444.14,334.36z"/>
	<path class="st5" d="M338.66,400.99c-9.94,1.73-15.85,11.02-25.38,13.53c-3.04-2.9-3.52-0.48-4.02,1.93
		c-2.64,1.19-4.31,4.25-7.71,3.95c-4.37-5.73-8.01,6.07-12.54,0.28c1.61-5.56,8.45-6.73,10.58-11.92c0.63-0.03,1.27-0.05,1.9-0.05
		c2.58,0.04,3.88-1.27,4.01-3.82c1.27-0.02,2.53-0.04,3.8-0.07c2.88,0.08,4.83-1.26,5.94-3.89c1.27-0.01,2.55-0.02,3.82-0.02
		c3.83-3.94,10.2-3.41,13.76-7.81c1.27-0.01,2.55-0.03,3.82-0.04c3.73-1.17,8.53-0.44,9.94-5.68c1.91-0.01,3.82-0.02,5.72-0.02
		c2.3,2.89,4.64-0.16,6.92,0.07c5.02,0.51,11.01-2.64,14.54,3.71c-9.69,5.5-19.97,9.09-31.19,9.68
		C341.2,398.87,339.89,398.98,338.66,400.99z"/>
	<path class="st4" d="M299.6,408.75c-2.13,5.2-8.97,6.37-10.58,11.92c4.53,5.79,8.17-6.01,12.54-0.28
		c-13.15,8.01-25.53,17.44-40.47,22.19c-8.58,2.72-17.38,0.74-26.06,1.29c2.73-10.42,11.49-3.62,17.33-6.41
		c0.17-2.43-3.93-0.58-3.54-2.27c0.57-2.45,2.51-4.57,5.22-4.71c4.39-0.23,8.09-0.37,9.26-6.07c0.61-2.93,4.4-1.92,6.86-1.95
		c7.42-0.08,15.15,0.49,12.26-11.11c-0.47-1.87,1.74-2.37,3.36-2.67C290.37,413.13,295,406.75,299.6,408.75z"/>
	<path class="st7" d="M423.2,549.12c-8.62,0.04-17.24,0.08-25.85,0.12c12.42-4.35,19.69-15.66,30.26-22.55
		c2.2-1.44,1.61-4.68-1.05-6.51c0.09-1.26,0.18-2.51,0.27-3.77c5.78,0.67,9.69-1.69,11.82-7.14c1.06-2.71,2.57-5.11,5.95-5.31
		c0,0,0.25,0.23,0.24,0.23c0.55,0.63,1.11,1.25,1.67,1.88c0,0,0.13,0.21,0.13,0.21c-0.16,1.65,0.21,3.06,1.84,3.86
		c0.25,0.58,0.42,1.19,0.49,1.82c-0.31,2.05-0.62,4.09-0.92,6.14C440.16,528.75,433.95,540.75,423.2,549.12z"/>
	<path class="st4" d="M373.79,391.13c-3.53-6.35-9.53-3.2-14.54-3.71c-2.28-0.23-4.62,2.82-6.92-0.07
		c7.41-4.24,16.32-5.54,22.54-12.24c2.58-2.78,3.56-5.49,2.51-8.73c-1.22-3.78-4.02-1.78-6.47-1.3c-1.84,0.36-4.36,0.85-5.63-0.05
		c-6.71-4.76-12.15-2.02-17.39,2.37c-2.16,1.81-4.54,2.38-7.22,2.29c4.86-6.78,10.65-11.98,19.69-11.86
		c2.36,0.03,3.42-1.46,3.63-3.67c8.62-1.6,15.8,2.22,22.68,6.46c4.07,2.52,7.03,6.06,2.95,11.09c-0.49-3.24-1.5-5.99-5.51-6.43
		c-0.91,4.13-0.29,8-1.85,11.69c-1.18,2.79-0.93,5.85,3.29,6.32C383.13,388.16,377.78,388.63,373.79,391.13z"/>
	<path class="st10" d="M444.14,334.36c-0.64-0.07-1.23,0.05-1.79,0.36c-5.71-4.26-7.89-9.73-8.18-17.05
		c-0.18-4.43,1.96-12.36-1.33-13.05c-9.09-1.92-10.3-9.28-13.98-15.12c-0.36-1.81-0.73-3.61-1.09-5.42
		c0.42-0.84,0.84-1.69,1.26-2.53c5.68,5.71,9.56,13.59,19.91,13.11c2.45-0.11,5.02,5.78,4.45,9.74c-0.72,5.02,4.53,8.81,1.92,14.46
		c-0.99,2.13,3.39,1.45,5.44,1.65c0.93,0.11,1.87,0.21,2.8,0.31c-1.27,1.89-2.53,3.78-3.8,5.67c-1.28,1.77-2.56,3.54-3.85,5.31
		c-0.59,0.87-1.18,1.74-1.76,2.61C444.14,334.4,444.14,334.36,444.14,334.36z"/>
	<path class="st0" d="M449.75,326.48c1.27-1.89,2.53-3.78,3.79-5.66c2.63-0.68,2.78-2.74,2.72-4.92c1.05-0.94,2.11-1.87,3.16-2.81
		c0,0,0.09-0.06,0.09-0.06c1.91-1.21,3.82-2.42,5.72-3.62c12.42-4.9,23.46-14.04,38.02-12.36c4.05-0.31,6.04,1.58,6.02,5.62
		c-0.81,0.83-1.62,1.67-2.43,2.5c-7.69-8.01-15.17-2.46-18.71,3.08c-6.19,9.68-15.69,11.45-24.86,13.98
		C458.69,323.49,455.1,327.97,449.75,326.48z"/>
	<path class="st0" d="M471.58,371.71c-0.33,6.44,4.3,12.85,0.11,19.31c-4.63-4.43-8.38-9.45-10.18-15.71
		c-1.27-4.43-3.21-8.42-7.28-10.92c-7.53-4.61-7.9-10.23-0.96-15.95c0.74-0.61,2-1.07,2.18-1.8c3.01-12.31,8.88-5.89,14.32-2.25
		c-1.34,3.21-2.68,6.42-4.02,9.63c0,0,0,0,0,0c-3.78,0.31-5.88,2.24-5.69,6.16c0.18,3.73,3,3.46,5.57,3.5
		c0.7,0.04,1.4,0.08,2.1,0.12c-0.01,1.29-0.01,2.59-0.02,3.88C466.04,371.88,469.62,371.01,471.58,371.71z"/>
	<path class="st0" d="M555.65,357.93c-3.32,0.06-6.65,0.12-9.97,0.18c-16.85-1.01-33.86,1.45-50.59-2.29
		c-1.32-1.9-4.25-2.69-3.93-5.71c3.51-2.22,6.98-1.82,10.93-0.78c4.45,1.17,9.57,2.36,12.78-3.01c8.42,5.7,17.95,3.17,27.08,3.69
		c4.76,0.71,9.59,1.2,13.74,4C555.68,355.32,555.67,356.63,555.65,357.93z"/>
	<path class="st0" d="M596.72,52.98c-0.02-2.59-0.03-5.18-0.05-7.76c22.4,7.44,40.64,21.63,58.64,36.18c1.24,1,3.78,2.23,1.92,4.49
		c-1.08,1.31-2.67,1.2-4.21-0.18C636.52,70.92,615.49,63.89,596.72,52.98z"/>
	<path class="st11" d="M372.35,259.79c1.81,0.02,3.61,0.05,5.42,0.07c2,1.12,3.99,2.24,5.99,3.36c0.22,0.15,0.66,0.38,0.63,0.45
		c-0.16,0.45-0.41,0.86-0.64,1.28c-2.59,5.81-7.75,2.77-11.83,3.43c-6.24-4.22-13.57,1.65-19.86-2.13c0-1.8,0-3.59,0-5.39
		c-0.29-0.02-0.59-0.05-0.88-0.07c-0.26,1.72-0.52,3.44-0.78,5.16c-2.61,0.62-5.21,1.15-7.71-0.36c-1.27-2.77-2.68-1.92-4.13-0.15
		c-2.29,0.15-4.88,2.03-6.61-1.15c1.72-1.42,0.98-3.46,1.26-5.24c7.9-1.29,15.82,1.71,23.72-0.15c1.09,0.48,2.17,0.96,3.25,1.43
		C364.35,262.76,368.36,261.57,372.35,259.79z"/>
	<path class="st7" d="M441.76,453.4c-5.69,3.19-11.38,6.39-17.08,9.58c-2.56,0.87-5.12,1.73-7.69,2.59
		c-4.07,0.38-8.14,0.76-12.78,1.19c1.75-4.48,5.64-5.51,8.94-7.17c12.28-6.18,21.88-16.06,33.01-23.81l0.96,0l0.96-0.02
		c3.7,4.01,0.16,8.09,0.11,12.13C446.55,450.33,444.5,452.27,441.76,453.4z"/>
	<path class="st12" d="M418.86,289.5c3.68,5.84,4.89,13.2,13.98,15.12c3.29,0.7,1.15,8.63,1.33,13.05
		c0.29,7.31,2.47,12.78,8.18,17.05c-2.46,4.99-6.82,5.95-11.81,5.58l0.06,0.06c1.31-7.44-4.03-14.21-2.24-21.72
		c0.13-0.55-0.19-1.22-0.3-1.83c-10.56,2.61-5.68-10.98-12.68-12.1c0-1.01-0.01-2.01-0.03-3.01c3.52-1.39,4.69-3.34,1.5-6.32
		c-0.06-1.29-0.11-2.58-0.17-3.88C417.42,290.83,418.14,290.17,418.86,289.5z"/>
	<path class="st8" d="M506.84,305.17c0.81-0.83,1.62-1.67,2.43-2.5c6.75,1.45,14.45,5.6,16.67-5.86c2.21-1.9,4.42-3.8,6.62-5.71
		c0.27,0.43,0.66,0.6,1.16,0.52c3.98-0.13,5.68-5.33,10.08-4.52c1.14,3.04-3.3,8.79,4.24,8.72c-0.07,1.12-0.14,2.24-0.21,3.37
		c-1.29,0.04-2.59,0.07-3.88,0.11c-0.67,0.61-1.34,1.23-2.01,1.84c-5.14,2.16-11.64,0.82-15.61,6.02
		c-8.46,1.68-16.24,5.01-23.45,9.71c0.01-1.65-0.32-3.14-1.95-3.99c0.02-0.6,0.04-1.2,0.05-1.8
		C502.93,309.12,504.89,307.14,506.84,305.17z"/>
	<path class="st12" d="M541.94,27.48c0.46,1.91,3.56,1.96,3.06,5.07c-24.51-5.09-48.37-2.58-71.57,6.59c-0.6,0.08-1.2,0.15-1.8,0.22
		c-1.61-0.03-3.06,0.28-4.03,1.74c-1.91,0.67-3.81,1.34-5.72,2.01c-0.68-1.28-1.35-2.56-2.03-3.84c2.45-7.39,9.21-4.33,14.01-5.42
		c13.38-3.03,26.55-7.71,40.63-6.46c3.36-0.04,6.72-0.08,10.07-0.13c3.13-0.01,6.25-0.03,9.38-0.04c0.76,0.07,1.52,0.15,2.27,0.22
		C538.13,27.45,540.04,27.46,541.94,27.48z"/>
	<path class="st2" d="M459.86,39.27c0.68,1.28,1.35,2.56,2.03,3.84c-1.33,2.63-6.15,1.64-6.02,5.79c-2.9,2.01-6.22,2.21-9.59,2.18
		c-3.73,1.15-8.51,0.47-9.92,5.68c0,0-0.09,0.03-0.09,0.03c-4.4-0.79-10.49,1.82-11.55-5.72C436.51,47.39,446.1,37.11,459.86,39.27z
		"/>
	<path class="st5" d="M363.99,354.15c-0.21,2.21-1.27,3.7-3.63,3.67c-9.04-0.12-14.83,5.07-19.69,11.86
		c-0.01,0.64-0.03,1.27-0.04,1.91c-2.6,1.11-3.92,3.07-3.89,5.91c-3.25,1.32-6.49,2.64-9.74,3.96c-0.69,0.01-1.38,0.01-2.07,0.02
		c-1.25,0.02-2.5,0.03-3.74,0.05c0,0-0.41-0.45-0.41-0.45c0.52-2.8,2.02-4.58,4.86-5.47c7.59-2.39,11.91-8.23,15.79-14.78
		c-5.39-2.56-9.93,0.62-14.67,0.71c0.91-4.71,5.38-4.77,8.39-5.16C344.71,355.15,354.37,354.82,363.99,354.15z"/>
	<path class="st8" d="M465.76,354.02c1.34-3.21,2.68-6.42,4.02-9.63c4.38-5.96,9.04-9.61,17.43-6.42c2.94,1.12,8.05,0.82,11.79-1.39
		c0.92,1.57,2.47,1.85,4.08,2.01c-0.05,1.88-0.11,3.76-0.16,5.64c-3.5,2.24-7.72,2.93-11.26,1.76c-10.23-3.37-17.84-0.38-23.87,8.02
		C467.11,354.02,466.44,354.02,465.76,354.02z"/>
	<path class="st9" d="M213.45,447.97c-3.36,4.49-21.51,9.62-25.37,7.05c-2.6-1.73-1.58-4.6-1.8-7.06c1.28-2.49,1.91-5.53,5.28-6.28
		c3.72,2.06,7.06,6.07,11.92,2.38C207.59,443.34,210.99,444.45,213.45,447.97z"/>
	<path class="st5" d="M268.39,385.6c-5.09,3.08-9.1,7.99-16.56,9.62c3.99-9.04,7.6-17.21,11.2-25.37c1.54-0.87,3.08-1.74,4.62-2.6
		C269.02,373.31,260.32,379.79,268.39,385.6z"/>
	<path class="st13" d="M203.47,444.06c-4.87,3.69-8.2-0.32-11.92-2.38c3.47-4.73,8.21-7.76,13.47-10.09
		c3.33-0.55,6.65-1.1,9.97-1.66c1.9,1.49,2.57,2.97-0.3,4.03C209.59,435.84,206.55,439.96,203.47,444.06z"/>
	<path class="st11" d="M322.04,264.37c-8.08,1.49-15.92-1.11-23.9-1.36c0.11-0.36,0.28-0.7,0.5-1.01l-0.1,0
		c1.25,1.82,3.3,2.72,4.83,1.35c1.43-1.28,0.8-3.51-0.38-5.19c3.6-5.09,8.03,1.88,11.8-0.81c0.16,0.96,0.31,1.92,0.47,2.87
		c-1.99-1.19-4.06-2.65-4.2,1.47c-0.05,1.52-0.58,3.71,1.9,3.19c2.2-0.46,1.3-3.21,2.24-4.74
		C319.25,258.71,320.53,261.72,322.04,264.37z"/>
	<path class="st4" d="M491.74,435.4c-9.51,4.73-11.34,12.76-10.07,21.99c0.39,2.85,0.94,5.42-2.84,5.64
		c-3.27,0.19-3.04-2.54-3.31-4.8C474.32,448.22,482.71,435.68,491.74,435.4z"/>
	<path class="st6" d="M444.6,503.96c-3.38,0.2-4.89,2.6-5.95,5.31c-2.13,5.46-6.03,7.81-11.82,7.14c-0.08-1.7-0.16-3.4-0.24-5.1
		c5.03-4.94,10.06-9.88,15.08-14.82C442.65,498.98,443.62,501.47,444.6,503.96z"/>
	<path class="st9" d="M215,429.94c-3.32,0.55-6.65,1.11-9.97,1.66c2.42-7.41,5.32-14.51,12.18-19.08
		C216.98,418.38,220.54,424.73,215,429.94z"/>
	<path class="st8" d="M555.69,354.01c-4.16-2.8-8.98-3.29-13.74-4c0.05-1.29,0.11-2.58,0.16-3.88c6.51,1.92,13.46-3.44,20.04,1.67
		c2.41,1.87,3.39,3.42,3.27,6.12c-1.3,0.02-2.61,0.05-3.91,0.07c-0.65-0.01-1.3,0-1.95,0.02
		C558.27,354.02,556.98,354.02,555.69,354.01z"/>
	<path class="st4" d="M536.83,467.94c-1.16,0.29-2.95,0.93-4.78,1.13c-1.73,0.19-3.88,2.09-5.18-0.06
		c-1.23-2.03-0.23-4.34,0.96-6.32c0.88-1.48,15.19-2.47,15.56-0.99c0.45,1.77,0.63,3.97-0.04,5.58
		C542.16,470.11,539.7,468.94,536.83,467.94z"/>
	<path class="st2" d="M395.38,70.57c6.11-9.06,14.18-14.27,25.91-13.54c-2.71,5.7-12.14,1.45-12.32,9.5
		c-0.84,1.63-2.34,1.92-3.96,1.99C401.79,69.2,398.58,69.88,395.38,70.57L395.38,70.57z"/>
	<path class="st13" d="M437.9,423.22c-4.88-1.47-9.88-0.93-14.85-0.85c-0.4-2.84-1.17-6.31,2.6-7.03c5.2-0.99,10.78-1.97,14.76,3.29
		C440.34,420.58,439.64,422.19,437.9,423.22z"/>
	<path class="st9" d="M437.9,423.22c1.75-1.03,2.45-2.64,2.51-4.59c5.54,1.14,8.63,4.64,9.72,10.07c-0.68,2.36-1.35,4.72-2.03,7.08
		l-0.96,0.02c0,0-0.96,0-0.96,0c-0.2-4.02-3.17-3.5-5.8-3.54c-0.7-0.68-1.41-1.36-2.11-2.03
		C438.14,427.89,438.02,425.55,437.9,423.22z"/>
	<path class="st5" d="M320.91,366.83c-9.01,0.04-15.92,7.76-25.19,6.84c7.37-8.19,17.84-9.01,27.57-11.59
		C322.49,363.67,321.7,365.25,320.91,366.83z"/>
	<path class="st5" d="M259.02,273.37c2.45-3.59,4.68-7.26,9.67-7.14c2.41,0.06,3.94,1.73,3.01,3.78c-1.74,3.82-4.15,7.52-9.14,7.33
		C260.4,277.26,259.35,275.5,259.02,273.37z"/>
	<path class="st0" d="M659.24,53.2c-0.02-1.35-0.03-2.7-0.05-4.04c6.48,5.14,11.5,11.32,13.8,19.43l-0.06,0.06
		C665.41,66.12,661.13,60.72,659.24,53.2z"/>
	<path class="st6" d="M267.64,367.24c-1.54,0.87-3.08,1.73-4.62,2.6c-0.41-3.88-2.78-4.72-6.17-3.98c1.03-5.02,3.97-8.73,9.16-7.25
		C270.07,359.77,270.15,363.75,267.64,367.24z"/>
	<path class="st1" d="M383.75,264.95c0.22-0.42,0.48-0.84,0.64-1.28c0.02-0.07-0.41-0.29-0.63-0.45c3.03-1.19,5.24-4.37,9.03-3.76
		c0,0,0.13,0.08,0.13,0.08c2.34,1.64,2.67,4.08,2.65,6.66c-0.23,0.63-0.46,1.25-0.69,1.88c-1.46,0.48-2.93,0.96-4.4,1.43
		C388.24,267.99,385.99,266.47,383.75,264.95z"/>
	<path class="st5" d="M385.54,383.28c-4.22-0.48-4.47-3.53-3.29-6.32c1.56-3.69,0.94-7.56,1.85-11.69c4.01,0.44,5.02,3.2,5.51,6.43
		c-0.07,1.9-0.13,3.79-0.2,5.69c-3.84,0.29-3.87,3.09-3.86,5.9L385.54,383.28z"/>
	<path class="st14" d="M315.26,260.23c-0.16-0.96-0.32-1.92-0.47-2.87c1.87-0.86,3.55-0.43,5.13,0.72c0,0-0.3-0.23-0.3-0.23
		c4.6-0.31,9.15-0.15,13.6,1.18c-0.28,1.79,0.46,3.82-1.26,5.25c-3.24,1.31-6.53,1.54-9.87,0.09c-1.55-2.66-2.84-5.67-6.88-4.22
		L315.26,260.23z"/>
	<path class="st1" d="M298.54,262.01c0,0,0.1,0,0.1,0c-2.43,0.16-4.85,0.31-7.28,0.47c-0.4-0.18-0.81-0.33-1.23-0.45
		c-1.49-2.25-2.64-4.59-1.71-7.4c3.79-1.19,7.22,0.04,10.61,1.58C299.8,258.23,300,260.19,298.54,262.01z"/>
	<path class="st0" d="M455.86,48.89c-0.12-4.15,4.69-3.16,6.02-5.79c1.91-0.67,3.81-1.34,5.72-2.01c1.65,0.13,3.11-0.17,4.03-1.74
		c0.6-0.07,1.2-0.14,1.8-0.22c0.73,0.09,1.46,0.17,2.2,0.26C470.89,46.42,463.73,48.39,455.86,48.89z"/>
	<path class="st4" d="M543.93,440.04c1.91,0.75,7.08-3.35,5.13,2.94c-1.23,3.96-0.54,9.11-5.48,12.24
		c-3.61-5.59,2.15-10.34,0.36-15.2C543.95,440.02,543.93,440.04,543.93,440.04z"/>
	<path class="st6" d="M448.1,435.78c0.68-2.36,1.35-4.72,2.03-7.08c3.78,6.85,7.64,13.7-1.92,19.21
		C448.26,443.87,451.79,439.79,448.1,435.78z"/>
	<path class="st4" d="M676.44,152.78c-1,2.16-1.14,5.17-4.01,4.85c-2.64-0.3-4.43-2.51-4.92-5.19c-0.44-2.39,1.09-3.44,3.34-3.54
		C673.78,148.78,675.66,150.06,676.44,152.78z"/>
	<path class="st4" d="M211.56,463.44c-0.89-8.7,4.24-11.39,11.72-11.74C220.22,456.46,216.31,460.37,211.56,463.44z"/>
	<path class="st12" d="M383.75,264.95c2.24,1.52,4.48,3.04,6.72,4.56c-3.92,0.88-8.02-0.1-11.96,1.51c-2.53,1.03-5.7,1.46-6.6-2.64
		C376.01,267.72,381.16,270.76,383.75,264.95z"/>
	<path class="st0" d="M418.86,289.5c-0.72,0.67-1.44,1.33-2.17,2c-5.18-1.04-3.42-4.96-3.39-8.16c1.49,0.25,2.98,0.49,4.47,0.73
		C418.13,285.89,418.5,287.69,418.86,289.5z"/>
	<path class="st5" d="M291.95,374.42c-1.16,0.67-2.32,1.34-3.48,2c-3.03-1.42-5.48,1.35-8.34,1.13
		C283.07,372.76,286.45,369.58,291.95,374.42z"/>
	<path class="st14" d="M288.43,254.63c-0.93,2.81,0.21,5.15,1.71,7.4c-2.76-0.16-6.03-0.1-6.29-3.72
		C283.66,255.75,286.39,255.26,288.43,254.63z"/>
	<path class="st0" d="M436.35,56.75c1.41-5.21,6.19-4.53,9.92-5.68C447.04,60.09,439.42,54.45,436.35,56.75z"/>
	<path class="st6" d="M280.13,377.55c2.86,0.22,5.31-2.55,8.34-1.13c-2.82,4.58-7.29,5.24-12.09,5.13
		c-0.04-0.65-0.07-1.29-0.11-1.94c1.6-0.09,3.01-0.51,3.83-2.05L280.13,377.55z"/>
	<path class="st12" d="M417.77,284.08c-1.49-0.24-2.98-0.49-4.47-0.73c-0.11-1.86-0.23-3.71-0.34-5.57c0.7-0.07,1.4-0.15,2.1-0.22
		c1.32,1.33,2.64,2.66,3.97,3.99C418.61,282.39,418.19,283.23,417.77,284.08z"/>
	<path class="st12" d="M394.87,268.08c0.23-0.63,0.46-1.25,0.69-1.88c2.57-0.09,5.13-0.18,7.7-0.27c0.69,1.28,1.39,2.55,2.08,3.83
		C401.85,269.2,398.36,268.64,394.87,268.08z"/>
	<path class="st4" d="M252.68,477.17c-1.94,2.49-3.9,2.52-5.88,0.05C248.74,474.68,250.7,474.68,252.68,477.17z"/>
	<path class="st0" d="M416.86,295.38c3.19,2.99,2.02,4.93-1.5,6.32C414.94,299.38,414.44,297.03,416.86,295.38z"/>
	<path class="st14" d="M298.54,262.01c1.46-1.82,1.26-3.78,0.5-5.79c1.32,0.65,2.64,1.3,3.96,1.95c1.18,1.68,1.81,3.92,0.38,5.19
		C301.84,264.73,299.79,263.83,298.54,262.01z"/>
	<path class="st4" d="M385.55,383.29c-0.01-2.81,0.02-5.61,3.86-5.9C389.55,380.29,388.24,382.24,385.55,383.29z"/>
	<path class="st2" d="M524.57,27.26c-3.36,0.04-6.72,0.09-10.07,0.13C517.82,24.82,521.18,24.99,524.57,27.26z"/>
	<path class="st4" d="M223.29,451.67c0.12-2.55,1.47-3.8,4.01-3.77C227.16,450.42,225.86,451.72,223.29,451.67z"/>
	<path class="st4" d="M309.27,416.45c0.5-2.4,0.98-4.83,4.02-1.93C312.44,416.19,310.96,416.54,309.27,416.45z"/>
	<path class="st4" d="M338.66,400.99c1.22-2.01,2.54-2.12,3.94-0.19C341.39,402.85,340.08,403,338.66,400.99z"/>
	<path class="st14" d="M350.4,265.95c0.26-1.72,0.52-3.44,0.78-5.16c0.29,0.02,0.59,0.05,0.88,0.07c0,1.8,0,3.59,0,5.39
		c0,0-0.9,0.23-0.9,0.23L350.4,265.95z"/>
	<path class="st14" d="M291.36,262.48c2.43-0.16,4.85-0.31,7.28-0.47c-0.22,0.31-0.39,0.64-0.5,1.01
		C295.71,264.95,293.45,264.88,291.36,262.48z"/>
	<path class="st10" d="M415.06,277.56c-0.7,0.07-1.4,0.15-2.1,0.22c-0.62-0.68-1.23-1.35-1.85-2.03c0.11-0.7,0.22-1.41,0.33-2.11
		C413.78,273.9,414.86,275.33,415.06,277.56z"/>
	<path class="st6" d="M448.05,518.09c0.31-2.05,0.61-4.09,0.92-6.14C450.58,514.29,450.24,516.33,448.05,518.09z"/>
	<path class="st5" d="M280.09,377.55c-0.82,1.54-2.24,1.96-3.83,2.05C276.95,377.84,278.41,377.49,280.09,377.55z"/>
	<path class="st6" d="M450.8,485.58c0.42-0.85,0.84-1.7,1.26-2.55C453.33,484.71,451.79,485.01,450.8,485.58z"/>
	<path class="st4" d="M491.18,485.01c-0.25,0.85-0.49,1.7-0.74,2.54c-0.25-0.16-0.49-0.32-0.74-0.49c0.48-0.69,0.97-1.39,1.45-2.08
		C491.15,484.98,491.18,485.01,491.18,485.01z"/>
	<path class="st6" d="M256.72,366c-0.07,1.6-0.63,2.88-2.28,3.44C254.48,367.82,255,366.51,256.72,366z"/>
	<path class="st14" d="M338.56,265.44c1.44-1.77,2.85-2.62,4.13,0.15C341.31,265.54,339.94,265.49,338.56,265.44z"/>
	<path class="st0" d="M678.36,74.34c-0.08,0.22-0.17,0.45-0.25,0.67c-0.25-0.26-0.5-0.52-0.75-0.78c0.18-0.17,0.37-0.33,0.55-0.5
		C678.06,73.94,678.21,74.14,678.36,74.34z"/>
	<path class="st6" d="M448.48,510.14c-1.63-0.8-2-2.21-1.84-3.86C447.25,507.56,447.86,508.85,448.48,510.14z"/>
	<path class="st12" d="M411.45,273.64c-0.11,0.7-0.22,1.41-0.33,2.11c-1.2-0.31-1.85-1.05-1.75-2.34
		C410.06,273.49,410.75,273.56,411.45,273.64z"/>
	<path class="st12" d="M405.33,269.77c1.26,0,1.96,0.64,2.12,1.88C406.11,271.73,405.42,271.09,405.33,269.77z"/>
	<path class="st2" d="M536.23,27.43c-0.76-0.07-1.52-0.14-2.27-0.22C534.81,26.22,535.57,26.26,536.23,27.43z"/>
	<path class="st6" d="M254.39,369.52c-0.55,0.7-1.09,1.39-1.64,2.09C253.3,370.92,253.85,370.22,254.39,369.52z"/>
	<path class="st0" d="M579.2,86.32c-0.72,1.29-1.41,1.26-2.1-0.03C577.81,86.31,578.51,86.31,579.2,86.32z"/>
	<path class="st9" d="M217.58,410.74c0.18,0.46,0.36,0.92,0.55,1.39c-0.29,0.1-0.58,0.19-0.88,0.29
		C217.26,411.83,217.37,411.28,217.58,410.74z"/>
	<path class="st11" d="M319.61,257.86c0,0,0.31,0.22,0.3,0.23C319.92,258.09,319.61,257.86,319.61,257.86z"/>
	<path class="st0" d="M444.14,334.4c0.59-0.87,1.18-1.74,1.76-2.61C445.31,332.66,444.72,333.53,444.14,334.4z"/>
	<path class="st0" d="M673,68.58c0.26,0.28,0.51,0.56,0.77,0.84c-0.28-0.26-0.55-0.52-0.83-0.78C672.93,68.65,673,68.58,673,68.58z"
		/>
	<path class="st6" d="M446.51,506.06c-0.56-0.63-1.11-1.25-1.67-1.88C445.4,504.81,445.95,505.44,446.51,506.06z"/>
	<path class="st0" d="M559.56,354.02c0.65-0.02,1.3-0.03,1.95-0.02C560.88,355.36,560.23,355.35,559.56,354.02z"/>
	<path class="st4" d="M541.94,301.15c0.67-0.61,1.34-1.23,2.01-1.84C543.28,299.92,542.61,300.53,541.94,301.15z"/>
	<path class="st4" d="M618.29,166.23c-0.68-0.61-1.36-1.22-2.04-1.84C616.93,165,617.61,165.61,618.29,166.23z"/>
	<path class="st0" d="M360.19,260.32c-1.08-0.48-2.17-0.96-3.25-1.43C358.37,258.57,359.46,259.02,360.19,260.32z"/>
	<path class="st2" d="M413.65,27.12c-2.98,5.57-3.83,9.93-9.12,9.92c-2.37-0.01-3.52-1.92-3.01-3.95
		C402.84,27.81,407.49,28.74,413.65,27.12z"/>
	<path class="st2" d="M395.37,70.56c-0.47,1.04-0.93,2.08-1.4,3.11c-0.38-0.25-0.77-0.5-1.15-0.75
		C393.67,72.14,394.53,71.35,395.37,70.56C395.38,70.57,395.37,70.56,395.37,70.56z"/>
	<path d="M328.92,500.63c4.71-3.29,10.66-1.64,15.63-3.93c0.44,8.2,4.88,6.58,9.73,3.98c11.72-2.44,22.53-7.48,33.45-12.08
		c5.41-2.28,5.09-3.86-0.3-7.04c2.59-3.63,10.76-0.15,10.09-7.95c0,0,0.09-0.22,0.09-0.22c0.61-0.57,1.22-1.14,1.83-1.7
		c5.75-1.47,11.51-2.93,17.26-4.4c2.42,1.62,2.63,3.92,0.9,5.84c-6.22,6.94-9.44,16.24-17.44,21.77
		c-8.79,6.07-13.27,17.29-24.01,20.87c-6.8,2.26-13.09,4.4-17.84,10.45c-2.38,3.04-6.24,6.2-10.88,5.6
		c-10.23-1.32-19.12,2.42-27.86,6.79c-10.08,5.05-23,1.5-31.71,10.57c-18.23,0-36.46,0-54.69,0c10.48-13.33,23.83-22.26,40.09-27.25
		c4.6-1.41,10.76-1.03,12.83-7.28c1.23-0.1,2.46-0.2,3.69-0.29c0.79,1.37,1.4,1.24,1.83-0.23c2.52-0.75,5.04-1.51,7.56-2.26
		c3.47,0.47,6.18-0.81,8.23-3.58c1.14-0.14,2.29-0.29,3.43-0.43c2.38,0.82,4.31-0.46,6.31-1.38c0.68-0.62,1.35-1.23,2.03-1.85
		c0.62-0.03,1.24-0.07,1.87-0.12C324.19,504.24,326.92,503.18,328.92,500.63z"/>
	<path class="st4" d="M287.87,549.18c8.71-9.07,21.63-5.53,31.71-10.57c8.74-4.38,17.63-8.11,27.86-6.79
		c4.64,0.6,8.5-2.57,10.88-5.6c4.75-6.06,11.04-8.19,17.84-10.45c10.74-3.57,15.22-14.8,24.01-20.87
		c8.01-5.53,11.22-14.83,17.44-21.77c1.73-1.93,1.52-4.22-0.9-5.84c0.11-0.57,0.2-1.14,0.28-1.71c2.56-0.86,5.12-1.73,7.69-2.59
		c5.42,24.96-10.47,36.26-28.51,48.1c-12.56,8.24-26.27,14.52-38.3,23.74c-7.89,6.06-18.33,7.66-28.24,8.65
		c-7.21,0.72-13.86,2.64-20.3,5.7C302.18,549.17,295.03,549.18,287.87,549.18z"/>
	<path class="st6" d="M426.55,520.18c2.66,1.83,3.25,5.07,1.05,6.51c-10.57,6.9-17.84,18.2-30.26,22.55
		c-2.67-0.03-5.35-0.07-8.02-0.1c3.43-4.3,10.99-4.37,11.72-11.44c3.5-1.71,6.04-4.43,8.07-7.69
		C416.89,530.22,419.21,520.74,426.55,520.18z"/>
	<path class="st4" d="M409.11,530.01c-2.03,3.26-4.56,5.98-8.06,7.69c-9.22,0.86-17.46,3.73-23.32,11.43
		c-3.78,0.01-7.57,0.02-11.35,0.03c11.97-8.31,23.96-16.6,37.18-22.87C405.41,527.53,407.26,528.77,409.11,530.01z"/>
	<path class="st5" d="M377.73,549.13c5.87-7.71,14.1-10.57,23.32-11.43c-0.73,7.07-8.29,7.14-11.72,11.44
		C385.46,549.14,381.59,549.13,377.73,549.13z"/>
	<path class="st0" d="M407.1,11.91c1.35-8.15,5.78-4.87,10.68-2.78c-4.05,1.06-7.35,1.93-10.66,2.8
		C407.11,11.93,407.1,11.91,407.1,11.91z"/>
	<path class="st12" d="M526.36,97.97c3.98,6.21,9.41,6.68,15.65,3.96c0.61,1.94,1.22,3.87,1.83,5.81
		c-11.91,0.77-23.99-0.11-35.09-3.7c-10.96-3.55-20.87,1.59-31.29,0.62c-1.94-0.18-1.79,3.03-1.89,4.94
		c-2.14,0.69-4.33,1.28-6.42,2.1c-2.75,1.08-7.55,0.19-7.55,4.17c0,4.42,4.33,6.2,8.28,7.01c2.51,0.52,5.18,0.42,7.78,0.35
		c9.18-0.23,17.9,1.6,26.31,5.13c0.26,3.58-4.73,2.37-4.67,6.58c0.06,3.79-3.77,4.91-6.76,1.36c-9.42-11.18-19.71-0.82-29.7-1.02
		c10.77,4.12,21.54,8.23,32.31,12.35c-7.39,1.51-14.51,2.17-21.46,1.33c-7.83-0.94-11.15,1.34-9.61,9.35
		c-3.36-2.54-6.71-5.07-10.07-7.61c-5.37-6.08-12.8-8.66-20.24-10.83c2.74-8.54,8.37-11.78,16.37-12.37
		c-12.92-1.79-25.52-4.98-38.03,1.05c-4.93,2.38-10.56,6.02-12.75-3.2c3.88-5.1,9.24-8.91,10.65-16.04
		c1.08-5.51,7.76-5.05,11.83-7.29c10.79-5.91,20.64-14.45,34.13-13.74c8.32-0.1,16.37,0.94,23.47,5.78
		c-2.19,2.83-5.72,2.72-8.08,1.8c-11.65-4.54-19.14,3.63-29,8.26c4.56,2.27,7.78,0.78,11.21,0.15c12.68-2.31,25.53-6.31,38.13-5.68
		C503.39,99.18,514.82,99.96,526.36,97.97z"/>
	<path class="st12" d="M392.79,259.46c-3.79-0.62-6,2.56-9.03,3.75c-2-1.12-3.99-2.24-5.99-3.36c0.21-8.99,1.24-18.11-4.3-26.16
		c-3.09-4.48-0.64-9.58,0.94-12.88c3.61-7.54,0.85-17.66,9.32-23.07c-0.22,4.98,0.6,10.01-1.4,14.88c-1.07,2.62,0.36,4.17,3.13,4.44
		c1.78,3.42,2.95,7.97,6.84,8.99c6.65,1.73,6.7,5.38,5.17,10.77c-0.67,2.35,0.08,5.11,0.19,7.69c-3.18,1.84-2.06,5.06-2.49,7.78
		C390.57,253.43,391,256.23,392.79,259.46z"/>
	<path class="st8" d="M454.01,150.71c3.36,2.54,6.71,5.07,10.06,7.61c1.01,2.25,2.75,3.43,5.17,3.91c2.49,0.5,5.85,0.91,5.23,4.31
		c-0.51,2.77-3.74,3.19-6.3,3.48c-3.3,0.38-7.48-1.39-8.57,3.86c-0.37,0.47-0.31,0.87,0.2,1.2c-2.95-0.1-5.89-0.2-8.84-0.3
		c-0.74-0.2-1.48-0.4-2.22-0.61c-2.08-0.82-4.15-1.65-6.23-2.47c-0.8-0.35-1.61-0.69-2.41-1.04c-1.97-0.09-3.94-0.18-5.91-0.27
		c-4.39-0.35-8.78-0.69-13.16-1.04c-2.15-4.72-6.65-2.33-10.03-3.31c-0.63-1.17-1.27-2.34-1.9-3.51c12.08-5.54,25.89,0.11,39.6-5.89
		c-6.19-3.23-14.09-0.31-16.13-7.97c-0.02-1.28-0.04-2.56-0.06-3.84C439.77,146.43,445.98,151.88,454.01,150.71z"/>
	<path class="st2" d="M454.01,150.71c-8.02,1.18-14.24-4.27-21.5-5.87c-10.04-4.32-21.24,0.61-31.26-3.88l-0.02-0.02
		c-2.46-4.43-11.83-6.36-5.14-14.05c0.72-0.83,2.16-1.03,3.27-1.53c2.19,9.22,7.82,5.58,12.75,3.2c12.5-6.03,25.11-2.84,38.03-1.05
		c-8,0.6-13.63,3.84-16.37,12.37C441.21,142.05,448.63,144.62,454.01,150.71z"/>
	<path d="M432.56,148.67c2.04,7.66,9.94,4.74,16.13,7.97c-13.71,5.99-27.52,0.35-39.6,5.89c-6.82-0.82-9.87,5.41-14.8,8.1
		c-2.64,1.44-4.55,4.21-8.38,4.22C396.52,152.36,412.26,143.69,432.56,148.67z"/>
	<path class="st2" d="M479.44,94.07c-7.1-4.85-15.15-5.89-23.47-5.78c10.85-7,23.56-7.66,35.69-9.62
		c8.73-1.41,17.88-0.28,26.84-0.29c0.65,3.27,1.3,6.54,1.95,9.8c-3.82,0.02-7.67-1.23-11.23-1.22c-8.45,0.02-18.5-3.67-24.03,6.95
		C483.27,93.96,481.35,94.02,479.44,94.07z"/>
	<path class="st13" d="M410.99,166.05c3.39,0.97,7.88-1.42,10.03,3.31c-9.07,6.37-18.15,12.73-27.23,19.1c-0.06-2-0.12-4-0.18-6
		c0,0,0.31-0.32,0.3-0.32c3.55-0.51,3.35-3.28,3.51-5.84C400.23,170.59,405.54,168.23,410.99,166.05z"/>
	<path class="st2" d="M401.25,140.95c-0.98,7.12-3.88,12.96-11.12,15.46c-1.7,0.59-4.14,0.71-5.37-1.13
		c-1.08-1.61,0.61-2.86,1.43-4.22c3.45-5.74,6.13-12.52,15.03-10.12C401.23,140.93,401.25,140.95,401.25,140.95z"/>
	<path class="st13" d="M385.44,217.07c-2.77-0.27-4.2-1.82-3.12-4.44c2-4.87,1.18-9.9,1.4-14.88c0.7-0.66,1.4-1.31,2.09-1.97
		c4.42,0.33,3.2-6.54,7.73-6.07c-1.99,7.87-3.99,15.74-5.98,23.61C385.94,214.05,385.7,215.57,385.44,217.07z"/>
	<path class="st12" d="M393.55,189.71c-4.53-0.47-3.32,6.39-7.73,6.07c-2.63-7.5-1.35-12.72,7.8-13.32c0.06,2,0.12,4,0.18,6
		C393.74,188.87,393.66,189.29,393.55,189.71z"/>
	<path class="st12" d="M397.44,176.3c-0.17,2.55,0.04,5.33-3.51,5.84C390.79,177.6,395.1,177.54,397.44,176.3z"/>
	<path class="st10" d="M480.64,290.48c-0.92-9.27,2.39-17.69,5.48-26.09c1.22-3.32,2.56-6.53,3.54-9.98c1.9-6.7-1.29-7.16-5.72-4.9
		c-5.47,2.79-6.7,2.87-8.36-4.19c-1.03-4.37-4.44-11.11-13.66-11.61c-6.26-0.34-14.41-4.63-19.49-10.86
		c12.29-2.14,24.58-4.28,36.87-6.41c0.81,5.76,3.37,11.55-1.45,17.15c8.63,0.47,13.82-2.79,17.29-9.54
		c3.2-6.23,7.35-6.15,12.35-1.44c3.5,3.29,5.31,7.19,6.59,11.6c3.78,13.07,2.39,27.78,12.27,38.93c-2.09,0.85-3.93-0.16-5.54-1.13
		c-10.39-6.28-20.03-5.53-29.5,2.18c-3.84,3.12-6.71,6.55-5.66,11.41c1.06,4.91,4.71,3.03,7.75,1.79
		C492.72,303.11,484.89,289.4,480.64,290.48z"/>
	<path class="st10" d="M393.55,189.71c0.11-0.42,0.19-0.84,0.25-1.26c9.08-6.36,18.16-12.72,27.23-19.09
		c4.39,0.34,8.77,0.69,13.17,1.03c0.3,4.06-2.84,3.59-5.26,3.91c-7.79,1.04-14.78,3.69-20.21,9.65c-4.77,0.91-9.06,4.21-6.67,8.46
		c3.71,6.6,0.93,12.61,1.07,18.85c-0.26,0.28-0.51,0.57-0.77,0.85c0.3-0.24,0.59-0.49,0.89-0.73c4.47,0.08,7.71-0.76,6.1-6.58
		c-0.86-3.09,0.7-5.62,3.41-7.33c1.84,3.74,4.55,7.31,2.29,11.85c0.49,7.48,13.09,14.87,23.2,13.6c-0.55,6.66-1.57,12.97-10.06,13.9
		c-2.89,0.32-4.16,2.52-3.28,4.79c4.64,11.94-4.61,12.5-11.79,14.57c-5.18,1.5-11.33,1.68-9.84,9.76c-2.57,0.09-5.13,0.18-7.7,0.27
		c0.02-2.58-0.31-5.02-2.65-6.66c0.75-2.41,1.5-4.82,2.25-7.23c0.43-2.72-0.69-5.94,2.49-7.78c1.94,0.04,3.99-0.33,5.8,0.18
		c7.29,2.09,12.87,3.68,7.82-7.69c-2.31-5.2-3.63-11.19-9.43-12.34c-7.17-1.42-10.76-6.02-14.27-11.35
		C389.56,205.45,391.55,197.58,393.55,189.71z"/>
	<path class="st12" d="M438.23,222.9c-10.11,1.27-22.72-6.12-23.2-13.6c2.98,0.13,5.97,0.26,8.95,0.39
		c2.97,5.87,7.94,7.86,14.21,7.36c4.78,1.46,9.37,1.11,13.73-1.43c3.9-0.08,7.2-1.68,10.25-3.95c2.4-1.17,5.14-1.98,5.71-5.17
		c1.7-0.16,3.4-0.32,5.1-0.49c0.43,1.48,0.83,2.98,2.84,2.92c1.13,0.21,2.27,0.42,3.4,0.63c0.16,1.34,0.33,2.69,0.49,4.03
		c-0.13,0.95-0.27,1.9-0.4,2.85c-12.29,2.14-24.58,4.28-36.87,6.41C441.04,222.86,439.64,222.88,438.23,222.9z"/>
	<path class="st11" d="M446.03,236.03c6.69-1.19,11.48,4.77,17.47,2.28c0.75-0.31,2.11,2.34,1.09,2.99
		c-5.91,3.72-7.88,12.44-16.33,12.83c-1.3,0.06-2.69,0.45-3.88,0.13c-4.49-1.22-5.22,9.2-8.27,4.28
		c-2.57-4.13-0.87-11.55,0.34-17.21C437.51,236.33,441.61,234.11,446.03,236.03z"/>
	<path class="st12" d="M480.64,290.48c4.24-1.08,12.08,12.63,12.76-3.1c3.33-2.07,6.63-3.28,9.74,0.39c2.07,3.07,2.06,6.16,0.1,9.28
		c-14.56-1.68-25.6,7.46-38.02,12.36c0.36-2.68,0.28-5.09,3.71-6.61C474.34,300.41,477.95,295.74,480.64,290.48z"/>
	<path class="st12" d="M456.26,315.9c0.06,2.18-0.08,4.24-2.72,4.92c-0.93-0.1-1.87-0.21-2.8-0.31
		C452.12,318.41,453.11,315.87,456.26,315.9z"/>
	<polygon class="st12" points="459.51,313.03 459.42,313.09 459.25,312.62 	"/>
	<path class="st9" d="M633.98,264.11c-0.05,0.66-0.1,1.33-0.15,1.99c-3.37,2.44-7.48,4.3-9.92,7.46c-3.7,4.78-12.52,5.51-11.38,14.1
		c-0.1,0.62-0.15,1.25-0.15,1.88c-3.75,0.13-5.72,2.08-5.9,5.83c0,0,0,0,0,0c-4.05-0.06-7.48,1.08-10.06,4.52
		c-2.68,3.58-5.89,4.93-9.59,1.16c0.49-2.97,6.08-3.24,4.53-6.57c-3.23-6.95-2.96-15.38-9.71-20.96c-3.38-2.8-6.59-3.87-10.57-3.28
		c-4.84,0.72-3.05,4.88-3.78,7.73c-0.69-0.05-1.38-0.11-2.06-0.16c0.44-2.84-0.4-5.36-1.92-7.71c-0.9-1.33-1.85-2.62-2.67-3.99
		c-1.35-2.25-6.03-3.63-3.36-6.83c2.13-2.55,5.25-0.28,7.81,1.32c5.14,3.22,6.15-0.04,6.3-4.33c2.27,0.73,4.71,3.38,6.84,0.49
		c2-2.71-0.75-4.54-2.21-6.55c-7.26-10-6.84-18.76,1.05-23.2c2.62,8.39,9.55,7.84,15.6,6.31c4.32-1.1,8.13-4.74,3.91-10.26
		c0.71-1.32,1.43-2.65,2.14-3.97c3.23,0.02,6.47,0.04,9.7,0.06c3.45,7.01,7.54,13.37,15.67,15.7c2.74,3.94-4.35,10.58,2.95,12.86
		C636.38,250.6,636.19,256.74,633.98,264.11z M596.69,240.66c-4.5-0.74-7.69,2.25-10.77,5.11c-1.32,1.23-0.78,3.06,0.61,4.26
		c4.46,3.83,9.12,7.66,15.2,8.02c4.26,0.25,10.14-2.23,8.45-6.27C608.11,246.81,604.79,240.22,596.69,240.66z"/>
	<path class="st8" d="M633.98,264.11c2.2-7.37,2.4-13.5-6.93-16.42c-7.3-2.28-0.21-8.92-2.95-12.86c0-5.31-3.04-10.26-1.82-15.7
		c7.07,0.1,14.13,6.56,21.2,0.02c0.51,3.32,1.85,6.07-0.44,9.97c-4.6,7.8-7.27,15.83-1.13,25.24
		C646.28,261.05,638.12,261.93,633.98,264.11z"/>
	<path class="st8" d="M565.24,277.8c0.69,0.05,1.38,0.11,2.07,0.16c1.05,4-4.5,9.32-0.19,11.55c6.81,3.52,11.27,11.03,19.72,11.53
		c3.7,3.77,6.91,2.42,9.59-1.16c2.58-3.44,6-4.58,10.06-4.52c-3.75,12.76-14.19,16.46-26.39,9.11c-4.08-2.46-7.33-5.21-13.05-3.81
		c-5.8,1.42-7.57-7.62-13.69-7.52c0.13-2.48,0.25-4.96,0.38-7.44c0.59-0.15,1.18-0.23,1.79-0.24
		C562.01,287.03,562.07,280.43,565.24,277.8z"/>
	<path class="st8" d="M612.53,287.65c-1.15-8.58,7.68-9.32,11.38-14.1c2.44-3.15,6.56-5.02,9.92-7.46
		C631.2,277.7,624.13,284.91,612.53,287.65z"/>
	<path class="st13" d="M553.73,285.69c-0.13,2.48-0.25,4.96-0.38,7.44c-0.5,0.16-0.99,0.31-1.49,0.46c-0.66,0.6-1.32,1.21-1.98,1.81
		c-0.63,0.07-1.24,0.21-1.84,0.42c-7.54,0.08-3.1-5.68-4.24-8.71C546.79,284.36,550.36,285.71,553.73,285.69z"/>
	<path class="st8" d="M606.49,295.36c0.18-3.75,2.15-5.69,5.9-5.83C612.15,293.23,610.21,295.2,606.49,295.36z"/>
	<path class="st8" d="M549.88,295.4c0.66-0.6,1.32-1.21,1.98-1.81C551.2,294.2,550.54,294.8,549.88,295.4z"/>
	<path class="st6" d="M416.99,465.57c-0.08,0.57-0.18,1.14-0.28,1.71c-5.76,1.47-11.51,2.93-17.26,4.4
		c-0.61,0.57-1.22,1.14-1.83,1.71c0,0-0.09,0.21-0.09,0.22c-9.94,1.45-17.4,9.76-27.88,9.95c-2.96,0.05-6.75,3.43-8.58-0.39
		c-2.06-4.3,3.53-4.28,5.37-6.5c0.77-0.93,1.11-2.22,1.65-3.35c0.6-0.05,1.2-0.13,1.8-0.23c7.41-2.73,16.34-2.02,21.63-9.56
		c3.64-3.99,8.44-5.41,13.56-6.14c4.93-0.97,9.96-1.81,11.97-7.46c1.59-0.13,2.93-0.65,3.66-2.2c3.07-2.11,6.96-3.33,8.22-7.45
		c2.85,0.05,3.67-2.77,5.63-3.99c2.81-0.08,4.71-1.48,5.82-4.01c2.63,0.04,5.6-0.48,5.8,3.54c-11.14,7.75-20.73,17.63-33.02,23.8
		c-3.3,1.66-7.19,2.69-8.94,7.17C408.85,466.33,412.92,465.95,416.99,465.57z"/>
	<path class="st5" d="M391.51,463.51c-5.28,7.55-14.21,6.83-21.63,9.56C375.4,466.05,382.37,462.33,391.51,463.51z"/>
	<path class="st5" d="M428.92,440.26c-1.26,4.11-5.15,5.33-8.22,7.45c1.01-4.59-4.44-9.15,0.51-14.49
		C423.41,436.03,424.31,440.58,428.92,440.26z"/>
	<path class="st5" d="M417.04,449.91c-2.02,5.65-7.04,6.49-11.97,7.46C407.47,452.33,411.24,449.49,417.04,449.91z"/>
	<path class="st5" d="M440.37,432.26c-1.12,2.53-3.02,3.93-5.82,4.01c-0.17-2.88,1.16-4.84,3.72-6.05
		C438.97,430.9,439.67,431.58,440.37,432.26z"/>
	<path class="st13" d="M590.78,166.31c8.84,3.12,19.08,1.82,26.78,8.64c2.23,1.97,4.49,3.69,4.44,7.03
		c-0.07,4.32-3.64,3.75-6.25,4.52c-7.5-2.98-14.16-8.33-22.81-8.02c-13.38-1.61-25.9-0.87-34.57,11.67
		c-3.01,4.35-7.83,3.88-12.38,3.79c-7.64-7.83-9.3-7.65-13.91,1.53c0,0-0.06,0.06-0.06,0.07c-11.99,2.43-13.64,4.21-11.56,15.68
		c2.46,13.54,5.54,26.97,8.57,40.4c1.27,5.6,1.38,11.63,5.27,16.41c-0.15,0.64-0.3,1.28-0.45,1.92c-2.99-0.09-4.14-2.43-5.95-4.3
		c-5.27-5.44-3.05-12.35-4.11-18.52c-2.53-14.75-11.42-27.48-12.3-42.93c-0.43-7.53,3.76-13.11,7.72-13.54
		c11.42-1.22,13.79-7.56,13.68-16.95c3,0.07,6.01,0.14,9.02,0.2c5.52-1.94,11.1-3.73,15.83-7.38c3.77-3.1,7.51-0.98,11.25,0.09
		C576.37,174.91,583.52,166.23,590.78,166.31z M558.78,181.03c0.24-2.35-1.28-2.85-2.95-2.92c-3.32-0.15-6.64-0.04-7.63,4.08
		c-0.45,1.88,0.63,3.56,2.46,3C553.57,184.29,557.26,184.49,558.78,181.03z"/>
	<path class="st8" d="M568.99,166.62c-3.74-1.07-7.47-3.19-11.25-0.09c-8.3-6.02,0.06-9.95,2.25-13.99
		c4.34-8.01,3.71-11.21-4.38-13.41c-0.68-5.72-10.23-6.36-7.9-13.8c2.23-0.11,4.61,0.25,6.18-1.95c11.97,1.17,23.5-1.63,35.09-3.91
		c-0.23,4.05,3.41,4.95,5.57,7.17c4.97,5.12,3.32,13.27-3.23,16.55c-6.85,3.43-14.07,6.22-20.65,10.08
		c-2.47,1.45-11.2,4.42-0.75,8.34C571.99,162.38,569.62,164.94,568.99,166.62z"/>
	<path class="st9" d="M588.98,119.46c-11.59,2.28-23.11,5.08-35.09,3.91c-0.31-2-1.14-3.86-3.19-4.31
		c-6.37-1.39-7.51-5.78-6.87-11.32c-0.61-1.94-1.22-3.87-1.82-5.81c8.6-2.88,16.09-0.89,24,3.44c3.43,1.87,9.21-0.55,14.15-1.04
		c0.11,5-3.96,7.02-5.32,10.28c3.7,7.08,12.55-3.6,15.9,4.76C590.16,119.41,589.57,119.44,588.98,119.46z"/>
	<path class="st6" d="M299.19,511.87c-2.52,0.75-5.04,1.51-7.56,2.26c-0.62-0.03-1.24,0.04-1.83,0.23c-1.23,0.1-2.46,0.19-3.69,0.29
		c-10.12,1.84-19.78,5.61-30.28,6.12c-8.73,0.42-14.41,6.39-19.06,13.43c-1.88,2.85-3.15,6.78-7.27,7.26
		c-3.13,0.36-7.01,1.2-8.82-2.29c-2.05-3.94,2.34-4.42,4.25-6.27c22.31-21.68,52.53-23.39,80.12-31.7c5.86-1.76,6.6,2.06,5.82,6.66
		c-1.15,0.14-2.29,0.28-3.44,0.43C302.86,505.3,300.96,508.45,299.19,511.87z"/>
	<path class="st4" d="M354.28,500.68c-4.85,2.6-9.29,4.22-9.73-3.98c1.29-5.92,7.46-5.42,9.99-4.53
		C358.47,493.54,353.76,497.65,354.28,500.68z"/>
	<path class="st4" d="M328.92,500.63c-2,2.55-4.74,3.61-7.86,3.88C321.79,499.37,325.86,501.02,328.92,500.63z"/>
	<path class="st4" d="M319.19,504.62c-0.68,0.62-1.35,1.23-2.03,1.85C317.84,505.85,318.52,505.24,319.19,504.62z"/>
	<path d="M487.2,387.2c1.29-0.67,2.59-1.35,3.88-2.02c4.93,0.62,7.17,3.65,5.2,8.02c-1.07,2.38-2.98,6.19-7.26,4.6
		C482.42,395.34,487.43,390.8,487.2,387.2z"/>
	<path class="st9" d="M281.88,395.24c2.17,15.07-10.35,19.65-19.7,24.28c-11.68,5.79-23.23,11.09-32.41,20.61
		c-0.99,1.03-2.9,1.16-4.38,1.71c2.94-13.1,15.02-16.95,24.69-21.18c9.63-4.22,15.59-11.59,23.08-17.69
		C276.17,400.52,278.98,397.82,281.88,395.24z"/>
	<path class="st9" d="M295.51,391.3c-1.1,2.52-2.94,3.81-5.76,3.45C290.23,391.19,292.84,391.19,295.51,391.3z"/>
	<path class="st9" d="M542.11,346.14c-0.05,1.29-0.11,2.58-0.16,3.88c-9.12-0.52-18.66,2-27.08-3.69c-3.46-3.7-7.95-1.46-11.95-2.09
		c0.05-1.88,0.1-3.76,0.16-5.64c6.93-7.92,13.86,1.26,16.93,3.15c6.55,4.02,12.08,1.45,17.92,2.22c1.37,0.72,2.73,1.43,4.1,2.14
		L542.11,346.14z"/>
	<path class="st8" d="M542.03,346.1c-1.37-0.71-2.73-1.42-4.1-2.14c0.32-1.24,0.65-2.97,2.13-2.68
		C542.73,341.8,541.7,344.33,542.03,346.1z"/>
	<path d="M500.93,312.89c1.63,0.85,1.96,2.34,1.95,3.99C501.27,316.02,500.96,314.52,500.93,312.89z"/>
	<path d="M550.45,339.43c-0.2,0.14-0.4,0.27-0.59,0.41c-0.16-0.3-0.32-0.6-0.48-0.91c0.25-0.03,0.53-0.16,0.73-0.08
		C550.27,338.92,550.34,339.23,550.45,339.43z"/>
	<path class="st13" d="M479.44,94.07c1.91-0.06,3.83-0.11,5.74-0.17c15.03,0.02,30.06,0.04,45.1,0.06c1.31,0,2.62,0.01,3.92,0.01
		c0.01,0.66,0.02,1.32,0.03,1.98c-2.46,1.31-5.02,2.22-7.87,2.01c-11.54,1.99-22.97,1.21-34.66,0.64
		c-12.59-0.62-25.45,3.37-38.13,5.68c-3.44,0.63-6.65,2.12-11.21-0.15c9.86-4.64,17.35-12.8,29-8.26
		C473.72,96.79,477.25,96.9,479.44,94.07z"/>
	<path class="st12" d="M530.28,93.96c-15.03-0.02-30.06-0.04-45.1-0.06c5.54-10.62,15.58-6.93,24.03-6.95
		c3.56-0.01,7.42,1.24,11.23,1.22C524.52,88.75,530.5,86.08,530.28,93.96z"/>
	<path class="st12" d="M534.23,95.95c-0.01-0.66-0.02-1.32-0.03-1.98c2.59-2.95,5.51-1.64,9.38-1.15
		C540.78,97.25,537.16,95.5,534.23,95.95z"/>
	<path class="st4" d="M592.95,178.47c8.65-0.31,15.32,5.04,22.81,8.02c1.32,2.89,3.22,5.67,3.83,8.7c0.73,3.63,5.49,8-1.68,11.06
		c-2.8,1.2,0.91,4.51,0.26,6.93c-4.11,0.56-6.84,3.39-9.73,5.94c-3.23-0.02-6.47-0.04-9.7-0.06c0,0,0.01,0.04,0.01,0.04
		c0.04-2.9,2.29-4.21,3.95-6.15c3.89-4.53,4.76-9.45-1.03-14.77c-1.26,4.3-2.58,8.18-7.06,9.16c-1.01-1.6-3.16-3.47-2.85-4.75
		c3.02-12.63-4.74-8.29-10.63-6.97C582.72,188.3,593.05,186.98,592.95,178.47z"/>
	<path class="st5" d="M608.43,219.13c2.89-2.56,5.62-5.39,9.73-5.94c1.37,1.98,2.74,3.96,4.12,5.93c-1.22,5.44,1.83,10.4,1.82,15.7
		C615.97,232.5,611.88,226.14,608.43,219.13z"/>
	<path class="st5" d="M409.11,530.01c-1.85-1.24-3.7-2.48-5.55-3.72c8.7-3.42,13.25-13.22,23.03-14.98c0.08,1.7,0.16,3.4,0.24,5.1
		c-0.09,1.26-0.18,2.51-0.27,3.77C419.21,520.74,416.89,530.22,409.11,530.01z"/>
	<path d="M327.01,381.45c3.25-1.32,6.49-2.64,9.74-3.96c3.96-0.22,3.94-3.05,3.89-5.91c0.01-0.64,0.03-1.28,0.04-1.91
		c2.68,0.09,5.06-0.47,7.22-2.28c5.24-4.38,10.69-7.13,17.39-2.37c1.27,0.9,3.78,0.41,5.63,0.05c2.45-0.47,5.25-2.48,6.47,1.3
		c1.05,3.24,0.07,5.95-2.51,8.73c-6.22,6.7-15.13,8.01-22.54,12.24c-1.91,0.01-3.82,0.02-5.73,0.02c-4.19,0.36-10.12-2.34-9.94,5.68
		c-1.27,0.01-2.55,0.03-3.82,0.04c-6.59-0.93-12.27-0.26-13.76,7.81c-1.27,0.01-2.55,0.02-3.82,0.02c-5.12-3.49-5.02,0.97-5.94,3.89
		c-1.27,0.02-2.53,0.04-3.8,0.07c-2.57-0.02-3.9,1.26-4.01,3.82c-0.64,0.01-1.27,0.02-1.9,0.05c-4.6-2-9.24,4.37-13.82-0.07
		c-2.42-5.34-1.21-8.69,5-9.69c12.33-1.97,21.77-9.05,30.42-17.48c1.25-0.01,2.5-0.03,3.74-0.05
		C325.64,382.76,326.33,382.74,327.01,381.45z"/>
	<path class="st12" d="M495.09,355.83c16.73,3.73,33.74,1.27,50.59,2.29c3.76,9.52,3.38,9.82-11.69,9.36
		c5.69-5.69-2.41-4.65-2.92-4.58c-15.86,2.17-31.86-0.51-48.28,1.22c1.8,1.49,3.15,2.61,4.49,3.73c-0.02,0.69-0.03,1.37-0.05,2.06
		c-3.21,0.01-6.43,0.01-9.64,0.02c-3.29-0.75-6.59-1.49-9.88-2.24c0.01-1.29,0.01-2.59,0.02-3.88c2.26-2.95,5.36-4.68,8.9-5.29
		C482.76,357.45,488.94,356.71,495.09,355.83z"/>
	<path class="st14" d="M487.29,367.85c-1.35-1.12-2.69-2.23-4.49-3.73c16.43-1.73,32.42,0.94,48.28-1.22
		c0.5-0.07,8.61-1.11,2.92,4.58c-9.43,3.55-19.35,1.41-28.99,2.54c-1.41,0-2.83,0.01-4.24,0.01c-1.25,0.07-2.49,0.14-3.74,0.2
		c-0.53-2.08-2.08-2.5-3.94-2.43C491.14,365.56,489.22,368.04,487.29,367.85z"/>
	<path class="st2" d="M487.29,367.85c1.94,0.19,3.85-2.29,5.8-0.05c0.01,1.35,0.03,2.71,0.04,4.06c-3.08,2.71-5.06,2.12-5.89-1.95
		C487.26,369.22,487.27,368.53,487.29,367.85z"/>
	<path class="st2" d="M467.72,367.69c3.29,0.74,6.59,1.49,9.88,2.24c-0.75,4.85-3.57,2.68-6.02,1.78
		C469.62,371.01,466.04,371.88,467.72,367.69z"/>
	<path class="st12" d="M493.13,371.86c-0.01-1.35-0.03-2.71-0.04-4.06c1.85-0.07,3.4,0.35,3.94,2.43
		C495.73,370.77,494.43,371.32,493.13,371.86z"/>
	<path class="st12" d="M500.76,370.03c1.41-0.01,2.83-0.01,4.24-0.01C503.6,371.61,502.18,371.6,500.76,370.03z"/>
	<path class="st12" d="M549.86,31.39c5.13-0.12,9.9,0.94,15.95,5.19c-7.78,1.47-12.24-0.76-16.1-5.05L549.86,31.39z"/>
	<path class="st12" d="M549.72,31.54c-0.27-0.17-0.54-0.34-0.8-0.51c0.32,0.12,0.63,0.25,0.95,0.37
		C549.86,31.39,549.72,31.54,549.72,31.54z"/>
	<path class="st12" d="M430.54,340.3c-0.14,0.27-0.28,0.54-0.43,0.81c0.16-0.25,0.33-0.5,0.49-0.75
		C430.6,340.36,430.54,340.3,430.54,340.3z"/>
	<path class="st4" d="M319.08,400.9c1.49-8.06,7.17-8.73,13.76-7.81C329.27,397.49,322.9,396.96,319.08,400.9z"/>
	<path class="st4" d="M336.66,393.05c-0.19-8.01,5.75-5.32,9.94-5.68C345.19,392.61,340.39,391.88,336.66,393.05z"/>
	<path class="st4" d="M309.31,404.82c0.91-2.92,0.82-7.38,5.94-3.89C314.15,403.55,312.2,404.9,309.31,404.82z"/>
	<path class="st4" d="M301.51,408.7c0.11-2.56,1.44-3.84,4.01-3.82C305.39,407.43,304.09,408.74,301.51,408.7z"/>
	<path class="st13" d="M503.25,297.05c1.96-3.11,1.97-6.21-0.1-9.28c3.54,0.69,5.14,3.75,7.28,6.08c4.48,4.89,9.49,6.44,15.51,2.97
		c-2.21,11.46-9.92,7.3-16.67,5.86C509.29,298.62,507.3,296.73,503.25,297.05z"/>
	<path class="st2" d="M495.09,355.83c-6.16,0.88-12.33,1.62-18.46,2.68c-3.54,0.61-6.64,2.34-8.9,5.29c-0.7-0.04-1.4-0.08-2.1-0.12
		c0.04-3.22,0.08-6.44,0.12-9.66c0,0,0,0,0,0c0.68,0,1.35,0,2.03,0c0.91,1.73,2.04,4.12,4.22,2.32c5.64-4.66,12.82-4.04,19.16-6.22
		C490.84,353.14,493.77,353.93,495.09,355.83z"/>
	<path class="st8" d="M465.75,354.03c-0.04,3.22-0.08,6.44-0.12,9.66c-2.57-0.04-5.39,0.23-5.57-3.5
		C459.88,356.27,461.97,354.34,465.75,354.03z"/>
	<path class="st12" d="M491.17,350.12c-6.34,2.18-13.52,1.56-19.16,6.22c-2.18,1.8-3.31-0.59-4.22-2.32
		c6.03-8.4,13.64-11.4,23.87-8.02c3.54,1.17,7.76,0.48,11.26-1.76c3.99,0.63,8.49-1.61,11.95,2.09c-3.2,5.37-8.32,4.18-12.77,3.01
		C498.14,348.29,494.68,347.9,491.17,350.12z"/>
	<path class="st14" d="M532.91,173.7c0.1,9.39-2.27,15.73-13.69,16.95c-3.95,0.42-8.14,6.01-7.72,13.54
		c0.88,15.46,9.77,28.18,12.3,42.93c1.06,6.17-1.16,13.08,4.11,18.52c1.82,1.88,2.97,4.21,5.96,4.3c3.39,7.25,3.15,14.47-0.15,21.68
		c-0.5,0.08-0.88-0.09-1.16-0.52c0.69-6.95-0.64-13.2-6.21-17.98c-9.88-11.15-8.49-25.85-12.27-38.93
		c-1.28-4.41-3.09-8.31-6.59-11.6c-5-4.71-9.15-4.78-12.35,1.44c-3.46,6.75-8.65,10.01-17.29,9.54c4.82-5.59,2.26-11.38,1.45-17.15
		c0.13-0.96,0.27-1.91,0.4-2.86c6.55,3.56,12.03,4.14,14.35-4.9c0.19-0.76,1.71-1.1,2.1-1.89c3.84-7.75,14.23-11.86,12.65-22.62
		c4-0.29,6.19-4.56,10.58-4.44c11.18,0.29,7.29-8.83,9.07-14.66c2.7-8.82-4.96-3.95-7.41-5.78c-4.84-3.61-11.01,0.7-15.89-1.19
		c-7.88-3.04-10.43,0.86-12.44,7.12c-1.35,4.19-2.25,10.71-7.93,9.17c-8.59-2.34-16.88,1.83-25.17-0.51
		c1.08-5.25,5.26-3.48,8.57-3.86c2.55-0.29,5.79-0.71,6.3-3.48c0.62-3.4-2.74-3.81-5.23-4.31c-2.41-0.48-4.16-1.66-5.17-3.91
		c-1.54-8.01,1.78-10.29,9.61-9.35c6.95,0.83,14.07,0.17,21.46-1.33c-10.77-4.12-21.54-8.23-32.31-12.35
		c9.98,0.2,20.28-10.16,29.7,1.02c2.99,3.55,6.82,2.43,6.76-1.36c-0.06-4.2,4.93-3,4.67-6.58c-8.4-3.53-17.13-5.36-26.31-5.13
		c-2.59,0.06-5.27,0.17-7.78-0.35c-3.94-0.82-8.27-2.59-8.28-7.01c0-3.97,4.8-3.09,7.55-4.17c2.09-0.82,4.28-1.41,6.42-2.1
		c15.65-1.36,29.28,5.44,43.22,10.84c3.58,1.39,8.89,0.96,9.43,6.78c-2.12,0.19-4.49-0.34-5.88,2c-1.92,0.04-3.84,0.09-5.76,0.13
		c-1.11-1.39-2.7-2.22-3.47-0.18c-1.06,2.81,1.1,3.71,3.48,4.03c-0.02,3.22,2.6,3.94,4.76,5.26c8.93,5.42,15.48,13.11,20.66,22.06
		C540.84,166.2,532.54,166.96,532.91,173.7z"/>
	<path class="st11" d="M526.35,273.13c5.57,4.79,6.9,11.03,6.21,17.98c-2.2,1.9-4.41,3.8-6.62,5.7c-6.02,3.47-11.03,1.93-15.51-2.97
		c-2.14-2.33-3.74-5.39-7.28-6.08c-3.11-3.67-6.41-2.45-9.74-0.39c-3.04,1.24-6.69,3.12-7.75-1.79c-1.05-4.87,1.82-8.29,5.66-11.41
		c9.47-7.71,19.11-8.45,29.5-2.18C522.42,272.97,524.26,273.97,526.35,273.13z"/>
	<path class="st6" d="M533.72,291.63c3.29-7.2,3.53-14.43,0.15-21.68c0.15-0.64,0.29-1.28,0.44-1.92c1.97,1.85,3.95,3.7,5.92,5.55
		c3.82,1.42,7.65,2.83,11.47,4.25c1.05,2.65,4,4.36,3.82,7.63c-0.6,0.01-1.2,0.09-1.79,0.24c-3.38,0.02-6.95-1.33-9.93,1.42
		C539.4,286.29,537.7,291.5,533.72,291.63z"/>
	<path class="st2" d="M471.63,39.36c-0.92,1.57-2.38,1.87-4.03,1.74C468.57,39.64,470.02,39.33,471.63,39.36z"/>
	<path class="st4" d="M340.63,371.59c0.05,2.86,0.07,5.69-3.89,5.91C336.71,374.65,338.03,372.7,340.63,371.59z"/>
	<path class="st4" d="M327.01,381.45c-0.68,1.29-1.37,1.3-2.07,0.02C325.63,381.47,326.32,381.46,327.01,381.45z"/>
	<path class="st14" d="M315.21,260.16c-0.94,1.53-0.05,4.28-2.24,4.74c-2.48,0.52-1.95-1.67-1.9-3.19c0.13-4.12,2.21-2.66,4.2-1.47
		C315.26,260.23,315.21,260.16,315.21,260.16z"/>
	<path class="st14" d="M395.16,252.3c-0.75,2.41-1.5,4.82-2.25,7.23c0,0-0.13-0.08-0.13-0.07C391,256.23,390.57,253.43,395.16,252.3
		z"/>
	<path class="st5" d="M299.19,511.87c1.78-3.41,3.67-6.56,8.23-3.58C305.36,511.06,302.66,512.34,299.19,511.87z"/>
	<path class="st5" d="M397.61,473.38c0.61-0.57,1.22-1.14,1.83-1.71C398.83,472.25,398.22,472.82,397.61,473.38z"/>
	<path class="st5" d="M289.79,514.36c0.6-0.19,1.21-0.26,1.83-0.23C291.19,515.6,290.58,515.73,289.79,514.36z"/>
	<path class="st13" d="M528.22,127.22c-0.54-5.83-5.85-5.4-9.43-6.78c-13.94-5.4-27.57-12.2-43.22-10.84
		c0.1-1.91-0.06-5.12,1.89-4.94c10.42,0.97,20.32-4.18,31.29-0.62c11.1,3.6,23.18,4.47,35.09,3.7c-0.65,5.55,0.49,9.93,6.86,11.32
		c2.05,0.45,2.88,2.31,3.19,4.31c-1.57,2.2-3.95,1.84-6.18,1.95C541.15,125.23,534.58,125.14,528.22,127.22z"/>
	<path class="st14" d="M387.56,213.32c3.51,5.33,7.1,9.93,14.27,11.35c5.81,1.15,7.12,7.14,9.43,12.34
		c5.04,11.37-0.53,9.77-7.82,7.69c-1.8-0.52-3.86-0.15-5.8-0.18c-0.1-2.58-0.86-5.33-0.19-7.69c1.53-5.39,1.48-9.05-5.17-10.77
		c-3.89-1.01-5.06-5.56-6.84-8.99C385.7,215.57,385.94,214.05,387.56,213.32z"/>
	<path class="st3" d="M459.61,173.88c8.29,2.34,16.58-1.83,25.17,0.51c5.68,1.54,6.59-4.98,7.93-9.17
		c2.01-6.26,4.56-10.17,12.44-7.12c4.89,1.89,11.06-2.42,15.89,1.19c2.45,1.82,10.11-3.04,7.41,5.78
		c-1.78,5.83,2.12,14.95-9.07,14.66c-4.39-0.11-6.57,4.15-10.58,4.44c-6.92,3.99-11.14,10.98-16.94,16.21
		c-4.03,3.63-7.74,7-12.64,9.18c-1.13-0.21-2.27-0.42-3.4-0.62c-0.24-1.66-0.79-3.02-2.84-2.92c-1.7,0.16-3.4,0.32-5.1,0.48
		c2.71-4.66,11.77-6.8,5.87-14.85c5.43,0.71,10.99,1.95,15.48-2.62c1.63-1.65,7.27-0.67,4.19-5.4c-1.88-2.88-1.73-7.44-8.59-6.34
		c-8.04,1.29-17.18,3.54-25.02-2.2C459.3,174.75,459.23,174.35,459.61,173.88z M510.49,169.96c-1.49-2.66-3.24-5.4-6.92-5.46
		c-5.17-0.07-6.18,3.84-6.49,7.86c-0.2,2.54-0.22,5.87,3.64,5.22C504.91,176.9,508.57,174.84,510.49,169.96z"/>
	<path class="st11" d="M459.81,175.07c7.85,5.75,16.98,3.49,25.02,2.2c6.86-1.1,6.71,3.46,8.59,6.34c3.08,4.73-2.56,3.75-4.19,5.4
		c-4.5,4.57-10.05,3.34-15.48,2.62c-0.81,0.08-1.61,0.16-2.42,0.24c-0.41-0.67-0.83-1.34-1.24-2.02c1.16-1.3,0.48-1.68-0.86-1.73
		c-9.23-6.12-19.52-6.39-30.03-5.47c-6.17-0.43-12.93-2.76-16.54,5.11l0,0c-0.67,0.54-1.35,1.07-2.02,1.61c0,0,0.07,0.46,0.07,0.46
		c-1.64-0.14-3.24-0.2-3.86,1.81l-0.07,0.06c-2.09,0.54-3.17,2.16-4.19,3.86c-3.62-3.1-3.67-7.39-3.87-11.63
		c5.43-5.95,12.42-8.61,20.21-9.65c2.42-0.32,5.56,0.15,5.26-3.91c1.97,0.09,3.94,0.18,5.91,0.27c0.8,0.35,1.61,0.69,2.41,1.04
		c2.08,0.82,4.15,1.65,6.22,2.47c0.48,1.15,1.25,1.27,2.23,0.61C453.91,174.87,456.86,174.97,459.81,175.07z"/>
	<path class="st3" d="M450.97,174.77c-0.98,0.67-1.75,0.54-2.23-0.61C449.48,174.37,450.22,174.57,450.97,174.77z"/>
	<path class="st14" d="M442.51,171.69c-0.81-0.35-1.61-0.69-2.41-1.04C440.9,171,441.71,171.35,442.51,171.69z"/>
	<path class="st3" d="M408.72,183.94c0.2,4.24,0.25,8.53,3.87,11.63c0.19,0.62,0.24,1.24,0.15,1.88c-2.71,1.72-4.26,4.24-3.41,7.33
		c1.62,5.82-1.62,6.66-6.1,6.58l-0.11-0.11c-0.14-6.25,2.63-12.25-1.07-18.85C399.66,188.16,403.95,184.86,408.72,183.94z"/>
	<path class="st14" d="M412.74,197.46c0.09-0.64,0.04-1.27-0.15-1.88c1.01-1.7,2.1-3.32,4.19-3.86c0.69,3.89,4.19,5.85,6.1,8.9
		c0.37,3.03,0.73,6.05,1.1,9.08c-2.98-0.13-5.97-0.26-8.95-0.39C417.29,204.77,414.59,201.2,412.74,197.46z"/>
	<path class="st3" d="M403.24,211.37c-0.3,0.24-0.59,0.49-0.89,0.73c0.26-0.28,0.51-0.57,0.77-0.85
		C403.13,211.26,403.24,211.37,403.24,211.37z"/>
	<path class="st10" d="M479.22,209.55c4.9-2.18,8.62-5.55,12.64-9.18c5.8-5.23,10.03-12.22,16.94-16.21
		c1.59,10.77-8.8,14.87-12.65,22.63c-0.39,0.79-1.91,1.14-2.1,1.89c-2.32,9.04-7.8,8.46-14.35,4.9
		C479.54,212.24,479.38,210.89,479.22,209.55z"/>
	<path class="st10" d="M471.33,191.88c0.81-0.08,1.61-0.16,2.42-0.24c5.9,8.05-3.16,10.19-5.87,14.85c-0.57,3.2-3.3,4.01-5.71,5.18
		c-0.11-3.39-0.22-6.78-0.32-10.16C462.46,195.79,473.1,199.96,471.33,191.88z"/>
	<path class="st3" d="M423.98,209.7c-0.37-3.03-0.73-6.05-1.1-9.08c0.62-0.38,1.24-0.77,1.86-1.15c2.02-0.04,3.87,0.26,4,2.81
		c0.32,6.37,4.69,9.9,9.25,13.31c-0.03,0.5,0.04,0.99,0.2,1.47C431.92,217.56,426.95,215.57,423.98,209.7z"/>
	<path class="st3" d="M461.85,201.5c0.11,3.39,0.22,6.78,0.32,10.16c-3.05,2.27-6.35,3.88-10.25,3.95c0.36-2.11,3.64-4.2,0.05-6.34
		c1.38-3.17,2.76-6.33,4.13-9.5C458.02,200.36,459.93,200.93,461.85,201.5z"/>
	<path class="st14" d="M451.97,209.28c3.59,2.14,0.31,4.23-0.05,6.34c-4.36,2.54-8.95,2.89-13.73,1.43
		c-0.16-0.48-0.23-0.97-0.2-1.47c7.74-1.14,0.24-6.86,2.87-9.54c3.06-1.21,3.68,0.73,3.98,3.08
		C447.11,214.07,449.58,209.77,451.97,209.28z"/>
	<path class="st10" d="M472.98,206.01c2.05-0.1,2.6,1.26,2.84,2.92C473.8,208.99,473.4,207.49,472.98,206.01z"/>
	<path class="st8" d="M592.95,178.47c0.11,8.51-10.23,9.83-11.82,17.17c-0.07,0.64-0.11,1.29-0.13,1.94c-1.8,0-3.6,0-5.4,0
		c-4.68,0.62-9.12,1.76-10.14,7.27c-0.88,4.75,1.89,7.88,5.4,10.59c2.52,1.94,5.47,1.7,8.32,2.1c6.52,0.59,13.24-1.36,19.57,1.58
		c0,0-0.01-0.04-0.01-0.04c-0.71,1.32-1.42,2.65-2.14,3.97c-6.5,1.32-13.01,2.63-19.51,3.95c-7.89,4.44-8.31,13.2-1.05,23.2
		c1.46,2.01,4.21,3.84,2.21,6.55c-2.13,2.89-4.57,0.24-6.84-0.49c0.06-3.41-0.14-6.75-2.08-9.73c-1.24-4.03-4.72-6.81-6.29-10.44
		c-2.7-6.25-9.92-10.99-8.22-18.51c1.61-7.11-1.83-10.88-6.68-14.09c-2.38-1.58-4.07-3.02-4.22-5.9c3.04,0.13,3.34-1.31,2.07-3.64
		c4.55,0.09,9.37,0.56,12.38-3.79C567.04,177.61,579.57,176.87,592.95,178.47z"/>
	<path class="st5" d="M569.32,246.53c1.94,2.98,2.14,6.33,2.08,9.73c-0.15,4.29-1.16,7.54-6.3,4.33c-2.56-1.61-5.68-3.87-7.81-1.32
		c-2.68,3.2,2.01,4.59,3.36,6.83c0.82,1.37,1.78,2.66,2.68,3.99c-4.88,0.46-8.06-2.53-10.33-6.05c-4.62-7.15-8.7-6.17-12.96,0.11
		c-10.46-21.96-14.3-44.69-8.01-68.61c0,0,0.06-0.06,0.06-0.06c0.68,0.08,1.35,0.16,2.02,0.24c-0.06,3.03,0.46,5.78,3.33,7.56
		c2.69,1.66,2.78,4.01,1.77,6.74c-3.61,9.72,0.74,28.1,8.1,33.52c1.14,0.84,3.42,1.39,4.52,0.82
		C558.28,240.96,563.59,245.15,569.32,246.53z"/>
	<path class="st13" d="M586.83,301.04c-8.45-0.5-12.91-8.01-19.72-11.53c-4.3-2.22,1.25-7.55,0.19-11.55
		c0.72-2.84-1.06-7.01,3.77-7.73c3.99-0.59,7.19,0.48,10.57,3.28c6.74,5.58,6.47,14.01,9.71,20.96
		C592.91,297.81,587.33,298.07,586.83,301.04z"/>
	<path class="st4" d="M540.03,264.14c4.27-6.28,8.34-7.26,12.96-0.11c2.27,3.52,5.45,6.51,10.33,6.05c1.52,2.35,2.36,4.87,1.92,7.71
		c-3.18,2.63-3.23,9.23-9.73,7.65c0.18-3.27-2.77-4.98-3.82-7.63c0.23-8.31-6.71-6.55-11.32-8.06
		C540.27,267.89,540.15,266.02,540.03,264.14z"/>
	<path class="st13" d="M596.69,240.66c8.1-0.44,11.43,6.15,13.49,11.11c1.68,4.04-4.19,6.52-8.45,6.27
		c-6.08-0.36-10.74-4.19-15.2-8.02c-1.39-1.2-1.93-3.03-0.61-4.26C589,242.9,592.18,239.92,596.69,240.66z"/>
	<path class="st13" d="M577.08,227c6.5-1.32,13.01-2.63,19.51-3.95c4.21,5.52,0.4,9.16-3.91,10.26
		C586.64,234.85,579.7,235.39,577.08,227z"/>
	<path class="st9" d="M540.03,264.14c0.12,1.87,0.23,3.75,0.35,5.62c-0.05,1.27-0.1,2.54-0.15,3.81c-1.97-1.85-3.95-3.7-5.92-5.55
		c-3.89-4.78-4-10.81-5.27-16.41c-3.03-13.43-6.12-26.86-8.57-40.4c-2.08-11.47-0.44-13.25,11.56-15.68
		C525.73,219.45,529.57,242.18,540.03,264.14z"/>
	<path class="st9" d="M555.61,139.13c8.1,2.2,8.73,5.39,4.38,13.41c-2.19,4.05-10.55,7.98-2.25,13.99
		c-4.72,3.65-10.31,5.44-15.83,7.38c-0.62-3.89,2.11-5.62,4.76-7.4c3.59-2.41,0.95-4.02-0.74-5.75c3.97-5.28,0.46-9.48-2-13.83
		c2.83-0.08,4.81-1.44,5.98-4c0.66-0.64,1.33-1.28,1.99-1.93C553.14,140.38,554.38,139.75,555.61,139.13z"/>
	<path class="st8" d="M545.94,160.76c1.68,1.73,4.32,3.33,0.74,5.75c-2.65,1.78-5.38,3.52-4.76,7.4c-3.01-0.07-6.02-0.13-9.02-0.2
		c-0.36-6.75,7.94-7.51,9.12-13.19C543.32,160.6,544.63,160.68,545.94,160.76z"/>
	<path class="st9" d="M534.11,195.71c-0.67-0.08-1.35-0.16-2.02-0.24c4.6-9.18,6.27-9.37,13.9-1.54c1.26,2.33,0.97,3.77-2.07,3.64
		C540.89,195.7,537.57,195.32,534.11,195.71z"/>
	<path class="st14" d="M558.78,181.03c-1.52,3.46-5.21,3.27-8.11,4.16c-1.83,0.56-2.91-1.12-2.46-3c0.99-4.12,4.31-4.23,7.63-4.08
		C557.5,178.18,559.02,178.67,558.78,181.03z"/>
	<path class="st12" d="M555.61,139.13c-1.23,0.63-2.47,1.25-3.7,1.88c-1.44-2.41-3.84-1.96-6.06-2.03
		c-2.72-0.24-6.48,1.07-7.59-2.25c-2.8-8.35-9.73-6.92-15.91-7.51c1.39-2.34,3.76-1.81,5.88-2c6.36-2.08,12.92-1.98,19.49-1.89
		C545.38,132.77,554.93,133.41,555.61,139.13z"/>
	<path class="st9" d="M598.74,219.11c-6.33-2.94-13.05-0.99-19.57-1.58c0-5.67-7.15-9.57-3.97-16.02c1.95,0.67,3.89,1.34,5.84,2.01
		c4.1,2.76,5.9,13.65,13.56,3.84c4.48-0.98,5.8-4.86,7.06-9.16c5.78,5.32,4.92,10.24,1.03,14.77
		C601.03,214.9,598.78,216.22,598.74,219.11z"/>
	<path d="M594.6,207.36c-7.66,9.81-9.46-1.08-13.56-3.84c-0.02-1.98-0.03-3.96-0.05-5.94c0.02-0.65,0.06-1.29,0.13-1.94
		c5.89-1.32,13.65-5.66,10.63,6.97C591.45,203.89,593.59,205.76,594.6,207.36z"/>
	<path class="st13" d="M522.34,129.21c6.18,0.59,13.11-0.84,15.91,7.51c1.12,3.33,4.88,2.01,7.59,2.25
		c0.04,0.62-0.02,1.24-0.17,1.84c-4.12,0.18-7.88,1.05-10.88,5.59c3.64,0.21,6.39,0.37,9.14,0.53c2.46,4.35,5.97,8.54,2,13.83
		c-1.31-0.08-2.61-0.16-3.92-0.25c-5.18-8.95-11.73-16.64-20.66-22.06c-2.17-1.31-4.79-2.04-4.76-5.26c0-1.28-0.01-2.57-0.01-3.85
		C518.5,129.3,520.42,129.26,522.34,129.21z"/>
	<path class="st12" d="M516.58,129.34c0,1.28,0.01,2.57,0.01,3.85c-2.37-0.32-4.53-1.23-3.48-4.03
		C513.88,127.13,515.47,127.95,516.58,129.34z"/>
	<path class="st5" d="M540.23,273.58c0.05-1.27,0.1-2.54,0.15-3.81c4.61,1.51,11.56-0.26,11.32,8.06
		C547.88,276.41,544.05,274.99,540.23,273.58z"/>
	<path class="st11" d="M510.49,169.96c-1.92,4.87-5.58,6.93-9.77,7.63c-3.86,0.64-3.84-2.69-3.64-5.22
		c0.31-4.02,1.31-7.93,6.49-7.86C507.26,164.56,509,167.31,510.49,169.96z"/>
	<path class="st12" d="M461.85,201.5c-1.91-0.57-3.83-1.15-5.74-1.72c-5.21-9.22-7.46-9.83-15.8-4.22c-1.3,0.69-2.6,1.38-3.89,2.07
		c-7.71-1.58-0.19-3.56-0.05-5.69c-5.64-0.01-9.55,2.28-11.62,7.52c-0.62,0.38-1.24,0.77-1.86,1.15c-1.91-3.05-5.41-5.01-6.1-8.9
		c0,0,0.07-0.06,0.07-0.06c1.62,0.1,3.09-0.11,3.86-1.81c0,0-0.07-0.46-0.07-0.46c0.67-0.54,1.35-1.07,2.02-1.61c0,0,0,0,0,0
		c5.51-1.7,11.02-3.41,16.54-5.11c10.51-0.92,20.8-0.65,30.03,5.47c0.29,0.58,0.57,1.16,0.86,1.73c0.41,0.67,0.83,1.34,1.24,2.02
		C473.1,199.96,462.46,195.79,461.85,201.5z"/>
	<path class="st3" d="M439.2,182.66c-5.51,1.7-11.02,3.41-16.54,5.11C426.27,179.9,433.03,182.23,439.2,182.66z"/>
	<path class="st14" d="M420.71,189.85c-0.77,1.71-2.25,1.91-3.86,1.81C417.48,189.65,419.07,189.7,420.71,189.85z"/>
	<path class="st3" d="M470.09,189.87c-0.29-0.58-0.57-1.16-0.86-1.73C470.57,188.19,471.25,188.57,470.09,189.87z"/>
	<path class="st3" d="M422.66,187.78c-0.67,0.54-1.35,1.07-2.02,1.61C421.32,188.85,421.99,188.31,422.66,187.78z"/>
	<path class="st2" d="M424.74,199.47c2.07-5.24,5.98-7.53,11.62-7.52c-0.14,2.12-7.66,4.11,0.05,5.69c0.36,3.4,1.71,6.28,4.45,8.41
		c-2.63,2.68,4.87,8.4-2.87,9.54c-4.56-3.41-8.93-6.93-9.25-13.31C428.61,199.72,426.76,199.43,424.74,199.47z"/>
	<path class="st2" d="M440.3,195.56c8.34-5.6,10.59-5,15.8,4.22c-1.38,3.17-2.76,6.33-4.13,9.5c-2.39,0.48-4.87,4.79-7.13-0.16
		C451.58,202.4,450.54,199.29,440.3,195.56z"/>
	<path class="st0" d="M440.3,195.56c10.23,3.73,11.27,6.84,4.53,13.56c-0.29-2.36-0.92-4.29-3.98-3.08
		c-2.74-2.13-4.09-5.01-4.45-8.41C437.71,196.94,439.01,196.25,440.3,195.56z"/>
	<path class="st4" d="M534.11,195.71c3.46-0.39,6.78-0.01,9.81,1.87c0.15,2.88,1.84,4.33,4.22,5.9c4.85,3.21,8.29,6.99,6.68,14.09
		c-1.7,7.52,5.52,12.27,8.22,18.51c1.57,3.63,5.05,6.41,6.29,10.44c-5.73-1.38-11.05-5.57-17.5-2.19c-1.09,0.57-3.38,0.02-4.52-0.82
		c-7.35-5.42-11.71-23.8-8.1-33.52c1.02-2.73,0.93-5.08-1.77-6.74C534.57,201.49,534.05,198.74,534.11,195.71z"/>
	<path class="st14" d="M575.2,201.51c-3.18,6.46,3.98,10.35,3.97,16.02c-2.85-0.4-5.8-0.15-8.32-2.09
		c-3.51-2.71-6.28-5.84-5.4-10.59c1.01-5.5,5.46-6.65,10.13-7.27C575.46,198.89,575.33,200.2,575.2,201.51z"/>
	<path class="st4" d="M575.2,201.51c0.13-1.31,0.25-2.62,0.39-3.93c1.8,0,3.61,0,5.41,0c0.02,1.98,0.03,3.96,0.05,5.94
		C579.09,202.85,577.15,202.18,575.2,201.51z"/>
	<path class="st12" d="M543.94,146.93c-2.75-0.16-5.5-0.32-9.14-0.53c3.01-4.53,6.76-5.41,10.89-5.58c0.91,1.72,2.48,2.1,4.23,2.11
		C548.74,145.49,546.77,146.85,543.94,146.93z"/>
	<path class="st8" d="M549.92,142.93c-1.76-0.01-3.33-0.39-4.23-2.11c0.15-0.61,0.2-1.22,0.16-1.85c2.22,0.06,4.62-0.38,6.06,2.03
		C551.25,141.65,550.58,142.29,549.92,142.93z"/>
</g>
</svg>
