<svg id="Livello_1" data-name="Livello 1" xmlns="http://www.w3.org/2000/svg" viewBox="0 0 2646 1547">
  <title>system_failure3</title>
  <g>
    <path d="M1804.43,12.71q411.66,0,823.33-.53c18.07,0,21.64,3.69,21.61,22.45q-.95,758.87-.5,1517.73-734.35,0-1468.71,0c-11.41,0-22.81-.67-34.22-1,29-23.44,45.79-57.09,67.09-87,5.91-4.94,6.85-10.66,2.5-17.21a19,19,0,0,0-1.34-5.09q-2.48-5.41-5-10.82l-.34-.6-4.5-5.27-.66-.63-7.9-20.94,24.64-30.56c2.68-1.6,6.83-2.44,3.39-7.16l2.25-9.62c13.93-23.25,1.25-39.78-13.85-54.69-6-5.89-15.87-7.66-16.21-18.75,7.41-3.17,13-8.61,17.42-15.37,25.82-15.45,15.4-34.66,5.18-53.84-2.94-15.23-11.29-25-26.24-28.24-10.73-14.75-25.8-12-39.85-9.22-10.19,2-8.09,11.75-7,19.7-21.71,14.5-41.41,27.56-47.72,59.12-3.78,18.89-20.82,40.7-46.15,43.65-38,4.43-70,25.43-99.15,47-49.39,36.56-105.88,38.45-161.39,47.47-12.5,2-21.48-7.65-13.44-17.37,11.18-13.51,23.18-30.13,44.33-29.24,22.53,1,50.35-17.59,56.71-38,4-12.83-4.7-15-12.9-13.22-31.43,6.93-64.1,10.53-90.73,32.16-30.58,4.15-58.3,20.76-89.52,22.12-5.36-7-10.65-7-15.88.15q-18.32.17-36.62.33c-12.73,2.43-25.16,5.87-38.46,5.24-28.71-1.36-31.68-4.73-25.44-33.31,4.24-2.34,5.18-6.42,5.38-10.9a107.12,107.12,0,0,0,31.64-32.9l0-.08c6.92.13,10.43-3.51,10.84-10.57l20.82-11.28c23.45-1.54,47.22,4,70.37-3.62,40.36-13.3,73.76-39.73,109.27-62.19,9.17.83,13.7-7.74,20.82-11.08,4.56.25,8.56-.72,10.85-5.4,25.71-7,41.68-33,68.51-37.91,3.81,5.63,7.35,5.22,10.64-.52,30.28-1.67,58-11.71,84.2-27.14,10.78-7,25.22-8.31,31.71-22l0,0c7.24-3,10.78-8.43,10.43-16.54l.54-15.94c11-14.11,3-24-8-31.09-18.55-11.91-37.94-22.61-61.22-18.12-26,1.9-52.06,2.81-77.84,6.26-8.13,1.09-20.18,1.25-22.66,14.45-3.13.51-6.26,1-9.4,1.53-26.27,7.23-54.54,9.52-74.43,32.49l-10.18,2.09c-14.85-13.58-24-4.67-31.91,8.77h-.1c-4.53-.18-8.46.8-10.35,5.76.1,1.81.21,3.62.31,5.43L728,1093c-21.78-16.26,1.71-34.43-2-51.45,6.79-9.79,6.57-20.93-4.4-24.18-14-4.16-21.95,6.26-24.74,20.32l-.35.4c-4.65,1.42-6,5.1-6.16,9.63l-.12.23-4.41,5.86c-25.29,13.15-53.34,22.82-63.62,54.77-9.11,19.12-27,32.86-31.35,54.89a14.16,14.16,0,0,0-.91,4.69s-.12.27-.11.27c-18.53,12.82-26.35,32.73-32.89,53.49-14.21,6.55-27,15-36.38,28.29-9.07,2.1-10.78,10.61-14.23,17.6-14,11.74-10,28.2-10.57,43.46-7.74,12.14-10.09,33,.58,34.42,25.56,3.52,17.26,20.43,16.64,32.92-.85,17.13,3.62,26.56,21.08,25.74,13.71-.65,20.5,3.69,26.38,19,10.62,27.55,39.57,32.9,56.41,14l5.54-.07c2.28,5.85,16.93,12.17,1.74,17.7-25.51,9.3-36.16,37.15-59.6,48.41-9.56,14.6-11.31,32-16.11,48.31-170.41.27-340.82-.11-511.22,1.54-24.41.23-27.67-7.47-27.65-30.07Q10.46,767.86,10,12.71H1044.44c-2.68,15.38-14.43,25.39-21.08,38.42-30.65,48.2-47.68,101.64-61.1,161.05,18.33-6.6,27-13.87,24.23-30.73-1-6-1-12.71,3.34-18.23,15.2-19.13,24.75-41.46,32.64-64.51,2.72-7.95-1-18.9,12.33-20.23,10.66-1.06,18.63,2.47,25.35,10.83,7.49,9.32,2.11,19.76-2.56,24.75-14.28,15.25-20.63,37.12-34.89,50.26-23,21.2-6.66,24.08,8.69,28.6,12.88,3.79,17.4,5.65,4.52,17.87-21.26,20.19-33.93,46.72-43.65,74.3,13.22,5.31,18.92-15.25,29.56-8.18,10.92,7.26,12.1,1.45,14.91-6.8,3-8.78,11.33-14,15.76-21.15,11.62-18.77,37.32-21.77,44.33-44.73,4.38-.2,8.45-1,10.71-5.59,3.35-.72,6.81-1.11,10-2.21,17.22-5.89,40.48-28,38.53,16.08-.23,5.13,4,8,8.92,7.14,6.79-1.18,13.24-7.48,10-12.7-9.28-14.93,5-23.74,6.19-35.62l.24-.09c8.3-6.45,28.87,9.37,26.78-15.91,9.09.06,18-.48,25.89-6.12,21.24-1.4,40.58-6.92,53.37-26.6,11.21-1.23,22.36-1.74,33.65-3.76,40.86-7.29,82-10.56,123.69-5.49,58.85,7.17,115.15,23.45,169.58,47.32,50.69,30.56,107.46,50.28,152,91.74,4.14,3.85,8.45,4.15,11.35.49,5-6.34-1.83-9.79-5.17-12.59-48.61-40.76-97.86-80.55-158.33-101.39-27.6-22.42-59.73-37.23-92.44-46.86-16.18-4.76-36.43-15.93-55.3-2.89l-15.43-.12c-1.77-3.28-3.82-3.39-6.15-.61l-25.32.12c-9.15-6.35-18.22-6.84-27.2.36-38-3.49-73.57,9.61-109.69,18.11-13,3-31.2-5.51-37.83,15.2-37.14-6-63,22.76-94.88,33.05-8.87-.46-17.39.35-25.56,4.78-4.23,2.3-9.41,7.31-14.13,2s-2.37-12,.2-17.93c3.29-7.57,6.73-15.66,16.19-15.89,12.66-.31,22.88-2.89,23.66-18.89.2-4.12,3-7.91,6.48-6.82,18.27,5.79,26.27-9.79,38.24-18.06,20-13.81,41.55-23.27,66.4-14,14.64,5.49,28,3.11,38-9.46,18.15-22.92,46.82-14.73,68.9-26,4-2,11.19-.71,12.28,6.53,1.12,7.42-4.33,8.6-9.87,9.4-12.07,1.74-24.09,4.92-36.18,5.27-14.22.4-17.08,7.9-16.86,23.33,23.88-13.17,47.27-19.8,70.62-26.84,10.12-3,23.33,6.59,27-.32,8.09-15.37,28.41-20,30.2-39.7H1493c7.6,27.11,27.57,42.43,51.22,37.45,17.29-3.65,34.2-11.84,38.14,17.41.91,6.69,12.16,9.1,20,10.66,29,5.75,57.71,7.23,85.7-5,20.58,20.29,40.49,41.39,62,60.54,10.67,9.5,14.92,27.82,33.12,27.53,5.11,21.06,16.66,36.2,37,43.28l2.24,2.19-2.08-2.36c-6.22-22.72-19.77-40-37.26-54.45-1.78-1.87-3.55-3.75-5.33-5.63.64-31.85-18.3-57-30.55-86.73,28.09,9.56,42.9,34.35,67.44,43.11.75,6.27-.27,13.62,2.55,18.65,18.37,32.69,37.56,64.89,56.53,97.23,2.28,3.9,5.14,8.54,9.83,3.82,5.26-5.29,14.68-10.4,7.77-20-12.23-17-15-38.21-24.88-56.62C1843.59,101.35,1824.84,56.55,1804.43,12.71ZM1113.31,785.07q2.51,2.83,5,5.68.48,7.8.94,15.6c-.09,9-4.84,19.95,9.13,22.87.16,3.62.31,7.24.47,10.86-6.56,4.64-5.2,11.21-4,17.74l.07,8.42c-.36,56.45,24.61,109.22,22.45,166,0,1.21,2.15,3.65,3.23,3.6,20.32-.81,19.15,19.19,28.73,32.41-1.46-16.49,9.81-21.53,18.72-27.81,8.23-5.8,8.52-13.13,1.31-16.82-19.61-10-11.46-24.4-8.62-39.21,2.39-12.42,15.2-20.79,11.79-35v.14l4.76-7.33,10.39-14.87c14.45,4.18,24.16-8.4,36.52-11.93,24.77-7.09,50.41-12,67.11-39.18,9.56-15.53,29.75-31.08,50.52-8.64l-15.84,16.61c-17.88,3.72-23.63,20.47-30,34-7.61,16.22,13.11,11.87,17.59,20.05,3,5.42,4.75,11.55,7.06,17.35-10.09,6.2-23.9,7-31.84,3.9-22.64-8.94-35.22,1.29-47,18-14.71-10.2-30.54-28.21-38.68,6.3-.48,2.06-3.89,3.34-5.89,5-18.74,16-17.74,31.8,2.58,44.72,11,7,16.23,18.17,19.66,30.59,4.84,17.54,15,31.61,27.48,44,9.12,2.44,9.23,17.29,20.84,16.3,3.58,11.6-10.25,32.89,17.55,31.63,4.55-.21,5.2,12.34-2.61,17.28-23.39,14.8-32,41.1-46.28,63.09-5.62,8.66-2.27,12.46,3.4,18,9.46,9.19,13.07-1,15.52-5.92,15.26-30.89,54.17-36,68.31-68.22,1.51-3.45,9.09-5.62,13.88-5.66,22.25-.19,33.41-15.64,45.44-31.79,6-8.07,4.88-13.79-.84-18.33-5-3.94-18.6.31-11.81-13.32,6.66-13.36,14.16-2.35,21.64.67,11.81,4.76,21.26,0,17.59-13.3-6.15-22.34,4.54-21.23,20.55-24,22.3-3.82,43.17.57,64.28,4.07,16.29,2.71,22.47-5,23.93-19.26,3.09-30.16-3.9-36.75-44.6-43.86l-.1-.11.11-11,10.44,0c1.79,3.72,3.55,3.76,5.26-.06l10.56-.21c8.27-.47,14.9,3,21.77,7.7,5.28,3.63,13.89,9.17,18.66,2.77,4.93-6.62,8.65-16,6.35-25.57-2.55-10.57-9-9.68-18.13-8.88-12.17,1.08-23.4-5.63-34.1-12-11.86-7.09-23.18-17.3-37.32-17.1-22.08.33-30.81-10.77-31.1-32.12-.21-15.73,6.16-36.13-22.31-31.36-6,1-8.94-7.61-9.36-14.47,10.72-14.59,28.26-10.82,42.15-16.87l5.43-5.17,10.47-.31c0,15.42,7.6,26.29,22.37,36.6,2.51-30.49,14-14.58,24.63-6.17,4.1,3.25,8.41,8.72,13.8,6,22.37-11.09,34.09,4.13,46.14,19.07,7.83,9.71,15.29,19.76,23.51,29.1,16.27,18.46,24.86,15.1,35.76-5.72,23.53-45,34.57-97.75,80.75-128.89,27.94-18.84,41.71-53.65,57.29-82.52,16.87-31.26,2-72,14.3-109.21,6.76-20.55-11.91-50.38-19.89-75.76-2.64-8.37-4-18.91-12.81-23-29.2-13.63-57.2-31.28-90.69-31.79l-4.93-.41-5.52-5.15c-1.66-.08-3.32-.24-5-.46l-106.83-21.4c15.75-10.6,31-18.89,46.82-20.7,12.24-1.39,27.78-12.35,37.42-.55,14.06,17.2,33.39,19.12,51.15,24,12.94,3.53,42.87,25,31.45-19.46-.88-3.44,4.74-9.18,8.09-13.17,5.82-6.94,7.32-15.09,4.53-23-18.49-52.3-63.65-78.46-102.17-111-1.62-1.37-5.13-.32-7.77-.4-1.62-12.5-11.17-14.41-20.52-16.19-13.62-2.59-26.12-7.72-37.21-16.41l-5.66-.07-10.35-.06c-.84-11.47-7.27-18.34-17.36-21.48-26.18-8.14-53.75-11.87-80.06-17.81-49.72-11.22-102.71-20.5-153.86,3.93-15.57,7.44-34.89-2.65-52.91,7.24-27.5,15.09-57.69,24.43-87.85,32.91-4.13,1.16-10.12,1.49-11.9,4.41-16.58,27.17-44.63,39.45-68.13,57.52-30.16,23.2-53.78,52.81-77.55,82.43-23.14,28.82-29.76,65.75-34,99.44-3.57,28.61-9,55.22-18.82,81.55-3.82,10.28-10.28,23.11,4,27.37,11,3.27,19-6.76,20.72-19.24,1-7.16,1.22-14.45,2.43-21.57a160.11,160.11,0,0,1,24.79-62.76c4.77,38.07-2,70.51-8.29,103.6-8.35,44,9.61,86,16.26,128.8-10.76,5-21.59,8.33-32.84,1.49-2-3.65-4.91-4.92-8.8-4-21.31,5.21-42.71-3.2-64,.42-12-3.74-24.32-4.2-36.73-3.32l.82.64c-4.26-3.23-8.8-4.46-13.83-2-10.17,7.54-22.13-12-31.85,2.27l-10.7-5.48c-9.13-4.32-18.39-7.77-28.63-4.43-5.5,1.77-12.86,3.13-12.36,10.3.7,10.17,9.51,10,17,10.44a21,21,0,0,1,3.31,1.25c5.62,6.73,11.74,6.93,18.29,1.51,21.54.7,42.73,8,64.75,3.85,8.92,4,17.79,3.38,26.63-.3,4.59,8.93,11.58,3.65,17.75,3.24l11.14.42c6.77,4.23,13.8,2.76,20.83,1l2.06,1.49,2.42-.65c17,10.6,36.77-5.84,53.62,6,2.41,11.5,11,10.3,17.81,7.41,10.65-4.5,21.7-1.76,32.3-4.23l11.86-4,28.26,4.72,0,0c.22,3.72,2.1,5.51,5.71,5.28q2.6,2.46,5.17,4.94C1108.32,782.14,1110.06,784.19,1113.31,785.07ZM1472,1245.5c4.81,13.6-10.74,26.91-1,42.59,13.33-8.77,11.48-23.19,14.8-34.3,5.27-17.63-8.71-6.15-13.86-8.24-2.38-11.64-4.77-23.27-7.1-34.67-16.58,4.86-11.07,23.74-25.34,31,5.34-22.58-11.31-35.79-12.59-54.26-3.11.85-4.37.82-4.57,1.3-4.92,11.38-13.2,20.82-14.8,34.26-1.56,13-10.81,21.42-23.58,21.72-18.89.44-6.16-10.7-5.72-17.83.13-2-4.6-4.95-7.59-6.29-6.82-3.07-8.93,2.81-11.67,7.42-8.24,13.91-14.8,29.46-25.27,41.25-22.48,25.32-21.2,39.86,8.9,55.93,2.7-10.77,9.41-22.41,7.17-31.73-4.68-19.46,6.22-38.28,25.21-37.14,6.84.41,14.63,2.92,11.12,10.59-11.36,24.84-12.74,55.07-37.41,73-9.93,7.22-16.7,18.34-19.28,31.35l-3.91,5.84,2,1.36c.66-2.38,1.32-4.75,2-7.13,16.08-7,37.57-4.57,40.62-32.13,1.22-11,11.26-28.3,19.39-29.72,21.82-3.81,26.3-14.83,25.33-34.71-.35-7.18,2.84-18.36,12.92-17,12.31,1.6.4,12,3.76,17.56,1.76,2.92,3.15,6.09,5.54,10.78C1444.13,1266.79,1446.13,1244.59,1472,1245.5Zm-141-12.94c-24.38.77-47,35.93-43.8,64,.73,6.33.1,14,8.93,13.46,10.23-.62,8.74-7.82,7.68-15.81C1300.39,1268.32,1305.33,1245.82,1331,1232.56Zm121.74,91.2c7.73,2.79,14.4,6.08,17.61-1.84,1.82-4.5,1.3-10.67.1-15.63-1-4.15-39.63-1.37-42,2.77-3.2,5.56-5.91,12-2.59,17.71,3.51,6,9.3.72,14,.17C1444.78,1326.37,1449.6,1324.58,1452.73,1323.76Zm-750-545.38c.9,6,3.73,10.93,9.55,11.16,13.48.54,20-9.84,24.67-20.55,2.53-5.77-1.62-10.44-8.12-10.61C715.32,758,709.32,768.33,702.69,778.38Zm1127-338c-2.12-7.61-7.2-11.21-15.08-10.87-6.08.26-10.19,3.21-9,9.92,1.32,7.52,6.15,13.71,13.28,14.54C1826.58,454.89,1827,446.45,1829.66,440.39Zm5.17-219.85-1.22-1.68-1.49,1.39,2,2.17Z" transform="translate(-3.37 -12.18)"/>
    <path d="M1096.82,204.23c-7,23-32.71,26-44.33,44.73-4.43,7.15-12.77,12.37-15.76,21.15-2.81,8.25-4,14.06-14.91,6.8-10.64-7.07-16.34,13.49-29.56,8.18,9.72-27.58,22.39-54.11,43.65-74.3,12.88-12.22,8.36-14.08-4.52-17.87-15.35-4.52-31.69-7.4-8.69-28.6,14.26-13.14,20.61-35,34.89-50.26,4.67-5,10.05-15.43,2.56-24.75-6.72-8.36-14.69-11.89-25.35-10.83-13.37,1.33-9.61,12.28-12.33,20.23-7.89,23.05-17.44,45.38-32.64,64.51-4.38,5.52-4.33,12.21-3.34,18.23,2.77,16.86-5.9,24.13-24.23,30.73,13.42-59.41,30.45-112.85,61.1-161q1.59,3.45,3.19,6.9c18.17-15.24,43.68-20.92,54.83-45.32h10.56c9.13,9-13.78,29.09,10.53,32.85l0,0c.66,6,3.9,8.46,9.42,11.11,26.35,12.64,48.63-3.33,73-7.13,26.63-4.15,28.87-16.35,28.36-36.88h232.22c-1.79,19.65-22.11,24.33-30.2,39.7-3.64,6.91-16.85-2.72-27,.32-23.35,7-46.74,13.67-70.62,26.84-.22-15.43,2.64-22.93,16.86-23.33,12.09-.35,24.11-3.53,36.18-5.27,5.54-.8,11-2,9.87-9.4-1.09-7.24-8.3-8.55-12.28-6.53-22.08,11.24-50.75,3.05-68.9,26-10,12.57-23.33,14.95-38,9.46-24.85-9.31-46.43.15-66.4,14-12,8.27-20,23.85-38.24,18.06-3.44-1.09-6.28,2.7-6.48,6.82-.78,16-11,18.58-23.66,18.89-9.46.23-12.9,8.32-16.19,15.89-2.57,5.91-5,12.5-.2,17.93s9.9.35,14.13-2c8.17-4.43,16.69-5.24,25.56-4.78,2.85,21.15,19.29,13.81,31.18,16C1180,183.21,1165.74,192,1175,207c3.24,5.22-3.21,11.52-10,12.7-5,.86-9.15-2-8.92-7.14,2-44.12-21.31-22-38.53-16.08-3.23,1.1-6.69,1.49-10,2.21.49-22.56,25.94-10.65,33.25-26.62-31.66-2-53.46,12.55-70,37.95l-6.91,6.62,3.11,2.09,3.79-8.73Zm23.35-116c-16.63,4.55-29.2,1.92-32.77,16.75-1.37,5.7,1.74,11,8.14,11.07C1109.83,116,1112.11,103.81,1120.17,88.19Z" transform="translate(-3.37 -12.18)" style="fill: #220701"/>
    <path d="M10,12.71Q10,767.87,9.51,1523c0,22.6,3.24,30.3,27.65,30.07,170.4-1.65,340.81-1.27,511.22-1.54l84.55-.09H780.58l58,0,78.74,0,75.26-.07,30.64-.08,31.31,0,21.65.29,69.8-.35c11.41.36,22.81,1,34.22,1q734.35.09,1468.71,0c-4.75,11.32-14.26,5.11-21.11,5.14-130.19.46-260.37.34-390.55.34q-1104.37,0-2208.74.51c-19.79,0-24.28-4.62-24.25-25.17q1-747.9.83-1495.81C5.05,29.35-1,18.79,10,12.71Z" transform="translate(-3.37 -12.18)" style="fill: #fefefe"/>
    <path d="M1688.1,73.23c-28,12.23-56.73,10.75-85.7,5-7.84-1.56-19.09-4-20-10.66-3.94-29.25-20.85-21.06-38.14-17.41-23.65,5-43.62-10.34-51.22-37.45h89.73c26.61,4.7,45.47,26,70.15,35.73C1664.81,53.15,1680.39,59,1688.1,73.23Z" transform="translate(-3.37 -12.18)" style="fill: #220701"/>
    <path d="M1688.1,73.23c-7.71-14.23-23.29-20.08-35.18-24.79-24.68-9.77-43.54-31-70.15-35.73h121.38c-10.25,20.51,8.44,32,12.7,47.71,10.14,37.34,39.51,57,60.91,83.91,1.78,1.88,3.55,3.76,5.33,5.63,0,3.78.09,7.56.13,11.34-18.2.29-22.45-18-33.12-27.53C1728.59,114.62,1708.68,93.52,1688.1,73.23Z" transform="translate(-3.37 -12.18)" style="fill: #3c1602"/>
    <path d="M1777.76,144.33c-21.4-26.94-50.77-46.57-60.91-83.91-4.26-15.72-22.95-27.2-12.7-47.71h42.23c22.6,29.44,49.17,55.53,68.64,87.62l-.38.39c-24.53-8.77-39.34-33.56-67.43-43.12C1759.46,87.35,1778.4,112.48,1777.76,144.33Z" transform="translate(-3.37 -12.18)" style="fill: #220701"/>
    <path d="M1804.43,12.71c20.41,43.84,39.16,88.64,62,131.06,9.92,18.41,12.65,39.57,24.88,56.62,6.91,9.62-2.51,14.73-7.77,20-4.69,4.72-7.55.08-9.83-3.82-19-32.34-38.16-64.54-56.53-97.23-2.82-5-1.8-12.38-2.55-18.65l.37-.38c15-3.44,12-13.69,6.39-22.37-7.15-11-15-22.21-24.75-30.62-13.39-11.57-18.45-21.6-2.78-34.63Z" transform="translate(-3.37 -12.18)" style="fill: #220701"/>
    <path d="M1102.47,45.56c-24.31-3.76-1.4-23.84-10.53-32.85h121.38c.51,20.53-1.73,32.73-28.36,36.88-24.4,3.8-46.68,19.77-73,7.13-5.52-2.65-8.76-5.1-9.42-11.11l28.78-7.85C1118.06,31.9,1106.1,22.72,1102.47,45.56Z" transform="translate(-3.37 -12.18)" style="fill: #3c1602"/>
    <path d="M1793.88,12.71c-15.67,13-10.61,23.06,2.78,34.63,9.73,8.41,17.6,19.59,24.75,30.62,5.63,8.68,8.63,18.93-6.39,22.37-19.47-32.09-46-58.18-68.64-87.62Z" transform="translate(-3.37 -12.18)" style="fill: #3c1602"/>
    <path d="M1081.38,12.71c-11.15,24.4-36.66,30.08-54.83,45.32q-1.6-3.45-3.19-6.9c6.65-13,18.4-23,21.08-38.42Z" transform="translate(-3.37 -12.18)" style="fill: #3c1602"/>
    <path d="M1008.66,740.34c-6.65-42.84-24.61-84.77-16.26-128.8,6.28-33.09,13.06-65.53,8.29-103.6A160.11,160.11,0,0,0,975.9,570.7c-1.21,7.12-1.43,14.41-2.43,21.57-1.73,12.48-9.75,22.51-20.72,19.24-14.31-4.26-7.85-17.09-4-27.37,9.79-26.33,15.25-52.94,18.82-81.55,4.2-33.69,10.82-70.62,34-99.44,23.77-29.62,47.39-59.23,77.55-82.43,23.5-18.07,51.55-30.35,68.13-57.52,1.78-2.92,7.77-3.25,11.9-4.41,30.16-8.48,60.35-17.82,87.85-32.91,18-9.89,37.34.2,52.91-7.24,51.15-24.43,104.14-15.15,153.86-3.93,26.31,5.94,53.88,9.67,80.06,17.81,10.09,3.14,16.52,10,17.36,21.47-11.7,9.8-25,5.36-37.6,3.76-9.41-1.2-13.39-13.23-24.42-14.38-28.7-3-57.25-7.57-85.86-11.51-24.2,0-48.89-3.17-72.47.8-32.74,5.5-67,7.35-96.36,27-36.4-2-63,21.94-92.13,38.51-11,6.26-29,5-32,20.43-3.79,20-18.26,30.67-28.75,44.95-3,1.39-6.87,2-8.82,4.28-18,21.56,7.22,27,13.88,39.37-24-6.71-31.27,12.29-40.59,28.38-2.21,3.82-6.75,7.32-3.85,11.83,3.31,5.16,9.91,4.81,14.48,3.17,19.54-7,27.37-23.37,30-43.32,27,12.6,57.27-1.23,84.38,10.88l.15,10.77c-54.81-14-97.31,10.34-125.94,73.36,10.34,0,15.5-7.8,22.62-11.83,13.32-7.54,21.54-25,40-22.69l5.13,9.85c-14.72,6.12-29.07,12.75-36.59,28.74-6.32,3.49-18,3.65-9.48,16.37,0,0-.84.89-.84.87-24.72,1.7-28.17,16.32-21.07,37.35l-5.65,5.54c-22.86,15.16-15.42,43.53-25.16,64.65-4.26,9.26-10.87,23.54-2.54,36.1,15,22.57,12.19,48.13,11.63,73.33Z" transform="translate(-3.37 -12.18)" style="fill: #220701"/>
    <path d="M1108.59,778.51l-5.17-4.93c-.43-3.48-2.3-5.28-5.71-5.28l0,0-5.62-10.73c-4-22.66,12.57-23.17,26.57-27.37,19.37-5.82,44.35-7.38,31.83-40.84-2.38-6.36,1-12.54,8.85-13.43,23-2.61,25.68-20.29,27.17-39l11.36-.18c13.69,17.48,35.71,29.48,52.6,30.45,24.89,1.42,34.09,20.31,36.88,32.55,4.5,19.8,7.82,19.57,22.58,11.75,12-6.33,20.55-5,15.43,13.73-2.63,9.66-6.26,18.67-9.55,28-8.35,23.56-17.28,47.15-14.8,73.14-7.28,14.74-17,27.82-31.59,34.51-9.26,4.24-9,11-10,18.52L1244,889.55l-.72-1.14.48,1.32-8.54,7.86c-8.49-.07-11.18,7-14.89,12.92-5.54-.56-17.34,1.35-14.68-4.63,7-15.83-7.14-26.47-5.18-40.53,1.54-11.08-5.39-27.62-12-27.29-27.94,1.36-38.41-20.74-53.76-36.74L1124,790.13c-.56-6.24-3.47-10.23-9.77-11Zm99-104.77c-11.91-5.39-23,.83-25.88,14.85-3.26,15.87-7.84,36.65-.9,48.24,8.24,13.77,10.22-15.43,22.33-12,3.22.92,7-.18,10.47-.35,22.83-1.08,28.15-25.54,44.1-36,2.76-1.81-.92-9.25-2.94-8.38C1238.57,687.12,1225.62,670.4,1207.57,673.74Z" transform="translate(-3.37 -12.18)" style="fill: #f59239"/>
    <path d="M1677.59,478.5c33.49.51,61.49,18.16,90.69,31.79,8.82,4.12,10.17,14.66,12.81,23,8,25.38,26.65,55.21,19.89,75.76-12.26,37.23,2.57,77.95-14.3,109.21-15.58,28.87-29.35,63.68-57.29,82.52-46.18,31.14-57.22,83.92-80.75,128.89-10.9,20.82-19.49,24.18-35.76,5.72-8.22-9.34-15.68-19.39-23.51-29.1-12-14.94-23.77-30.16-46.14-19.07-5.39,2.68-9.7-2.79-13.8-6-10.6-8.41-22.12-24.32-24.63,6.17-14.77-10.31-22.32-21.18-22.37-36.6.19-3.14.37-6.29.56-9.45a22.41,22.41,0,0,1,5-1.17l5.35-5.07c1.34-.42,2.68-.85,4-1.3,16.53-.27,21.31,25.06,37,21.1,15.46-3.92,24.22,3.78,35.25,10.67,32.93,20.59,61.1,10.22,71.23-25.53h0c10-.46,15.29-6,15.92-16.33a37.17,37.17,0,0,1,.4-5.27c31.3-7.68,50.4-27.89,57.5-60.4l.42-5.59c11.16-6.1,33.2-8.57,21.4-27.34-16.57-26.37-9.36-48.87,3.06-70.74,6.19-10.92,2.57-18.61,1.19-27.93,9.53-8.53,21.16-17.31,19.63-31.38-2.55-23.6-4.55-46.69-19.32-68.32C1724.31,502.28,1697.65,495.87,1677.59,478.5Z" transform="translate(-3.37 -12.18)" style="fill: #021f00"/>
    <path d="M564.49,1503.24c23.44-11.26,34.09-39.11,59.6-48.41,15.19-5.53.54-11.85-1.74-17.7,3.94-3.39,7.38-8,11.9-10,50.69-22.24,100.32-46.55,147.24-76.69,6.49-4.18,13.27-8.33,12.58-15.25-1.23-12.3-12.3-5.66-19-7.7,26.63-21.63,59.3-25.23,90.73-32.16,8.2-1.81,16.9.39,12.9,13.22-6.36,20.46-34.18,39-56.71,38-21.15-.89-33.15,15.73-44.33,29.24-8,9.72.94,19.4,13.44,17.37,55.51-9,112-10.91,161.39-47.47,29.11-21.54,61.14-42.54,99.15-47,25.33-3,42.37-24.76,46.15-43.65,6.31-31.56,26-44.62,47.71-59.11,13.42-.22,26.92-1.75,40.1,2.38q.5,9.81,1,19.63c-6.92,3.37-10.49,8.88-10,17-5.28,3.41-7.49,11.32-15.19,11.18-12.44.9-14.86-11.85-20.82-19.74-13.36,15,1.34,27.74-1.38,40.6-2,4.35-5.59,5.83-9.88,6.18-15.66-1.17-25.83,6.8-32.33,20.91-13.8,2.05-26.77,6-36.59,17.21-24.67-3.3-43.5,7.12-58.39,26.79q-2.41.45-4.86.66c-50.7,14.38-91.09,52.84-145.86,60.78-47.77,6.92-94.64,23-142.37,33.33-28.95,6.3-59.73,14.67-81.78,38C609.43,1489.62,592.08,1506.39,564.49,1503.24Z" transform="translate(-3.37 -12.18)" style="fill: #021f00"/>
    <path d="M1624.86,286.73c2.64.08,6.15-1,7.77.4,38.52,32.58,83.68,58.74,102.17,111,2.79,7.9,1.29,16.05-4.53,23-3.35,4-9,9.73-8.09,13.17,11.42,44.51-18.51,23-31.45,19.46-17.76-4.84-37.09-6.76-51.15-24-9.64-11.8-25.18-.84-37.42.55-15.87,1.81-31.07,10.1-46.82,20.7l106.83,21.4c-21.11,3.71-43.29-5.22-63.77,5.83-19.63-.2-38.91,24.11-58.85.87,1.71-4.69,8.1-11.86,2.5-14-28.22-11-4.66-19.31,2-23.38,17.78-10.84,37.26-18.63,55.76-28.26,17.67-9.2,22.15-32,8.72-46.39-5.83-6.23-15.66-8.76-15-20.1,1.6-.07,3.2-.15,4.79-.25,6.92.05,13.88.62,20.74,0,6.42-.58,15.5,3.8,18.51-4.67,2.94-8.26-5.23-12.69-11-15.86-12.88-7.14-19.14-18.72-24.52-31.65C1610.22,289.85,1619.67,295.22,1624.86,286.73Z" transform="translate(-3.37 -12.18)" style="fill: #021f00"/>
    <path d="M564.49,1503.24c27.59,3.15,44.94-13.62,62.64-32.35,22-23.33,52.83-31.7,81.78-38,47.73-10.38,94.6-26.41,142.37-33.33,54.77-7.94,95.16-46.4,145.86-60.78-1.45,3.16-2.36,6.79-4.45,9.4-5,6.22-20.07,6.16-14.5,18.22,4.95,10.72,15.17,1.25,23.17,1.1,28.29-.53,48.43-23.82,75.27-27.87,1.81,21.87-20.26,12.11-27.24,22.28,14.56,8.91,15.42,13.34.81,19.73-29.49,12.89-58.68,27-90.32,33.87-1.42-8.48,11.3-20,.71-23.85-6.84-2.48-23.5-3.89-27,12.7-13.4,6.41-29.48,1.78-42.2,11-8.27,1.1-19.27-3.54-21.23,10.86-1.68.14-3.35.26-5,.33l-5.49,5.19c-5.41,2.58-10.61,6.15-17,3.88,2.1-12.9.11-23.61-15.7-18.67-74.48,23.27-156.07,28.07-216.31,88.85-5.14,5.18-17,6.52-11.46,17.58,4.89,9.77,15.36,7.42,23.82,6.41,11.12-1.33,14.54-12.35,19.63-20.34,12.55-19.71,27.88-36.45,51.46-37.63,28.33-1.42,54.41-12,81.74-17.14-5.59,17.5-22.21,16.44-34.64,20.4-43.89,14-79.94,39-108.24,76.37l-84.55.09C553.18,1535.24,554.93,1517.84,564.49,1503.24Z" transform="translate(-3.37 -12.18)" style="fill: #002e19"/>
    <path d="M1503.65,1015.53c40.7,7.11,47.69,13.7,44.6,43.86-1.46,14.27-7.64,22-23.93,19.26-21.11-3.5-42-7.89-64.28-4.07-16,2.74-26.7,1.63-20.55,24,3.67,13.32-5.78,18.06-17.59,13.3-7.48-3-15-14-21.64-.67-6.79,13.63,6.85,9.38,11.81,13.32,5.72,4.54,6.85,10.26.84,18.33-12,16.15-23.19,31.6-45.44,31.79-4.79,0-12.37,2.21-13.88,5.66-14.14,32.21-53,37.33-68.31,68.22-2.45,5-6.06,15.11-15.52,5.92-5.67-5.52-9-9.32-3.4-18,14.27-22,22.89-48.29,46.28-63.09,7.81-4.94,7.16-17.49,2.61-17.28-27.8,1.26-14-20-17.55-31.62,3.24-12.15,7.92-23.11,21-27,.63,10.08-12.89,22.79,4.91,29.67,11.56,4.47,16.71-6.22,19.61-12.88,5.33-12.24-.72-20.74-14-22.47.68-4.24-1.39-11.41,3.44-12,22.25-2.51,44.82-12.72,66.85,1.62,5.29,3.45,12.37,6.27,13.8-3.86,2.36-16.78,14.21-12,24-12.72,30.64-2.2,58.2-14.36,87-25.06C1517.84,1027.55,1503.71,1028.43,1503.65,1015.53Z" transform="translate(-3.37 -12.18)" style="fill: #021f00"/>
    <path d="M590.81,1163.42c4.39-22,22.24-35.77,31.35-54.89-1.42,16.68,10.37,26.94,21.58,30.33,15.88,4.81,15,11,8.64,22.49-2.55,4.61-5.78,10.23-.66,14.73,4.88,4.29,9.83-.94,14.62-2.09,19.65-4.71,31.24-22.66,47.81-32.07,21.84-12.4,34-41.5,60-43.59,38.92-3.14,68.68-23.3,98.41-45.67,9.53-7.16,3.28-9.47-2.79-12.3q3.21-6.66,6.43-13.3c3.13-.51,6.26-1,9.4-1.53,12.79-.27,25-9.17,39.59-2-10.49,18.34-22.15,34.73-42.63,41.42-7.68,2.51-11.72,7.48-13.13,15.33-26,1.14-42.58,26.56-68.23,28.65-7.21-.3-14.25-.3-15.56,9.66L764.4,1120c-7.83,7.24-15.42,14.79-23.54,21.66-20.2,17.1-36.31,37.75-62.31,49.57s-58.7,22.67-66.64,59.37c-10.32,6.62-19.24,16.05-32.27,17.18-6.63-9.86-15.81-13-26.92-11,8.3-11.5,16.53-23,30.29-28.3,7.77-3,6-7.1.82-11.29,15-14.58,5.37-32.38,5.95-48.85,0,0,.12-.27.13-.27l2.38-.8C591.79,1166,591.3,1164.72,590.81,1163.42Z" transform="translate(-3.37 -12.18)" style="fill: #066a37"/>
    <path d="M1424.38,873.14c.42,6.85,3.41,15.45,9.36,14.46,28.47-4.77,22.1,15.63,22.31,31.36.29,21.35,9,32.45,31.1,32.12,14.14-.2,25.46,10,37.32,17.1,10.7,6.39,21.93,13.1,34.1,12,9.08-.8,15.58-1.69,18.13,8.88,2.3,9.58-1.42,18.95-6.35,25.57-4.77,6.4-13.38.86-18.66-2.77-6.87-4.72-13.5-8.17-21.77-7.7.33-7.57-2.33-11.9-8.83-17.14-17.76-14.32-36.53.7-54.11-4.68l-.22-.11c-.88-5,1.9-12-5.31-13.52-4-.81-4.9,4-5.77,7.51-15.75-2.17-30.69,5-48.38-6.22-8.28-5.28-27-31-45.69-8.82-4.35-.43-8.53-1.24-11-5.62-2.31-5.81-4.1-11.94-7.06-17.36-4.48-8.18-25.2-3.83-17.59-20.05,6.36-13.57,12.11-30.32,30-34,0,1.68-.08,3.36-.13,5,.09,4.58.93,8.77,5.26,11.2C1380.54,887.19,1401.54,877.86,1424.38,873.14Zm65.11,90.42c-.3-.57-.48-1.43-.93-1.62s-1.3.11-2,.21l1.3,2.54Z" transform="translate(-3.37 -12.18)" style="fill: #021f00"/>
    <path d="M869.77,1040.36c6.07,2.83,12.32,5.14,2.79,12.3-29.73,22.37-59.49,42.53-98.41,45.67-26,2.09-38.16,31.19-60,43.59-16.57,9.41-28.16,27.36-47.81,32.07-4.79,1.15-9.74,6.38-14.62,2.09-5.12-4.5-1.89-10.12.66-14.73,6.4-11.54,7.24-17.68-8.64-22.49-11.21-3.39-23-13.65-21.58-30.33,10.28-32,38.33-41.62,63.62-54.77l4.41-5.86.13-.22c4.44-1.57,6-5.15,6.15-9.64l.35-.4c9.15-2.08,15.56.27,16.68,11.15l-30.25,71.12c20.16-4.57,31-18.34,44.73-27l21.55-11.35c13,.3,25-1.55,32.65-14.36l9.4-5.61,10.18-2.1C826.77,1062.12,845.45,1040.47,869.77,1040.36Z" transform="translate(-3.37 -12.18)" style="fill: #0eb26a"/>
    <path d="M1624.86,286.73c-5.19,8.49-14.64,3.12-22.78,7.84,5.38,12.93,11.64,24.51,24.52,31.65,5.73,3.17,13.9,7.6,11,15.86-3,8.47-12.09,4.09-18.51,4.67-6.86.63-13.82.06-20.73,0-9.06-23.45-33,6.47-42.94-13.36,3.66-9.15,14.66-14.79,14.36-28.81-13.34,1.38-28.94,8.16-38.21,2.91-21.37-12.12-41.59-17.71-64.8-9.63-16.85,7.62-31.52,6.29-42.27-11.11,7.7.59,14.62-2,21.26-5.65,7.9-1.26,17.67,3.63,25.25-8.76-10.46-1.36-18.35-5.05-25.34,3.22l-10.59,0c.61-22.09-15.55-14.6-26.54-16.2q-2.64-13.74-5.26-27.48c28.61,3.94,57.16,8.54,85.86,11.51,11,1.15,15,13.18,24.42,14.38,12.56,1.6,25.9,6,37.6-3.76l10.35.06c1.84,3.61,3.73,3.69,5.66.08,11.09,8.69,23.59,13.82,37.21,16.41C1613.69,272.32,1623.24,274.23,1624.86,286.73Z" transform="translate(-3.37 -12.18)" style="fill: #262a04"/>
    <path d="M917.28,1551.47l-78.74,0a159.21,159.21,0,0,1,54.79-16c26.76-2.77,54.94-7.27,76.25-24.24,32.46-25.86,69.48-43.44,103.4-66.55,48.7-33.18,91.59-64.85,77-134.81L1196,1283c.34,11.09,10.24,12.86,16.21,18.75,15.1,14.91,27.78,31.44,13.84,54.68-2.57-11.51-4.51-23.23-7.93-34.46-1.8-5.91-11.28-13.14-12.42-5.47-3.5,23.74-22.61,38-29,58.72-6.55,21.16-17.79,36.58-35.91,47.79-20.12,12.44-39.14,26.88-59.69,38.46-45.15,25.45-85.3,60.41-135.47,76.38C935.76,1541,925,1543.16,917.28,1551.47Z" transform="translate(-3.37 -12.18)" style="fill: #066a37"/>
    <path d="M1598.4,478.31c20.48-11.05,42.66-2.12,63.77-5.83,1.65.22,3.31.38,5,.46l5.52,5.15,4.93.41c20.06,17.37,46.72,23.78,63.4,48.23,14.77,21.63,16.77,44.72,19.32,68.32,1.53,14.07-10.1,22.85-19.63,31.38-19.09,18.31-38.16.21-57.24-.07q-5.57-8.31-11.12-16.64c1.76-6.78-8.26-16.08-.69-19.43,19.36-8.59,6.51-20.82,4.53-31-1.65-8.51-6.77-16.28-10.36-24.38,7.06-2.18,16.69-.59,16.88-12.69.15-9.35-6-14.16-12-19.7C1649.91,483.41,1622.27,487.05,1598.4,478.31Z" transform="translate(-3.37 -12.18)" style="fill: #23491b"/>
    <path d="M775.09,1327.51c6.68,2,17.75-4.6,19,7.7.69,6.92-6.09,11.07-12.58,15.25-46.92,30.14-96.55,54.45-147.24,76.69-4.52,2-8,6.59-11.9,10l-5.54.07c-21.25-2.46-38.35-26.58-36.85-51.52.88-14.67,6.3-22.43,21.54-16.68,17.79,6.71,28.56,1,31.57-18.88l36.62-.34c5.36,6.91,10.65,6.82,15.88-.15C716.79,1348.27,744.51,1331.66,775.09,1327.51Z" transform="translate(-3.37 -12.18)" style="fill: #002e19"/>
    <path d="M917.28,1551.47c7.75-8.31,18.48-10.5,28.34-13.63,50.17-16,90.32-50.93,135.47-76.38,20.55-11.58,39.57-26,59.69-38.46,18.12-11.21,29.36-26.63,35.91-47.79,6.44-20.77,25.55-35,29-58.72,1.14-7.67,10.62-.44,12.42,5.47,3.42,11.23,5.36,23,7.93,34.46q-1.11,4.82-2.24,9.63l-3.39,7.16-24.63,30.56-40.73,41.53c-26.4,4.94-38.69,32.41-62.18,42-35.71,17.57-68.06,40.8-100.38,64.1Z" transform="translate(-3.37 -12.18)" style="fill: #0eb26a"/>
    <path d="M801.2,1108.93c25.65-2.09,42.21-27.51,68.24-28.64,0,0,1.11,1.25,1.1,1.25-23.34,23.61-48.83,43.45-82.11,49-16.76,2.79-20,12.2-13.5,27.16-4.37.85-10.34,2.25-9.08,7.49,7.8,32.5-13.07,30.89-33.09,31.13-6.64.07-16.88-2.77-18.51,5.45-3.18,16-13.16,16.38-25,17-7.32.4-12.56,6.36-14.11,13.22-1.06,4.71,10-.46,9.55,6.35-15.76,7.83-39.4-11.24-46.79,18l-20.82,11.28c-6.87-.08-10.52,3.41-10.84,10.57l0,.08c-20.2,1-34.05,8.51-31.65,32.9-.2,4.48-1.14,8.56-5.37,10.9-10.23-1.31-20.73,16.51-25.14,8.82-12.25-21.33-34.19-8.8-48.32-19.64.57-15.26-3.45-31.72,10.57-43.46.61,6.87-2.16,14.93,4.87,19.78,10.42,7.19,59.43-7.19,68.48-19.77,13-1.13,22-10.56,32.26-17.17,4-1.54,9.15-1.93,11.82-4.8,24.77-26.69,56-41.54,87.5-57.76,25.24-13,59-25.82,53.18-68q10.62-.71,21.24-1.39C793.27,1119.61,798.23,1116,801.2,1108.93Z" transform="translate(-3.37 -12.18)" style="fill: #002e19"/>
    <path d="M1329.39,1371.52c2.58-13,9.35-24.13,19.28-31.35,24.67-18,26-48.18,37.41-73,3.51-7.67-4.28-10.18-11.12-10.59-19-1.14-29.89,17.68-25.21,37.14,2.24,9.32-4.47,21-7.17,31.73-30.1-16.07-31.38-30.61-8.9-55.93,10.47-11.79,17-27.34,25.27-41.25,2.74-4.61,4.85-10.49,11.67-7.42,3,1.34,7.72,4.32,7.59,6.29-.44,7.13-13.17,18.27,5.72,17.83,12.77-.3,22-8.71,23.58-21.72,1.6-13.44,9.88-22.88,14.8-34.26.2-.48,1.46-.45,4.57-1.3,1.28,18.47,17.93,31.68,12.59,54.26,14.27-7.31,8.76-26.19,25.34-31,2.33,11.4,4.72,23,7.1,34.67l0,0c-25.83-.91-27.83,21.29-34.92,40.82-2.39-4.69-3.78-7.86-5.54-10.78-3.36-5.59,8.55-16-3.76-17.56-10.08-1.31-13.27,9.87-12.92,17,1,19.88-3.51,30.9-25.33,34.71-8.13,1.42-18.17,18.71-19.39,29.72-3,27.56-24.54,25.16-40.62,32.13Z" transform="translate(-3.37 -12.18)" style="fill: #021f00"/>
    <path d="M495.72,1311.22c14.13,10.84,36.07-1.69,48.32,19.64,4.41,7.69,14.91-10.13,25.14-8.82-6.25,28.58-3.28,32,25.43,33.31,13.3.63,25.73-2.81,38.46-5.24-3,19.84-13.78,25.6-31.57,18.89-15.24-5.75-20.66,2-21.54,16.68-1.5,24.94,15.6,49.06,36.85,51.52-16.84,19-45.79,13.6-56.41-14-5.88-15.26-12.67-19.6-26.38-19-17.46.82-21.93-8.61-21.08-25.74.62-12.49,8.92-29.4-16.64-32.92C485.63,1344.17,488,1323.36,495.72,1311.22Z" transform="translate(-3.37 -12.18)" style="fill: #021f00"/>
    <path d="M1503.65,1015.53c.06,12.9,14.19,12,20.72,24.28-28.85,10.7-56.41,22.86-87,25.06-9.82.7-21.67-4.06-24,12.72-1.43,10.13-8.51,7.31-13.8,3.86-22-14.34-44.6-4.13-66.85-1.62-4.83.54-2.76,7.71-3.44,12l-10.48,5.68c-13.1,3.88-17.78,14.84-21,27-11.61,1-11.72-13.87-20.84-16.3,11.31-18.11-1.18-36.08-.3-54.13,6.61,2.52,14.23,8.61,16.26-5l26-.07c2.24,11.41,7.59,13.06,15.91,5.47l10.51-4.55,10.09-.57c3.83,4.41,7.65,4.42,11.45,0,26-3.18,52.82,2.82,78.27-7.13,40.7,1.3,41.71.46,31.55-26.23l26.93-.51Z" transform="translate(-3.37 -12.18)" style="fill: #262a04"/>
    <path d="M1614.41,160.68c-54.43-23.87-110.73-40.15-169.58-47.32-41.64-5.07-82.83-1.8-123.69,5.49-11.29,2-22.44,2.53-33.65,3.76l-5.94-.75c62.64-25.7,127.08-32.75,193.24-18.47,1.36-8.71-7-8.86-8.26-14.21,18.87-13,39.12-1.87,55.3,2.89,32.71,9.63,64.84,24.44,92.44,46.86Q1614.34,149.81,1614.41,160.68Zm-126.49-60.51-2.57-1,2.17,1.44c10.41,12,22.44,18.25,43.46,14.14C1514.65,102.82,1501.78,99.83,1487.92,100.17Z" transform="translate(-3.37 -12.18)" style="fill: #3c1602"/>
    <path d="M1202.48,949.33c3.41,14.26-9.4,22.63-11.79,35-2.84,14.81-11,29.17,8.62,39.21,7.21,3.69,6.92,11-1.31,16.82-8.91,6.28-20.18,11.32-18.72,27.81-9.58-13.22-8.41-33.22-28.73-32.41-1.08,0-3.28-2.39-3.23-3.6,2.16-56.75-22.81-109.52-22.46-166,18.89,3.15,5.69,41.24,34.22,33.92.3,1.72,1.16,3.57.81,5.13-4.86,21,9.56,40,6,60.87l-1.32,2.08,1.15-2.27c13.48,1.07,25.26-1.63,31.89-15.62A7.56,7.56,0,0,1,1202.48,949.33Z" transform="translate(-3.37 -12.18)" style="fill: #220701"/>
    <path d="M917.71,1136.11C890.88,1141,874.91,1167,849.2,1174c-8.21-8.14-9.52-1.34-10.85,5.4-7.12,3.34-11.65,11.91-20.82,11.08-11.78-16.06-21.61,17-33.84.79,4.36-15.58,22.8-18.86,28.56-33.43,1.71-.08,3.43-.13,5.14-.15,7,.11,10.49-3.57,10.83-10.7l10.25-.18c7.78.22,13-3.54,16-10.91l10.33-.07c10.33-11,27.52-9.55,37.16-21.88l10.31-.12c10.06-3.27,23-1.24,26.84-15.9l15.45-.07c6.21,8.09,12.53-.46,18.7.19,13.54,1.42,29.72-7.4,39.26,10.38-26.16,15.43-53.92,25.47-84.2,27.14C924.55,1130.16,921,1130.47,917.71,1136.11Z" transform="translate(-3.37 -12.18)" style="fill: #002e19"/>
    <path d="M812.25,1157.86c-5.76,14.57-24.2,17.85-28.56,33.43,12.23,16.23,22.06-16.85,33.84-.79-35.51,22.46-68.91,48.89-109.27,62.19-23.15,7.63-46.92,2.08-70.37,3.62,7.39-29.21,31-10.14,46.79-18,.47-6.81-10.61-1.64-9.55-6.35,1.55-6.86,6.79-12.82,14.11-13.22,11.85-.64,21.83-1,25-17,1.63-8.22,11.87-5.38,18.51-5.45,20-.24,40.89,1.37,33.09-31.13-1.26-5.24,4.71-6.64,9.08-7.49C787.32,1170.12,799.84,1152.25,812.25,1157.86Z" transform="translate(-3.37 -12.18)" style="fill: #021f00"/>
    <path d="M1145.94,1551.28l-69.8.35c33.53-12.19,53.16-43.88,81.69-63.21,5.94-4,4.35-13.12-2.83-18.24.25-3.53.49-7,.74-10.57,15.62,1.88,26.15-4.73,31.91-20,2.86-7.6,6.94-14.32,16.07-14.88l.66.64q2.23,2.64,4.5,5.26l.34.6c-.42,4.64.56,8.58,5,10.82a18.65,18.65,0,0,1,1.33,5.09l-2.49,17.21C1191.73,1494.19,1175,1527.84,1145.94,1551.28Z" transform="translate(-3.37 -12.18)" style="fill: #0eb26a"/>
    <path d="M1012.55,1108.45c-9.54-17.78-25.72-9-39.26-10.38-6.17-.65-12.49,7.9-18.7-.19,20-11.88,44.06-15.53,60.86-34.31,7-7.79,9.6-15.4,6.78-24.48-3.3-10.6-10.85-5-17.46-3.65-5,1-11.76,2.37-15.19-.15-18.1-13.33-32.8-5.65-47,6.64-5.84,5.07-12.27,6.66-19.5,6.4,13.11-19,28.75-33.58,53.16-33.24,6.36.1,9.22-4.09,9.8-10.28,23.28-4.49,42.67,6.21,61.22,18.12,11,7.05,19,17,8,31.09-1.33-9.07-4-16.8-14.88-18-2.46,11.57-.8,22.41-5,32.76-3.18,7.82-2.52,16.38,8.87,17.72C1037.77,1100.14,1023.33,1101.45,1012.55,1108.45Z" transform="translate(-3.37 -12.18)" style="fill: #021f00"/>
    <path d="M1202.48,949.33a7.56,7.56,0,0,0-4.84,1c-15.42-12-21.3-27.28-22.09-47.78-.48-12.41,5.31-34.64-3.58-36.59-24.54-5.4-27.82-26-37.74-42.38l-2.94-15.2,3.39-7.09c15.35,16,25.82,38.1,53.76,36.74,6.62-.33,13.55,16.21,12,27.29-2,14.06,12.22,24.7,5.18,40.53-2.66,6,9.14,4.07,14.67,4.64l7.58.87-10.26,15.88q-5.19,7.43-10.39,14.88c-1.58,2.45-3.17,4.88-4.76,7.32Z" transform="translate(-3.37 -12.18)" style="fill: #bc6523"/>
    <path d="M1217.62,927.27q5.13-7.95,10.24-15.88c7.11-1.91,7.51-7.69,7.34-13.8l8.53-7.86.25-.18,15.45-10.16c33.52-13.73,63.34-39.34,102.64-34.63,10.93-.88,16.31,4.42,16.27,15.75l-6.57,7c-20.77-22.44-41-6.89-50.52,8.64-16.7,27.14-42.34,32.09-67.11,39.18C1241.78,918.87,1232.07,931.45,1217.62,927.27Z" transform="translate(-3.37 -12.18)" style="fill: #220701"/>
    <path d="M1276.56,1054c-.88,18,11.61,36,.3,54.13-12.51-12.42-22.64-26.49-27.48-44-3.43-12.42-8.66-23.6-19.66-30.59-20.32-12.92-21.32-28.69-2.58-44.72,2-1.7,5.41-3,5.89-5,8.14-34.51,24-16.5,38.67-6.3q-5.43,13.49-10.85,27v0c-10.22.86-15.87,6.28-15.36,17.26.48,10.46,8.1,9.69,15,9.8l5.68.35,0,10.88C1261.6,1054.51,1271.28,1052.07,1276.56,1054Z" transform="translate(-3.37 -12.18)" style="fill: #220701"/>
    <path d="M1503.55,1015.42l-26.92.5c-45.49-2.83-91.41,4.06-136.58-6.4-3.57-5.31-11.48-7.53-10.61-16,9.49-6.22,18.84-5.11,29.51-2.2,12,3.28,25.84,6.61,34.49-8.44,22.73,16,48.48,8.9,73.11,10.35,12.85,2,25.89,3.37,37.11,11.21Z" transform="translate(-3.37 -12.18)" style="fill: #220701"/>
    <path d="M1614.41,160.68q-.06-10.87-.14-21.75c60.47,20.84,109.72,60.63,158.33,101.39,3.34,2.8,10.21,6.25,5.17,12.59-2.9,3.66-7.21,3.36-11.35-.49C1721.87,211,1665.1,191.24,1614.41,160.68Z" transform="translate(-3.37 -12.18)" style="fill: #220701"/>
    <path d="M1008.66,740.34l14.62.19,16.17,9.41c.6.43,1.78,1.07,1.71,1.26a28.15,28.15,0,0,1-1.71,3.6c-7,16.28-20.92,7.76-31.94,9.62-16.86-11.82-36.65,4.62-53.63-6v-15.1l-2.37-.21L949.4,757.6c-7,1.75-14.06,3.22-20.82-1-3.44-7.78-7.25-5.39-11.15-.43-6.17.41-13.16,5.69-17.84-3.23,4.64-4,2.65-9.69,3.4-14.7,21.32-3.62,42.72,4.79,64-.43l8.79,4C987.07,748.67,997.9,745.33,1008.66,740.34Z" transform="translate(-3.37 -12.18)" style="fill: #f5c562"/>
    <path d="M1196,1283l-46.1,26.85-20.75,7.28-34.49,3.34c4.73-12.54,15.22-15.43,24.13-20.09,33.16-17.3,59.07-45,89.14-66.72h2.6l2.59-.06c10,11.25.44,22.68.3,34C1209,1274.38,1203.45,1279.82,1196,1283Z" transform="translate(-3.37 -12.18)" style="fill: #0eb26a"/>
    <path d="M1134.23,823.61c9.92,16.37,13.2,37,37.74,42.38,8.89,2,3.1,24.18,3.58,36.59.79,20.5,6.67,35.82,22.09,47.78-6.63,14-18.41,16.69-31.89,15.62l.17.19c3.53-20.87-10.89-39.83-6-60.87.35-1.56-.51-3.41-.81-5.13-28.53,7.32-15.33-30.77-34.22-33.92,0-2.82,0-5.62-.07-8.44,9.5-3.9,12.67-9.36,4-17.73q-.24-5.43-.46-10.86Z" transform="translate(-3.37 -12.18)" style="fill: #5b300a"/>
    <path d="M1371.77,867.52l6.56-7c18.21,4.05,39,15.71,45-16.41l17.88-16a2.86,2.86,0,0,0,3.13,1.46c10.73-.37,15.33-15,27.22-12.66,3.07,8.52-8.93,24.64,11.44,24.44-.19,3.14-.37,6.29-.56,9.43l-10.47.31-5.43,5.17c-13.89,6-31.43,2.28-42.15,16.87-22.84,4.73-43.84,14.06-63.32,27.23,0-4.63-.85-8.81-5.26-11.2,0-1.67.1-3.35.13-5Z" transform="translate(-3.37 -12.18)" style="fill: #262a04"/>
    <path d="M1466.53,89.18c1.22,5.35,9.62,5.5,8.26,14.21-66.16-14.28-130.6-7.23-193.24,18.48l-4.85.61c-4.34-.08-8.27.8-10.88,4.87L1250.38,133l-5.47-10.75c6.63-20.71,24.85-12.15,37.83-15.2,36.12-8.5,71.69-21.6,109.69-18.11l27.2-.36,25.33-.12,6.14.61Z" transform="translate(-3.37 -12.18)" style="fill: #5b300a"/>
    <path d="M1244.91,122.24l5.47,10.75c-3.61,7.37-16.6,4.59-16.26,16.22-7.84,5.64-16.8,6.18-25.9,6.12-10.07,3.22-23,1.31-26.77,15.91l-.24.09c-11.89-2.23-28.33,5.11-31.18-16C1181.89,145,1207.77,116.2,1244.91,122.24Z" transform="translate(-3.37 -12.18)" style="fill: #3c1602"/>
    <path d="M986.09,1004.81c-.58,6.19-3.44,10.38-9.8,10.28-24.41-.34-40,14.23-53.16,33.24,0,1.79-.07,3.58-.11,5.36-7,3.12-10.58,8.59-10.49,16.56l-26.29,11.1-5.59.06-10.1.13-1.11-1.25c1.4-7.86,5.44-12.83,13.12-15.34,20.48-6.69,32.14-23.08,42.63-41.42-14.54-7.17-26.8,1.73-39.59,2,2.47-13.21,14.52-13.37,22.65-14.46C934,1007.62,960.12,1006.71,986.09,1004.81Z" transform="translate(-3.37 -12.18)" style="fill: #002e19"/>
    <path d="M1260.85,1004.45q5.43-13.49,10.85-27c11.83-16.71,24.41-26.94,47-18,7.94,3.13,21.75,2.3,31.84-3.9,2.49,4.39,6.67,5.2,11,5.63-.15,5.26-.29,10.54-.43,15.81-9.45,6.29-20.84,8.22-30.41,5-27.62-9.46-48.16-1.07-64.44,22.48Z" transform="translate(-3.37 -12.18)" style="fill: #262a04"/>
    <path d="M579.64,1267.77c-9,12.58-58.06,27-68.48,19.77-7-4.85-4.26-12.91-4.87-19.78,3.45-7,5.16-15.5,14.24-17.6,10.05,5.77,19.05,17,32.19,6.66C563.83,1254.79,573,1257.91,579.64,1267.77Z" transform="translate(-3.37 -12.18)" style="fill: #23491b"/>
    <path d="M728,1093c-13.75,8.62-24.57,22.39-44.73,27l30.24-71.12L726,1041.5C729.69,1058.52,706.2,1076.69,728,1093Z" transform="translate(-3.37 -12.18)" style="fill: #002e19"/>
    <path d="M552.72,1256.82c-13.14,10.35-22.14-.89-32.19-6.66,9.36-13.25,22.16-21.74,36.38-28.28l26.92-4.65c5.14,4.19,6.95,8.32-.82,11.29C569.25,1233.79,561,1245.32,552.72,1256.82Z" transform="translate(-3.37 -12.18)" style="fill: #59561e"/>
    <path d="M872.84,753.19c-21.81,4.18-43-3.11-64.54-3.81a9.55,9.55,0,0,1,1.36-2.82h-.28c3.39,5.1,8.91,7.63,13,3.78,3.85-3.58,2.17-9.85-1-14.55,9.72-14.27,21.68,5.27,31.84-2.27.42,2.68.85,5.37,1.28,8.05-5.37-3.33-11-7.41-11.33,4.13-.13,4.25-1.56,10.4,5.12,8.95,5.93-1.29,3.52-9,6.06-13.28C865.29,737.31,868.76,745.75,872.84,753.19Z" transform="translate(-3.37 -12.18)" style="fill: #f5c562"/>
    <path d="M1331,1232.56c-25.66,13.26-30.6,35.76-27.19,61.64,1.06,8,2.55,15.19-7.68,15.81-8.83.54-8.2-7.13-8.93-13.46C1284,1268.49,1306.61,1233.33,1331,1232.56Z" transform="translate(-3.37 -12.18)" style="fill: #021f00"/>
    <path d="M1203.72,1424.71c-9.13.56-13.21,7.28-16.07,14.88-5.76,15.29-16.29,21.9-31.91,20q-.33-7.14-.64-14.29l40.73-41.54Q1199.76,1414.24,1203.72,1424.71Z" transform="translate(-3.37 -12.18)" style="fill: #066a37"/>
    <path d="M583.83,1217.23l-26.92,4.65c6.53-20.77,14.35-40.68,32.88-53.5C589.2,1184.85,598.81,1202.65,583.83,1217.23Z" transform="translate(-3.37 -12.18)" style="fill: #23491b"/>
    <path d="M1503.66,1004.43c-11.22-7.84-24.26-9.21-37.11-11.2.14-3.62.29-7.24.43-10.87,17.58,5.38,36.35-9.64,54.11,4.68,6.5,5.24,9.16,9.57,8.83,17.14l-10.56.21c-1.75,0-3.51,0-5.26.06Z" transform="translate(-3.37 -12.18)" style="fill: #262a04"/>
    <path d="M1452.73,1323.76c-3.13.82-8,2.61-12.91,3.18-4.68.55-10.47,5.86-14-.17-3.32-5.7-.61-12.15,2.59-17.71,2.38-4.14,41-6.92,42-2.77,1.2,5,1.72,11.13-.1,15.63C1467.13,1329.84,1460.46,1326.55,1452.73,1323.76Z" transform="translate(-3.37 -12.18)" style="fill: #021f00"/>
    <path d="M1070.83,210c16.49-25.4,38.29-40,70-37.95-7.31,16-32.76,4.06-33.25,26.62-2.26,4.57-6.33,5.39-10.71,5.59l-26,5.72Z" transform="translate(-3.37 -12.18)" style="fill: #3c1602"/>
    <path d="M1185.62,1198.41c-13.18-4.13-26.68-2.6-40.1-2.38-1.06-8-3.16-17.7,7-19.71,14-2.77,29.12-5.53,39.84,9.22C1192.23,1191,1190.34,1195.51,1185.62,1198.41Z" transform="translate(-3.37 -12.18)" style="fill: #59561e"/>
    <path d="M1185.62,1198.41c4.72-2.9,6.61-7.4,6.77-12.87,15,3.2,23.31,13,26.25,28.23q-2.75,9.9-5.48,19.83l-2.59.06H1208c-.54-11.27-8.56-9.8-15.66-9.92l-5.69-5.7Z" transform="translate(-3.37 -12.18)" style="fill: #23491b"/>
    <path d="M869.77,1040.36c-24.32.11-43,21.76-68,19.17,19.89-23,48.16-25.25,74.43-32.48Q873,1033.71,869.77,1040.36Z" transform="translate(-3.37 -12.18)" style="fill: #002e19"/>
    <path d="M702.69,778.38c6.63-10,12.63-20.35,26.1-20,6.5.17,10.65,4.84,8.12,10.61-4.69,10.71-11.19,21.09-24.67,20.55C706.42,789.31,703.59,784.36,702.69,778.38Z" transform="translate(-3.37 -12.18)" style="fill: #002e19"/>
    <path d="M1783.22,161.3c0-3.78-.09-7.56-.13-11.34,17.49,14.41,31,31.73,37.26,54.45l-.16.17C1799.88,197.5,1788.33,182.36,1783.22,161.3Z" transform="translate(-3.37 -12.18)" style="fill: #220701"/>
    <path d="M726,1041.5l-12.47,7.29c-1.11-10.88-7.52-13.23-16.67-11.15,2.79-14.06,10.72-24.48,24.74-20.32C732.53,1020.57,732.75,1031.71,726,1041.5Z" transform="translate(-3.37 -12.18)" style="fill: #066a37"/>
    <path d="M1039.45,754.8a28.15,28.15,0,0,0,1.71-3.6c.07-.19-1.11-.83-1.71-1.26,8.19-3.34,14.15-12.26,24.37-10.53l.36.22c6.31,4.6,7.2,11.44,7.14,18.67-.62,1.75-1.23,3.51-1.85,5.26q-5.92,2-11.87,4Z" transform="translate(-3.37 -12.18)" style="fill: #fefefe"/>
    <path d="M1044.26,1086.47c-11.39-1.34-12-9.9-8.87-17.72,4.21-10.35,2.55-21.19,5-32.76,10.83,1.23,13.55,9,14.88,18l-.54,15.94c-10.37.82-10.45,8.65-10.43,16.54Z" transform="translate(-3.37 -12.18)" style="fill: #002e19"/>
    <path d="M854.53,741.57c-.43-2.68-.86-5.37-1.28-8.05,5-2.42,9.58-1.19,13.85,2l-.83-.63c12.41-.88,24.71-.42,36.72,3.32-.75,5,1.24,10.72-3.4,14.7-8.75,3.67-17.62,4.32-26.64.27-4.19-7.46-7.66-15.9-18.57-11.84Z" transform="translate(-3.37 -12.18)" style="fill: #8e6d2b"/>
    <path d="M809.38,746.56h.27L790,747.87a20.76,20.76,0,0,0-3.32-1.25c-4-6.32-7.12-12.86-4.61-20.74,10.24-3.34,19.5.11,28.64,4.44C812.78,736,813.31,741.46,809.38,746.56Z" transform="translate(-3.37 -12.18)" style="fill: #fefefe"/>
    <path d="M1234.12,149.21c-.34-11.63,12.65-8.85,16.26-16.22l15.44-5.63c4.46.37,8.4-.49,10.88-4.88l4.85-.61,5.94.74C1274.7,142.29,1255.36,147.81,1234.12,149.21Z" transform="translate(-3.37 -12.18)" style="fill: #220701"/>
    <path d="M1471.91,1245.55c5.15,2.09,19.13-9.39,13.86,8.24-3.32,11.11-1.47,25.53-14.8,34.3-9.75-15.68,5.8-29,1-42.59Z" transform="translate(-3.37 -12.18)" style="fill: #021f00"/>
    <path d="M1213.16,1233.6q2.74-9.91,5.48-19.83c10.22,19.19,20.64,38.4-5.18,53.85C1213.6,1256.28,1223.14,1244.85,1213.16,1233.6Z" transform="translate(-3.37 -12.18)" style="fill: #066a37"/>
    <path d="M1829.66,440.39c-2.71,6.06-3.08,14.5-10.81,13.59-7.13-.83-12-7-13.28-14.54-1.18-6.71,2.93-9.66,9-9.92C1822.46,429.18,1827.54,432.78,1829.66,440.39Z" transform="translate(-3.37 -12.18)" style="fill: #021f00"/>
    <path d="M574.55,1311.14c-2.4-24.39,11.45-31.94,31.65-32.9A107.27,107.27,0,0,1,574.55,1311.14Z" transform="translate(-3.37 -12.18)" style="fill: #021f00"/>
    <path d="M1039.45,754.8l18.15,12.78c-10.59,2.48-21.64-.26-32.29,4.24-6.82,2.89-15.4,4.09-17.81-7.4C1018.53,762.56,1032.45,771.08,1039.45,754.8Z" transform="translate(-3.37 -12.18)" style="fill: #5b300a"/>
    <path d="M1134.23,823.61l-5.85,5.61c-14-2.92-9.23-13.9-9.15-22.86l12.06,2Z" transform="translate(-3.37 -12.18)" style="fill: #220701"/>
    <path d="M791.58,1061.63q-4.7,2.8-9.4,5.6c-8.17-4-14.79,3.79-22.51,3.17C767.62,1057,776.73,1048.05,791.58,1061.63Z" transform="translate(-3.37 -12.18)" style="fill: #002e19"/>
    <path d="M782.08,725.88c-2.51,7.88.58,14.42,4.61,20.74-7.46-.45-16.27-.27-17-10.44C769.22,729,776.58,727.65,782.08,725.88Z" transform="translate(-3.37 -12.18)" style="fill: #8e6d2b"/>
    <path d="M1181.45,171.24c3.8-14.6,16.7-12.69,26.77-15.91C1210.32,180.61,1189.75,164.79,1181.45,171.24Z" transform="translate(-3.37 -12.18)" style="fill: #220701"/>
    <path d="M759.67,1070.4c7.72.62,14.34-7.14,22.51-3.17-7.61,12.82-19.7,14.67-32.65,14.37-.1-1.81-.21-3.62-.31-5.44,4.31-.25,8.14-1.43,10.35-5.75Z" transform="translate(-3.37 -12.18)" style="fill: #066a37"/>
    <path d="M1131.29,808.41l-12.06-2q-.45-7.82-.93-15.61l5.68-.62,10.7,11.19Z" transform="translate(-3.37 -12.18)" style="fill: #5b300a"/>
    <path d="M1069.47,763.56c.62-1.75,1.23-3.51,1.85-5.27l20.79-.74,5.62,10.73Z" transform="translate(-3.37 -12.18)" style="fill: #5b300a"/>
    <path d="M685.57,1349.63c-5.23,7-10.52,7.06-15.88.15C674.92,1342.64,680.21,1342.66,685.57,1349.63Z" transform="translate(-3.37 -12.18)" style="fill: #021f00"/>
    <path d="M1128.84,840.08c8.62,8.37,5.45,13.83-4,17.73C1123.64,851.29,1122.28,844.72,1128.84,840.08Z" transform="translate(-3.37 -12.18)" style="fill: #220701"/>
    <path d="M809.38,746.56c3.93-5.1,3.4-10.6,1.34-16.24l10.69,5.47c3.19,4.7,4.87,11,1,14.55C818.29,754.19,812.77,751.66,809.38,746.56Z" transform="translate(-3.37 -12.18)" style="fill: #8e6d2b"/>
    <path d="M1044.31,1086.5c0-7.89.06-15.72,10.43-16.54C1055.09,1078.07,1051.55,1083.54,1044.31,1086.5Z" transform="translate(-3.37 -12.18)" style="fill: #021f00"/>
    <path d="M1419.63,88.57l-27.2.36C1401.41,81.73,1410.48,82.22,1419.63,88.57Z" transform="translate(-3.37 -12.18)" style="fill: #3c1602"/>
    <path d="M606.23,1278.16c.32-7.16,4-10.65,10.84-10.57C616.66,1274.65,613.15,1278.29,606.23,1278.16Z" transform="translate(-3.37 -12.18)" style="fill: #021f00"/>
    <path d="M838.35,1179.42c1.33-6.74,2.64-13.54,10.85-5.4C846.91,1178.7,842.91,1179.67,838.35,1179.42Z" transform="translate(-3.37 -12.18)" style="fill: #021f00"/>
    <path d="M917.71,1136.11c3.3-5.64,6.84-5.95,10.64-.52C925.06,1141.33,921.52,1141.74,917.71,1136.11Z" transform="translate(-3.37 -12.18)" style="fill: #021f00"/>
    <path d="M949.4,757.6l2.11-14.47,2.37.21v15.1l-2.42.65Z" transform="translate(-3.37 -12.18)" style="fill: #8e6d2b"/>
    <path d="M790,747.87l19.64-1.31a9.78,9.78,0,0,0-1.35,2.82C801.75,754.8,795.63,754.6,790,747.87Z" transform="translate(-3.37 -12.18)" style="fill: #8e6d2b"/>
    <path d="M1124,790.13l-5.68.62q-2.49-2.85-5-5.68l.9-5.91C1120.51,779.9,1123.42,783.89,1124,790.13Z" transform="translate(-3.37 -12.18)" style="fill: #bc6523"/>
    <path d="M1213,1464.33l2.49-17.21C1219.88,1453.67,1218.94,1459.39,1213,1464.33Z" transform="translate(-3.37 -12.18)" style="fill: #066a37"/>
    <path d="M759.57,1070.41c-2.21,4.32-6,5.5-10.35,5.75C751.11,1071.21,755,1070.23,759.57,1070.41Z" transform="translate(-3.37 -12.18)" style="fill: #002e19"/>
    <path d="M1220.46,1373.21l3.39-7.16C1227.29,1370.77,1223.14,1371.61,1220.46,1373.21Z" transform="translate(-3.37 -12.18)" style="fill: #066a37"/>
    <path d="M1329.48,1371.59c-.67,2.38-1.33,4.75-2,7.13l-2-1.36,3.91-5.84Z" transform="translate(-3.37 -12.18)" style="fill: #021f00"/>
    <path d="M696.47,1038c-.19,4.49-1.71,8.07-6.15,9.64C690.44,1043.14,691.82,1039.46,696.47,1038Z" transform="translate(-3.37 -12.18)" style="fill: #066a37"/>
    <path d="M917.43,756.17c3.9-5,7.71-7.35,11.15.43Z" transform="translate(-3.37 -12.18)" style="fill: #8e6d2b"/>
    <path d="M1834.83,220.54l-.69,1.88-2-2.17,1.49-1.39Z" transform="translate(-3.37 -12.18)" style="fill: #220701"/>
    <path d="M1214.19,1442c-4.41-2.24-5.39-6.18-5-10.82Q1211.71,1436.61,1214.19,1442Z" transform="translate(-3.37 -12.18)" style="fill: #066a37"/>
    <path d="M1114.21,779.16l-.9,5.91c-3.25-.88-5-2.93-4.72-6.56Z" transform="translate(-3.37 -12.18)" style="fill: #5b300a"/>
    <path d="M1097.71,768.3c3.41,0,5.28,1.8,5.71,5.28C1099.81,773.81,1097.93,772,1097.71,768.3Z" transform="translate(-3.37 -12.18)" style="fill: #5b300a"/>
    <path d="M1451.1,89.06l-6.14-.61C1447.28,85.67,1449.33,85.78,1451.1,89.06Z" transform="translate(-3.37 -12.18)" style="fill: #3c1602"/>
    <path d="M690.19,1047.9l-4.41,5.86Z" transform="translate(-3.37 -12.18)" style="fill: #066a37"/>
    <path d="M1567.13,254.13c-1.93,3.61-3.82,3.53-5.66-.08Z" transform="translate(-3.37 -12.18)" style="fill: #220701"/>
    <path d="M590.81,1163.42c.49,1.3,1,2.59,1.48,3.89l-2.38.8A13.9,13.9,0,0,1,590.81,1163.42Z" transform="translate(-3.37 -12.18)" style="fill: #23491b"/>
    <path d="M866.27,734.92l.83.63S866.27,734.92,866.27,734.92Z" transform="translate(-3.37 -12.18)" style="fill: #f5c562"/>
    <path d="M1202.47,949.47c1.59-2.44,3.18-4.87,4.76-7.32C1205.64,944.58,1204.06,947,1202.47,949.47Z" transform="translate(-3.37 -12.18)" style="fill: #220701"/>
    <path d="M1820.35,204.41l2.08,2.36-2.24-2.19Z" transform="translate(-3.37 -12.18)" style="fill: #220701"/>
    <path d="M1208.88,1430.61q-2.27-2.62-4.5-5.26Z" transform="translate(-3.37 -12.18)" style="fill: #066a37"/>
    <path d="M1514.1,1004.45c1.75-.07,3.51-.09,5.26-.06C1517.65,1008.21,1515.89,1008.17,1514.1,1004.45Z" transform="translate(-3.37 -12.18)" style="fill: #220701"/>
    <path d="M1466.53,856.26l5.43-5.17Z" transform="translate(-3.37 -12.18)" style="fill: #021f00"/>
    <path d="M1672.66,478.09l-5.52-5.15Z" transform="translate(-3.37 -12.18)" style="fill: #021f00"/>
    <path d="M975.82,741.83l-8.79-4C970.91,736.91,973.86,738.18,975.82,741.83Z" transform="translate(-3.37 -12.18)" style="fill: #220701"/>
    <path d="M1120.17,88.19c-8.06,15.62-10.34,27.85-24.63,27.82-6.4,0-9.51-5.37-8.14-11.07C1091,90.11,1103.54,92.74,1120.17,88.19Z" transform="translate(-3.37 -12.18)" style="fill: #3c1602"/>
    <path d="M1070.82,210l-3.79,8.73-3.11-2.09,6.91-6.62Z" transform="translate(-3.37 -12.18)" style="fill: #3c1602"/>
    <path d="M891.41,1415.37c12.72-9.23,28.8-4.6,42.2-11,1.17,23,13.18,18.44,26.27,11.15,31.64-6.85,60.83-21,90.32-33.87,14.61-6.39,13.75-10.82-.81-19.73,7-10.17,29-.41,27.24-22.29,0,0,.23-.6.23-.6l5-4.78,46.61-12.33c6.55,4.54,7.11,11,2.44,16.38-16.8,19.44-25.48,45.51-47.1,61-23.71,17-35.81,48.47-64.81,58.49-18.35,6.34-35.35,12.32-48.16,29.29-6.42,8.51-16.84,17.38-29.38,15.7-27.61-3.7-51.62,6.78-75.22,19C839,1536,804.11,1526,780.58,1551.46H632.93c28.3-37.35,64.35-62.4,108.24-76.37,12.43-4,29.05-2.9,34.64-20.41l10-.82c2.15,3.84,3.78,3.48,5-.65l20.42-6.33c9.37,1.32,16.67-2.28,22.22-10.05l9.27-1.22c6.43,2.29,11.63-1.28,17-3.86l5.49-5.19c1.68-.07,3.35-.19,5-.33C878.63,1425.49,886,1422.52,891.41,1415.37Z" transform="translate(-3.37 -12.18)"/>
    <path d="M780.58,1551.46c23.53-25.43,58.4-15.5,85.61-29.64,23.6-12.26,47.61-22.74,75.22-19,12.54,1.68,23-7.19,29.38-15.7,12.81-17,29.81-22.95,48.16-29.29,29-10,41.1-41.48,64.81-58.49,21.62-15.5,30.3-41.57,47.1-61,4.67-5.4,4.11-11.84-2.43-16.38.28-1.59.53-3.19.76-4.79l20.75-7.28c14.63,70-28.26,101.63-77,134.81-33.92,23.11-70.94,40.69-103.4,66.55-21.31,17-49.49,21.47-76.25,24.24a159.21,159.21,0,0,0-54.79,16Z" transform="translate(-3.37 -12.18)" style="fill: #021f00"/>
    <path d="M1155,1470.18c7.18,5.12,8.77,14.21,2.83,18.24-28.53,19.33-48.16,51-81.69,63.21l-21.65-.29c9.27-12,29.69-12.25,31.64-32.06,9.46-4.8,16.31-12.43,21.78-21.57C1128.92,1498.32,1135.18,1471.76,1155,1470.18Z" transform="translate(-3.37 -12.18)" style="fill: #066a37"/>
    <path d="M1107.91,1497.71c-5.47,9.14-12.32,16.77-21.77,21.57-24.89,2.41-47.13,10.44-63,32l-30.64.08c32.32-23.3,64.67-46.53,100.38-64.1Z" transform="translate(-3.37 -12.18)" style="fill: #021f00"/>
    <path d="M1023.18,1551.32c15.83-21.6,38.07-29.63,63-32-2,19.81-22.38,20-31.65,32.06Z" transform="translate(-3.37 -12.18)" style="fill: #002e19"/>
    <path d="M1102.47,45.56c3.63-22.84,15.59-13.66,28.82-7.8l-28.78,7.85Z" transform="translate(-3.37 -12.18)" style="fill: #220701"/>
    <path d="M1424.46,286.77c10.75,17.4,25.42,18.73,42.26,11.11q2.47,8.14,4.93,16.28c-32.16,2.15-64.76-.3-94.73-10.38-29.6-10-56.34,4.45-84.47,1.74-5.25-.5-4.83,8.49-5.1,13.84-5.79,1.94-11.69,3.58-17.34,5.88-7.44,3-20.4.55-20.39,11.69,0,12.4,11.7,17.36,22.35,19.65,6.77,1.45,14,1.16,21,1,24.77-.63,48.33,4.49,71,14.39.71,10-12.77,6.65-12.6,18.43.15,10.64-10.19,13.76-18.26,3.82-25.42-31.32-53.22-2.3-80.17-2.86L1340.18,426c-19.94,4.23-39.18,6.07-57.94,3.74-21.15-2.62-30.11,3.76-26,26.21l-27.17-21.32c-14.51-17-34.56-24.27-54.65-30.35,7.39-23.93,22.6-33,44.19-34.68-34.88-5-68.91-13.95-102.67,2.95-13.31,6.66-28.51,16.86-34.41-9,10.48-14.29,25-25,28.74-45,2.93-15.45,21-14.17,32-20.43,29.12-16.57,55.73-40.5,92.13-38.52,22.48-.28,44.19,2.63,63.37,16.22-5.91,7.93-15.43,7.62-21.81,5-31.44-12.72-51.67,10.16-78.29,23.16,12.31,6.36,21,2.18,30.28.42,34.23-6.48,68.94-17.67,102.93-15.92C1362.44,290.17,1393.3,292.36,1424.46,286.77Z" transform="translate(-3.37 -12.18)" style="fill: #5b300a"/>
    <path d="M1063.83,739.42c-10.23-1.74-16.19,7.18-24.38,10.52l-16.17-9.41c.57-25.2,3.35-50.76-11.62-73.33-8.33-12.56-1.72-26.84,2.54-36.1,9.74-21.12,2.3-49.49,25.15-64.66-.59,13.95,1.61,28.06-3.78,41.71-2.9,7.34,1,11.68,8.44,12.45,4.8,9.59,8,22.36,18.47,25.19,18,4.83,18.09,15.09,14,30.19-1.81,6.6.23,14.33.52,21.54-8.59,5.17-5.57,14.19-6.73,21.82C1057.85,722.51,1059,730.34,1063.83,739.42Z" transform="translate(-3.37 -12.18)" style="fill: #5b300a"/>
    <path d="M1229.12,434.59q13.59,10.67,27.17,21.33c2.71,6.3,7.43,9.61,14,11,6.72,1.39,15.8,2.55,14.12,12.07-1.37,7.78-10.11,8.95-17,9.77-8.92,1.06-20.21-3.91-23.13,10.82a2,2,0,0,0,.55,3.35l-23.87-.86-6-1.7-16.82-6.92-6.52-2.9-16-.75-35.54-2.91c-5.8-13.24-17.94-6.54-27.08-9.27l-5.13-9.85c32.6-15.52,69.89.29,106.91-16.5-16.72-9.06-38-.86-43.55-22.34l-.15-10.76C1190.68,422.61,1207.46,437.88,1229.12,434.59Z" transform="translate(-3.37 -12.18)" style="fill: #262a04"/>
    <path d="M1229.12,434.59c-21.66,3.29-38.44-12-58-16.46-27.11-12.12-57.33,1.71-84.38-10.89l-.06-.06c-6.66-12.4-31.93-17.81-13.88-39.37,2-2.32,5.84-2.89,8.82-4.28,5.91,25.84,21.11,15.64,34.42,9,33.76-16.9,67.79-8,102.67-2.95-21.59,1.67-36.8,10.75-44.19,34.68C1194.56,410.32,1214.61,417.54,1229.12,434.59Z" transform="translate(-3.37 -12.18)" style="fill: #3c1602"/>
    <path d="M1171.22,428.89c5.51,21.48,26.83,13.28,43.55,22.34-37,16.79-74.31,1-106.91,16.5-18.42-2.31-26.64,15.15-40,22.69-7.12,4-12.28,11.81-22.62,11.83C1073.91,439.23,1116.41,414.91,1171.22,428.89Z" transform="translate(-3.37 -12.18)"/>
    <path d="M1297.78,275.85c-19.18-13.59-40.89-16.5-63.37-16.22,29.31-19.62,63.62-21.47,96.36-27,23.58-4,48.27-.79,72.47-.8q2.63,13.74,5.26,27.48c-10.3,0-20.7-3.45-30.33-3.43-22.82,0-49.94-10.3-64.89,19.47Z" transform="translate(-3.37 -12.18)" style="fill: #3c1602"/>
    <path d="M1113,477.58c9.14,2.73,21.28-4,27.09,9.28q-36.75,26.79-73.51,53.53l-.49-16.81s.84-.89.83-.9c9.59-1.42,9-9.2,9.49-16.36C1083.92,490.33,1098.27,483.7,1113,477.58Z" transform="translate(-3.37 -12.18)" style="fill: #59561e"/>
    <path d="M1086.69,407.24c-2.65,19.95-10.48,36.31-30,43.32-4.57,1.64-11.17,2-14.48-3.17-2.9-4.51,1.64-8,3.85-11.83,9.32-16.09,16.55-35.09,40.59-28.38Z" transform="translate(-3.37 -12.18)" style="fill: #3c1602"/>
    <path d="M1044,620.6c-7.46-.77-11.33-5.11-8.43-12.45,5.39-13.65,3.19-27.76,3.78-41.71q2.84-2.76,5.66-5.53c11.92.91,8.63-18.33,20.87-17q-8.07,33.09-16.16,66.18C1045.34,612.14,1044.7,616.38,1044,620.6Z" transform="translate(-3.37 -12.18)" style="fill: #59561e"/>
    <path d="M1065.88,543.91c-12.24-1.33-9,17.91-20.87,17-7.1-21-3.65-35.65,21.07-37.35.16,5.62.33,11.23.48,16.82A30.94,30.94,0,0,1,1065.88,543.91Z" transform="translate(-3.37 -12.18)" style="fill: #5b300a"/>
    <path d="M1076.4,506.32c-.45,7.16.1,14.94-9.49,16.36C1058.45,510,1070.08,509.81,1076.4,506.32Z" transform="translate(-3.37 -12.18)" style="fill: #5b300a"/>
    <path d="M1301,826.36c-2.48-26,6.45-49.58,14.8-73.14,3.29-9.3,6.92-18.31,9.55-28,5.12-18.78-3.48-20.06-15.43-13.73-14.76,7.82-18.08,8.05-22.58-11.75-2.79-12.24-12-31.13-36.88-32.55-16.89-1-38.91-13-52.6-30.44q49.75-9,99.54-18c2.18,16.15,9.1,32.38-3.91,48.06,23.31,1.31,37.32-7.84,46.67-26.75,8.63-17.45,19.84-17.24,33.34-4,9.44,9.23,14.33,20.15,17.78,32.52,10.2,36.64,6.46,77.86,33.13,109.1-5.64,2.37-10.61-.43-15-3.15-28-17.59-54.06-15.51-79.64,6.11-10.35,8.75-18.1,18.34-15.28,32s12.73,8.51,20.93,5C1333.65,861.76,1312.49,823.32,1301,826.36Z" transform="translate(-3.37 -12.18)" style="fill: #bc6523"/>
    <path d="M1065.88,543.91a30.94,30.94,0,0,0,.68-3.53q36.76-26.75,73.52-53.52l35.54,2.9c.82,11.37-7.67,10.05-14.2,11-21,2.91-39.9,10.35-54.56,27-12.88,2.56-24.46,11.81-18,23.73,10,18.48,2.52,35.33,2.9,52.83-.69.8-1.38,1.59-2.08,2.38l2.39-2.06c12.08.22,20.83-2.13,16.46-18.45-2.32-8.66,1.88-15.74,9.19-20.55,5,10.48,12.29,20.5,6.18,33.2,1.31,21,35.34,41.68,62.64,38.12-1.49,18.67-4.22,36.35-27.17,39-7.81.89-11.23,7.07-8.85,13.43,12.52,33.46-12.46,35-31.83,40.84-14,4.2-30.59,4.71-26.57,27.37l-20.79.74c.06-7.22-.83-14.06-7.15-18.68l6.06-20.27c1.16-7.63-1.86-16.65,6.72-21.81,5.22.1,10.78-.94,15.65.51,19.69,5.85,34.73,10.31,21.11-21.55-6.22-14.57-9.78-31.36-25.46-34.59-19.35-4-29.06-16.86-38.53-31.81Q1057.8,577,1065.88,543.91Z" transform="translate(-3.37 -12.18)" style="fill: #bc6523"/>
    <path d="M1186.53,637c-27.3,3.56-61.33-17.15-62.65-38.11l24.17,1.09c8,16.46,21.44,22,38.37,20.62,12.9,4.1,25.29,3.11,37.07-4,10.52-.21,19.44-4.71,27.67-11.09,6.49-3.28,13.87-5.54,15.41-14.5l13.76-1.36c1.15,4.15,2.23,8.37,7.67,8.18l9.19,1.75q.64,5.65,1.31,11.3l-1.08,8-99.53,18Z" transform="translate(-3.37 -12.18)" style="fill: #5b300a"/>
    <path d="M1207.57,673.74c18-3.34,31,13.38,47.18,6.4,2-.87,5.7,6.57,2.94,8.38-16,10.41-21.27,34.87-44.1,36-3.51.17-7.25,1.27-10.47.35-12.11-3.42-14.09,25.78-22.33,12-6.94-11.59-2.36-32.37.9-48.24C1184.57,674.57,1195.66,668.35,1207.57,673.74Z" transform="translate(-3.37 -12.18)" style="fill: #f5c562"/>
    <path d="M1301,826.36c11.46-3,32.62,35.4,34.46-8.69,9-5.79,17.91-9.2,26.31,1.09,5.59,8.6,5.57,17.27.27,26-39.3-4.71-69.12,20.9-102.64,34.63,1-7.5.75-14.28,10-18.52C1284,854.18,1293.75,841.1,1301,826.36Z" transform="translate(-3.37 -12.18)" style="fill: #5b300a"/>
    <path d="M1235.2,897.59c.17,6.11-.23,11.89-7.34,13.8l-7.56-.87C1224,904.64,1226.71,897.52,1235.2,897.59Z" transform="translate(-3.37 -12.18)" style="fill: #5b300a"/>
    <path d="M1244,889.55l-.25.18s-.47-1.32-.47-1.32Z" transform="translate(-3.37 -12.18)" style="fill: #5b300a"/>
    <path d="M1715,752.44l-.42,5.59c-9.08,6.84-20.19,12.05-26.78,20.9-10,13.39-33.81,15.45-30.72,39.5a37.17,37.17,0,0,0-.4,5.27q-15.2.56-15.92,16.33h0c-10.94-.16-20.19,3-27.15,12.67-7.25,10-15.91,13.82-25.9,3.26,1.33-8.32,16.42-9.07,12.23-18.42-8.72-19.48-8-43.11-26.21-58.75-9.12-7.85-17.78-10.85-28.54-9.18-13.07,2-8.24,13.69-10.2,21.67l-5.56-.46c1.19-8-1.09-15-5.19-21.62-2.42-3.72-5-7.33-7.22-11.18-3.63-6.29-16.29-10.17-9.06-19.15,5.76-7.15,14.17-.79,21.09,3.71,13.86,9,16.59-.1,17-12.12,6.13,2,12.73,9.47,18.48,1.37,5.39-7.6-2-12.73-6-18.37-19.61-28-18.46-52.59,2.83-65,7.06,23.52,25.79,22,42.1,17.68,11.66-3.08,21.94-13.29,10.57-28.75q2.88-5.58,5.77-11.14l26.19.16c9.31,19.64,20.35,37.47,42.31,44,7.41,11-11.73,29.65,8,36C1721.51,714.59,1721,731.79,1715,752.44Zm-100.7-65.74c-12.16-2.06-20.76,6.31-29.07,14.32-3.57,3.44-2.12,8.58,1.64,11.93,12,10.73,24.62,21.47,41,22.47,11.51.71,27.37-6.24,22.83-17.57C1645.18,703.94,1636.21,685.48,1614.33,686.7Z" transform="translate(-3.37 -12.18)" style="fill: #23491b"/>
    <path d="M1715,752.44c5.94-20.65,6.48-37.85-18.71-46-19.7-6.39-.56-25-8-36,0-14.87-8.2-28.75-4.91-44,19.08.28,38.15,18.38,57.24.07,1.38,9.32,5,17-1.19,27.93-12.42,21.87-19.63,44.37-3.06,70.74C1748.23,743.87,1726.19,746.34,1715,752.44Z" transform="translate(-3.37 -12.18)" style="fill: #262a04"/>
    <path d="M1529.44,790.82l5.58.45c2.84,11.21-12.14,26.13-.53,32.37,18.38,9.87,30.44,30.91,53.24,32.32,10,10.56,18.65,6.77,25.9-3.26,7-9.64,16.21-12.83,27.15-12.67-10.13,35.75-38.3,46.12-71.23,25.53-11-6.89-19.79-14.59-35.25-10.67-15.66,4-20.44-21.37-37-21.09q.53-10.42,1-20.86a19.21,19.21,0,0,1,4.83-.67C1520.71,816.69,1520.86,798.19,1529.44,790.82Z" transform="translate(-3.37 -12.18)" style="fill: #262a04"/>
    <path d="M1657.11,818.43c-3.09-24,20.73-26.11,30.72-39.5,6.59-8.85,17.7-14.06,26.78-20.9C1707.51,790.54,1688.41,810.75,1657.11,818.43Z" transform="translate(-3.37 -12.18)" style="fill: #262a04"/>
    <path d="M1498.36,812.94q-.51,10.44-1,20.86c-1.34.44-2.68.87-4,1.28l-5.34,5.08a22.41,22.41,0,0,0-5,1.17c-20.37.22-8.37-15.9-11.44-24.41C1479.61,809.2,1489.25,813,1498.36,812.94Z" transform="translate(-3.37 -12.18)" style="fill: #59561e"/>
    <path d="M1640.79,840q.74-15.76,15.92-16.33C1656.08,834.06,1650.84,839.57,1640.79,840Z" transform="translate(-3.37 -12.18)" style="fill: #262a04"/>
    <path d="M1488,840.16l5.34-5.08Z" transform="translate(-3.37 -12.18)" style="fill: #262a04"/>
    <path d="M1129.19,1317.12c-.23,1.6-.48,3.2-.76,4.79l-46.62,12.33-5,4.78s-.24.59-.23.6c-26.84,4.06-47,27.35-75.27,27.88-8,.15-18.22,9.62-23.17-1.1-5.57-12.06,9.53-12,14.5-18.22,2.09-2.61,3-6.24,4.45-9.4,1.63-.14,3.25-.36,4.86-.65,20-7.65,44.13-5.65,58.39-26.8,9.82-11.2,22.79-15.16,36.6-17.21,13.32-2.73,26.87-5.06,32.32-20.91,4.29-.35,7.92-1.83,9.88-6.17,8.3-5.93,18.79-9.34,22.2-20.87,7.7.14,9.91-7.77,15.19-11.18,7.58-.22,12.71-4.14,15.73-11.25,7.1.12,15.12-1.35,15.66,9.92-30.07,21.71-56,49.41-89.14,66.71-8.91,4.66-19.4,7.55-24.13,20.09Z" transform="translate(-3.37 -12.18)" style="fill: #066a37"/>
    <path d="M1060.39,1311.33c-14.26,21.15-38.38,19.15-58.39,26.8C1016.89,1318.45,1035.72,1308,1060.39,1311.33Z" transform="translate(-3.37 -12.18)" style="fill: #002e19"/>
    <path d="M1161.39,1246.17c-3.41,11.53-13.9,14.94-22.2,20.87,2.72-12.87-12-25.65,1.38-40.61C1146.53,1234.32,1149,1247.07,1161.39,1246.17Z" transform="translate(-3.37 -12.18)" style="fill: #002e19"/>
    <path d="M1129.31,1273.21c-5.45,15.85-19,18.18-32.32,20.91C1103.48,1280,1113.65,1272,1129.31,1273.21Z" transform="translate(-3.37 -12.18)" style="fill: #002e19"/>
    <path d="M1192.31,1223.74c-3,7.11-8.15,11-15.73,11.25-.45-8.07,3.12-13.58,10-17Z" transform="translate(-3.37 -12.18)" style="fill: #002e19"/>
    <path d="M1598.4,478.31c23.87,8.74,51.51,5.1,72.3,24.21,6,5.54,12.13,10.35,12,19.7-.19,12.1-9.82,10.51-16.87,12.68-20.23-8.35-38.22-23.36-61.58-22.49-36.12-4.5-69.94-2.43-93.34,32.72-8.12,12.2-21.15,10.88-33.43,10.63-20.61-22-25.11-21.43-37.54,4.3l-.16.19c-32.37,6.81-36.81,11.79-31.2,43.94,6.63,37.95,15,75.59,23.14,113.23,3.42,15.69,3.73,32.6,14.22,46l-1.2,5.4c-8.06-.26-11.17-6.81-16.08-12.07-14.22-15.24-8.23-34.61-11.08-51.9-6.83-41.34-30.84-77-33.22-120.33-1.16-21.11,10.16-36.76,20.83-38,30.83-3.43,37.23-21.19,36.95-47.51q12.15.3,24.34.57c14.9-5.44,30-10.47,42.73-20.68,10.19-8.7,20.26-2.76,30.36.24C1559.49,502.42,1578.77,478.11,1598.4,478.31ZM1512,519.57c.65-6.6-3.45-8-8-8.2-9-.43-17.94-.11-20.6,11.44-1.22,5.27,1.71,10,6.65,8.41C1497.93,528.72,1507.88,529.27,1512,519.57Z" transform="translate(-3.37 -12.18)" style="fill: #59561e"/>
    <path d="M1539.55,479.18c-10.1-3-20.17-8.94-30.36-.25-22.41-16.86.16-27.88,6.08-39.22,11.72-22.46,10-31.42-11.84-37.57-1.83-16-27.63-17.83-21.33-38.7,6-.31,12.45.69,16.69-5.47,32.32,3.28,63.45-4.57,94.73-11-.63,11.34,9.2,13.87,15,20.1,13.43,14.36,9,37.19-8.72,46.39-18.5,9.63-38,17.42-55.76,28.26-6.68,4.07-30.24,12.39-2,23.38C1547.65,467.32,1541.26,474.49,1539.55,479.18Z" transform="translate(-3.37 -12.18)" style="fill: #262a04"/>
    <path d="M1593.52,347c-31.28,6.39-62.41,14.24-94.73,11-.83-5.61-3.07-10.82-8.6-12.07-17.21-3.9-20.28-16.19-18.54-31.74q-2.46-8.15-4.93-16.28c23.22-8.08,43.44-2.49,64.81,9.63,9.27,5.25,24.87-1.53,38.21-2.91.3,14-10.7,19.66-14.36,28.81,10,19.83,33.88-10.09,42.94,13.36Q1595.92,346.91,1593.52,347Z" transform="translate(-3.37 -12.18)" style="fill: #23491b"/>
    <path d="M811.13,1446.88l-20.42,6.33a13.46,13.46,0,0,0-5,.65l-10,.82c-27.33,5.16-53.41,15.73-81.74,17.15-23.58,1.18-38.91,17.92-51.46,37.63-5.09,8-8.51,19-19.63,20.34-8.46,1-18.93,3.36-23.82-6.41-5.54-11.06,6.32-12.4,11.46-17.58,60.24-60.78,141.83-65.58,216.31-88.85,15.81-4.94,17.8,5.77,15.7,18.67-3.1.38-6.19.79-9.28,1.2C821,1428.48,815.93,1437.31,811.13,1446.88Z" transform="translate(-3.37 -12.18)" style="fill: #066a37"/>
    <path d="M959.88,1415.51c-13.09,7.29-25.1,11.83-26.27-11.15,3.48-16.59,20.14-15.18,27-12.7C971.18,1395.5,958.46,1407,959.88,1415.51Z" transform="translate(-3.37 -12.18)" style="fill: #021f00"/>
    <path d="M891.41,1415.37c-5.4,7.15-12.78,10.12-21.23,10.86C872.14,1411.83,883.14,1416.47,891.41,1415.37Z" transform="translate(-3.37 -12.18)" style="fill: #021f00"/>
    <path d="M865.15,1426.56l-5.49,5.19Z" transform="translate(-3.37 -12.18)" style="fill: #021f00"/>
    <path d="M1318.72,1097.46l10.48-5.68c13.32,1.73,19.37,10.23,14,22.47-2.9,6.66-8,17.35-19.61,12.88C1305.83,1120.25,1319.35,1107.54,1318.72,1097.46Z" transform="translate(-3.37 -12.18)"/>
    <path d="M764.4,1120c5.87,42.23-27.94,55.06-53.18,68-31.54,16.22-62.73,31.07-87.5,57.76-2.67,2.87-7.82,3.26-11.82,4.8,8-36.71,40.55-47.52,66.65-59.38s42.11-32.47,62.31-49.57C749,1134.78,756.57,1127.23,764.4,1120Z" transform="translate(-3.37 -12.18)" style="fill: #23491b"/>
    <path d="M801.2,1108.93c-3,7.06-7.93,10.68-15.56,9.67C787,1108.63,794,1108.63,801.2,1108.93Z" transform="translate(-3.37 -12.18)" style="fill: #23491b"/>
    <path d="M1467,982.36c-.14,3.63-.29,7.25-.43,10.87-24.63-1.46-50.38,5.61-73.11-10.36-9.34-10.37-21.48-4.09-32.26-5.86.14-5.27.28-10.55.43-15.81,18.72-22.22,37.41,3.54,45.69,8.82,17.69,11.27,32.63,4.05,48.39,6.23l11.07,6Z" transform="translate(-3.37 -12.18)" style="fill: #23491b"/>
    <path d="M1466.76,982.25l-11.07-6c.86-3.47,1.75-8.33,5.76-7.52C1468.66,970.2,1465.88,977.29,1466.76,982.25Z" transform="translate(-3.37 -12.18)" style="fill: #262a04"/>
    <path d="M1355.8,889.16c4.41,2.39,5.29,6.57,5.26,11.2C1356.73,897.93,1355.89,893.74,1355.8,889.16Z" transform="translate(-3.37 -12.18)"/>
    <path d="M1489.49,963.56l-1.6,1.13-1.3-2.54c.67-.1,1.43-.44,2-.21S1489.19,963,1489.49,963.56Z" transform="translate(-3.37 -12.18)"/>
    <path d="M1297.78,275.85l15.51-.47,121.75.16,10.59,0,.09,5.54c-6.64,3.68-13.56,6.24-21.26,5.65-31.16,5.59-62,3.4-93.57,1.78-34-1.75-68.7,9.44-102.93,15.92-9.28,1.76-18,5.94-30.28-.42,26.62-13,46.85-35.88,78.29-23.16C1282.35,283.47,1291.87,283.78,1297.78,275.85Z" transform="translate(-3.37 -12.18)" style="fill: #59561e"/>
    <path d="M1435,275.54l-121.75-.16c14.94-29.77,42.06-19.43,64.88-19.47,9.63,0,20,3.47,30.33,3.43C1419.49,260.94,1435.65,253.45,1435,275.54Z" transform="translate(-3.37 -12.18)" style="fill: #5b300a"/>
    <path d="M1445.72,281.12l-.09-5.54c7-8.27,14.88-4.58,25.34-3.22C1463.39,284.75,1453.62,279.86,1445.72,281.12Z" transform="translate(-3.37 -12.18)" style="fill: #5b300a"/>
    <path d="M1604.23,512.41c23.36-.87,41.35,14.14,61.58,22.49,3.58,8.11,8.7,15.88,10.35,24.39,2,10.18,14.83,22.41-4.53,31-7.57,3.35,2.45,12.65.69,19.44-11.11,1.55-18.47,9.49-26.28,16.65l-26.19-.16,0,.11c.11-8.13,6.19-11.81,10.67-17.24,10.51-12.7,12.84-26.48-2.77-41.39-3.41,12-7,22.94-19.07,25.68-2.73-4.48-8.53-9.72-7.7-13.31,8.15-35.4-12.8-23.23-28.69-19.54C1576.62,540,1604.52,536.27,1604.23,512.41Z" transform="translate(-3.37 -12.18)" style="fill: #021f00"/>
    <path d="M1646,626.38c7.81-7.16,15.17-15.1,26.28-16.65l11.12,16.63c-3.29,15.26,4.93,29.14,4.91,44C1666.39,663.85,1655.35,646,1646,626.38Z" transform="translate(-3.37 -12.18)" style="fill: #002e19"/>
    <path d="M1107.91,1497.71l-15-10.41c23.49-9.59,35.78-37.06,62.18-42q.32,7.17.64,14.3c-.25,3.53-.49,7.05-.74,10.58C1135.18,1471.76,1128.92,1498.32,1107.91,1497.71Z" transform="translate(-3.37 -12.18)" style="fill: #002e19"/>
    <path d="M886.24,1081.35l26.29-11.1c10.69-.61,10.63-8.55,10.49-16.56,0-1.78.08-3.57.11-5.36,7.23.26,13.66-1.33,19.5-6.4,14.15-12.29,28.85-20,47-6.64,3.43,2.52,10.22,1.15,15.19.15,6.61-1.33,14.16-7,17.46,3.65,2.82,9.08.18,16.69-6.78,24.48-16.8,18.78-40.85,22.43-60.86,34.31l-15.46.06c-11.31,1-27.33-6.55-26.83,15.91L902,1114c-17.8-2.6-33.14-.72-37.16,21.88l-10.33.07c-13.81-9.78-13.56,2.72-16,10.91l-10.26.18c-6.92,0-10.52,3.53-10.82,10.7-1.71,0-3.43.07-5.14.15-12.41-5.61-24.93,12.26-37.32-.18-6.53-15-3.26-24.37,13.5-27.16,33.28-5.53,58.77-25.37,82.11-49l10.12-.13C882.55,1085,884.41,1085,886.24,1081.35Z" transform="translate(-3.37 -12.18)"/>
    <path d="M1340.05,1009.52c45.17,10.46,91.09,3.57,136.58,6.4,10.15,26.7,9.14,27.54-31.56,26.25,15.37-16-6.52-13-7.87-12.84-42.82,6.07-86-1.43-130.36,3.43L1319,1043.2c0,1.93-.08,3.85-.13,5.78l-26,0-26.68-6.27q0-5.44,0-10.88a37.29,37.29,0,0,1,24-14.84C1306.75,1014.06,1323.43,1012,1340.05,1009.52Z" transform="translate(-3.37 -12.18)" style="fill: #5b300a"/>
    <path d="M1319,1043.2l-12.13-10.44c44.35-4.86,87.54,2.64,130.36-3.43,1.35-.2,23.24-3.11,7.87,12.84-25.45,9.94-52.25,3.94-78.27,7.12-3.82,0-7.63,0-11.45,0l-10.09.56c-1.44-5.82-5.63-7-10.63-6.81C1329.36,1036.79,1324.2,1043.74,1319,1043.2Z" transform="translate(-3.37 -12.18)" style="fill: #8e6d2b"/>
    <path d="M1319,1043.2c5.23.54,10.39-6.41,15.66-.13l.12,11.37c-8.32,7.59-13.67,5.94-15.91-5.47C1318.89,1047.05,1318.93,1045.13,1319,1043.2Z" transform="translate(-3.37 -12.18)" style="fill: #3c1602"/>
    <path d="M1266.14,1042.76l26.68,6.27c-2,13.6-9.65,7.51-16.26,5C1271.28,1052.07,1261.6,1054.51,1266.14,1042.76Z" transform="translate(-3.37 -12.18)" style="fill: #3c1602"/>
    <path d="M1334.75,1054.44l-.12-11.37c5-.19,9.19,1,10.63,6.81Z" transform="translate(-3.37 -12.18)" style="fill: #5b300a"/>
    <path d="M1355.35,1049.32c3.82,0,7.63,0,11.45,0C1363,1053.74,1359.18,1053.73,1355.35,1049.32Z" transform="translate(-3.37 -12.18)" style="fill: #5b300a"/>
    <path d="M1487.92,100.17c13.86-.34,26.73,2.65,43.06,14.55-21,4.11-33-2.13-43.46-14.14Z" transform="translate(-3.37 -12.18)" style="fill: #5b300a"/>
    <path d="M1487.52,100.58l-2.17-1.44,2.57,1Z" transform="translate(-3.37 -12.18)" style="fill: #5b300a"/>
    <path d="M1165.75,966l-1.15,2.27,1.32-2.08Z" transform="translate(-3.37 -12.18)" style="fill: #5b300a"/>
    <path d="M864.83,1135.85c4-22.6,19.36-24.48,37.16-21.88C892.35,1126.3,875.16,1124.8,864.83,1135.85Z" transform="translate(-3.37 -12.18)" style="fill: #021f00"/>
    <path d="M912.3,1113.85c-.5-22.46,15.52-14.9,26.83-15.91C935.34,1112.61,922.36,1110.58,912.3,1113.85Z" transform="translate(-3.37 -12.18)" style="fill: #021f00"/>
    <path d="M838.47,1146.83c2.47-8.19,2.22-20.69,16-10.91C851.52,1143.29,846.25,1147.05,838.47,1146.83Z" transform="translate(-3.37 -12.18)" style="fill: #021f00"/>
    <path d="M817.39,1157.71c.3-7.17,3.9-10.75,10.82-10.7C827.88,1154.14,824.36,1157.82,817.39,1157.71Z" transform="translate(-3.37 -12.18)" style="fill: #021f00"/>
    <path d="M1362.07,844.76c5.3-8.73,5.32-17.4-.28-26,9.55,1.93,13.88,10.5,19.65,17,12.1,13.72,25.62,18,41.88,8.32-6,32.12-26.78,20.46-45,16.41C1378.38,849.18,1373,843.88,1362.07,844.76Z" transform="translate(-3.37 -12.18)" style="fill: #59561e"/>
    <path d="M1340.05,1009.52c-16.62,2.46-33.3,4.54-49.83,7.52a37.29,37.29,0,0,0-24,14.84l-5.68-.35.33-27.06v0h5.48c2.45,4.85,5.49,11.56,11.39,6.5,15.23-13.06,34.61-11.32,51.72-17.43C1328.57,1002,1336.48,1004.21,1340.05,1009.52Z" transform="translate(-3.37 -12.18)" style="fill: #3c1602"/>
    <path d="M1260.84,1004.47l-.33,27.06c-6.93-.11-14.55.66-15-9.8C1245,1010.75,1250.62,1005.33,1260.84,1004.47Z" transform="translate(-3.37 -12.18)" style="fill: #262a04"/>
    <path d="M1329.44,993.51c-17.11,6.11-36.49,4.37-51.72,17.43-5.9,5.06-8.94-1.65-11.39-6.5,16.28-23.55,36.82-31.94,64.44-22.48,9.57,3.27,21,1.34,30.41-5,10.78,1.77,22.92-4.51,32.26,5.86-8.65,15-22.46,11.72-34.49,8.44C1348.28,988.4,1338.93,987.29,1329.44,993.51Z" transform="translate(-3.37 -12.18)" style="fill: #5b300a"/>
    <path d="M1442.13,499c.27,26.33-6.13,44.09-37,47.52-10.67,1.19-22,16.84-20.83,38,2.38,43.32,26.39,79,33.22,120.33,2.85,17.29-3.14,36.66,11.08,51.9,4.91,5.26,8,11.81,16.09,12.07,9.14,20.32,8.49,40.57-.4,60.76a2.89,2.89,0,0,1-3.14-1.45c1.88-19.48-1.71-37-16.75-50.41-26.67-31.24-22.93-72.46-33.13-109.1-3.45-12.37-8.34-23.29-17.78-32.52-13.5-13.2-24.71-13.41-33.34,4-9.35,18.91-23.36,28.06-46.67,26.75,13-15.68,6.09-31.91,3.91-48.06.35-2.68.71-5.34,1.07-8,17.68,10,32.49,11.61,38.74-13.73.53-2.12,4.62-3.09,5.68-5.3,10.38-21.73,38.43-33.23,34.15-63.41,10.8-.83,16.7-12.78,28.55-12.46,30.19.82,19.67-24.74,24.48-41.09,7.29-24.72-13.39-11.08-20-16.19-13.06-10.12-29.72,2-42.91-3.33-21.28-8.53-28.16,2.41-33.58,20-3.64,11.75-6.08,30-21.42,25.71-23.2-6.55-45.57,5.12-68-1.43,2.92-14.73,14.21-9.76,23.13-10.82,6.89-.82,15.63-2,17-9.77,1.68-9.52-7.4-10.68-14.12-12.07-6.52-1.35-11.24-4.66-14-11-4.16-22.46,4.8-28.84,26-26.22,18.76,2.33,38,.49,57.94-3.74L1253,391.34c27,.56,54.75-28.46,80.17,2.86,8.07,9.94,18.41,6.82,18.26-3.82-.17-11.78,13.31-8.41,12.6-18.43-22.69-9.9-46.25-15-71-14.39-7,.18-14.22.47-21-1-10.65-2.29-22.33-7.25-22.35-19.65,0-11.14,13-8.66,20.39-11.69,5.65-2.3,11.55-3.94,17.34-5.87,42.24-3.83,79.06,15.24,116.68,30.37,9.67,3.88,24,2.67,25.46,19-5.73.52-12.12-.95-15.89,5.6l-15.55.36c-3-3.89-7.29-6.21-9.36-.51-2.86,7.86,3,10.4,9.39,11.3-.06,9,7,11.06,12.86,14.74,24.11,15.19,41.79,36.75,55.79,61.83C1463.56,478,1441.14,480.13,1442.13,499Z" transform="translate(-3.37 -12.18)" style="fill: #8e6d2b"/>
    <path d="M1424.44,777.71c15,13.42,18.63,30.93,16.75,50.41l-17.87,16c-16.26,9.72-29.78,5.4-41.88-8.32-5.77-6.54-10.1-15.11-19.65-17-8.39-10.28-17.3-6.87-26.3-1.08-8.19,3.49-18.07,8.75-20.92-5s4.93-23.23,15.28-32c25.58-21.62,51.59-23.7,79.64-6.11C1413.83,777.28,1418.8,780.08,1424.44,777.71Z" transform="translate(-3.37 -12.18)" style="fill: #f5c562"/>
    <path d="M1444.33,829.57c8.89-20.19,9.54-40.44.4-60.76q.58-2.7,1.19-5.4l16,15.56,31,11.92c2.84,7.43,10.81,12.21,10.31,21.37a19.67,19.67,0,0,0-4.82.68c-9.11,0-18.75-3.74-26.81,4C1459.66,814.62,1455.06,829.2,1444.33,829.57Z" transform="translate(-3.37 -12.18)" style="fill: #066a37"/>
    <path d="M1276.7,122.48c-2.48,4.39-6.42,5.25-10.88,4.88C1268.43,123.28,1272.36,122.4,1276.7,122.48Z" transform="translate(-3.37 -12.18)" style="fill: #3c1602"/>
    <path d="M923,1053.69c.14,8,.2,16-10.49,16.56C912.44,1062.28,916,1056.81,923,1053.69Z" transform="translate(-3.37 -12.18)" style="fill: #021f00"/>
    <path d="M886.24,1081.35c-1.83,3.61-3.69,3.64-5.58.06Z" transform="translate(-3.37 -12.18)" style="fill: #021f00"/>
    <path d="M854.38,741.37c-2.54,4.27-.13,12-6.06,13.28-6.68,1.45-5.25-4.7-5.12-8.95.36-11.54,6-7.46,11.33-4.13Z" transform="translate(-3.37 -12.18)" style="fill: #8e6d2b"/>
    <path d="M1070.23,719.34l-6.06,20.27s-.36-.21-.35-.2C1059,730.34,1057.85,722.51,1070.23,719.34Z" transform="translate(-3.37 -12.18)" style="fill: #8e6d2b"/>
    <path d="M811.13,1446.88c4.8-9.57,9.91-18.4,22.22-10.05C827.8,1444.6,820.5,1448.2,811.13,1446.88Z" transform="translate(-3.37 -12.18)" style="fill: #002e19"/>
    <path d="M1076.86,1339l5-4.78Z" transform="translate(-3.37 -12.18)" style="fill: #002e19"/>
    <path d="M785.76,1453.86a13.46,13.46,0,0,1,5-.65C789.54,1457.34,787.91,1457.7,785.76,1453.86Z" transform="translate(-3.37 -12.18)" style="fill: #002e19"/>
    <path d="M1429.49,368.75c-1.47-16.34-15.79-15.13-25.46-19-37.62-15.13-74.44-34.2-116.68-30.37.27-5.36-.15-14.35,5.1-13.85,28.13,2.71,54.87-11.7,84.47-1.74,30,10.08,62.57,12.53,94.74,10.38-1.75,15.55,1.32,27.84,18.53,31.74,5.53,1.25,7.77,6.46,8.6,12.07-4.24,6.16-10.66,5.16-16.68,5.47C1464.38,363.19,1446.65,362.91,1429.49,368.75Z" transform="translate(-3.37 -12.18)" style="fill: #59561e"/>
    <path d="M1049.72,610.09c9.47,14.95,19.18,27.83,38.53,31.81,15.68,3.23,19.24,20,25.46,34.59,13.62,31.86-1.42,27.4-21.11,21.55-4.87-1.45-10.43-.41-15.65-.51-.28-7.22-2.32-14.95-.51-21.55,4.13-15.1,4-25.36-14-30.19C1052,643,1048.81,630.19,1044,620.6,1044.7,616.38,1045.34,612.14,1049.72,610.09Z" transform="translate(-3.37 -12.18)" style="fill: #8e6d2b"/>
    <path d="M1244.23,499.54c22.39,6.55,44.76-5.12,68,1.43,15.34,4.32,17.78-14,21.42-25.71,5.42-17.55,12.3-28.49,33.58-20,13.19,5.29,29.85-6.79,42.91,3.33,6.61,5.11,27.29-8.53,20,16.19-4.81,16.35,5.71,41.91-24.48,41.09-11.85-.32-17.75,11.63-28.56,12.45-18.68,11.19-30.07,30.78-45.74,45.44-10.87,10.16-20.91,19.62-34.13,25.72l-9.19-1.75c-.65-4.64-2.12-8.47-7.67-8.18q-6.87.69-13.76,1.35c7.31-13.06,31.78-19.05,15.85-41.63,14.67,2,29.66,5.46,41.8-7.35,4.39-4.63,19.63-1.87,11.31-15.13-5.07-8.08-4.66-20.84-23.19-17.77-21.71,3.6-46.38,9.94-67.56-6.17A2,2,0,0,1,1244.23,499.54Zm137.39-11c-4-7.44-8.73-15.14-18.68-15.29-14-.2-16.68,10.76-17.51,22-.53,7.12-.6,16.44,9.83,14.65C1366.55,508,1376.44,502.22,1381.62,488.56Z" transform="translate(-3.37 -12.18)" style="fill: #f59239"/>
    <path d="M1244.78,502.89c21.18,16.11,45.85,9.77,67.56,6.17,18.53-3.07,18.12,9.69,23.19,17.77,8.32,13.26-6.92,10.5-11.31,15.13-12.14,12.81-27.13,9.35-41.81,7.35l-6.52.69-3.35-5.65c3.12-3.63,1.3-4.71-2.33-4.85-24.91-17.16-52.7-17.91-81.07-15.34-16.67-1.21-34.92-7.74-44.65,14.32h0l-5.45,4.51.18,1.3c-4.43-.41-8.74-.57-10.43,5.08l-.18.16c-5.64,1.5-8.57,6.05-11.31,10.81-9.77-8.7-9.91-20.72-10.45-32.6,14.66-16.68,33.54-24.12,54.56-27,6.53-.91,15,.41,14.2-11l16,.75,6.52,2.9,16.8,6.92c1.29,3.23,3.37,3.57,6,1.7Z" transform="translate(-3.37 -12.18)" style="fill: #f5c562"/>
    <path d="M1220.91,502c-2.65,1.87-4.73,1.53-6-1.7Z" transform="translate(-3.37 -12.18)" style="fill: #f59239"/>
    <path d="M1198.09,493.41l-6.52-2.9Z" transform="translate(-3.37 -12.18)" style="fill: #8e6d2b"/>
    <path d="M1106.86,527.75c.54,11.88.68,23.9,10.45,32.6a12.25,12.25,0,0,1,.4,5.28c-7.31,4.81-11.51,11.89-9.19,20.55,4.37,16.32-4.38,18.67-16.46,18.45l-.31-.32c-.38-17.5,7.11-34.35-2.9-52.83C1082.4,539.56,1094,530.31,1106.86,527.75Z" transform="translate(-3.37 -12.18)" style="fill: #f59239"/>
    <path d="M1117.71,565.63a12.25,12.25,0,0,0-.4-5.28c2.74-4.76,5.67-9.31,11.31-10.81,1.86,10.9,11.31,16.39,16.47,25q1.47,12.72,3,25.44l-24.17-1.09C1130,586.13,1122.69,576.11,1117.71,565.63Z" transform="translate(-3.37 -12.18)" style="fill: #8e6d2b"/>
    <path d="M1092.06,604.63l-2.39,2.06c.7-.79,1.39-1.58,2.08-2.38Z" transform="translate(-3.37 -12.18)" style="fill: #f59239"/>
    <path d="M1297.19,599.52c13.22-6.1,23.26-15.56,34.13-25.72,15.67-14.66,27.06-34.25,45.74-45.44,4.29,30.19-23.76,41.69-34.14,63.42-1.06,2.21-5.15,3.18-5.68,5.3-6.25,25.34-21.06,23.71-38.74,13.73Q1297.84,605.17,1297.19,599.52Z" transform="translate(-3.37 -12.18)" style="fill: #bc6523"/>
    <path d="M1275.88,550l6.53-.69c15.94,22.58-8.53,28.57-15.84,41.63-1.54,9-8.92,11.23-15.41,14.51q-.44-14.25-.88-28.49C1252,561,1280.68,572.63,1275.88,550Z" transform="translate(-3.37 -12.18)" style="fill: #bc6523"/>
    <path d="M1148.05,599.93q-1.48-12.72-3-25.44l5-3.24c5.45-.09,10.44.72,10.79,7.88.87,17.86,12.67,27.74,25,37.3a11.71,11.71,0,0,0,.53,4.12C1169.49,622,1156.06,616.39,1148.05,599.93Z" transform="translate(-3.37 -12.18)" style="fill: #f59239"/>
    <path d="M1250.28,577q.43,14.25.88,28.49c-8.23,6.38-17.15,10.88-27.67,11.08,1-5.91,9.83-11.76.14-17.76l11.16-26.62Z" transform="translate(-3.37 -12.18)" style="fill: #f59239"/>
    <path d="M1223.63,598.77c9.69,6,.83,11.85-.14,17.76-11.78,7.13-24.17,8.12-37.07,4a11.49,11.49,0,0,1-.54-4.12c20.91-3.19.65-19.24,7.75-26.75,8.25-3.38,9.94,2,10.74,8.64C1210.49,612.2,1217.18,600.12,1223.63,598.77Z" transform="translate(-3.37 -12.18)" style="fill: #8e6d2b"/>
    <path d="M1280.33,589.59c5.55-.29,7,3.54,7.67,8.18C1282.56,598,1281.48,593.74,1280.33,589.59Z" transform="translate(-3.37 -12.18)" style="fill: #bc6523"/>
    <path d="M1604.23,512.41c.29,23.86-27.61,27.55-31.91,48.12-.19,1.81-.31,3.62-.36,5.44h-14.59c-12.63,1.73-24.63,4.94-27.36,20.36-2.37,13.33,5.09,22.09,14.58,29.7,6.8,5.45,14.78,4.76,22.46,5.87,17.6,1.66,35.74-3.8,52.83,4.43l0-.11q-2.88,5.56-5.77,11.14l-52.67,11.07c-21.29,12.44-22.44,37-2.83,65,3.94,5.64,11.36,10.77,6,18.37-5.75,8.1-12.35.67-18.48-1.37.16-9.55-.39-18.93-5.62-27.29-3.33-11.29-12.75-19.1-17-29.27-7.27-17.51-26.77-30.82-22.18-51.89,4.34-19.92-4.94-30.49-18-39.5-6.42-4.42-11-8.48-11.39-16.55,8.21.36,9-3.67,5.6-10.19,12.27.24,25.3,1.56,33.42-10.64C1534.29,510,1568.11,507.91,1604.23,512.41Z" transform="translate(-3.37 -12.18)" style="fill: #262a04"/>
    <path d="M1540.45,703.18c5.23,8.35,5.78,17.73,5.62,27.28-.41,12-3.14,21.14-17,12.12-6.92-4.5-15.33-10.86-21.09-3.71-7.23,9,5.43,12.86,9.06,19.15,2.22,3.85,4.8,7.46,7.23,11.18-13.19,1.28-21.76-7.1-27.9-17-12.47-20.06-23.48-17.31-35,.3-28.24-61.55-38.61-125.27-21.61-192.3,0,0,.16-.18.16-.17l5.47.66c-.15,8.49,1.25,16.21,9,21.18,7.26,4.66,7.5,11.24,4.76,18.89-9.75,27.24,2,78.75,21.87,94,3.07,2.35,9.24,3.9,12.19,2.3C1510.63,687.56,1525,699.3,1540.45,703.18Z" transform="translate(-3.37 -12.18)" style="fill: #002e19"/>
    <path d="M1587.73,856c-22.8-1.41-34.86-22.45-53.24-32.32-11.61-6.24,3.37-21.16.53-32.37,2-8-2.88-19.64,10.19-21.66,10.76-1.67,19.42,1.33,28.54,9.18,18.21,15.64,17.49,39.27,26.21,58.75C1604.15,846.89,1589.06,847.64,1587.73,856Z" transform="translate(-3.37 -12.18)" style="fill: #59561e"/>
    <path d="M1461.37,752.54c11.52-17.61,22.53-20.36,35-.3,6.14,9.86,14.71,18.24,27.9,17,4.09,6.59,6.37,13.66,5.18,21.62-8.59,7.37-8.74,25.87-26.26,21.45.49-9.17-7.48-13.95-10.31-21.39.63-23.3-18.12-18.35-30.56-22.58Q1461.84,760.41,1461.37,752.54Z" transform="translate(-3.37 -12.18)" style="fill: #021f00"/>
    <path d="M1614.33,686.7c21.88-1.22,30.85,17.24,36.43,31.15,4.54,11.33-11.32,18.28-22.83,17.57-16.41-1-29-11.74-41-22.47-3.76-3.35-5.21-8.49-1.64-11.93C1593.57,693,1602.17,684.64,1614.33,686.7Z" transform="translate(-3.37 -12.18)" style="fill: #59561e"/>
    <path d="M1561.41,648.43l52.67-11.07c11.37,15.46,1.09,25.67-10.57,28.75C1587.2,670.42,1568.47,672,1561.41,648.43Z" transform="translate(-3.37 -12.18)" style="fill: #59561e"/>
    <path d="M1461.37,752.54q.48,7.88.94,15.76c-.14,3.56-.27,7.12-.41,10.67l-16-15.56c-10.49-13.39-10.8-30.3-14.22-46-8.19-37.64-16.51-75.28-23.14-113.23-5.61-32.15-1.17-37.13,31.2-43.94C1422.76,627.27,1433.13,691,1461.37,752.54Z" transform="translate(-3.37 -12.18)" style="fill: #23491b"/>
    <path d="M1503.43,402.14c21.86,6.15,23.56,15.11,11.84,37.57-5.92,11.34-28.49,22.36-6.08,39.22-12.75,10.22-27.83,15.25-42.73,20.7-1.69-10.89,5.69-15.76,12.84-20.76,9.69-6.76,2.56-11.25-2-16.11,10.73-14.8,1.25-26.56-5.4-38.75,7.65-.23,13-4.05,16.15-11.22l5.39-5.39Q1498.43,404.76,1503.43,402.14Z" transform="translate(-3.37 -12.18)" style="fill: #23491b"/>
    <path d="M1477.31,462.77c4.55,4.85,11.68,9.34,2,16.1-7.15,5-14.53,9.87-12.84,20.76l-24.34-.58c-1-18.92,21.44-21.05,24.61-37Z" transform="translate(-3.37 -12.18)" style="fill: #262a04"/>
    <path d="M1445.39,560.73l-5.47-.66c12.43-25.74,16.93-26.26,37.54-4.31,3.42,6.53,2.62,10.56-5.59,10.2C1463.69,560.7,1454.74,559.62,1445.39,560.73Z" transform="translate(-3.37 -12.18)" style="fill: #23491b"/>
    <path d="M1512,519.57c-4.11,9.7-14.06,9.15-21.91,11.65-4.94,1.57-7.87-3.14-6.65-8.41,2.66-11.55,11.64-11.87,20.6-11.44C1508.54,511.59,1512.64,513,1512,519.57Z" transform="translate(-3.37 -12.18)" style="fill: #8e6d2b"/>
    <path d="M1503.43,402.14l-10,5.25c-3.9-6.74-10.36-5.5-16.37-5.68-7.33-.68-17.49,3-20.5-6.32-7.57-23.41-26.27-19.4-43-21,3.77-6.55,10.16-5.08,15.89-5.6,17.16-5.84,34.89-5.56,52.62-5.31C1475.8,384.31,1501.6,386.1,1503.43,402.14Z" transform="translate(-3.37 -12.18)" style="fill: #5b300a"/>
    <path d="M1619.88,626.33c-17.09-8.23-35.23-2.77-52.83-4.43,0-15.9-19.3-26.82-10.73-44.92l15.77,5.63c11.07,7.73,15.93,38.26,36.62,10.77,12.1-2.74,15.66-13.63,19.07-25.68,15.61,14.91,13.28,28.69,2.77,41.39C1626.07,614.52,1620,618.2,1619.88,626.33Z" transform="translate(-3.37 -12.18)" style="fill: #23491b"/>
    <path d="M1608.71,593.38c-20.69,27.49-25.55-3-36.62-10.77q-.08-8.33-.13-16.64c0-1.82.17-3.63.36-5.44,15.89-3.69,36.84-15.86,28.69,19.54C1600.18,583.66,1606,588.9,1608.71,593.38Z" transform="translate(-3.37 -12.18)"/>
    <path d="M1413.6,374.35c16.7,1.64,35.4-2.37,43,21,3,9.32,13.17,5.64,20.5,6.32a17.61,17.61,0,0,1-.44,5.17c-11.12.5-21.27,2.94-29.39,15.65l24.67,1.48c6.65,12.19,16.13,23.95,5.4,38.75-3.53-.22-7-.46-10.58-.69-14-25.08-31.68-46.64-55.79-61.83-5.85-3.68-12.92-5.71-12.86-14.74l0-10.79Z" transform="translate(-3.37 -12.18)" style="fill: #59561e"/>
    <path d="M1398.05,374.71l0,10.79c-6.41-.9-12.25-3.44-9.39-11.3C1390.76,368.5,1395.06,370.82,1398.05,374.71Z" transform="translate(-3.37 -12.18)" style="fill: #5b300a"/>
    <path d="M1461.9,779c.14-3.55.27-7.11.41-10.67,12.45,4.23,31.2-.72,30.57,22.58Z" transform="translate(-3.37 -12.18)" style="fill: #002e19"/>
    <path d="M1381.62,488.56c-5.18,13.66-15.07,19.44-26.36,21.39-10.43,1.79-10.36-7.53-9.83-14.65.83-11.27,3.54-22.23,17.51-22C1372.89,473.42,1377.6,481.12,1381.62,488.56Z" transform="translate(-3.37 -12.18)" style="fill: #f5c562"/>
    <path d="M1250.28,577l-15.49-4.81c-14.06-25.86-20.14-27.54-42.66-11.84l-10.51,5.8c-20.83-4.43-.52-10-.15-15.94-15.23,0-25.78,6.39-31.36,21.08l-5,3.24c-5.16-8.56-14.61-14-16.47-25l.18-.16c4.36.27,8.35-.3,10.43-5.08l-.18-1.3,5.45-4.51h0l44.65-14.32c28.37-2.57,56.16-1.82,81.07,15.33l2.33,4.86,3.35,5.65C1280.68,572.63,1252,561,1250.28,577Z" transform="translate(-3.37 -12.18)" style="fill: #5b300a"/>
    <path d="M1189.14,524.16l-44.65,14.32C1154.22,516.42,1172.47,523,1189.14,524.16Z" transform="translate(-3.37 -12.18)" style="fill: #f59239"/>
    <path d="M1139.23,544.3c-2.08,4.78-6.07,5.35-10.43,5.08C1130.49,543.73,1134.8,543.89,1139.23,544.3Z" transform="translate(-3.37 -12.18)" style="fill: #8e6d2b"/>
    <path d="M1272.54,544.35l-2.33-4.86C1273.84,539.64,1275.66,540.72,1272.54,544.35Z" transform="translate(-3.37 -12.18)" style="fill: #f59239"/>
    <path d="M1144.5,538.49l-5.45,4.51Z" transform="translate(-3.37 -12.18)" style="fill: #f59239"/>
    <path d="M1150.11,571.25c5.58-14.69,16.13-21.1,31.36-21.08-.37,6-20.68,11.51.15,15.94,1,9.52,4.6,17.59,12,23.58-7.1,7.5,13.16,23.55-7.75,26.74-12.31-9.56-24.11-19.44-25-37.3C1160.55,572,1155.56,571.16,1150.11,571.25Z" transform="translate(-3.37 -12.18)" style="fill: #3c1602"/>
    <path d="M1192.13,560.31c22.52-15.7,28.6-14,42.66,11.84l-11.16,26.62c-6.45,1.35-13.14,13.43-19.26-.45C1222.55,579.48,1219.75,570.76,1192.13,560.31Z" transform="translate(-3.37 -12.18)" style="fill: #3c1602"/>
    <path d="M1192.13,560.31c27.62,10.45,30.42,19.17,12.24,38-.8-6.61-2.49-12-10.74-8.64-7.41-6-11-14-12-23.57Z" transform="translate(-3.37 -12.18)" style="fill: #220701"/>
    <path d="M1445.39,560.73c9.35-1.11,18.3,0,26.48,5.23.41,8.07,5,12.13,11.39,16.55,13.09,9,22.37,19.58,18,39.5-4.59,21.07,14.91,34.38,22.18,51.89,4.23,10.17,13.65,18,17,29.27-15.47-3.87-29.82-15.61-47.25-6.12-3,1.6-9.12.05-12.19-2.3-19.85-15.2-31.62-66.71-21.87-94,2.74-7.65,2.5-14.23-4.76-18.89C1446.64,576.94,1445.24,569.22,1445.39,560.73Z" transform="translate(-3.37 -12.18)" style="fill: #021f00"/>
    <path d="M1556.32,577c-8.57,18.1,10.73,29,10.73,44.92-7.68-1.11-15.66-.42-22.46-5.87-9.49-7.61-16.95-16.37-14.58-29.7,2.73-15.42,14.73-18.63,27.35-20.36Q1556.84,571.47,1556.32,577Z" transform="translate(-3.37 -12.18)" style="fill: #8e6d2b"/>
    <path d="M1556.32,577q.53-5.51,1-11H1572q.06,8.31.13,16.64Z" transform="translate(-3.37 -12.18)" style="fill: #021f00"/>
    <path d="M1471.91,424l-24.67-1.48c8.12-12.71,18.27-15.15,29.39-15.65,2.45,4.82,6.69,5.89,11.43,5.91C1484.89,420,1479.56,423.78,1471.91,424Z" transform="translate(-3.37 -12.18)" style="fill: #5b300a"/>
    <path d="M1488.06,412.79c-4.74,0-9-1.09-11.43-5.91a17.61,17.61,0,0,0,.44-5.17c6,.18,12.47-1.06,16.37,5.68Z" transform="translate(-3.37 -12.18)" style="fill: #262a04"/>
  </g>
</svg>
